<svg xmlns="http://www.w3.org/2000/svg" viewBox="0 0 355 192.08"><defs><style>.cls-1{isolation:isolate;}.cls-2,.cls-4{fill:none;stroke-linecap:round;stroke-linejoin:round;}.cls-2{stroke:#30d1ff;}.cls-3{fill:#009fdb;}.cls-4{stroke:#0f54af;stroke-width:0.75px;}.cls-5{fill:#0a6ebe;}.cls-6{fill:#959595;}.cls-7{fill:#fff;}.cls-8{fill:#e6e6e6;mix-blend-mode:multiply;}.cls-9{fill:#d2d2d2;}.cls-10{fill:#5a5a5a;}</style></defs><title>Asset 1</title><g class="cls-1"><g id="Layer_2" data-name="Layer 2"><g id="Layer_1-2" data-name="Layer 1"><polyline class="cls-2" points="353 66 319 86 253 40 306 22 279.45 75.02 238 55 189 1 139 53 225 16 115 9 52 36 183 60 51 7 2 55"/><circle class="cls-3" cx="51.5" cy="7.5" r="2"/><circle class="cls-3" cx="2" cy="55" r="2"/><circle class="cls-3" cx="52" cy="36" r="2"/><circle class="cls-3" cx="87" cy="21" r="2"/><circle class="cls-3" cx="189" cy="2" r="2"/><circle class="cls-3" cx="225" cy="16" r="2"/><circle class="cls-3" cx="115" cy="9" r="2"/><circle class="cls-3" cx="183" cy="60" r="2"/><circle class="cls-3" cx="140" cy="53" r="2"/><circle class="cls-3" cx="238" cy="55" r="2"/><circle class="cls-3" cx="279" cy="75" r="2"/><circle class="cls-3" cx="253" cy="40" r="2"/><circle class="cls-3" cx="306" cy="22" r="2"/><circle class="cls-3" cx="353" cy="66" r="2"/><circle class="cls-3" cx="319" cy="86" r="2"/><polygon class="cls-4" points="258.5 11.5 276.5 23.5 328.5 41.5 305.5 87.5 250.5 30.5 192.5 44.5 149.5 7.5 93.5 34.5 21.5 3.5 50.5 52.5 168.5 33.5 197.5 55.5 258.5 11.5"/><circle class="cls-5" cx="148.5" cy="7.5" r="1.5"/><circle class="cls-5" cx="93.5" cy="34.5" r="1.5"/><circle class="cls-5" cx="21.5" cy="3.5" r="1.5"/><circle class="cls-5" cx="50.5" cy="52.5" r="1.5"/><circle class="cls-5" cx="168.5" cy="33.5" r="1.5"/><circle class="cls-5" cx="197.5" cy="55.5" r="1.5"/><circle class="cls-5" cx="192.5" cy="44.5" r="1.5"/><circle class="cls-5" cx="259.5" cy="11.5" r="1.5"/><circle class="cls-5" cx="250.5" cy="30.5" r="1.5"/><circle class="cls-5" cx="275.5" cy="22.5" r="1.5"/><circle class="cls-5" cx="328.5" cy="41.5" r="1.5"/><circle class="cls-5" cx="305.5" cy="87.5" r="1.5"/><rect class="cls-6" x="265.08" y="41.45" width="36.15" height="150.63"/><rect class="cls-7" x="269.92" y="46.14" width="11.72" height="3.62"/><rect class="cls-7" x="269.92" y="52.94" width="11.72" height="3.62"/><rect class="cls-7" x="269.92" y="59.73" width="11.72" height="3.62"/><rect class="cls-7" x="269.92" y="66.63" width="11.72" height="3.62"/><rect class="cls-7" x="269.92" y="73.42" width="11.72" height="3.62"/><rect class="cls-7" x="269.92" y="80.29" width="11.72" height="3.62"/><rect class="cls-7" x="269.92" y="87.09" width="11.72" height="3.62"/><rect class="cls-7" x="269.92" y="93.99" width="11.72" height="3.62"/><rect class="cls-7" x="269.92" y="100.78" width="11.72" height="3.62"/><rect class="cls-7" x="269.92" y="107.65" width="11.72" height="3.62"/><rect class="cls-7" x="269.92" y="114.44" width="11.72" height="3.62"/><rect class="cls-7" x="269.92" y="121.35" width="11.72" height="3.62"/><rect class="cls-7" x="269.92" y="128.14" width="11.72" height="3.62"/><rect class="cls-7" x="269.92" y="135.01" width="11.72" height="3.62"/><rect class="cls-7" x="269.92" y="141.8" width="11.72" height="3.62"/><rect class="cls-7" x="269.92" y="148.71" width="11.72" height="3.62"/><rect class="cls-7" x="269.92" y="155.5" width="11.72" height="3.62"/><rect class="cls-7" x="269.92" y="162.48" width="11.72" height="3.62"/><rect class="cls-7" x="269.92" y="169.35" width="11.72" height="3.62"/><rect class="cls-7" x="269.92" y="176.14" width="11.72" height="3.62"/><rect class="cls-7" x="283.74" y="46.14" width="11.72" height="3.62"/><rect class="cls-7" x="283.74" y="52.94" width="11.72" height="3.62"/><rect class="cls-7" x="283.74" y="59.73" width="11.72" height="3.62"/><rect class="cls-7" x="283.74" y="66.63" width="11.72" height="3.62"/><rect class="cls-7" x="283.74" y="73.42" width="11.72" height="3.62"/><rect class="cls-7" x="283.74" y="80.29" width="11.72" height="3.62"/><rect class="cls-7" x="283.74" y="87.09" width="11.72" height="3.62"/><rect class="cls-7" x="283.74" y="93.99" width="11.72" height="3.62"/><rect class="cls-7" x="283.74" y="100.78" width="11.72" height="3.62"/><rect class="cls-7" x="283.74" y="107.65" width="11.72" height="3.62"/><rect class="cls-7" x="283.74" y="114.44" width="11.72" height="3.62"/><rect class="cls-7" x="283.74" y="121.35" width="11.72" height="3.62"/><rect class="cls-7" x="283.74" y="128.14" width="11.72" height="3.62"/><rect class="cls-7" x="283.74" y="135.01" width="11.72" height="3.62"/><rect class="cls-7" x="283.74" y="141.8" width="11.72" height="3.62"/><rect class="cls-7" x="283.74" y="148.71" width="11.72" height="3.62"/><rect class="cls-7" x="283.74" y="155.5" width="11.72" height="3.62"/><rect class="cls-7" x="283.74" y="162.48" width="11.72" height="3.62"/><rect class="cls-7" x="283.74" y="169.35" width="11.72" height="3.62"/><rect class="cls-7" x="283.74" y="176.14" width="11.72" height="3.62"/><polygon class="cls-8" points="301.23 192.08 265.08 192.08 265.08 66.11 301.23 102.28 301.23 192.08"/><rect class="cls-6" x="214.53" y="32.21" width="17.27" height="9.18"/><rect class="cls-6" x="207.99" y="40.14" width="27.72" height="11.32"/><rect class="cls-9" x="201.71" y="49.45" width="36.15" height="142.64"/><rect class="cls-7" x="205.79" y="59.73" width="7.56" height="3.62"/><rect class="cls-7" x="205.79" y="66.63" width="7.56" height="3.62"/><rect class="cls-7" x="205.79" y="73.42" width="7.56" height="3.62"/><rect class="cls-7" x="205.79" y="80.29" width="7.56" height="3.62"/><rect class="cls-7" x="205.79" y="87.09" width="7.56" height="3.62"/><rect class="cls-7" x="205.79" y="93.99" width="7.56" height="3.62"/><rect class="cls-7" x="205.79" y="100.78" width="7.56" height="3.62"/><rect class="cls-7" x="205.79" y="107.65" width="7.56" height="3.62"/><rect class="cls-7" x="205.79" y="114.44" width="7.56" height="3.62"/><rect class="cls-7" x="205.79" y="121.35" width="7.56" height="3.62"/><rect class="cls-7" x="205.79" y="128.14" width="7.56" height="3.62"/><rect class="cls-7" x="205.79" y="135.01" width="7.56" height="3.62"/><rect class="cls-7" x="205.79" y="141.8" width="7.56" height="3.62"/><rect class="cls-7" x="205.79" y="148.71" width="7.56" height="3.62"/><rect class="cls-7" x="205.79" y="155.5" width="7.56" height="3.62"/><rect class="cls-7" x="205.79" y="162.48" width="7.56" height="3.62"/><rect class="cls-7" x="205.79" y="169.35" width="7.56" height="3.62"/><rect class="cls-7" x="205.79" y="176.14" width="7.56" height="3.62"/><rect class="cls-7" x="215.46" y="59.73" width="7.56" height="3.62"/><rect class="cls-7" x="215.46" y="66.63" width="7.56" height="3.62"/><rect class="cls-7" x="215.46" y="73.42" width="7.56" height="3.62"/><rect class="cls-7" x="215.46" y="80.29" width="7.56" height="3.62"/><rect class="cls-7" x="215.46" y="87.09" width="7.56" height="3.62"/><rect class="cls-7" x="215.46" y="93.99" width="7.56" height="3.62"/><rect class="cls-7" x="215.46" y="100.78" width="7.56" height="3.62"/><rect class="cls-7" x="215.46" y="107.65" width="7.56" height="3.62"/><rect class="cls-7" x="215.46" y="114.44" width="7.56" height="3.62"/><rect class="cls-7" x="215.46" y="121.35" width="7.56" height="3.62"/><rect class="cls-7" x="215.46" y="128.14" width="7.56" height="3.62"/><rect class="cls-7" x="215.46" y="135.01" width="7.56" height="3.62"/><rect class="cls-7" x="215.46" y="141.8" width="7.56" height="3.62"/><rect class="cls-7" x="215.46" y="148.71" width="7.56" height="3.62"/><rect class="cls-7" x="215.46" y="155.5" width="7.56" height="3.62"/><rect class="cls-7" x="215.46" y="162.48" width="7.56" height="3.62"/><rect class="cls-7" x="215.46" y="169.35" width="7.56" height="3.62"/><rect class="cls-7" x="215.46" y="176.14" width="7.56" height="3.62"/><rect class="cls-7" x="225.21" y="59.73" width="7.56" height="3.62"/><rect class="cls-7" x="211.7" y="43.38" width="5.42" height="3.62"/><rect class="cls-7" x="218.63" y="43.38" width="5.42" height="3.62"/><rect class="cls-7" x="225.61" y="43.38" width="5.42" height="3.62"/><rect class="cls-7" x="225.21" y="66.63" width="7.56" height="3.62"/><rect class="cls-7" x="225.21" y="73.42" width="7.56" height="3.62"/><rect class="cls-7" x="225.21" y="80.29" width="7.56" height="3.62"/><rect class="cls-7" x="225.21" y="87.09" width="7.56" height="3.62"/><rect class="cls-7" x="225.21" y="93.99" width="7.56" height="3.62"/><rect class="cls-7" x="225.21" y="100.78" width="7.56" height="3.62"/><rect class="cls-7" x="225.21" y="107.65" width="7.56" height="3.62"/><rect class="cls-7" x="225.21" y="114.44" width="7.56" height="3.62"/><rect class="cls-7" x="225.21" y="121.35" width="7.56" height="3.62"/><rect class="cls-7" x="225.21" y="128.14" width="7.56" height="3.62"/><rect class="cls-7" x="225.21" y="135.01" width="7.56" height="3.62"/><rect class="cls-7" x="225.21" y="141.8" width="7.56" height="3.62"/><rect class="cls-7" x="225.21" y="148.71" width="7.56" height="3.62"/><rect class="cls-7" x="225.21" y="155.5" width="7.56" height="3.62"/><rect class="cls-7" x="225.21" y="162.48" width="7.56" height="3.62"/><rect class="cls-7" x="225.21" y="169.35" width="7.56" height="3.62"/><rect class="cls-7" x="225.21" y="176.14" width="7.56" height="3.62"/><rect class="cls-7" x="216.62" y="34.43" width="5.42" height="3.62"/><rect class="cls-7" x="223.6" y="34.43" width="5.42" height="3.62"/><rect class="cls-7" x="205.79" y="52.94" width="7.56" height="3.62"/><rect class="cls-7" x="215.46" y="52.94" width="7.56" height="3.62"/><rect class="cls-7" x="225.21" y="52.94" width="7.56" height="3.62"/><rect class="cls-10" x="231.64" y="66.29" width="38.26" height="10.6"/><rect class="cls-10" x="222.84" y="74.85" width="49.81" height="117.23"/><rect class="cls-7" x="228.91" y="81.61" width="3.16" height="6.1"/><rect class="cls-7" x="237.17" y="81.61" width="3.16" height="6.1"/><rect class="cls-7" x="245.67" y="81.61" width="3.16" height="6.1"/><rect class="cls-7" x="254.17" y="81.61" width="3.16" height="6.1"/><rect class="cls-7" x="262.67" y="81.61" width="3.16" height="6.1"/><rect class="cls-7" x="228.91" y="92.43" width="3.16" height="6.1"/><rect class="cls-7" x="237.17" y="92.43" width="3.16" height="6.1"/><rect class="cls-7" x="245.67" y="92.43" width="3.16" height="6.1"/><rect class="cls-7" x="254.17" y="92.43" width="3.16" height="6.1"/><rect class="cls-7" x="262.67" y="92.43" width="3.16" height="6.1"/><rect class="cls-7" x="228.91" y="103.25" width="3.16" height="6.1"/><rect class="cls-7" x="237.17" y="103.25" width="3.16" height="6.1"/><rect class="cls-7" x="245.67" y="103.25" width="3.16" height="6.1"/><rect class="cls-7" x="254.17" y="103.25" width="3.16" height="6.1"/><rect class="cls-7" x="262.67" y="103.25" width="3.16" height="6.1"/><rect class="cls-7" x="228.91" y="114.07" width="3.16" height="6.1"/><rect class="cls-7" x="237.17" y="114.07" width="3.16" height="6.1"/><rect class="cls-7" x="245.67" y="114.07" width="3.16" height="6.1"/><rect class="cls-7" x="254.17" y="114.07" width="3.16" height="6.1"/><rect class="cls-7" x="262.67" y="114.07" width="3.16" height="6.1"/><rect class="cls-7" x="228.91" y="124.88" width="3.16" height="6.1"/><rect class="cls-7" x="237.17" y="124.88" width="3.16" height="6.1"/><rect class="cls-7" x="245.67" y="124.88" width="3.16" height="6.1"/><rect class="cls-7" x="254.17" y="124.88" width="3.16" height="6.1"/><rect class="cls-7" x="262.67" y="124.88" width="3.16" height="6.1"/><rect class="cls-7" x="228.91" y="135.7" width="3.16" height="6.1"/><rect class="cls-7" x="237.17" y="135.7" width="3.16" height="6.1"/><rect class="cls-7" x="245.67" y="135.7" width="3.16" height="6.1"/><rect class="cls-7" x="254.17" y="135.7" width="3.16" height="6.1"/><rect class="cls-7" x="262.67" y="135.7" width="3.16" height="6.1"/><rect class="cls-7" x="228.91" y="146.52" width="3.16" height="6.1"/><rect class="cls-7" x="237.17" y="146.52" width="3.16" height="6.1"/><rect class="cls-7" x="245.67" y="146.52" width="3.16" height="6.1"/><rect class="cls-7" x="254.17" y="146.52" width="3.16" height="6.1"/><rect class="cls-7" x="262.67" y="146.52" width="3.16" height="6.1"/><rect class="cls-7" x="228.91" y="157.34" width="3.16" height="6.1"/><rect class="cls-7" x="237.17" y="157.34" width="3.16" height="6.1"/><rect class="cls-7" x="245.67" y="157.34" width="3.16" height="6.1"/><rect class="cls-7" x="254.17" y="157.34" width="3.16" height="6.1"/><rect class="cls-7" x="262.67" y="157.34" width="3.16" height="6.1"/><rect class="cls-7" x="228.91" y="168.15" width="3.16" height="6.1"/><rect class="cls-7" x="237.17" y="168.15" width="3.16" height="6.1"/><rect class="cls-7" x="245.67" y="168.15" width="3.16" height="6.1"/><rect class="cls-7" x="254.17" y="168.15" width="3.16" height="6.1"/><rect class="cls-7" x="262.67" y="168.15" width="3.16" height="6.1"/><rect class="cls-7" x="228.91" y="178.97" width="3.16" height="6.1"/><rect class="cls-7" x="237.17" y="178.97" width="3.16" height="6.1"/><rect class="cls-7" x="245.67" y="178.97" width="3.16" height="6.1"/><rect class="cls-7" x="254.17" y="178.97" width="3.16" height="6.1"/><rect class="cls-7" x="262.67" y="178.97" width="3.16" height="6.1"/><rect class="cls-6" x="281.43" y="96.8" width="37.91" height="95.29"/><rect class="cls-7" x="286.21" y="102.52" width="27.67" height="2.46"/><rect class="cls-7" x="286.21" y="109.06" width="27.67" height="2.46"/><rect class="cls-7" x="286.21" y="115.6" width="27.67" height="2.46"/><rect class="cls-7" x="286.21" y="122.27" width="27.67" height="2.46"/><rect class="cls-7" x="286.21" y="128.81" width="27.67" height="2.46"/><rect class="cls-7" x="286.21" y="135.48" width="27.67" height="2.46"/><rect class="cls-7" x="286.21" y="142.02" width="27.67" height="2.46"/><rect class="cls-7" x="286.21" y="148.68" width="27.67" height="2.46"/><rect class="cls-7" x="286.21" y="155.22" width="27.67" height="2.46"/><rect class="cls-7" x="286.21" y="161.89" width="27.67" height="2.46"/><rect class="cls-7" x="286.21" y="168.43" width="27.67" height="2.46"/><rect class="cls-7" x="286.21" y="175.1" width="27.67" height="2.46"/><rect class="cls-7" x="286.21" y="181.64" width="27.67" height="2.46"/><rect class="cls-10" x="182.08" y="60.61" width="22.2" height="7.74"/><rect class="cls-6" x="175.79" y="66.23" width="30.62" height="125.85"/><rect class="cls-7" x="180.57" y="102.52" width="20.38" height="2.46"/><rect class="cls-7" x="180.57" y="109.06" width="20.38" height="2.46"/><rect class="cls-7" x="180.57" y="115.6" width="20.38" height="2.46"/><rect class="cls-7" x="180.57" y="122.27" width="20.38" height="2.46"/><rect class="cls-7" x="180.57" y="128.81" width="20.38" height="2.46"/><rect class="cls-7" x="180.57" y="135.48" width="20.38" height="2.46"/><rect class="cls-7" x="180.57" y="142.02" width="20.38" height="2.46"/><rect class="cls-7" x="180.57" y="148.68" width="20.38" height="2.46"/><rect class="cls-7" x="180.57" y="155.22" width="20.38" height="2.46"/><rect class="cls-7" x="180.57" y="161.89" width="20.38" height="2.46"/><rect class="cls-7" x="180.57" y="168.43" width="20.38" height="2.46"/><rect class="cls-7" x="180.57" y="175.1" width="20.38" height="2.46"/><rect class="cls-7" x="180.57" y="181.64" width="20.38" height="2.46"/><rect class="cls-7" x="180.57" y="89.47" width="20.38" height="2.46"/><rect class="cls-7" x="180.57" y="96.02" width="20.38" height="2.46"/><rect class="cls-7" x="180.57" y="83.03" width="20.38" height="2.46"/><rect class="cls-7" x="180.57" y="69.98" width="20.38" height="2.46"/><rect class="cls-7" x="180.57" y="76.52" width="20.38" height="2.46"/><rect class="cls-6" x="71.92" y="41.45" width="36.15" height="150.63"/><rect class="cls-7" x="91.51" y="46.14" width="11.72" height="3.62"/><rect class="cls-7" x="91.51" y="52.94" width="11.72" height="3.62"/><rect class="cls-7" x="91.51" y="59.73" width="11.72" height="3.62"/><rect class="cls-7" x="91.51" y="66.63" width="11.72" height="3.62"/><rect class="cls-7" x="91.51" y="73.42" width="11.72" height="3.62"/><rect class="cls-7" x="91.51" y="80.29" width="11.72" height="3.62"/><rect class="cls-7" x="91.51" y="87.09" width="11.72" height="3.62"/><rect class="cls-7" x="91.51" y="93.99" width="11.72" height="3.62"/><rect class="cls-7" x="91.51" y="100.78" width="11.72" height="3.62"/><rect class="cls-7" x="91.51" y="107.65" width="11.72" height="3.62"/><rect class="cls-7" x="91.51" y="114.44" width="11.72" height="3.62"/><rect class="cls-7" x="91.51" y="121.35" width="11.72" height="3.62"/><rect class="cls-7" x="91.51" y="128.14" width="11.72" height="3.62"/><rect class="cls-7" x="91.51" y="135.01" width="11.72" height="3.62"/><rect class="cls-7" x="91.51" y="141.8" width="11.72" height="3.62"/><rect class="cls-7" x="91.51" y="148.71" width="11.72" height="3.62"/><rect class="cls-7" x="91.51" y="155.5" width="11.72" height="3.62"/><rect class="cls-7" x="91.51" y="162.48" width="11.72" height="3.62"/><rect class="cls-7" x="91.51" y="169.35" width="11.72" height="3.62"/><rect class="cls-7" x="91.51" y="176.14" width="11.72" height="3.62"/><rect class="cls-7" x="77.69" y="46.14" width="11.72" height="3.62"/><rect class="cls-7" x="77.69" y="52.94" width="11.72" height="3.62"/><rect class="cls-7" x="77.69" y="59.73" width="11.72" height="3.62"/><rect class="cls-7" x="77.69" y="66.63" width="11.72" height="3.62"/><rect class="cls-7" x="77.69" y="73.42" width="11.72" height="3.62"/><rect class="cls-7" x="77.69" y="80.29" width="11.72" height="3.62"/><rect class="cls-7" x="77.69" y="87.09" width="11.72" height="3.62"/><rect class="cls-7" x="77.69" y="93.99" width="11.72" height="3.62"/><rect class="cls-7" x="77.69" y="100.78" width="11.72" height="3.62"/><rect class="cls-7" x="77.69" y="107.65" width="11.72" height="3.62"/><rect class="cls-7" x="77.69" y="114.44" width="11.72" height="3.62"/><rect class="cls-7" x="77.69" y="121.35" width="11.72" height="3.62"/><rect class="cls-7" x="77.69" y="128.14" width="11.72" height="3.62"/><rect class="cls-7" x="77.69" y="135.01" width="11.72" height="3.62"/><rect class="cls-7" x="77.69" y="141.8" width="11.72" height="3.62"/><rect class="cls-7" x="77.69" y="148.71" width="11.72" height="3.62"/><rect class="cls-7" x="77.69" y="155.5" width="11.72" height="3.62"/><rect class="cls-7" x="77.69" y="162.48" width="11.72" height="3.62"/><rect class="cls-7" x="77.69" y="169.35" width="11.72" height="3.62"/><rect class="cls-7" x="77.69" y="176.14" width="11.72" height="3.62"/><polygon class="cls-8" points="71.92 192.08 108.07 192.08 108.07 66.11 71.92 102.28 71.92 192.08"/><rect class="cls-6" x="105.34" y="32.21" width="17.27" height="9.18"/><rect class="cls-9" x="101.44" y="40.14" width="27.72" height="11.32"/><rect class="cls-6" x="99.29" y="49.45" width="36.15" height="142.64"/><rect class="cls-7" x="123.8" y="59.73" width="7.56" height="3.62"/><rect class="cls-7" x="123.8" y="66.63" width="7.56" height="3.62"/><rect class="cls-7" x="123.8" y="73.42" width="7.56" height="3.62"/><rect class="cls-7" x="123.8" y="80.29" width="7.56" height="3.62"/><rect class="cls-7" x="123.8" y="87.09" width="7.56" height="3.62"/><rect class="cls-7" x="123.8" y="93.99" width="7.56" height="3.62"/><rect class="cls-7" x="123.8" y="100.78" width="7.56" height="3.62"/><rect class="cls-7" x="123.8" y="107.65" width="7.56" height="3.62"/><rect class="cls-7" x="123.8" y="114.44" width="7.56" height="3.62"/><rect class="cls-7" x="123.8" y="121.35" width="7.56" height="3.62"/><rect class="cls-7" x="123.8" y="128.14" width="7.56" height="3.62"/><rect class="cls-7" x="123.8" y="135.01" width="7.56" height="3.62"/><rect class="cls-7" x="123.8" y="141.8" width="7.56" height="3.62"/><rect class="cls-7" x="123.8" y="148.71" width="7.56" height="3.62"/><rect class="cls-7" x="123.8" y="155.5" width="7.56" height="3.62"/><rect class="cls-7" x="123.8" y="162.48" width="7.56" height="3.62"/><rect class="cls-7" x="123.8" y="169.35" width="7.56" height="3.62"/><rect class="cls-7" x="123.8" y="176.14" width="7.56" height="3.62"/><rect class="cls-7" x="114.12" y="59.73" width="7.56" height="3.62"/><rect class="cls-7" x="114.12" y="66.63" width="7.56" height="3.62"/><rect class="cls-7" x="114.12" y="73.42" width="7.56" height="3.62"/><rect class="cls-7" x="114.12" y="80.29" width="7.56" height="3.62"/><rect class="cls-7" x="114.12" y="87.09" width="7.56" height="3.62"/><rect class="cls-7" x="114.12" y="93.99" width="7.56" height="3.62"/><rect class="cls-7" x="114.12" y="100.78" width="7.56" height="3.62"/><rect class="cls-7" x="114.12" y="107.65" width="7.56" height="3.62"/><rect class="cls-7" x="114.12" y="114.44" width="7.56" height="3.62"/><rect class="cls-7" x="114.12" y="121.35" width="7.56" height="3.62"/><rect class="cls-7" x="114.12" y="128.14" width="7.56" height="3.62"/><rect class="cls-7" x="114.12" y="135.01" width="7.56" height="3.62"/><rect class="cls-7" x="114.12" y="141.8" width="7.56" height="3.62"/><rect class="cls-7" x="114.12" y="148.71" width="7.56" height="3.62"/><rect class="cls-7" x="114.12" y="155.5" width="7.56" height="3.62"/><rect class="cls-7" x="114.12" y="162.48" width="7.56" height="3.62"/><rect class="cls-7" x="114.12" y="169.35" width="7.56" height="3.62"/><rect class="cls-7" x="114.12" y="176.14" width="7.56" height="3.62"/><rect class="cls-7" x="104.38" y="59.73" width="7.56" height="3.62"/><rect class="cls-7" x="120.03" y="43.38" width="5.42" height="3.62"/><rect class="cls-7" x="113.1" y="43.38" width="5.42" height="3.62"/><rect class="cls-7" x="106.12" y="43.38" width="5.42" height="3.62"/><rect class="cls-7" x="104.38" y="66.63" width="7.56" height="3.62"/><rect class="cls-7" x="104.38" y="73.42" width="7.56" height="3.62"/><rect class="cls-7" x="104.38" y="80.29" width="7.56" height="3.62"/><rect class="cls-7" x="104.38" y="87.09" width="7.56" height="3.62"/><rect class="cls-7" x="104.38" y="93.99" width="7.56" height="3.62"/><rect class="cls-7" x="104.38" y="100.78" width="7.56" height="3.62"/><rect class="cls-7" x="104.38" y="107.65" width="7.56" height="3.62"/><rect class="cls-7" x="104.38" y="114.44" width="7.56" height="3.62"/><rect class="cls-7" x="104.38" y="121.35" width="7.56" height="3.62"/><rect class="cls-7" x="104.38" y="128.14" width="7.56" height="3.62"/><rect class="cls-7" x="104.38" y="135.01" width="7.56" height="3.62"/><rect class="cls-7" x="104.38" y="141.8" width="7.56" height="3.62"/><rect class="cls-7" x="104.38" y="148.71" width="7.56" height="3.62"/><rect class="cls-7" x="104.38" y="155.5" width="7.56" height="3.62"/><rect class="cls-7" x="104.38" y="162.48" width="7.56" height="3.62"/><rect class="cls-7" x="104.38" y="169.35" width="7.56" height="3.62"/><rect class="cls-7" x="104.38" y="176.14" width="7.56" height="3.62"/><rect class="cls-7" x="115.11" y="34.43" width="5.42" height="3.62"/><rect class="cls-7" x="108.13" y="34.43" width="5.42" height="3.62"/><rect class="cls-7" x="123.8" y="52.94" width="7.56" height="3.62"/><rect class="cls-7" x="114.12" y="52.94" width="7.56" height="3.62"/><rect class="cls-7" x="104.38" y="52.94" width="7.56" height="3.62"/><rect class="cls-3" x="131.25" y="66.29" width="38.26" height="10.6"/><rect class="cls-3" x="128.5" y="74.85" width="49.81" height="117.23"/><rect class="cls-7" x="169.09" y="81.61" width="3.16" height="6.1"/><rect class="cls-7" x="160.82" y="81.61" width="3.16" height="6.1"/><rect class="cls-7" x="152.32" y="81.61" width="3.16" height="6.1"/><rect class="cls-7" x="143.82" y="81.61" width="3.16" height="6.1"/><rect class="cls-7" x="135.33" y="81.61" width="3.16" height="6.1"/><rect class="cls-7" x="169.09" y="92.43" width="3.16" height="6.1"/><rect class="cls-7" x="160.82" y="92.43" width="3.16" height="6.1"/><rect class="cls-7" x="152.32" y="92.43" width="3.16" height="6.1"/><rect class="cls-7" x="143.82" y="92.43" width="3.16" height="6.1"/><rect class="cls-7" x="135.33" y="92.43" width="3.16" height="6.1"/><rect class="cls-7" x="169.09" y="103.25" width="3.16" height="6.1"/><rect class="cls-7" x="160.82" y="103.25" width="3.16" height="6.1"/><rect class="cls-7" x="152.32" y="103.25" width="3.16" height="6.1"/><rect class="cls-7" x="143.82" y="103.25" width="3.16" height="6.1"/><rect class="cls-7" x="135.33" y="103.25" width="3.16" height="6.1"/><rect class="cls-7" x="169.09" y="114.07" width="3.16" height="6.1"/><rect class="cls-7" x="160.82" y="114.07" width="3.16" height="6.1"/><rect class="cls-7" x="152.32" y="114.07" width="3.16" height="6.1"/><rect class="cls-7" x="143.82" y="114.07" width="3.16" height="6.1"/><rect class="cls-7" x="135.33" y="114.07" width="3.16" height="6.1"/><rect class="cls-7" x="169.09" y="124.88" width="3.16" height="6.1"/><rect class="cls-7" x="160.82" y="124.88" width="3.16" height="6.1"/><rect class="cls-7" x="152.32" y="124.88" width="3.16" height="6.1"/><rect class="cls-7" x="143.82" y="124.88" width="3.16" height="6.1"/><rect class="cls-7" x="135.33" y="124.88" width="3.16" height="6.1"/><rect class="cls-7" x="169.09" y="135.7" width="3.16" height="6.1"/><rect class="cls-7" x="160.82" y="135.7" width="3.16" height="6.1"/><rect class="cls-7" x="152.32" y="135.7" width="3.16" height="6.1"/><rect class="cls-7" x="143.82" y="135.7" width="3.16" height="6.1"/><rect class="cls-7" x="135.33" y="135.7" width="3.16" height="6.1"/><rect class="cls-7" x="169.09" y="146.52" width="3.16" height="6.1"/><rect class="cls-7" x="160.82" y="146.52" width="3.16" height="6.1"/><rect class="cls-7" x="152.32" y="146.52" width="3.16" height="6.1"/><rect class="cls-7" x="143.82" y="146.52" width="3.16" height="6.1"/><rect class="cls-7" x="135.33" y="146.52" width="3.16" height="6.1"/><rect class="cls-7" x="169.09" y="157.34" width="3.16" height="6.1"/><rect class="cls-7" x="160.82" y="157.34" width="3.16" height="6.1"/><rect class="cls-7" x="152.32" y="157.34" width="3.16" height="6.1"/><rect class="cls-7" x="143.82" y="157.34" width="3.16" height="6.1"/><rect class="cls-7" x="135.33" y="157.34" width="3.16" height="6.1"/><rect class="cls-7" x="169.09" y="168.15" width="3.16" height="6.1"/><rect class="cls-7" x="160.82" y="168.15" width="3.16" height="6.1"/><rect class="cls-7" x="152.32" y="168.15" width="3.16" height="6.1"/><rect class="cls-7" x="143.82" y="168.15" width="3.16" height="6.1"/><rect class="cls-7" x="135.33" y="168.15" width="3.16" height="6.1"/><rect class="cls-7" x="169.09" y="178.97" width="3.16" height="6.1"/><rect class="cls-7" x="160.82" y="178.97" width="3.16" height="6.1"/><rect class="cls-7" x="152.32" y="178.97" width="3.16" height="6.1"/><rect class="cls-7" x="143.82" y="178.97" width="3.16" height="6.1"/><rect class="cls-7" x="135.33" y="178.97" width="3.16" height="6.1"/><rect class="cls-10" x="53.81" y="96.8" width="37.91" height="95.29"/><rect class="cls-7" x="59.27" y="102.52" width="27.67" height="2.46"/><rect class="cls-7" x="59.27" y="109.06" width="27.67" height="2.46"/><rect class="cls-7" x="59.27" y="115.6" width="27.67" height="2.46"/><rect class="cls-7" x="59.27" y="122.27" width="27.67" height="2.46"/><rect class="cls-7" x="59.27" y="128.81" width="27.67" height="2.46"/><rect class="cls-7" x="59.27" y="135.48" width="27.67" height="2.46"/><rect class="cls-7" x="59.27" y="142.02" width="27.67" height="2.46"/><rect class="cls-7" x="59.27" y="148.68" width="27.67" height="2.46"/><rect class="cls-7" x="59.27" y="155.22" width="27.67" height="2.46"/><rect class="cls-7" x="59.27" y="161.89" width="27.67" height="2.46"/><rect class="cls-7" x="59.27" y="168.43" width="27.67" height="2.46"/><rect class="cls-7" x="59.27" y="175.1" width="27.67" height="2.46"/><rect class="cls-7" x="59.27" y="181.64" width="27.67" height="2.46"/><rect class="cls-6" x="29.87" y="60.61" width="22.2" height="7.74"/><rect class="cls-10" x="27.74" y="66.23" width="30.62" height="125.85"/><rect class="cls-7" x="33.2" y="102.52" width="20.38" height="2.46"/><rect class="cls-7" x="33.2" y="109.06" width="20.38" height="2.46"/><rect class="cls-7" x="33.2" y="115.6" width="20.38" height="2.46"/><rect class="cls-7" x="33.2" y="122.27" width="20.38" height="2.46"/><rect class="cls-7" x="33.2" y="128.81" width="20.38" height="2.46"/><rect class="cls-7" x="33.2" y="135.48" width="20.38" height="2.46"/><rect class="cls-7" x="33.2" y="142.02" width="20.38" height="2.46"/><rect class="cls-7" x="33.2" y="148.68" width="20.38" height="2.46"/><rect class="cls-7" x="33.2" y="155.22" width="20.38" height="2.46"/><rect class="cls-7" x="33.2" y="161.89" width="20.38" height="2.46"/><rect class="cls-7" x="33.2" y="168.43" width="20.38" height="2.46"/><rect class="cls-7" x="33.2" y="175.1" width="20.38" height="2.46"/><rect class="cls-7" x="33.2" y="181.64" width="20.38" height="2.46"/><rect class="cls-7" x="33.2" y="89.47" width="20.38" height="2.46"/><rect class="cls-7" x="33.2" y="96.02" width="20.38" height="2.46"/><rect class="cls-7" x="33.2" y="83.03" width="20.38" height="2.46"/><rect class="cls-7" x="33.2" y="69.98" width="20.38" height="2.46"/><rect class="cls-7" x="33.2" y="76.52" width="20.38" height="2.46"/></g></g></g></svg>