<svg xmlns="http://www.w3.org/2000/svg" xmlns:xlink="http://www.w3.org/1999/xlink" viewBox="0 0 261.09 208.44"><defs><style>.cls-1,.cls-10,.cls-11,.cls-12,.cls-13,.cls-14,.cls-15,.cls-16,.cls-17,.cls-18,.cls-19,.cls-2,.cls-20,.cls-21,.cls-22,.cls-23,.cls-24,.cls-25,.cls-26,.cls-27,.cls-28,.cls-29,.cls-3,.cls-30,.cls-31,.cls-32,.cls-33,.cls-34,.cls-35,.cls-36,.cls-37,.cls-38,.cls-39,.cls-4,.cls-40,.cls-41,.cls-42,.cls-43,.cls-44,.cls-5,.cls-6,.cls-7,.cls-8,.cls-9{fill-rule:evenodd;}.cls-1{fill:url(#linear-gradient);}.cls-2{fill:url(#linear-gradient-2);}.cls-3{fill:url(#linear-gradient-3);}.cls-4{fill:url(#linear-gradient-4);}.cls-5{fill:url(#linear-gradient-5);}.cls-6{fill:url(#linear-gradient-6);}.cls-7{fill:url(#linear-gradient-7);}.cls-8{fill:url(#linear-gradient-8);}.cls-9{fill:url(#linear-gradient-9);}.cls-10{fill:url(#linear-gradient-10);}.cls-11{fill:url(#linear-gradient-11);}.cls-12{fill:url(#linear-gradient-12);}.cls-13{fill:url(#linear-gradient-13);}.cls-14{fill:url(#linear-gradient-14);}.cls-15{fill:url(#linear-gradient-15);}.cls-16{fill:url(#linear-gradient-16);}.cls-17{fill:url(#linear-gradient-17);}.cls-18{fill:url(#linear-gradient-18);}.cls-19{fill:url(#linear-gradient-19);}.cls-20{fill:url(#linear-gradient-20);}.cls-21{fill:url(#linear-gradient-21);}.cls-22{fill:url(#linear-gradient-22);}.cls-23{fill:url(#linear-gradient-23);}.cls-24{fill:url(#linear-gradient-24);}.cls-25{fill:url(#linear-gradient-25);}.cls-26{fill:url(#linear-gradient-26);}.cls-27{fill:url(#linear-gradient-27);}.cls-28{fill:url(#linear-gradient-28);}.cls-29{fill:url(#linear-gradient-29);}.cls-30{fill:url(#linear-gradient-30);}.cls-31{fill:url(#linear-gradient-31);}.cls-32{fill:url(#linear-gradient-32);}.cls-33{fill:url(#linear-gradient-33);}.cls-34{fill:url(#linear-gradient-34);}.cls-35{fill:url(#linear-gradient-35);}.cls-36{fill:url(#linear-gradient-36);}.cls-37{fill:url(#linear-gradient-37);}.cls-38{fill:url(#linear-gradient-38);}.cls-39{fill:url(#linear-gradient-39);}.cls-40{fill:url(#linear-gradient-40);}.cls-41{fill:url(#linear-gradient-41);}.cls-42{fill:url(#linear-gradient-42);}.cls-43{fill:url(#linear-gradient-43);}.cls-44{fill:#0f54af;}.cls-45{fill:#d2d2d2;}.cls-46{fill:#959595;}.cls-47{fill:#009fdb;}.cls-48{fill:#666;}.cls-49{fill:#333;}</style><linearGradient id="linear-gradient" x1="261.09" y1="97.91" x2="0" y2="97.91" gradientUnits="userSpaceOnUse"><stop offset="0" stop-color="#30d1ff"/><stop offset="0.22" stop-color="#18b9ed"/><stop offset="0.38" stop-color="#009fdb"/><stop offset="0.62" stop-color="#0586cb"/><stop offset="0.81" stop-color="#0a6ebe"/><stop offset="1" stop-color="#0f54af"/></linearGradient><linearGradient id="linear-gradient-2" x1="260.81" y1="97.99" x2="0.29" y2="97.99" xlink:href="#linear-gradient"/><linearGradient id="linear-gradient-3" x1="260.52" y1="98.06" x2="0.58" y2="98.06" xlink:href="#linear-gradient"/><linearGradient id="linear-gradient-4" x1="260.23" y1="98.13" x2="0.86" y2="98.13" xlink:href="#linear-gradient"/><linearGradient id="linear-gradient-5" x1="259.94" y1="98.2" x2="1.15" y2="98.2" xlink:href="#linear-gradient"/><linearGradient id="linear-gradient-6" x1="259.65" y1="98.27" x2="1.44" y2="98.27" xlink:href="#linear-gradient"/><linearGradient id="linear-gradient-7" x1="259.37" y1="98.35" x2="1.73" y2="98.35" xlink:href="#linear-gradient"/><linearGradient id="linear-gradient-8" x1="259.08" y1="98.42" x2="2.01" y2="98.42" xlink:href="#linear-gradient"/><linearGradient id="linear-gradient-9" x1="258.79" y1="98.49" x2="2.3" y2="98.49" xlink:href="#linear-gradient"/><linearGradient id="linear-gradient-10" x1="258.5" y1="98.56" x2="2.59" y2="98.56" xlink:href="#linear-gradient"/><linearGradient id="linear-gradient-11" x1="258.22" y1="98.63" x2="2.88" y2="98.63" xlink:href="#linear-gradient"/><linearGradient id="linear-gradient-12" x1="257.93" y1="98.71" x2="3.16" y2="98.71" xlink:href="#linear-gradient"/><linearGradient id="linear-gradient-13" x1="257.64" y1="98.78" x2="3.45" y2="98.78" xlink:href="#linear-gradient"/><linearGradient id="linear-gradient-14" x1="257.35" y1="98.85" x2="3.74" y2="98.85" xlink:href="#linear-gradient"/><linearGradient id="linear-gradient-15" x1="257.07" y1="98.92" x2="4.03" y2="98.92" xlink:href="#linear-gradient"/><linearGradient id="linear-gradient-16" x1="256.78" y1="98.99" x2="4.31" y2="98.99" xlink:href="#linear-gradient"/><linearGradient id="linear-gradient-17" x1="256.49" y1="99.06" x2="4.6" y2="99.06" xlink:href="#linear-gradient"/><linearGradient id="linear-gradient-18" x1="256.2" y1="99.14" x2="4.89" y2="99.14" xlink:href="#linear-gradient"/><linearGradient id="linear-gradient-19" x1="255.92" y1="99.21" x2="5.18" y2="99.21" xlink:href="#linear-gradient"/><linearGradient id="linear-gradient-20" x1="255.63" y1="99.28" x2="5.47" y2="99.28" xlink:href="#linear-gradient"/><linearGradient id="linear-gradient-21" x1="255.34" y1="99.35" x2="5.75" y2="99.35" xlink:href="#linear-gradient"/><linearGradient id="linear-gradient-22" x1="255.05" y1="99.42" x2="6.04" y2="99.42" xlink:href="#linear-gradient"/><linearGradient id="linear-gradient-23" x1="254.81" y1="99.5" x2="6.33" y2="99.5" xlink:href="#linear-gradient"/><linearGradient id="linear-gradient-24" x1="254.56" y1="99.57" x2="6.62" y2="99.57" xlink:href="#linear-gradient"/><linearGradient id="linear-gradient-25" x1="254.32" y1="99.64" x2="6.9" y2="99.64" xlink:href="#linear-gradient"/><linearGradient id="linear-gradient-26" x1="254.07" y1="99.71" x2="7.19" y2="99.71" xlink:href="#linear-gradient"/><linearGradient id="linear-gradient-27" x1="253.82" y1="99.78" x2="7.48" y2="99.78" xlink:href="#linear-gradient"/><linearGradient id="linear-gradient-28" x1="253.58" y1="99.86" x2="7.77" y2="99.86" xlink:href="#linear-gradient"/><linearGradient id="linear-gradient-29" x1="253.33" y1="99.93" x2="8.05" y2="99.93" xlink:href="#linear-gradient"/><linearGradient id="linear-gradient-30" x1="253.08" y1="100" x2="8.34" y2="100" xlink:href="#linear-gradient"/><linearGradient id="linear-gradient-31" x1="252.84" y1="100.07" x2="8.63" y2="100.07" xlink:href="#linear-gradient"/><linearGradient id="linear-gradient-32" x1="252.59" y1="100.14" x2="8.92" y2="100.14" xlink:href="#linear-gradient"/><linearGradient id="linear-gradient-33" x1="252.34" y1="100.22" x2="9.2" y2="100.22" xlink:href="#linear-gradient"/><linearGradient id="linear-gradient-34" x1="252.09" y1="100.29" x2="9.49" y2="100.29" xlink:href="#linear-gradient"/><linearGradient id="linear-gradient-35" x1="251.85" y1="100.36" x2="9.78" y2="100.36" xlink:href="#linear-gradient"/><linearGradient id="linear-gradient-36" x1="251.6" y1="100.43" x2="10.07" y2="100.43" xlink:href="#linear-gradient"/><linearGradient id="linear-gradient-37" x1="251.35" y1="100.5" x2="10.35" y2="100.5" xlink:href="#linear-gradient"/><linearGradient id="linear-gradient-38" x1="251.1" y1="100.57" x2="10.64" y2="100.57" xlink:href="#linear-gradient"/><linearGradient id="linear-gradient-39" x1="250.85" y1="100.65" x2="10.93" y2="100.65" xlink:href="#linear-gradient"/><linearGradient id="linear-gradient-40" x1="250.6" y1="100.72" x2="11.22" y2="100.72" xlink:href="#linear-gradient"/><linearGradient id="linear-gradient-41" x1="250.35" y1="100.79" x2="11.51" y2="100.79" xlink:href="#linear-gradient"/><linearGradient id="linear-gradient-42" x1="250.11" y1="100.86" x2="11.79" y2="100.86" xlink:href="#linear-gradient"/><linearGradient id="linear-gradient-43" x1="249.86" y1="100.93" x2="12.08" y2="100.93" xlink:href="#linear-gradient"/></defs><title>Asset 2</title><g id="Layer_2" data-name="Layer 2"><g id="Layer_1-2" data-name="Layer 1"><path class="cls-1" d="M130.55,0A130.58,130.58,0,0,1,243.62,195.83l-19.08-11a108.53,108.53,0,1,0-188,0l-19.08,11A130.58,130.58,0,0,1,130.55,0Z"/><path class="cls-2" d="M130.55.29A130.28,130.28,0,0,1,243.37,195.68l-18.84-10.87a108.52,108.52,0,1,0-188,0L17.72,195.68A130.29,130.29,0,0,1,130.55.29Z"/><path class="cls-3" d="M130.55.58a130,130,0,0,1,112.57,195l-18.6-10.74a108.51,108.51,0,1,0-188,0L18,195.54A130,130,0,0,1,130.55.58Z"/><path class="cls-4" d="M130.55.86A129.71,129.71,0,0,1,242.87,195.4l-18.35-10.6a108.5,108.5,0,1,0-187.94,0L18.22,195.4A129.71,129.71,0,0,1,130.55.86Z"/><path class="cls-5" d="M130.55,1.15a129.42,129.42,0,0,1,112.07,194.1l-18.11-10.46a108.48,108.48,0,1,0-187.92,0L18.47,195.25A129.42,129.42,0,0,1,130.55,1.15Z"/><path class="cls-6" d="M130.55,1.44A129.14,129.14,0,0,1,242.37,195.11L224.5,184.79a108.47,108.47,0,1,0-187.91,0L18.72,195.11A129.14,129.14,0,0,1,130.55,1.44Z"/><path class="cls-7" d="M130.55,1.73A128.84,128.84,0,0,1,242.12,195l-17.63-10.19a108.46,108.46,0,1,0-187.89,0L19,195A128.85,128.85,0,0,1,130.55,1.73Z"/><path class="cls-8" d="M130.55,2A128.56,128.56,0,0,1,241.87,194.82l-17.39-10a108.45,108.45,0,1,0-187.87,0l-17.39,10A128.56,128.56,0,0,1,130.55,2Z"/><path class="cls-9" d="M130.55,2.3A128.28,128.28,0,0,1,241.63,194.68l-17.16-9.91a108.44,108.44,0,1,0-187.85,0l-17.15,9.91A128.27,128.27,0,0,1,130.55,2.3Z"/><path class="cls-10" d="M130.55,2.59A128,128,0,0,1,241.38,194.53l-16.92-9.76a108.43,108.43,0,1,0-187.83,0l-16.91,9.76A128,128,0,0,1,130.55,2.59Z"/><path class="cls-11" d="M130.55,2.88A127.69,127.69,0,0,1,241.13,194.39l-16.68-9.63a108.42,108.42,0,1,0-187.81,0L20,194.39A127.69,127.69,0,0,1,130.55,2.88Z"/><path class="cls-12" d="M130.55,3.16A127.42,127.42,0,0,1,240.88,194.25l-16.43-9.49a108.41,108.41,0,1,0-187.8,0l-16.44,9.49A127.42,127.42,0,0,1,130.55,3.16Z"/><path class="cls-13" d="M130.55,3.45A127.12,127.12,0,0,1,240.63,194.1l-16.19-9.35a108.4,108.4,0,1,0-187.78,0l-16.2,9.35A127.12,127.12,0,0,1,130.55,3.45Z"/><path class="cls-14" d="M130.55,3.74A126.84,126.84,0,0,1,240.38,194l-15.95-9.21a108.39,108.39,0,1,0-187.77,0L20.71,194A126.84,126.84,0,0,1,130.55,3.74Z"/><path class="cls-15" d="M130.55,4A126.53,126.53,0,0,1,240.13,193.81l-15.71-9.07a108.38,108.38,0,1,0-187.75,0q-7.84,4.55-15.71,9.07A126.55,126.55,0,0,1,130.55,4Z"/><path class="cls-16" d="M130.55,4.31A126.26,126.26,0,0,1,239.88,193.67l-15.47-8.93a108.37,108.37,0,1,0-187.73,0l-15.47,8.93A126.26,126.26,0,0,1,130.55,4.31Z"/><path class="cls-17" d="M130.55,4.6A126,126,0,0,1,239.63,193.53l-15.23-8.8a108.36,108.36,0,1,0-187.71,0l-15.23,8.8A126,126,0,0,1,130.55,4.6Z"/><path class="cls-18" d="M130.55,4.89A125.68,125.68,0,0,1,239.38,193.38l-15-8.65a108.35,108.35,0,1,0-187.69,0l-15,8.65A125.68,125.68,0,0,1,130.55,4.89Z"/><path class="cls-19" d="M130.55,5.18A125.38,125.38,0,0,1,239.13,193.24l-14.74-8.52a108.34,108.34,0,1,0-187.68,0L22,193.24A125.4,125.4,0,0,1,130.55,5.18Z"/><path class="cls-20" d="M130.55,5.47A125.11,125.11,0,0,1,238.89,193.1l-14.51-8.38a108.33,108.33,0,1,0-187.66,0q-7.26,4.18-14.51,8.38A125.11,125.11,0,0,1,130.55,5.47Z"/><path class="cls-21" d="M130.55,5.75A124.83,124.83,0,0,1,238.64,193l-14.27-8.24a108.32,108.32,0,1,0-187.64,0L22.46,193A124.81,124.81,0,0,1,130.55,5.75Z"/><path class="cls-22" d="M130.55,6A124.54,124.54,0,0,1,238.39,192.81l-14-8.1a108.31,108.31,0,1,0-187.63,0l-14,8.1A124.53,124.53,0,0,1,130.55,6Z"/><path class="cls-23" d="M130.55,6.33A124.24,124.24,0,0,1,238.14,192.66l-13.79-8a108.3,108.3,0,1,0-187.61,0l-13.78,8A124.24,124.24,0,0,1,130.55,6.33Z"/><path class="cls-24" d="M130.55,6.62a124,124,0,0,1,107.34,185.9l-13.55-7.82a108.29,108.29,0,1,0-187.59,0L23.2,192.52A124,124,0,0,1,130.55,6.62Z"/><path class="cls-25" d="M130.55,6.9A123.68,123.68,0,0,1,237.64,192.38l-13.31-7.69a108.28,108.28,0,1,0-187.57,0l-13.31,7.69A123.68,123.68,0,0,1,130.55,6.9Z"/><path class="cls-26" d="M130.55,7.19a123.38,123.38,0,0,1,106.84,185l-13.07-7.54a108.27,108.27,0,1,0-187.55,0L23.7,192.23a123.38,123.38,0,0,1,106.85-185Z"/><path class="cls-27" d="M130.55,7.48A123.1,123.1,0,0,1,237.14,192.09l-12.82-7.41a108.26,108.26,0,1,0-187.54,0L24,192.09A123.1,123.1,0,0,1,130.55,7.48Z"/><path class="cls-28" d="M130.55,7.77A122.8,122.8,0,0,1,236.89,192l-12.58-7.27a108.25,108.25,0,1,0-187.52,0L24.2,192A122.81,122.81,0,0,1,130.55,7.77Z"/><path class="cls-29" d="M130.55,8.05A122.52,122.52,0,0,1,236.64,191.8l-12.34-7.13a108.24,108.24,0,1,0-187.5,0L24.45,191.8A122.52,122.52,0,0,1,130.55,8.05Z"/><path class="cls-30" d="M130.55,8.34A122.23,122.23,0,0,1,236.39,191.66l-12.1-7a108.23,108.23,0,1,0-187.49,0l-12.1,7A122.23,122.23,0,0,1,130.55,8.34Z"/><path class="cls-31" d="M130.55,8.63A121.94,121.94,0,0,1,236.14,191.51l-11.86-6.85a108.22,108.22,0,1,0-187.47,0L25,191.51A121.94,121.94,0,0,1,130.55,8.63Z"/><path class="cls-32" d="M130.55,8.92A121.65,121.65,0,0,1,235.9,191.37l-11.63-6.71a108.21,108.21,0,1,0-187.45,0L25.2,191.37A121.65,121.65,0,0,1,130.55,8.92Z"/><path class="cls-33" d="M130.55,9.2a121.38,121.38,0,0,1,105.1,182l-11.39-6.58a108.2,108.2,0,1,0-187.43,0l-11.38,6.58a121.36,121.36,0,0,1,105.1-182Z"/><path class="cls-34" d="M130.55,9.49A121.09,121.09,0,0,1,235.4,191.08l-11.15-6.43a108.19,108.19,0,1,0-187.41,0L25.7,191.08A121.07,121.07,0,0,1,130.55,9.49Z"/><path class="cls-35" d="M130.55,9.78a120.8,120.8,0,0,1,104.6,181.16l-10.9-6.3a108.18,108.18,0,1,0-187.4,0l-10.91,6.3A120.8,120.8,0,0,1,130.55,9.78Z"/><path class="cls-36" d="M130.55,10.07A120.5,120.5,0,0,1,234.9,190.79l-10.66-6.15a108.17,108.17,0,1,0-187.38,0l-10.67,6.15A120.51,120.51,0,0,1,130.55,10.07Z"/><path class="cls-37" d="M130.55,10.35a120.22,120.22,0,0,1,104.1,180.3l-10.42-6a108.16,108.16,0,1,0-187.37,0q-5.2,3-10.42,6A120.22,120.22,0,0,1,130.55,10.35Z"/><path class="cls-38" d="M130.55,10.64A119.93,119.93,0,0,1,234.4,190.51l-10.18-5.88a108.15,108.15,0,1,0-187.35,0l-10.18,5.88A119.93,119.93,0,0,1,130.55,10.64Z"/><path class="cls-39" d="M130.55,10.93a119.64,119.64,0,0,1,103.6,179.43l-9.94-5.74a108.14,108.14,0,1,0-187.33,0l-9.94,5.74A119.64,119.64,0,0,1,130.55,10.93Z"/><path class="cls-40" d="M130.55,11.22a119.34,119.34,0,0,1,103.35,179l-9.7-5.6a108.13,108.13,0,1,0-187.31,0l-9.7,5.6a119.36,119.36,0,0,1,103.36-179Z"/><path class="cls-41" d="M130.55,11.51a119.06,119.06,0,0,1,103.1,178.57l-9.46-5.47a108.12,108.12,0,1,0-187.29,0l-9.46,5.47A119.07,119.07,0,0,1,130.55,11.51Z"/><path class="cls-42" d="M130.55,11.79A118.77,118.77,0,0,1,233.4,189.93l-9.22-5.32a108.11,108.11,0,1,0-187.27,0l-9.22,5.32A118.77,118.77,0,0,1,130.55,11.79Z"/><path class="cls-43" d="M130.55,12.08A118.5,118.5,0,0,1,233.16,189.79l-9-5.19a108.1,108.1,0,1,0-187.26,0l-9,5.19A118.49,118.49,0,0,1,130.55,12.08Z"/><path class="cls-44" d="M216.84,80.73,199.49,105c-1.68-3.71-3.56-7.39-5.65-11s-4.32-7.07-6.7-10.39Z"/><circle class="cls-45" cx="130.55" cy="130.55" r="77.89"/><circle class="cls-46" cx="130.55" cy="130.55" r="63.73"/><path class="cls-47" d="M133,124.47,160.65,110a5.42,5.42,0,0,0-1.93-1.65L133,95.25a5.49,5.49,0,0,0-5,0l-25.68,13.08a5.49,5.49,0,0,0-1.91,1.63l27.59,14.51A5.49,5.49,0,0,0,133,124.47Z"/><path class="cls-48" d="M128.05,124.47,100.46,110a5.49,5.49,0,0,0-1.09,3.27v34.63a5.52,5.52,0,0,0,3,4.91l25.68,13.08a5.48,5.48,0,0,0,2.5.6V125.07A5.48,5.48,0,0,1,128.05,124.47Z"/><path class="cls-49" d="M160.65,110,133,124.47a5.47,5.47,0,0,1-2.49.6v41.38a5.47,5.47,0,0,0,2.49-.6l25.68-13.08a5.52,5.52,0,0,0,3-4.91V113.23A5.5,5.5,0,0,0,160.65,110Z"/></g></g></svg>