<svg id="Layer_1" data-name="Layer 1" xmlns="http://www.w3.org/2000/svg" xmlns:xlink="http://www.w3.org/1999/xlink" viewBox="0 0 1086.47 460.12"><defs><style>.cls-1,.cls-2,.cls-3{fill:none;}.cls-2{stroke:#009fdb;}.cls-2,.cls-3{stroke-miterlimit:10;stroke-width:3px;}.cls-3{stroke:#959595;}.cls-4{clip-path:url(#clip-path);}.cls-5{fill:#f4f9f9;}.cls-6{fill:#0f54af;}.cls-7{fill:#afafaf;}.cls-8{fill:#3b3c52;}.cls-9{fill:#0a6ebe;}.cls-10{fill:#d2d2d2;}.cls-11{fill:#edf2f2;}.cls-12{clip-path:url(#clip-path-2);}.cls-13{fill:#f7fbfc;}.cls-14{fill:#fff;}.cls-15{clip-path:url(#clip-path-3);}.cls-16{fill:#fafcfc;}.cls-17{fill:#aaa;}.cls-18{fill:#959595;}.cls-19{clip-path:url(#clip-path-4);}.cls-20{fill:#5a5a5a;}.cls-21{fill:#0b3f83;}.cls-22{fill:#18b9ed;}.cls-23{fill:#009fdb;}.cls-24{fill:#0586cb;}.cls-25{clip-path:url(#clip-path-5);}.cls-26{clip-path:url(#clip-path-6);}.cls-27{clip-path:url(#clip-path-7);}.cls-28{fill:#27293d;}.cls-29{fill:#505268;}.cls-30{clip-path:url(#clip-path-8);}.cls-31{clip-path:url(#clip-path-9);}.cls-32{clip-path:url(#clip-path-10);}.cls-33{fill:#494949;}.cls-34{fill:#fbfbfb;}.cls-35{fill:#595959;}</style><clipPath id="clip-path"><rect class="cls-1" x="3.74" y="15.09" width="195" height="210.52"/></clipPath><clipPath id="clip-path-2"><rect class="cls-1" x="224.74" y="4.79" width="195" height="220.82"/></clipPath><clipPath id="clip-path-3"><rect class="cls-1" x="445.73" y="8.48" width="195" height="217.14"/></clipPath><clipPath id="clip-path-4"><rect class="cls-1" x="666.73" width="195" height="225.61"/></clipPath><clipPath id="clip-path-5"><rect class="cls-1" x="887.72" y="5.18" width="195" height="220.44"/></clipPath><clipPath id="clip-path-6"><rect class="cls-1" x="3.74" y="253.22" width="195" height="195"/></clipPath><clipPath id="clip-path-7"><rect class="cls-1" x="224.74" y="253.22" width="195" height="195"/></clipPath><clipPath id="clip-path-8"><rect class="cls-1" x="445.73" y="253.22" width="195" height="195"/></clipPath><clipPath id="clip-path-9"><rect class="cls-1" x="666.73" y="242.22" width="195" height="206"/></clipPath><clipPath id="clip-path-10"><rect class="cls-1" x="887.73" y="239.74" width="195" height="208.47"/></clipPath></defs><title>busint-people</title><rect class="cls-2" x="1.5" y="28.37" width="199.49" height="199.49"/><rect class="cls-2" x="222.49" y="28.37" width="199.49" height="199.49"/><rect class="cls-2" x="443.49" y="28.37" width="199.49" height="199.49"/><rect class="cls-2" x="664.48" y="28.37" width="199.49" height="199.49"/><rect class="cls-2" x="885.48" y="28.37" width="199.49" height="199.49"/><rect class="cls-2" x="1.5" y="250.98" width="199.49" height="199.49"/><rect class="cls-2" x="222.49" y="250.98" width="199.49" height="199.49"/><rect class="cls-2" x="443.49" y="250.98" width="199.49" height="199.49"/><rect class="cls-2" x="664.48" y="250.98" width="199.49" height="199.49"/><rect class="cls-3" x="885.48" y="250.98" width="199.49" height="199.49"/><g class="cls-4"><path class="cls-5" d="M50,123c1.27,1.16,3.22,2.68,4.86,4.17l-3.68,4.29c-1.39-1.36-1.91-1.59-3.46-3.23Z"/><path class="cls-6" d="M98.2,148.42c.93,8.12-7.49,10.92-21.5,1.9-8.72-5.62-15.42-8.27-25.89-18.55L54.72,127C65.94,137.11,96.92,137.2,98.2,148.42Z"/><path class="cls-7" d="M37.54,110.42c.18,0,2.44-5.61,4.41-6.11l11,24.75a5.19,5.19,0,0,1-3.27.31c-.87-.32-11.91-13.88-11.8-13.87C37.14,113.62,36.88,111.64,37.54,110.42Z"/><path class="cls-8" d="M32.76,86.29a3.46,3.46,0,0,0-2.62.11,3,3,0,0,0-1.47,4.12l20,37.61A3.33,3.33,0,0,0,53,129.49a3.08,3.08,0,0,0,1.59-1.67Z"/><path class="cls-9" d="M30.14,86.4l.14-.05,22.89,43.07-.14.07a3.33,3.33,0,0,1-4.36-1.36l-20-37.61A3,3,0,0,1,30.14,86.4Z"/><path class="cls-7" d="M72.45,236.73c.85-10.37-10.13-29.29-10.13-29.29l-7.67-9.24-1.45.88-3,4.45s5.12,91.63-3.95,124.72l4.21-.32,5.92-22.18S71.88,243.62,72.45,236.73Z"/><polygon class="cls-6" points="60.49 323.22 59.55 342.8 56.76 343.57 53.79 334.26 48.55 345.86 37.6 348.92 36.81 346.04 40.88 343.11 41.62 341.12 50.48 317.35 50.56 317.41 60.49 323.22"/><polygon class="cls-7" points="55.69 322.13 45.97 340.75 41.62 341.12 46.28 328.25 50.56 317.41 55.69 322.13"/><polygon class="cls-7" points="54.65 198.2 78.69 191.48 70.8 220.91 54.65 198.2"/><polygon class="cls-6" points="53.28 332.33 55.29 351.82 52.64 353 48.31 344.25 44.88 356.5 34.51 361.17 33.28 358.43 36.88 354.93 37.31 352.87 42.51 328.02 42.6 328.06 53.28 332.33"/><path class="cls-10" d="M84.46,196.69H67.64L60.49,208l1.72,16.74L40,339.44,47.59,334s30.18-76.35,31.17-79.92c2.75-10-2.25-30.36-2.25-30.36Z"/><path class="cls-6" d="M133.88,161.47,98.3,176.19c-.12,5.08,0,13.17,0,13.17l-23.35,2.12-16.4,5.21,8.33,8.38,10.43,21.87,65.47-1.86,5.79-11.46,1.12-18C149.89,195.23,135.35,163.63,133.88,161.47Z"/><polygon class="cls-10" points="48.38 331.97 41.56 351.84 37.31 352.87 39.98 339.44 42.6 328.06 48.38 331.97"/><path class="cls-6" d="M139.29,41.06a7.28,7.28,0,0,1-10.65-1c-2.78-3.43-.71-11,2.71-13.73a8,8,0,0,1,11.24,1.18C145.38,30.9,142.72,38.29,139.29,41.06Z"/><path class="cls-6" d="M89.39,148.09c9-23.14,27.63-63.41,32.18-65,7.79-2.69,3.49,4.24,5.63,15,2.68,13.32-1.38,31-7.77,47q-8.28,4.17-16.5,8.48A92.32,92.32,0,0,0,89.39,148.09Z"/><path class="cls-7" d="M119.26,62.48c-2.38-9.55-11.42-14.74-15.4-24,2.3-.79,3.17-1.09,6.77-2.35,9.89,18.56,25.74,39.26,30.85,50.78-7.33,4.45-11.68,3.09-18.81,3.84C121.81,82.77,121.44,71.22,119.26,62.48Z"/><path class="cls-11" d="M98.31,178.94s2.27-51.7,2.18-55.33c-7.82-19.23,6.39-26,21.08-40.5,9.5-.29,10.61-1.28,15.25-4.72a38.24,38.24,0,0,1,7.05,13.49c.37,19.43-18.34,32-19.51,50.1-.43,6.49,6.85,21,12,29.18C124.83,176,98.31,178.94,98.31,178.94Z"/><path class="cls-10" d="M131.07,33.2a13.43,13.43,0,0,1-1.18,17.59C124.77,64.7,118,73,113.3,73.93a74.81,74.81,0,0,1-7.9-7.48c-.68-.25-2.13.06-3.74-.57.61-1.82.86-8.48-.89-12.72-2.09-5-2.55-10.83-2.13-12.09C109.5,38.91,120.11,34.74,131.07,33.2Z"/><path class="cls-10" d="M48.74,114.31c2.16.84,4.23,1.92,6.47,2.58a26.87,26.87,0,0,1,8.89,3.82c3.68,2.51,6,6.65,7.22,7.74l.42,4.11c-1,1-1.59-.36-1.82,1-.07,0-.12-.05-.21-.06-.9-.11-9.83-4.73-9.83-4.73L54,126s-1.52-3.45-1.15-4.76c.2,0,2.65-.55,2.93-1.07,0,0-2.62-.94-2.58-1A6.77,6.77,0,0,1,48.74,114.31Z"/><path class="cls-5" d="M71.31,128.48c1.4,1,3.51,2.28,5.32,3.57l-3.17,4.7c-1.53-1.19-2.07-1.37-3.8-2.81Z"/><path class="cls-6" d="M122.89,26.33c12.26,4.19,15.67,9.3,13.53,20.08-1.33,6.73-6.85,14.09-11.47,15.32l-1.2-8.28L98.39,44.69C98,30.19,111.15,22.31,122.89,26.33Z"/><path class="cls-10" d="M120.15,58.83l.2-8.86s1.16-4.23,4.46-3S126.05,59.61,120.15,58.83Z"/><path class="cls-6" d="M137.07,77.86,108.72,109l-6.49,33.72,8,46.64,33.28-10.42S128.56,151.16,129,148.76s14.9-56.88,14.9-56.88V89.6Z"/><path class="cls-9" d="M122.31,148.32c1.87,8-6.16,11.72-21.14,4.39-9.31-4.56-16.1-7-27.71-16l3.17-4.7C89,140.85,119.73,137.32,122.31,148.32Z"/><path class="cls-9" d="M111.72,148c4.35-2.21,10.65-30.9,14.65-40.34s11.75-16.45,16.88-17.31c1.1,1.73,3.21,8.93,1.81,17.23s-22.39,47.17-22.39,47.17C117.38,158.93,106.14,150.82,111.72,148Z"/></g><g class="cls-12"><polygon class="cls-7" points="299.28 182.26 290.02 181.47 287.45 167.43 290.87 154.73 303.07 157.39 300.11 165.44 306.21 178.66 299.28 182.26"/><path class="cls-13" d="M280.36,165.34c-2.82-3.29-4.82-3.3-8-6.32l10.1-15.58,14.33,11.66-9.38,15.39Z"/><path class="cls-6" d="M266.89,144.91l-.37-3.6-3.39-19.71,32.2-37.68,7.85,41.44L280,143.44S272.44,144.35,266.89,144.91Z"/><polygon class="cls-6" points="370.61 394.22 372.48 385.17 382.11 385.82 385.53 393.03 388.22 395.23 388.22 400.88 370.61 400.88 370.61 394.22"/><polygon class="cls-6" points="270.35 397.01 294.35 386.31 300.62 385.98 306.29 394.09 306.65 400.88 272.42 400.88 270.35 397.01"/><polygon class="cls-6" points="352.69 222.09 308.01 210.1 307.46 180.96 366.06 185.09 365.98 212.21 352.69 222.09"/><polygon class="cls-6" points="293.27 388.69 301.53 193.41 336.68 208.4 304.72 391.84 293.27 388.69"/><path class="cls-13" d="M363.34,186.87l-39.85,4a40.27,40.27,0,0,1-10.9-2.58l-2-112c7.58-3,10.21-9.59,17.55-10.71,15.56-2.38,38.1,13.44,46.49,18.56,2.62,1.59,5.2-.55,6.47.42,3.6,2.8-14.45,54.73-18.13,75.66Z"/><path class="cls-7" d="M336.68,70.26c-11.83.24-10.68-1.4-10.75-9.14-.07-5-.15-27.08-.15-27.08l20.41,6.44s1.47,25.26,1.38,28.46S346.42,70.08,336.68,70.26Z"/><path class="cls-6" d="M372.68,387.06c-1.33-13.42-39-193.65-39-193.65L372.47,198S386.05,382,384.34,387.55C380,389.64,375.58,388.48,372.68,387.06Z"/><path class="cls-14" d="M331,70.23l16.28-10.72,2.82,8.56s-10.58,11.48-10.82,12.81C338.58,79.68,331,70.23,331,70.23Z"/><path class="cls-14" d="M339.31,81s0-.06,0-.12C339.36,81,339.38,81.05,339.31,81Z"/><polygon class="cls-14" points="322.53 67.04 324.96 60.46 331.01 70.23 326.62 79.89 322.53 67.04"/><polygon class="cls-6" points="374.87 218.06 345.83 217.69 346.09 94.39 348.9 64.4 384.36 83.05 374.11 111.85 374.87 218.06"/><polygon class="cls-6" points="315.45 215.2 299.08 212.28 295.33 83.92 322.53 67.04 313.81 94.39 315.45 215.2"/><polygon class="cls-6" points="331.34 78.55 328.81 75.36 331.34 70.26 333.21 74.83 332.32 76.6 331.34 78.55"/><polygon class="cls-6" points="327.31 163.69 329.93 76.26 332.23 75.85 335.76 161.69 332.23 171.94 327.31 163.69"/><path class="cls-10" d="M334.18,65.25l-10.1-2.1-5-10.77-.3-2.55s-.17-21.46.09-24.13c.72-6.94,4.27-3.77,14.15-7a17.54,17.54,0,0,1,7.32-.74A18.09,18.09,0,0,1,350.09,22c-1.38,10.69-2.25,21.46-3.58,32.13C344.74,57.77,334.18,65.25,334.18,65.25Z"/><path class="cls-6" d="M346.08,31.11l-24.81-5.79-2.54,14.53s-1.14-18.83.84-24.79c2.72-8.19,29.48,1.72,30.33,4.94,1.1,4.32.22,15.33-1.8,23.17C348,39.4,346.08,31.11,346.08,31.11Z"/><path class="cls-6" d="M346.57,44.58l.82-7s0-19.73,1.56-18.73,2.13,1.83,2.62,5.94c.59-3.48.12-4.39.12-4.39a12.87,12.87,0,0,1,3,2.88c1.43,10.32-3.62,20.48-3.62,20.48Z"/><path class="cls-10" d="M344.87,51.56s1.87-7.71,4.17-10.06c3-3.06,5.52-.35,5.73,1.46C355.16,46.48,349.16,54.17,344.87,51.56Z"/><polygon class="cls-6" points="254.38 145.58 254.38 131.63 263.13 121.6 295.33 153.09 284.62 170.99 254.38 145.58"/><polygon class="cls-10" points="387.96 179.23 381.64 185.54 371.76 184.39 370.38 165.73 373.62 159.44 385.25 152.02 392.91 164.35 384.36 168.07 387.96 179.23"/><path class="cls-13" d="M393.45,165.83,385.83,171l-11.39-14,17.13-12,13.32,16.21C398.28,162.54,396.28,162.55,393.45,165.83Z"/><path class="cls-6" d="M416.17,145.58c-5.55-.56-13.08-1.47-13.08-1.47L369.42,119.4l14.83-36.46,35.8,39.87L416.55,142Z"/><polygon class="cls-6" points="377.44 153.64 418.96 121.6 427.92 132.34 427.92 146.29 390.94 170.99 377.44 153.64"/></g><g class="cls-15"><path class="cls-9" d="M499.12,193.8c10.55-13,41.81-50.88,42.66-50.71l-2.3-10.33-24.43,5.58L486.52,179l-3,4.94Q491.43,188.72,499.12,193.8Z"/><path class="cls-9" d="M527.39,79.47,512.66,149.2l20.49-4.28c5.93-5.24,6.93-17.62,8.59-23.13,1.52-5.07,3.8-15,3.78-18.27C545.46,96.21,527.39,79.47,527.39,79.47Z"/><polygon class="cls-6" points="497.9 315.05 500.9 309.55 510.77 309 516.61 312.18 498.88 341.4 494.38 341.07 497.9 315.05"/><polygon class="cls-6" points="507.46 317.11 509.81 308.31 519.67 308.92 522.81 315.69 507.1 342.47 500.92 342.55 507.46 317.11"/><polygon class="cls-6" points="599.86 178.01 599.79 205.1 586.5 214.98 541.88 202.99 541.34 173.88 599.86 178.01"/><polygon class="cls-6" points="477.73 206.46 578.75 182.49 564.47 225.42 485.43 230.62 474.72 214.49 477.73 206.46"/><polygon class="cls-6" points="528.75 201.34 601 186.1 599.15 215.95 593.37 227.4 523.45 232 528.75 201.34"/><polygon class="cls-6" points="477.17 207.97 502.18 207.4 508.19 311.46 497.78 313.97 473.31 218.25 477.17 207.97"/><polygon class="cls-6" points="528.75 201.34 510.29 308.29 520.74 310.65 557.53 212.83 528.75 201.34"/><path class="cls-14" d="M609.87,83.94c-1.26-1-3.85,1.16-6.44-.42-8.4-5.11-33.74-16.62-49.27-14.25-7.35,1.12-10,4.07-17.54,7L538,189.73l11.64,2.14,39.68-1.49-.35-26.59C592.62,142.89,613.48,86.73,609.87,83.94Z"/><path class="cls-7" d="M573.55,72.58c-.1,3.19-1.15,1.13-10.88,1.33-11.82.23-10.67-1.42-10.74-9.14,0-5-.14-27-.14-27l20.38,6.43S573.63,69.39,573.55,72.58Z"/><path class="cls-9" d="M613.32,82.57c5.21,24.56,4.48,74.6,4.48,74.6l-19.6-7.33c-5.08-6.08-4.19-18.46-5-24.15-.74-5.26-1.5-15.37-1-18.63C593.39,99.83,612.65,79.38,613.32,82.57Z"/><polygon class="cls-10" points="592.12 175.36 591.79 174.75 592.87 174.99 592.12 175.36"/><path class="cls-16" d="M573.27,63.16l2.82,8.55S564.61,84.17,565.3,84.63,557,73.87,557,73.87Z"/><polygon class="cls-16" points="552.62 83.52 557.01 73.87 550.96 64.11 548.54 70.68 552.62 83.52"/><polygon class="cls-9" points="574.88 68.05 574.88 192.7 602.49 218.43 603.54 111.8 612.33 82.29 574.88 68.05"/><polygon class="cls-9" points="574.88 68.05 612.33 82.29 603.54 111.8 603.2 146.41 574.88 122.41 574.88 68.05"/><polygon class="cls-9" points="598.48 146.41 603.12 154.02 602.49 218.43 574.88 192.7 574.88 68.05 612.33 82.29 599.86 111.33 598.48 146.41"/><polygon class="cls-9" points="548.54 70.68 541.72 192.36 529.33 194.43 529.67 102.56 527.39 79.47 548.54 70.68"/><polygon class="cls-9" points="557.34 73.91 559.21 78.46 558.32 80.23 557.34 82.18 554.81 79 557.34 73.91"/><polygon class="cls-9" points="558.22 175.46 553.3 167.21 555.93 79.9 558.22 79.48 561.74 165.22 558.22 175.46"/><path class="cls-10" d="M539.15,34.75c-1.17-7.09,1-3.87,9.85-9.79a17.81,17.81,0,0,1,7.08-2.73,18.58,18.58,0,0,1,10.76,1.44c1.55,11,3.58,21.9,5.15,32.86-.78,4-9.24,14.33-9.24,14.33l-10.82.35L545,62.35l-1.21-3S539.61,37.46,539.15,34.75Z"/><path class="cls-6" d="M566.11,21.72c2.27,4,4.37,15.15,4.49,23.47-1.15-3.7-5.28-11.41-5.28-11.41l-25.51,4.59L535.52,23C540.2,16.66,564.55,19,566.11,21.72Z"/><path class="cls-6" d="M573.73,45s2.26-11.44-2-21.29a13,13,0,0,0-3.77-2s.71.77,1.07,4.38c-1.6-3.93-2.44-4.6-4.21-5.18s3.53,19,3.53,19L569.46,47Z"/><path class="cls-10" d="M577.16,43.18c1.34,3.38-2.54,12.65-7.5,11.21,0,0-.23-8.15,1.41-11.11C573.22,39.44,576.47,41.44,577.16,43.18Z"/><polygon class="cls-16" points="559.91 156.11 572.21 153.87 566.16 160.96 571 170.16 557.06 172.7 559.91 156.11"/><path class="cls-9" d="M565.25,153.92c13.51-3.61,52.15-17.38,52.43-18.2l.12,21.45-8.12,7-40.27,7.32-4.67.46Q565.13,162.91,565.25,153.92Z"/><path class="cls-10" d="M540.88,165c4.38-3.5,9-6.83,10.77-7.91l9.82,1.44c.07,2.11,1.63,4.47.76,6.49-.45,1-6.76,7.72-9,8.63a7.81,7.81,0,0,1,.44,1.86c-2.2,1.61-6.86,4.05-9.58,3,0-.12.07-.25.09-.36-2.42.82-4.9,1-6.41.17,0-.24.21-3.28-.35-3.77,0,0-2,2.76-2.08,2.71a9.28,9.28,0,0,1-6.16,3.6l-.64-1c1.57-2.15,3.25-4.91,4.6-7C534,171.48,536.1,168.78,540.88,165Z"/><path class="cls-17" d="M473.49,161.76l46.25-.57a3.68,3.68,0,0,1,3,2.53l10.47,29.69c.49,1.41-.05,2.57-1.21,2.58l-46.5.45a3.6,3.6,0,0,1-3-2.52l-10.25-29.59C471.78,162.93,472.33,161.78,473.49,161.76Z"/><path class="cls-18" d="M533.21,193.41c.49,1.41-.05,2.57-1.21,2.58l-46.5.45a3.6,3.6,0,0,1-3-2.52l-.26-.72,41.91-25.43Z"/><path class="cls-18" d="M487,193.71l67-.46a3.37,3.37,0,0,1,0,6.74l-67,.46a3.37,3.37,0,0,1,0-6.74Z"/><path class="cls-16" d="M497.56,173.37c1.54-.58,3.45.77,4.25,3s.22,4.47-1.32,5-3.45-.77-4.26-3S496,173.93,497.56,173.37Z"/><path class="cls-10" d="M474.41,171.18l1.31,1.06,13.77,16.49L482,194.85l-11-5.23C472.3,183.51,473.34,177.34,474.41,171.18Z"/></g><g class="cls-19"><path class="cls-6" d="M753.26,384.94c-.13.62-1.52,13.3-1.52,13.3s-6.28.09-6.39-.32,0-14.49,0-14.49Z"/><rect class="cls-6" x="824.26" y="224.56" width="3.55" height="17.53"/><polygon class="cls-6" points="788.14 398.24 784.68 390.94 774.91 390.27 773.01 399.45 773.01 406.22 790.87 406.22 790.87 400.47 788.14 398.24"/><polygon class="cls-6" points="743.7 390.27 750.07 390.27 755.36 398.79 755.36 405.55 718.79 405.55 718.79 399.82 743.7 390.27"/><polygon class="cls-6" points="786.54 382.18 784.74 392.54 774.88 392.54 774.05 381.06 786.54 382.18"/><polygon class="cls-6" points="795.36 182.91 795.28 210.41 781.81 220.45 736.5 208.28 735.95 178.72 795.36 182.91"/><polygon class="cls-6" points="765.96 210.23 754.34 396.7 741.17 391.25 727.03 185.87 765.96 210.23"/><path class="cls-14" d="M731.94,168.18a9.54,9.54,0,0,0,.35-2.73c-.58-30.9-1.88-61.37-8.76-91.44,10.29-3.36,25-11,33.4-12.25,15.77-2.41,41.49,9.28,50,14.47,2.63,1.6,5.27-.58,6.54.42,3.66,2.84-17.52,59.85-21.26,81.08l.37,27-40.43,4.1s-23.18-1.72-20-16.38A15.57,15.57,0,0,0,731.94,168.18Z"/><path class="cls-7" d="M776.63,65.12c-.11,3.24-1.18,1.14-11.07,1.34-12,.25-10.82-1.43-10.89-9.26-.06-5.06-.16-27.48-.16-27.48l20.71,6.53S776.71,61.88,776.63,65.12Z"/><path class="cls-6" d="M816,75c9,23.86,16,74.19,16,74.19l-20.8-4.36c-6-5.31-7-17.88-8.72-23.48-1.55-5.15-3.87-15.18-3.84-18.54C798.63,95.37,814.83,71.87,816,75Z"/><polygon class="cls-10" points="795.48 169.48 795.14 168.85 796.25 169.11 795.48 169.48"/><path class="cls-6" d="M724.68,70.65l-32.93,63.42,13.32,14.5,4.82,2.57,14.19-5.34s13-23.33,12.6-26.66C735.88,111.75,724.68,70.65,724.68,70.65Z"/><path class="cls-6" d="M762.48,195.94h39.39s-14.26,191-16,196.6c-4.35,2.12-8.87.94-11.8-.51C772.68,378.43,762.48,195.94,762.48,195.94Z"/><path class="cls-13" d="M776.33,57l2.86,8.67s-11.65,12.65-11,13.14-8.42-12.35-8.42-12.35Z"/><polygon class="cls-13" points="755.36 76.23 759.82 66.44 753.69 56.53 751.23 63.19 755.36 76.23"/><polygon class="cls-6" points="777.91 61.76 774.86 215.97 802.65 215.97 807.07 104.95 815.99 74.98 777.91 61.76"/><polygon class="cls-6" points="751.23 63.19 752.18 215.97 725 213.36 724.39 98.09 724.39 70.92 751.23 63.19"/><polygon class="cls-6" points="760.16 66.46 762.05 71.11 761.15 72.89 760.16 74.87 757.59 71.64 760.16 66.46"/><polygon class="cls-6" points="761.05 169.57 756.07 161.2 758.73 72.55 761.05 72.13 764.63 159.18 761.05 169.57"/><polygon class="cls-10" points="822.62 195.85 826.41 197.34 831.1 220.78 823.57 231.63 813.86 230.01 817.68 208.54 822.62 195.85"/><polygon class="cls-13" points="814.09 211.25 814.09 195.85 820.36 203.5 830.87 197.57 830.87 215.02 814.09 211.25"/><path class="cls-6" d="M812.82,204.54c-1.2-16.93-5.06-66.67-5.86-67l7.93-7.25,17.05,18.9v50.41l-.41,5.84C825.3,205,819.07,204.72,812.82,204.54Z"/><path class="cls-10" d="M747.53,19.68c.55-7.15,4.28-4,14.35-7.61a17.88,17.88,0,0,1,7.51-1,18.45,18.45,0,0,1,10.11,4c-1.1,11-1.73,22.11-2.82,33.13-1.71,3.75-10.93,11-10.93,11H754.46l-6-12.11-.37-2.61S747.32,22.44,747.53,19.68Z"/><path class="cls-20" d="M779.26,13c1.26,4.4.64,15.74-1.23,23.86-.23-3.87-2.4-12.34-2.4-12.34L750,19.24l-2.22,15.14s-1.68-19.46.21-25.65C750.55.24,778.3,9.73,779.26,13Z"/><path class="cls-20" d="M781.11,37.43s4.93-10.57,3.2-21.14a13.28,13.28,0,0,0-3.2-2.88s.51.92,0,4.52c-.61-4.21-1.27-5-2.85-6s-1.11,19.29-1.11,19.29l-.66,7.17Z"/><path class="cls-10" d="M784.88,36.47c.49,3.61-5.47,11.68-10,9.11,0,0,1.74-8,4-10.45C781.94,31.9,784.63,34.62,784.88,36.47Z"/><rect class="cls-6" x="803.48" y="235.12" width="40.21" height="60.76"/><rect class="cls-6" x="817.73" y="224.56" width="3.57" height="17.53"/><rect class="cls-21" x="810.7" y="235.12" width="31.89" height="33.03"/><rect class="cls-14" x="822.48" y="265.5" width="5.34" height="7.52"/><polygon class="cls-22" points="767.54 112.07 767.54 170.47 726.38 170.47 726.38 107.54 757.74 107.54 767.54 112.07"/><rect class="cls-23" x="718.7" y="107.54" width="39.04" height="62.93"/><rect class="cls-24" x="757.74" y="107.54" width="9.8" height="4.53"/><rect class="cls-23" x="757.74" y="118.53" width="9.8" height="4.52"/><rect class="cls-23" x="757.74" y="127.33" width="9.8" height="4.51"/><rect class="cls-24" x="718.7" y="107.54" width="39.04" height="4.53"/><path class="cls-6" d="M765.26,121.14a2.66,2.66,0,1,1-2.62-3.14A2.91,2.91,0,0,1,765.26,121.14Z"/><rect class="cls-24" x="759.48" y="135.05" width="6.33" height="19.63"/><polygon class="cls-10" points="729.22 162.89 732.46 150.35 740.67 153.75 754.62 147.96 765.77 155.58 764.21 168.07 742.23 166.94 729.22 162.89"/><path class="cls-13" d="M724.63,143.67l-7.48,13.77c3,2.81,6.05,5.6,9.12,8.34l12.54,3.07,5.06-16.7Z"/><polygon class="cls-6" points="741.54 149.17 733.55 170.47 692.85 151.98 689.28 138.86 698.48 121.12 741.54 149.17"/></g><g class="cls-25"><path class="cls-6" d="M949.61,122.66c9-23.14,14.42-46.35,19-47.91,29.72-11.66,12.15,2.18,14.29,12.9,2.68,13.32-5.85,3-12.25,19.06C966.88,111.7,962.88,117.51,949.61,122.66Z"/><polygon class="cls-9" points="982.83 70.31 979.91 150.95 963.42 158.87 965.26 99.32 967.69 85.32 982.83 70.31"/><rect class="cls-6" x="1008.54" y="366.28" width="5.35" height="20.64"/><path class="cls-6" d="M1000.77,369.71l-3.93,9.65-1.33.92s-.44,6.53-.14,6.64,14,0,14,0l5.35-20.64-4.24-5.79-6.43-1.76Z"/><polygon class="cls-10" points="999.52 378.8 1007.59 381.2 1011.61 364.49 1006.24 358.29 1002.99 359.6 999.52 378.8"/><path class="cls-7" d="M953.19,257.89s5.74-33,12-57l21.18,13.3L968.1,266.67s7.55,23,4.48,33c-2,6.6-30.58,63.92-30.58,63.92L931.43,384l-4.18-.6c16-30.35,25.34-104.44,26.1-108Z"/><polygon class="cls-6" points="943.98 359.72 950.44 365.67 946.35 386.63 943.42 386.64 942.92 376.91 934.91 386.81 923.56 386.97 923.51 384.01 928.19 382.2 943.98 359.72"/><path class="cls-10" d="M1018.54,203.84c-2.1-3.63-4.14-7.28-6.12-11l-12.9-1.73V378.8l6.42-6.8s15.13-80.68,15.41-84.37c.79-10.37-8-29.38-8-29.38Z"/><path class="cls-7" d="M984.11,80c7.12-.74,16.92-2.08,19.35-3.45-.55-8.31-5.08-29.56-8.18-35.48-1.52.53-9.53,5.35-8.41,12.22C988.8,65,983.81,77.3,984.11,80Z"/><path class="cls-14" d="M1014.14,70.22c-10.16-4.29-25-4.29-36,2.5-7.92,7.7-12.46,15-7.28,27.74.09,3.06-2.34,46.84-3.09,60.48a17.65,17.65,0,0,0,.23,4.31c11.71.43,27.67-8.81,39.24-13.66-5.19-8.16-12.92-26.27-12.51-32.75C995.84,101.16,1013.56,88.8,1014.14,70.22Z"/><path class="cls-6" d="M967.53,161.9l37-14.89c2.93,4.31,15.59,17.57,16.71,28.23.68,6.43-2.92,76-2.92,76-15,3.55-64.33-.91-64.33-.91l13.51-70.16S967.42,167,967.53,161.9Z"/><polygon class="cls-9" points="982.83 70.31 967.4 87.83 967.53 99.1 968.15 153.37 967.5 163.7 963.37 160.97 965.22 86.13 973.1 73.37 982.83 70.31"/><path class="cls-9" d="M1002.07,66.52,990.91,87.84l1.63,68.27,17.93-1.57s-9.78-26.1-9.36-28.5,23.46-53.57,23.46-53.57Z"/><path class="cls-20" d="M1011.32,47.92a7.52,7.52,0,0,1-10.55-3.31c-2.09-4.06,1.6-11.22,5.66-13.31a8.26,8.26,0,0,1,11.12,3.58C1019.63,38.93,1015.39,45.83,1011.32,47.92Z"/><path class="cls-10" d="M1001.88,41.74c.31-4.21,1-11.66-1.41-14.6s-5.47-.76-9.66-1a14.37,14.37,0,0,0-6.06.9c-3.63,1.41-6.42,0-7.94,2.3L976,42.49c.89,6.57,4.78,16.48,4.78,16.48l7.13.56C995.07,51.62,1001.61,45.38,1001.88,41.74Z"/><path class="cls-20" d="M1003,16.68c-10.94-5.12-25.6,0-27.22,14.29l22.8,10.69-1.3,4.51,1.22,4.27c5.33-1.58,9.48-4.88,12-11.49C1013.91,30.3,1014.78,22.2,1003,16.68Z"/><path class="cls-10" d="M995.68,47.41l3.54-8.12s2.68-3.47,5.26-1.09S1000.86,50.37,995.68,47.41Z"/><polygon class="cls-10" points="960.27 108.92 951.86 116 953.85 118.89 961.17 114.69 958.25 118.94 972.55 111.06 967.04 107.87 960.27 108.92"/><path class="cls-9" d="M1011.07,131.3c-.8-10.59-28.23-12.35-40.48-21.34l-3.75,4.69c8.81,8.9,14.82,12.24,22.67,17.73C1003.18,141.93,1011.71,139.45,1011.07,131.3Z"/><polygon class="cls-14" points="969.04 108.85 966.22 115.32 970.44 117.96 973.63 111.56 969.04 108.85"/><path class="cls-10" d="M992.27,112l16.64.86s.56,1.37,2.05,4.53c0,0,.09.17.15.29l0,8.87-.65.6-14.52-8.67-3.65-3.14Z"/><path class="cls-9" d="M949.61,122.66,963.35,128l29.33-9.24.67-6c-11.31-1.65-40.13-1.21-41.23,2.27C951.08,118.23,949.61,122.66,949.61,122.66Z"/><polygon class="cls-14" points="995.75 118.06 994.12 111.24 989.61 111.71 990.96 118.72 995.75 118.06"/><path class="cls-9" d="M999.84,126.25c4.12-2.64,7.47-31.81,10.5-41.61s9.22-11.13,14.25-12.51c1.25,1.61-13.75,62.11-13.75,62.11C1006,138.94,994.59,129.65,999.84,126.25Z"/></g><g class="cls-26"><path class="cls-6" d="M152.83,400.28c-9.09-23.32-19.14-61.83-23.71-63.41-29.95-11.75-12.25,2.19-14.42,13-2.69,13.43,1.41,31.21,7.84,47.41,5.57,2.81,9.19,12.07,25.89,13.26C165.5,401.83,148.11,401.85,152.83,400.28Z"/><path class="cls-7" d="M164.34,398.85a17.26,17.26,0,0,1-3.83,6.46c-1.39,1.53-2.66,3.78-4.51,3.9-1.55.1-3.1.07-4.65.1a9.6,9.6,0,0,1-3.29-.08,2,2,0,0,1-.39-.15,28.47,28.47,0,0,1-3.6-2.82l-2.76-8.89,7.65,1.35Z"/><path class="cls-10" d="M78.74,466.63c2.09-3.66,4.17-7.34,6.17-11.06l13-1.76V642.94l-6.46-6.84s-15.25-81.32-15.54-85c-.79-10.45,8-29.6,8-29.6Z"/><path class="cls-7" d="M113.44,341.83c-7.19-.75-17.07-2.1-19.52-3.48.57-8.37,5.14-29.8,8.25-35.76,1.53.54,9.61,5.4,8.48,12.32C108.71,326.73,113.75,339.1,113.44,341.83Z"/><path class="cls-14" d="M83.16,332c10.25-4.32,25.2-4.32,36.33,2.53,8,7.75,12.56,15.08,7.33,27.95-.1,3.08,2.35,47.19,3.13,60.95a18.65,18.65,0,0,1-.23,4.35c-11.81.42-27.9-8.89-39.56-13.76,5.24-8.24,13-26.49,12.6-33C101.61,363.14,83.75,350.69,83.16,332Z"/><path class="cls-6" d="M73,395.36c-2.31-4.35,9.21-31.64,11.41-41.72s-8-15.7-11.75-19.4c-1.89.8-12.6,65.26-12.6,65.26C62,406,75.94,400.93,73,395.36Z"/><path class="cls-6" d="M130.14,424.37l-37.32-15c-3,4.36-15.7,17.71-16.84,28.45-.68,6.48,2.94,76.65,2.94,76.65,15.16,3.58,64.84-.93,64.84-.93l-13.62-70.69S130.25,429.49,130.14,424.37Z"/><path class="cls-10" d="M129.15,401.77l1.12,4.56c.13.59-6.12,3.53-6.7,3.83-3.33,1.76-6.11,2.64-9.82,1.28-2-.75-5.41-1.45-7-2.9l-7.55-6.9,11.33-1.05Z"/><polygon class="cls-6" points="114.71 332.06 130.27 349.72 129.52 415.77 130.17 426.18 134.33 423.43 132.46 348 124.53 335.14 114.71 332.06"/><path class="cls-6" d="M95.34,328.24l11.23,21.48-1.64,68.81-18.05-1.59s9.84-26.3,9.42-28.72-23.64-54-23.64-54Z"/><path class="cls-6" d="M62.41,394.09c7.29-7.84,30,8,45.29,8.65v6.06c-12.52,1.46-19.36.31-29-.3C61.94,407.43,56.79,400.1,62.41,394.09Z"/><path class="cls-17" d="M127.46,371.19a3.39,3.39,0,0,1,2.71-2.44l43-.9c1.07,0,1.62,1,1.22,2.34L165.77,398a3.33,3.33,0,0,1-2.71,2.43l-43.19,1c-1.1,0-1.64-1-1.22-2.35Z"/><path class="cls-18" d="M126.28,375,166,397.32l-.21.67a3.33,3.33,0,0,1-2.71,2.43l-43.19,1c-1.1,0-1.64-1-1.22-2.35Z"/><path class="cls-18" d="M99.33,399.58l62.26-1.64a3.13,3.13,0,0,1,.14,6.26l-62.24,1.65a3.14,3.14,0,0,1-.16-6.27Z"/><path class="cls-16" d="M151.15,379.36c1.45.48,2.08,2.55,1.39,4.64s-2.41,3.38-3.85,2.9-2.08-2.55-1.4-4.63S149.71,378.88,151.15,379.36Z"/><path class="cls-6" d="M90.36,286.84a7.61,7.61,0,0,0,11.13.72c3.43-3.06,2.57-11.14-.48-14.57a8.35,8.35,0,0,0-11.77-.68C85.81,275.37,87.3,283.41,90.36,286.84Z"/><path class="cls-10" d="M99.93,297.79c1.24-4.07,3.24-11.34,6.63-13.22s5.41,1.29,9.45,2.56a14.31,14.31,0,0,1,5.36,3.05c2.91,2.64,6,2.36,6.63,5l-4,12.69c-3.23,5.84-10.47,13.76-10.47,13.76l-7-.6C102.72,311,98.87,301.32,99.93,297.79Z"/><path class="cls-6" d="M108,273.83c12.15-.86,24.08,9.27,20.43,23.32l-25.33,1.77-1.41,4.17-1.18,3.75C96,303.41,92.84,299.19,92.8,292,92.77,282.68,94.88,274.75,108,273.83Z"/><path class="cls-10" d="M103.7,305.37l-.38-8.92s-1.25-4.24-4.54-2.92S97.77,306.28,103.7,305.37Z"/></g><g class="cls-27"><path class="cls-6" d="M269.59,378.23l-12.74-.47,3.18-23s19.26-20.74,24.22-27.29c3,2.76,14.56,15.89,14.61,19.63.11,7.09-3.77,10.66-8.07,16.58C288.84,366.34,269.59,378.23,269.59,378.23Z"/><polygon class="cls-6" points="357.01 435.2 356.93 462.29 343.65 472.17 299.03 460.18 298.49 431.07 357.01 435.2"/><polygon class="cls-6" points="334.3 469.34 301.91 437.77 277.05 545.56 304.5 542.73 334.3 469.34"/><path class="cls-14" d="M374.88,330.55c-1.27-1-3.86,1.16-6.46-.43-8.4-5.1-33.74-16.62-49.27-14.24-7.34,1.13-10,4.06-17.53,7l2,115.5a40.72,40.72,0,0,0,10.89,2.6l39.8-4-.36-26.6C357.62,389.49,378.48,333.34,374.88,330.55Z"/><path class="cls-7" d="M338.54,319.19c-.1,3.19-1.14,1.13-10.88,1.32-11.81.24-10.66-1.41-10.73-9.13-.06-5-.15-27.05-.15-27.05l20.38,6.43S338.64,316,338.54,319.19Z"/><path class="cls-9" d="M378.32,329.19c5.2,24.55,4.48,74.59,4.48,74.59l-19.61-7.34c-5.07-6.07-4.2-18.45-5-24.15-.74-5.25-1.5-15.36-1-18.63C358.39,346.45,377.64,326,378.32,329.19Z"/><polygon class="cls-10" points="357.12 421.96 356.79 421.35 357.87 421.59 357.12 421.96"/><path class="cls-6" d="M324.63,448h38.79s-28.78,188.09-30.51,193.62c-4.28,2.08-8.74.91-11.63-.51C319.94,627.76,324.63,448,324.63,448Z"/><path class="cls-16" d="M338.26,309.77l2.82,8.54s-11.48,12.46-10.78,12.93S322,320.48,322,320.48Z"/><polygon class="cls-16" points="317.61 330.12 322.01 320.48 315.96 310.72 313.54 317.29 317.61 330.12"/><polygon class="cls-9" points="339.88 314.65 336.81 467.75 364.18 467.75 368.53 358.42 377.32 328.9 339.88 314.65"/><polygon class="cls-9" points="313.54 317.29 313.53 465.26 295.09 462.7 294.67 349.17 292.38 326.08 313.54 317.29"/><polygon class="cls-9" points="322.32 320.51 324.2 325.07 323.31 326.83 322.32 328.78 319.8 325.6 322.32 320.51"/><polygon class="cls-9" points="323.22 422.06 318.3 413.81 320.92 326.5 323.22 326.08 326.74 411.83 323.22 422.06"/><path class="cls-28" d="M316.62,387.66a3.19,3.19,0,0,0-2.5-2.36l-42.81-1.83c-1-.05-1.55.93-1.2,2.19l9.68,26.45a3.18,3.18,0,0,0,2.49,2.36l40.83,2c1,.05,1.55-.94,1.19-2.19Z"/><path class="cls-29" d="M314.45,388.76a3.22,3.22,0,0,0-2.51-2.36l-40.6-1.85c-1-.06-1.55.93-1.2,2.18l7.48,26.48a3.19,3.19,0,0,0,2.5,2.37l40.82,2c1,.05,1.55-.93,1.19-2.19Z"/><path class="cls-8" d="M315.49,392.4l-38.05,20.18.18.63a3.19,3.19,0,0,0,2.5,2.37l40.82,2c1,.05,1.55-.93,1.19-2.19Z"/><path class="cls-10" d="M297.18,409.44a23.18,23.18,0,0,0,7.66,6.25c2.53,1.41,5.11,3.6,8,3.46,2.42-.12,4.82-.36,7.24-.55,1.59-.14,3.54,0,5.11-.54a3.23,3.23,0,0,0,.57-.23c1.69-.81,3.31-2.38,4.87-3.47l2-9.74-11.56,2.51Z"/><path class="cls-10" d="M314.45,403.92l-14.55-2.69-.77,2.72s12.65,5.5,12.93,5.42l-.58,2.9s13.14-2.33,13.52-2.5,1.09-5.21.93-5.84S314.45,403.92,314.45,403.92Z"/><polygon class="cls-16" points="324.9 402.71 337.2 400.48 331.15 407.57 335.99 416.77 322.06 419.3 324.9 402.71"/><path class="cls-9" d="M330.25,400.53c13.5-3.62,52.15-17.38,52.43-18.21l.12,21.46-8.12,7-40.28,7.31-4.66.47Q330.13,409.51,330.25,400.53Z"/><path class="cls-16" d="M297.53,398.57c1.48,2.34,1.23,5.15-.55,6.27s-4.43.14-5.9-2.2-1.24-5.15.54-6.28S296.05,396.23,297.53,398.57Z"/><polygon class="cls-10" points="302.45 328.72 293.32 324.85 297.62 317.26 295.9 303.63 304.08 293.51 313.5 295.78 308.21 316.6 302.45 328.72"/><path class="cls-8" d="M325.72,289.34,313.1,315.2a1.15,1.15,0,0,1-1.44.73l-10.24-5.18a1.19,1.19,0,0,1-.3-1.62l12.61-25.85a1.15,1.15,0,0,1,1.45-.74l10.23,5.18A1.19,1.19,0,0,1,325.72,289.34Z"/><path class="cls-29" d="M310.26,315.22l-8.84-4.47a1.19,1.19,0,0,1-.3-1.62l12.61-25.85a1.15,1.15,0,0,1,1.45-.74l.25.13Z"/><polygon class="cls-22" points="311.84 313.72 303.05 309.25 314.99 284.77 323.79 289.22 311.84 313.72"/><polygon class="cls-16" points="306.37 325.15 299.68 338.76 297.48 329.27 285.61 329.94 295.14 315.22 306.37 325.15"/><path class="cls-9" d="M303.46,334.62c-8.21,9.61-27.66,38.57-27.66,38.57l-18.91,3.9,0-21.17,30.82-32.24,3.39-2.74Q297.17,327.87,303.46,334.62Z"/><path class="cls-10" d="M301.88,282.37c-1.17-7.07,3.21-4.89,12.12-10.8a17.76,17.76,0,0,1,7.07-2.73,18.62,18.62,0,0,1,10.77,1.44c1.54,11,3.58,21.89,5.14,32.85-.77,4.06-9.23,14.34-9.23,14.34l-10.58.64-7.86-9.33-1-2.45S302.33,285.1,301.88,282.37Z"/><path class="cls-6" d="M331.11,268.33c2.26,4,4.37,15.14,4.49,23.47-1.14-3.7-5.27-11.41-5.27-11.41l-26.18,1,1.25,15.33s-6.06-18.59-5.71-25C300.17,262.78,329.39,265.37,331.11,268.33Z"/><path class="cls-6" d="M338.72,291.61s2.27-11.44-2-21.29a12.9,12.9,0,0,0-3.77-2s.72.77,1.08,4.38c-1.6-3.94-2.43-4.61-4.21-5.19s3.52,19,3.52,19l1.07,7.12Z"/><path class="cls-10" d="M342.16,289.79c1.33,3.38-2.55,12.64-7.51,11.21,0,0-.22-8.15,1.42-11.11C338.22,286,341.46,288.05,342.16,289.79Z"/></g><g class="cls-30"><polygon class="cls-16" points="600.85 408.49 589.87 400.74 590.34 410.05 580.89 414.38 593.13 423.22 600.85 408.49"/><path class="cls-6" d="M586.36,419.6c-14.66-8-57.89-31.4-58.62-30.92L526,378.26l24.75-4,41.73,26.91,4.62,3.45Q591.56,412,586.36,419.6Z"/><path class="cls-6" d="M515.44,323l39.91,59.06-20.59,3.74c-7.48-2.61-13.06-13.7-16.68-18.19-3.31-4.12-9.15-12.42-10.37-15.49C505,345.34,515.44,323,515.44,323Z"/><polygon class="cls-16" points="519.21 327.62 518.63 319.79 501.99 305.32 496.56 313.23 519.21 327.62"/><polygon class="cls-6" points="504.65 302.37 528.33 351.22 534.91 415.29 526.65 468.8 495.46 449.09 486.16 348.83 488.18 322.44 504.65 302.37"/><path class="cls-7" d="M520.52,294.8l-11.27-10.6c-5.24,15.17-12.54,27.22-16.54,37.13,6.37,4,12.93,11.23,20.59,12.4C513,326.76,519.18,296.28,520.52,294.8Z"/><path class="cls-10" d="M537.66,290.39l5.94-11.22-19.09-11.08-12.58,5.21-8.36,13.19c1.06,1.66,6.59,3.56,6.08,5.38-1.08,3.82-3,8.82-3,8.82s11.52,16.73,14.33,14.81c1.46-1,9.34-9.31,9.34-9.31s2.88,1.31,5.07.92C534.91,300.76,537.66,290.39,537.66,290.39Z"/><path class="cls-20" d="M503.87,274.7l-1,25,6-10.15,3.72,3.5,8-8.64,5.59-9.06,16,7.23s2.72-2.83,6.63-11.47c2.74-6-39.7-5.56-39.7-5.56Z"/><path class="cls-10" d="M509.87,280.57c-3.48.68-3.37,5.55-3.17,8.26.18,2.31,2.57,6.89,5.89,5.63l1.79-9.69C514.93,282.38,512.21,280.12,509.87,280.57Z"/><polygon class="cls-6" points="609.41 449.11 508.4 425.15 522.68 468.08 601.72 473.27 612.43 457.15 609.41 449.11"/><polygon class="cls-6" points="609.98 450.63 584.97 450.05 578.96 565.16 589.37 567.68 613.84 460.92 609.98 450.63"/><polygon class="cls-6" points="592.54 450.63 567.53 450.05 561.52 565.16 571.92 567.68 596.4 460.92 592.54 450.63"/><path class="cls-10" d="M601.66,431.24l.11-1.68,5.59-20.74,9.32,2.63,2,12C613,425.88,607.32,428.58,601.66,431.24Z"/><polygon class="cls-6" points="586.4 447.64 485.99 431.07 485.27 460.92 491.06 472.38 584.53 472.27 586.4 447.64"/><path class="cls-14" d="M517.51,320.47c-11.24-4.54-16.3-9.57-24.21-6.46l-13.75,18.68L481,352.9l18.82,83.39,30-2.22-4.2-35.86v-44Z"/><polygon class="cls-16" points="511.71 326.93 516.48 318.85 499.84 304.38 494.42 312.29 511.71 326.93"/><polygon class="cls-6" points="495.14 308.9 518.79 356.24 523.08 424.66 514.82 478.17 483.64 458.45 474.33 358.2 476.36 331.81 495.14 308.9"/><polygon class="cls-9" points="516.29 318.48 518.17 323.04 517.27 324.81 516.29 326.76 513.76 323.57 516.29 318.48"/><polygon class="cls-9" points="525.97 415.61 519.79 408.26 520.63 360.09 516.07 325.87 517.08 323.97 525.33 359.36 525.97 415.61"/><path class="cls-9" d="M479.55,343.89c3.51,24.85,23.32,54.29,23.32,54.29l17.46-9.65L500.8,339l-12.54-15S480,338.57,479.55,343.89Z"/><path class="cls-10" d="M585,432.63a58.22,58.22,0,0,1,0,6.85l-1.59.44c-.73-1.31-1.62-2.91-2.3-4l-.39.09-6.78,4.9-4.54-5.07s-10.51-3.63-11.28-4.36c-1.6-1.51-.83-7.27-1.58-9.23l6.51,0c4.63,0,14.69.78,14.69.78Z"/><polygon class="cls-16" points="564.34 419.73 553.36 411.98 553.82 421.29 544.38 425.62 556.61 434.46 564.34 419.73"/><path class="cls-9" d="M559.74,416.34s-31-27.51-32.23-29l-17-7.07-7.66,17.95L549.29,431Z"/><path class="cls-8" d="M622,397.16l-21.79-.25a3.47,3.47,0,0,0-2.84,2.43L583,438.52c-.47,1.34.07,2.44,1.17,2.45l22.05.13a3.46,3.46,0,0,0,2.83-2.43l14.14-39.08C623.65,398.26,623.11,397.16,622,397.16Z"/><path class="cls-6" d="M600.21,396.91a3.47,3.47,0,0,0-2.84,2.43L583,438.52c-.47,1.34.07,2.44,1.17,2.45l22.05.13a3.46,3.46,0,0,0,2.83-2.43l2.19-6-10.39-35.73Z"/><path class="cls-8" d="M622,397.16l-21.15-.24,10.39,35.73,12-33.06C623.65,398.26,623.11,397.16,622,397.16Z"/><path class="cls-6" d="M607,438.5H543.16a3.22,3.22,0,0,0,0,6.43H607a3.21,3.21,0,1,0,0-6.42Z"/><path class="cls-17" d="M608.14,413.53c-1-.35-2.44,1.23-3.24,3.54s-.64,4.45.36,4.8,2.45-1.25,3.25-3.55S609.14,413.86,608.14,413.53Z"/></g><g class="cls-31"><path class="cls-7" d="M743.79,286.7A79,79,0,0,0,747,295l-17.57,12a5.16,5.16,0,0,1-1.19-3.16c.08-.95,5.34-12.37,5.36-12.26C735.22,290.34,742.4,286.37,743.79,286.7Z"/><path class="cls-8" d="M731.59,290a3.81,3.81,0,0,0,.32,5.35l5.67,5a3.79,3.79,0,0,0,5.34-.33l14.91-16.77a3.82,3.82,0,0,0-.31-5.35l-5.69-5a3.78,3.78,0,0,0-5.33.32Z"/><path class="cls-22" d="M732.8,293.16a1.5,1.5,0,0,0,.48.69l5.66,5a1.75,1.75,0,0,0,2.46-.14L756.29,282a1.78,1.78,0,0,0,.33-1.77,1.84,1.84,0,0,0-.47-.7l-5.67-5a1.77,1.77,0,0,0-1.27-.45,1.83,1.83,0,0,0-1.18.58L733.12,291.4A1.73,1.73,0,0,0,732.8,293.16Z"/><polygon class="cls-5" points="735.12 303.48 732.63 307.98 726.85 305.02 728.71 300.7 735.12 303.48"/><polygon class="cls-6" points="734.99 396.31 739.85 399.77 747.01 335.4 733.91 333.36 734.99 396.31"/><polygon class="cls-6" points="712.17 354.98 712.17 343.09 739.23 316.48 758.06 310.42 754.19 331.12 717.02 355.14 712.17 354.98"/><rect class="cls-9" x="793.5" y="434.98" width="3.37" height="16.6"/><path class="cls-10" d="M722.44,490.85s5.59-32.11,11.65-55.4l20.59,12.94-17.75,51s7.35,22.4,4.37,32.08c-2,6.4-29.74,62.17-29.74,62.17l-10.3,19.81-4-.58c15.56-29.52,24.64-101.58,25.39-105Z"/><path class="cls-10" d="M786,438.28q-3.06-5.29-6-10.67l-12.54-1.7V608.45l6.24-6.61s14.72-78.47,15-82.05c.76-10.11-7.77-28.59-7.77-28.59Z"/><path class="cls-7" d="M752.5,317.84c6.94-.72,16.47-2,18.83-3.37-.54-8.07-4.94-28.75-8-34.5-1.47.52-9.26,5.2-8.17,11.88C757.07,303.26,752.21,315.2,752.5,317.84Z"/><path class="cls-14" d="M781.72,308.31c-9.88-4.17-24.33-4.17-35.05,2.45-7.71,7.48-12.12,14.54-7.08,27,.09,3-2.27,45.55-3,58.83a17.44,17.44,0,0,0,.21,4.2c11.4.42,26.92-8.57,38.18-13.28-5.06-7.94-12.58-25.56-12.16-31.87C763.92,338.4,781.16,326.39,781.72,308.31Z"/><path class="cls-6" d="M736.39,397.49l36-14.48c2.86,4.19,15.16,17.09,16.24,27.45.67,6.26-2.83,74-2.83,74-14.61,3.45-62.56-.89-62.56-.89l13.14-68.24S736.28,402.44,736.39,397.49Z"/><path class="cls-10" d="M785.59,442.55l4,2c.53.25,4.67-5,5.06-5.45,2.39-2.74,3.84-5.16,3.37-8.94-.24-2.08-.17-5.42-1.16-7.27l-4.83-8.62-3.48,10.42Z"/><polygon class="cls-6" points="751.27 308.41 736.25 325.44 736.99 389.2 736.36 399.25 732.34 396.6 734.15 323.8 741.81 311.38 751.27 308.41"/><path class="cls-6" d="M770,304.72l-10.84,20.72,1.58,66.41,17.44-1.52s-9.51-25.39-9.09-27.72,22.8-52.1,22.8-52.1Z"/><path class="cls-6" d="M778.45,330.83c-2.14-9.73,9.82-16.75,13.41-20.32,1.77.75,13.59,58.25,13.59,58.25l-6.71,51.18h-9.18l-1.07-42.43,1.14-6.4S780.58,340.57,778.45,330.83Z"/><polygon class="cls-14" points="797.3 419.66 796.8 422.96 788.74 422.97 789.15 419.66 797.3 419.66"/><rect class="cls-9" x="788.49" y="433.15" width="3.37" height="16.61"/><rect class="cls-6" x="772.79" y="444.98" width="38.05" height="57.51"/><rect class="cls-21" x="773.74" y="444.98" width="37.11" height="31.27"/><path class="cls-6" d="M777.71,286.51A7.74,7.74,0,0,1,767,283.26c-2.11-4,1.63-11.05,5.74-13.12A8.49,8.49,0,0,1,784,273.67C786.14,277.66,781.83,284.45,777.71,286.51Z"/><path class="cls-10" d="M769.54,279c.32-4.14,1.07-11.47-1.43-14.37s-5.55-.75-9.8-1a14.77,14.77,0,0,0-6.14.89c-3.69,1.37-6.51,0-8,2.25l-.88,13c.9,6.47,4.84,16.23,4.84,16.23l7.24.54C762.62,288.75,769.27,282.6,769.54,279Z"/><path class="cls-6" d="M770.66,254.34c-10.81-5.6-25-.58-26.61,13.5l22.13,11.09-1.31,4.44,1.23,4.22c5.41-1.57,9.15-5,12.22-11.31C780.56,271.65,780,259.19,770.66,254.34Z"/><path class="cls-10" d="M763.26,284.6l3.59-8s2.7-3.42,5.32-1.08S768.5,287.52,763.26,284.6Z"/><polygon class="cls-6" points="717.02 355.14 712.17 354.98 707.07 344.17 727.53 302.23 734.51 305.73 723.25 345.43 717.02 355.14"/></g><g class="cls-32"><path class="cls-33" d="M1026.25,320.71c11,22.59,23,60.42,23,60.42l-20.78-2.42c-6.4-4.67-8.51-16.91-10.64-22.25-2-4.92-5.15-14.55-5.43-17.84C1011.86,331.34,1024.82,317.76,1026.25,320.71Z"/><polygon class="cls-33" points="955.55 417.75 955.63 444.83 968.9 454.71 1013.53 442.75 1014.08 413.63 955.55 417.75"/><polygon class="cls-33" points="978.25 451.9 1010.66 420.34 1035.48 528.12 1008.02 525.29 978.25 451.9"/><path class="cls-14" d="M936.11,317.46c1.27-1,5.48.76,8.08-.81,8.4-5.11,33.75-16.61,49.27-14.23,7.34,1.12,9.95,7.73,17.53,10.7L1009,425l-53.19,13.17,2.87-41.21C955,376,932.5,320.26,936.11,317.46Z"/><path class="cls-7" d="M974.07,305.73c.1,3.18,1.14,1.12,10.88,1.31,11.82.24,10.66-1.4,10.74-9.11,0-5,.15-27.06.15-27.06l-20.38,6.43S974,302.53,974.07,305.73Z"/><polygon class="cls-10" points="955.45 408.49 955.78 407.88 954.71 408.13 955.45 408.49"/><path class="cls-33" d="M987.93,430.59H949.15s28.68,188.1,30.42,193.63c4.28,2.09,8.74.92,11.63-.5C992.54,610.31,987.93,430.59,987.93,430.59Z"/><path class="cls-34" d="M974.35,296.3l-2.82,8.55s11.48,12.46,10.78,12.93S990.6,307,990.6,307Z"/><polygon class="cls-34" points="994.99 316.67 990.6 307.02 996.66 297.26 999.08 303.83 994.99 316.67"/><path class="cls-35" d="M941.21,380.21c14.63-1.6,48.65.39,62.87-2.41,2.38,5.5,4.09,14.33,6.73,19.76l-59.61,7.71-7.74-4.33Z"/><polygon class="cls-35" points="972.73 301.19 975.75 454.29 946.73 454.65 947.54 348.57 933.67 315.82 972.73 301.19"/><polygon class="cls-35" points="999.08 303.83 1002.97 324.3 1006.08 451.81 1022.45 448.92 1024.17 353.96 1026.25 320.71 999.08 303.83"/><polygon class="cls-34" points="1002.48 376.47 992.31 383.75 1001.62 384.33 1004.85 394.2 1016.73 391.22 1002.48 376.47"/><polygon class="cls-35" points="990.28 307.05 988.4 311.61 989.29 313.37 990.28 315.32 992.81 312.14 990.28 307.05"/><polygon class="cls-35" points="989.35 408.61 994.27 400.36 991.68 313.04 989.39 312.63 985.83 398.37 989.35 408.61"/><path class="cls-10" d="M1006.66,263.15c0-7.18-4-4.28-13.76-8.62a18.08,18.08,0,0,0-7.43-1.5,18.63,18.63,0,0,0-10.38,3.24c.34,11.08.16,22.18.46,33.25,1.44,3.87,11.51,12.58,11.51,12.58L997.59,301l6.2-10.53.57-2.57S1006.67,265.91,1006.66,263.15Z"/><path class="cls-33" d="M975.48,254.22c-1.56,4.3-1.76,15.66-.47,23.9.5-3.85,3.28-12.14,3.28-12.14l26-3.46,1.35,15.32s2.84-19.34,1.42-25.64C1005.05,243.55,976.68,251,975.48,254.22Z"/><path class="cls-33" d="M971.91,278.45s-4.18-10.89-1.68-21.31a13,13,0,0,1,3.38-2.64s-.58.88-.32,4.51c.92-4.16,1.62-5,3.27-5.83s-.26,19.33-.26,19.33l.14,7.19Z"/><path class="cls-10" d="M968.21,277.24c-.76,3.55,4.63,12,9.27,9.78,0,0-1.15-8.07-3.26-10.71C971.47,272.88,968.6,275.41,968.21,277.24Z"/><path class="cls-10" d="M1014.53,369.61c2-2.11,8.17-3.08,8.17-3.08s6.11-1.25,9.84-.81L1035,371l1.33,2.48L1024,381.68s-2.21,2.35-4.34,4.51l-9.71-11.39C1011.44,373.06,1012.93,371.3,1014.53,369.61Z"/><polygon class="cls-10" points="986.01 375.2 985.05 371.32 962.79 363.63 951.21 369.56 951.49 379.24 972.95 378.35 986.01 375.2"/><polygon class="cls-34" points="977.74 366.94 993 370.47 984.91 373.63 989.99 384.37 973.5 381 977.74 366.94"/><path class="cls-35" d="M982.51,366.77c16.5,2.62,65.1,10,65.61,9.29l3.69,11.74-20.43,9.65L983,386.23l-5.51-1.69Q980.19,375.69,982.51,366.77Z"/><path class="cls-35" d="M933.67,315.82c1.94-1.43,26.09,29.73,26.09,29.73l7.44,43h-25Z"/></g></svg>