<?xml version="1.0" encoding="utf-8"?>
<!-- Generator: Adobe Illustrator 22.1.0, SVG Export Plug-In . SVG Version: 6.00 Build 0)  -->
<svg version="1.1" id="Layer_1" xmlns="http://www.w3.org/2000/svg" xmlns:xlink="http://www.w3.org/1999/xlink" x="0px" y="0px"
	 viewBox="0 0 191.6 186.5" style="enable-background:new 0 0 191.6 186.5;" xml:space="preserve">
<style type="text/css">
	.st0{fill:#3B2D2B;}
	.st1{fill:#009FDB;}
	.st2{fill:#0586CB;}
	.st3{fill:#30D1FF;}
	.st4{fill:#0F54AF;}
</style>
<g>
	<g>
		<g>
			<path class="st0" d="M186.3,94.3c-0.2,32.6-31.1,54.1-59.8,61.3c-33.6,8.5-74.1,2.5-100.5-21c-10.8-9.6-18.8-22.4-20.3-36.9
				c-1.4-14.2,3.9-28,13-38.8C41.3,32,80.9,24.2,114.3,29.5c29.7,4.7,64.1,22.6,70.9,54.6C185.9,87.5,186.2,90.9,186.3,94.3
				c0,1.2,5.4,0.3,5.4-1.4c-0.2-34.2-33.4-56.3-63.4-63.7c-19.2-4.7-39.5-4.9-58.8-0.8C52.2,32,35.1,39.2,21.7,50.9
				C10.4,60.7,1.8,74,0.2,89.1c-1.5,14.9,4.1,29.2,13.7,40.4c11.1,12.9,26.7,21.5,42.8,26.5c18.8,5.8,39.1,7,58.5,4
				c31.1-4.9,68.2-23.1,75.4-56.8c0.7-3.4,1.1-6.9,1.1-10.4C191.7,91.7,186.3,92.5,186.3,94.3z"/>
			<path class="st0" d="M133.9,177.3c-1.4,0.6-2,0.8-3.7,0.8c-1.9,0-3.7-0.5-5.5-1.1c-4.7-1.6-9-4.4-12.8-7.4
				c-11-8.7-19.9-20.1-27.6-31.8c-10-15.3-18.1-31.8-24.4-48.9C54,73.2,49.5,56.7,48.7,40c-0.3-6-0.1-12.1,1.4-17.9
				c1-4.1,2.7-8.4,6.1-11.2c1.2-1,2.6-1.6,3.5-1.8c1.4-0.3,3.1-0.1,4.7,0.2c4.5,0.9,8.6,3.2,12.3,5.8c11,7.6,19.8,18.4,27.5,29.3
				c10.3,14.7,18.7,30.9,25.4,47.6c6.4,15.9,11.4,32.8,13.1,49.9c0.6,6.5,0.8,13-0.2,19.5c-0.7,4.5-2.1,9.4-5.1,13
				c-1.1,1.4-2.4,2.4-4,3.2c-0.8,0.4-1.5,1.1-0.6,1.7c1,0.6,2.9-0.2,3.8-0.6c9.5-4.6,11.6-16.3,11.9-25.8c0.6-16.9-3.6-34-9-49.9
				c-6.3-18.6-14.8-36.6-25.4-53.1c-8-12.6-17.4-24.9-29.2-34.2c-7.3-5.8-16.7-11-26.4-8.4c-10.2,2.8-14,12.8-15,22.4
				c-1.6,15.7,1.8,32,6.3,47c5.7,19.2,13.9,37.7,24.1,54.8c8,13.4,17.3,26.4,28.9,36.8c7.1,6.4,16.5,13.2,26.7,12.3
				c2.2-0.2,4.3-0.7,6.3-1.6c0.7-0.3,2.1-0.9,1.5-1.8C136.9,176.4,134.4,177.1,133.9,177.3z"/>
			<path class="st0" d="M147,17.8c27.9,19.6,26.9,59.2,15.8,87.8c-12.4,31.9-39.5,62.1-73.6,70.5c-13.5,3.4-28.3,2.6-40.6-4.3
				c-12.9-7.2-21.3-19.8-24.9-33.9c-9-35,7.8-73.3,31.8-98.4C75.9,18.5,108.5,0.7,138,12.9C141.2,14.2,144.2,15.8,147,17.8
				c1,0.7,4.6-0.9,3.8-1.5C124.3-1.9,88.9,9.6,65.5,27.6C36.2,50.1,14.8,88.3,17.6,126c1.1,15.4,6.9,30.8,18.7,41.3
				c10.9,9.7,25.6,13.6,39.9,12.6c35.2-2.4,65.6-28.5,82.6-58.1c16.3-28.5,24.6-71.1,0.5-97.9c-2.5-2.8-5.4-5.3-8.5-7.5
				C149.8,15.6,146.2,17.2,147,17.8z"/>
			<path class="st0" d="M185.3,73.5c0.6,2.7-1.1,5.3-2.9,7.2c-3,3.3-6.9,5.9-10.8,8.2c-12.3,7.2-25.9,12.3-39.4,16.6
				c-17.6,5.6-35.7,9.9-53.9,12.9c-15.7,2.6-31.7,4.5-47.6,3.8c-5.2-0.2-10.4-0.7-15.4-2.1c-2.9-0.8-6.6-2.1-8.3-4.8
				c-3.7-5.9,5.6-12.2,9.6-14.8c11.1-7.4,24-12.3,36.6-16.6c17.4-6,35.3-10.5,53.3-13.8c16.3-3,32.8-5.2,49.4-5.1
				c5.7,0,11.5,0.3,17.1,1.4c3.5,0.7,7.6,1.6,10.4,4.1C184.3,71.2,185,72.2,185.3,73.5c0.2,0.7,2.9,0,2.7-0.7
				c-0.7-2.9-3.6-4.6-6.2-5.7c-4.5-1.9-9.6-2.6-14.4-3c-15.4-1.3-31.2,0.2-46.5,2.5c-19.5,2.8-38.8,7.1-57.6,12.9
				C48.7,83.8,34,89,20.6,96.5c-4.4,2.4-8.7,5.1-12.3,8.5c-2.1,2-4.5,4.6-4.8,7.7c-0.6,7.3,11.1,9.1,16.2,9.9
				c14.5,2.1,29.6,0.8,44.1-1c19.5-2.4,38.9-6.4,57.8-11.8c15.4-4.4,30.9-9.6,45.2-16.9c4.9-2.5,9.8-5.3,14.2-8.7
				c2.6-2.1,5.5-4.6,6.7-7.9c0.4-1.1,0.6-2.3,0.3-3.5C187.9,72,185.2,72.7,185.3,73.5z"/>
			<path class="st0" d="M100.6,31.1c31.3,3,66.2,16.7,80.9,46.6c5.5,11.3,7.2,24.2,3.9,36.5c-4.3,15.7-16,28.1-29.8,36.1
				c-33.7,19.6-78.4,18.1-112.2-0.2c-15-8.1-28.8-19.9-36-35.7c-5.7-12.6-6.4-27-1.3-39.9c12.2-30.9,48.3-43.5,79-44
				C90.3,30.4,95.4,30.6,100.6,31.1c0.3,0,1.6-0.6,0.9-0.6C69,27.5,29.9,35.2,10.4,64.1C2.8,75.3-0.4,89,2.1,102.4
				c3.2,17,14.7,31.1,28.4,41c31.4,22.7,75.1,27.7,111.2,14.1c15.9-6,31.1-16,39.8-31c6.8-11.6,8.7-25.5,5.3-38.5
				c-8.1-31.3-40.5-49.3-70.1-55.3c-5.1-1-10.2-1.8-15.3-2.2C101.1,30.5,99.9,31,100.6,31.1z"/>
			<path class="st0" d="M167.7,44.6c10.8,16.1,17.6,34.9,17.6,54.5c0,17.4-5.2,34.7-15,49c-9.9,14.5-24.3,25.6-40.8,31.6
				c-19.2,7-40.5,6.1-59.5-1c-18.2-6.8-34.2-19.2-45.4-35.1C13.4,127.5,7.4,107.8,7.4,88.2c0-20,6.4-39.9,19.1-55.4
				C36.9,19.9,51.1,10.3,67,5.5c15.8-4.8,32.9-4.8,48.7-0.2c16.8,4.9,31.7,14.9,43.3,28C162.2,36.9,165.1,40.7,167.7,44.6
				c0.2,0.4,1.6-0.1,1.3-0.4c-10.6-15.6-25-28.5-42.4-35.9c-15.2-6.5-32-8.6-48.3-5.9c-15.9,2.6-31,9.6-43.2,20.3
				c-14.7,12.9-24.4,30.7-27.7,50c-3.4,20-0.3,40.9,8.7,59.1c8.9,18.1,23.6,32.9,41.4,42.4c17.2,9.2,37.2,13.1,56.6,10.1
				c17.8-2.7,34.6-11.2,47.4-23.9c12.5-12.5,21-28.8,24-46.2c3.3-19,0-38.6-8.3-56c-2.3-4.8-5-9.4-8-13.9
				C168.8,43.8,167.6,44.3,167.7,44.6z"/>
			<path class="st1" d="M186.3,94.3c-0.2,32.6-31.1,54.1-59.8,61.3c-33.6,8.5-74.1,2.5-100.5-21c-10.8-9.6-18.8-22.4-20.3-36.9
				c-1.4-14.2,3.9-28,13-38.8C41.3,32,80.9,24.2,114.3,29.5c29.7,4.7,64.1,22.6,70.9,54.6C185.9,87.5,186.2,90.9,186.3,94.3
				c0,1.2,5.4,0.3,5.4-1.4c-0.2-34.2-33.4-56.3-63.4-63.7c-19.2-4.7-39.5-4.9-58.8-0.8C52.2,32,35.1,39.2,21.7,50.9
				C10.4,60.7,1.8,74,0.2,89.1c-1.5,14.9,4.1,29.2,13.7,40.4c11.1,12.9,26.7,21.5,42.8,26.5c18.8,5.8,39.1,7,58.5,4
				c31.1-4.9,68.2-23.1,75.4-56.8c0.7-3.4,1.1-6.9,1.1-10.4C191.7,91.7,186.3,92.5,186.3,94.3z"/>
			<path class="st1" d="M133.9,177.3c-1.4,0.6-2,0.8-3.7,0.8c-1.9,0-3.7-0.5-5.5-1.1c-4.7-1.6-9-4.4-12.8-7.4
				c-11-8.7-19.9-20.1-27.6-31.8c-10-15.3-18.1-31.8-24.4-48.9C54,73.2,49.5,56.7,48.7,40c-0.3-6-0.1-12.1,1.4-17.9
				c1-4.1,2.7-8.4,6.1-11.2c1.2-1,2.6-1.6,3.5-1.8c1.4-0.3,3.1-0.1,4.7,0.2c4.5,0.9,8.6,3.2,12.3,5.8c11,7.6,19.8,18.4,27.5,29.3
				c10.3,14.7,18.7,30.9,25.4,47.6c6.4,15.9,11.4,32.8,13.1,49.9c0.6,6.5,0.8,13-0.2,19.5c-0.7,4.5-2.1,9.4-5.1,13
				c-1.1,1.4-2.4,2.4-4,3.2c-0.8,0.4-1.5,1.1-0.6,1.7c1,0.6,2.9-0.2,3.8-0.6c9.5-4.6,11.6-16.3,11.9-25.8c0.6-16.9-3.6-34-9-49.9
				c-6.3-18.6-14.8-36.6-25.4-53.1c-8-12.6-17.4-24.9-29.2-34.2c-7.3-5.8-16.7-11-26.4-8.4c-10.2,2.8-14,12.8-15,22.4
				c-1.6,15.7,1.8,32,6.3,47c5.7,19.2,13.9,37.7,24.1,54.8c8,13.4,17.3,26.4,28.9,36.8c7.1,6.4,16.5,13.2,26.7,12.3
				c2.2-0.2,4.3-0.7,6.3-1.6c0.7-0.3,2.1-0.9,1.5-1.8C136.9,176.4,134.4,177.1,133.9,177.3z"/>
			<path class="st1" d="M147,17.8c27.9,19.6,26.9,59.2,15.8,87.8c-12.4,31.9-39.5,62.1-73.6,70.5c-13.5,3.4-28.3,2.6-40.6-4.3
				c-12.9-7.2-21.3-19.8-24.9-33.9c-9-35,7.8-73.3,31.8-98.4C75.9,18.5,108.5,0.7,138,12.9C141.2,14.2,144.2,15.8,147,17.8
				c1,0.7,4.6-0.9,3.8-1.5C124.3-1.9,88.9,9.6,65.5,27.6C36.2,50.1,14.8,88.3,17.6,126c1.1,15.4,6.9,30.8,18.7,41.3
				c10.9,9.7,25.6,13.6,39.9,12.6c35.2-2.4,65.6-28.5,82.6-58.1c16.3-28.5,24.6-71.1,0.5-97.9c-2.5-2.8-5.4-5.3-8.5-7.5
				C149.8,15.6,146.2,17.2,147,17.8z"/>
			<path class="st2" d="M185.3,73.5c0.6,2.7-1.1,5.3-2.9,7.2c-3,3.3-6.9,5.9-10.8,8.2c-12.3,7.2-25.9,12.3-39.4,16.6
				c-17.6,5.6-35.7,9.9-53.9,12.9c-15.7,2.6-31.7,4.5-47.6,3.8c-5.2-0.2-10.4-0.7-15.4-2.1c-2.9-0.8-6.6-2.1-8.3-4.8
				c-3.7-5.9,5.6-12.2,9.6-14.8c11.1-7.4,24-12.3,36.6-16.6c17.4-6,35.3-10.5,53.3-13.8c16.3-3,32.8-5.2,49.4-5.1
				c5.7,0,11.5,0.3,17.1,1.4c3.5,0.7,7.6,1.6,10.4,4.1C184.3,71.2,185,72.2,185.3,73.5c0.2,0.7,2.9,0,2.7-0.7
				c-0.7-2.9-3.6-4.6-6.2-5.7c-4.5-1.9-9.6-2.6-14.4-3c-15.4-1.3-31.2,0.2-46.5,2.5c-19.5,2.8-38.8,7.1-57.6,12.9
				C48.7,83.8,34,89,20.6,96.5c-4.4,2.4-8.7,5.1-12.3,8.5c-2.1,2-4.5,4.6-4.8,7.7c-0.6,7.3,11.1,9.1,16.2,9.9
				c14.5,2.1,29.6,0.8,44.1-1c19.5-2.4,38.9-6.4,57.8-11.8c15.4-4.4,30.9-9.6,45.2-16.9c4.9-2.5,9.8-5.3,14.2-8.7
				c2.6-2.1,5.5-4.6,6.7-7.9c0.4-1.1,0.6-2.3,0.3-3.5C187.9,72,185.2,72.7,185.3,73.5z"/>
			<path class="st2" d="M100.6,31.1c31.3,3,66.2,16.7,80.9,46.6c5.5,11.3,7.2,24.2,3.9,36.5c-4.3,15.7-16,28.1-29.8,36.1
				c-33.7,19.6-78.4,18.1-112.2-0.2c-15-8.1-28.8-19.9-36-35.7c-5.7-12.6-6.4-27-1.3-39.9c12.2-30.9,48.3-43.5,79-44
				C90.3,30.4,95.4,30.6,100.6,31.1c0.3,0,1.6-0.6,0.9-0.6C69,27.5,29.9,35.2,10.4,64.1C2.8,75.3-0.4,89,2.1,102.4
				c3.2,17,14.7,31.1,28.4,41c31.4,22.7,75.1,27.7,111.2,14.1c15.9-6,31.1-16,39.8-31c6.8-11.6,8.7-25.5,5.3-38.5
				c-8.1-31.3-40.5-49.3-70.1-55.3c-5.1-1-10.2-1.8-15.3-2.2C101.1,30.5,99.9,31,100.6,31.1z"/>
			<path class="st2" d="M167.7,44.6c10.8,16.1,17.6,34.9,17.6,54.5c0,17.4-5.2,34.7-15,49c-9.9,14.5-24.3,25.6-40.8,31.6
				c-19.2,7-40.5,6.1-59.5-1c-18.2-6.8-34.2-19.2-45.4-35.1C13.4,127.5,7.4,107.8,7.4,88.2c0-20,6.4-39.9,19.1-55.4
				C36.9,19.9,51.1,10.3,67,5.5c15.8-4.8,32.9-4.8,48.7-0.2c16.8,4.9,31.7,14.9,43.3,28C162.2,36.9,165.1,40.7,167.7,44.6
				c0.2,0.4,1.6-0.1,1.3-0.4c-10.6-15.6-25-28.5-42.4-35.9c-15.2-6.5-32-8.6-48.3-5.9c-15.9,2.6-31,9.6-43.2,20.3
				c-14.7,12.9-24.4,30.7-27.7,50c-3.4,20-0.3,40.9,8.7,59.1c8.9,18.1,23.6,32.9,41.4,42.4c17.2,9.2,37.2,13.1,56.6,10.1
				c17.8-2.7,34.6-11.2,47.4-23.9c12.5-12.5,21-28.8,24-46.2c3.3-19,0-38.6-8.3-56c-2.3-4.8-5-9.4-8-13.9
				C168.8,43.8,167.6,44.3,167.7,44.6z"/>
			<g>
				<path class="st3" d="M170.2,37.5c18.8,25.4,8.6,59.9-8.5,83.2c-21.5,29.4-58.7,51.6-95.9,49.6c-15.1-0.8-30.3-6.1-40.7-17.4
					c-9.5-10.2-13.7-23.9-13.3-37.7c1-34.5,26.5-65.2,54.8-82.5c16-9.7,34.5-16.2,53.4-16.7c15.3-0.4,31.2,3.5,43,13.6
					C165.6,32,168,34.7,170.2,37.5c0.1,0.1,0.8-0.1,0.6-0.2c-20.9-27.6-61.3-24.9-89.9-12.4C48.7,39,19.2,68.4,12.3,103.8
					c-2.7,14-1.4,29,6.1,41.4c7.9,13,21.3,21,35.9,24c35.7,7.3,73.8-11.3,98-36.7c20.8-21.9,37.6-56.9,23.6-86.6
					c-1.4-3-3.2-5.9-5.2-8.6C170.7,37.1,170.1,37.4,170.2,37.5z"/>
				<path class="st4" d="M177.6,137.6c-5.4,9.7-19.8,9.6-29.4,8.8c-16.3-1.4-32.3-6.6-47.2-13c-17.3-7.3-33.8-16.6-48.9-27.7
					c-11.4-8.3-22.4-17.9-30.7-29.3c-4.9-6.8-10.7-16.4-8-25.2c3.2-10,15.9-11.5,24.8-11.4c15.9,0.2,31.7,5,46.4,10.7
					c17.6,6.8,34.4,15.8,49.9,26.5c12.1,8.4,23.9,17.9,33.2,29.4c5.7,7,12.5,16.7,11.3,26.4C178.9,134.5,178.4,136.1,177.6,137.6
					c-0.1,0.1,0.6,0.1,0.7-0.1c4.3-8.2-0.6-18.1-5.2-25c-8.1-12.3-19.6-22.3-31.3-31c-15.5-11.5-32.5-21.1-50.2-28.6
					c-15.5-6.6-32.2-12-49.2-13.1c-8.9-0.6-21-0.3-27.2,7.2c-5.8,7-2.4,16.7,1.6,23.6c6.9,12.1,17.5,22,28.3,30.5
					c14.7,11.8,31.1,21.6,48.3,29.5c16.1,7.5,33.4,13.7,51.2,15.8c9.6,1.2,22.3,1.8,30.4-4.7c1.4-1.2,2.6-2.5,3.5-4.2
					C178.3,137.3,177.7,137.4,177.6,137.6z"/>
				<path class="st3" d="M92.5,0.3c33.1-1,56,29.8,64.7,58.5c10.2,33.6,6.7,74.5-15,103c-9.2,12-22.1,21.6-37.4,23.9
					c-14.7,2.2-29.2-2.9-40.6-12c-27.6-22-37.4-61.6-34.1-95.4C33,47.6,49.1,10.8,81.5,2C85.1,1,88.8,0.5,92.5,0.3
					c0.2,0,0.7-0.3,0.3-0.3C59.8,1.4,39.1,32.8,32.1,62c-8.5,35.3-1.7,77.8,23.8,104.9c10.1,10.7,23.5,18.6,38.4,19.6
					c14.1,0.9,27.6-4.5,38.2-13.6c27.5-23.7,34.8-65.4,28.8-99.7C155.9,42.4,136.6,6.6,103,0.7C99.6,0.1,96.2-0.1,92.7,0
					C92.5,0,92,0.4,92.5,0.3z"/>
				<path class="st3" d="M156.1,22.5c2.2,2,2.3,5.3,2.1,8.1c-0.5,4.5-2.1,8.9-3.8,13.1c-5.6,13.5-13.8,26-22.2,37.9
					c-10.7,15-22.6,29.2-35.3,42.5c-10.8,11.3-22.2,22.1-35,31.1c-4.5,3.2-9.2,6.2-14.2,8.3c-3,1.3-6.9,2.7-10.1,1.5
					c-6.8-2.5-3-13.7-1.3-18.3c4.6-13,12.2-25,20-36.3c10.4-15.2,22.1-29.6,34.6-43.1c11-11.8,22.6-23.2,35.5-33
					c4.7-3.5,9.5-6.9,14.8-9.6c3.5-1.8,7.6-3.8,11.7-3.5C153.9,21.3,155.1,21.7,156.1,22.5c0.2,0.1,0.8-0.1,0.6-0.2
					c-5.2-4.3-14.5,1.2-19.1,3.9c-12.3,7.1-23.3,16.9-33.5,26.7C89.8,66.6,76.7,81.7,64.7,97.5c-9.7,12.8-18.9,26.3-25.8,40.9
					c-2.3,4.9-4.4,10-5.5,15.3c-0.6,3-1,6.7,0.7,9.3c3.5,5.3,12.2,1.4,16.4-0.7c12.1-6,22.8-15.3,32.6-24.4
					c14.2-13.1,27.2-27.6,39.2-42.8C133,81.8,143,67.6,150.9,52.4c2.7-5.2,5.2-10.6,6.8-16.3c0.9-3.4,1.9-7.3,0.9-10.8
					c-0.3-1.2-0.9-2.3-1.8-3.1C156.6,22.1,155.9,22.4,156.1,22.5z"/>
				<path class="st4" d="M62.7,40c29.2-17.8,71.6-28.4,101.3-5.6c11.3,8.7,18.4,21.8,19.6,36c1.5,16.7-4.6,33.3-13.6,47.2
					c-20.7,31.9-58.2,53.6-96.4,54.1c-16.7,0.2-34-4.1-46.5-15.6c-9-8.3-14.6-19.6-16-31.8c-3.5-30.6,16.8-58.7,40-76.3
					C54.8,45,58.8,42.4,62.7,40c0.4-0.2-0.3-0.2-0.5-0.1c-26.7,16.5-51.8,43.9-52.2,77c-0.2,12.6,3.9,25.1,12.1,34.8
					c10.5,12.3,26.1,18.4,41.9,19.8c37.5,3.4,76-15.5,99.5-44.2c11-13.5,19.5-29.9,20.9-47.5c1.2-14.8-3.5-29.6-13.8-40.4
					c-24.1-25.2-64.5-20.9-93.4-7.6c-5.1,2.4-10.1,5-14.9,8C61.9,40.1,62.5,40.1,62.7,40z"/>
				<path class="st4" d="M124.3,10.5c17.2,6,32.9,16.1,44.5,30.3c10.3,12.5,16.9,27.9,19,43.9c4.5,35.3-14,70.1-45.7,86.2
					c-17.8,9.1-38.5,12.1-58.2,9.1c-19.5-3-37.7-12.3-51.9-26c-14-13.6-24-31.4-27.2-50.8c-3-18.2,0.3-37.1,9-53.3
					c8.4-15.6,21.6-28.4,37.5-36.2C69,5,89.2,2.8,108.4,6.3C113.8,7.3,119.1,8.7,124.3,10.5c0.2,0.1,0.8-0.2,0.5-0.3
					C106,3.8,85.6,2.3,66.3,7.7c-17,4.7-32.5,14.6-43.7,28.3C11.1,49.9,4.3,67.3,3.3,85.3C2.1,105.7,8.8,126,21,142.4
					c11.9,16.1,28.9,28.4,47.9,34.5c18.4,5.9,38.6,6.1,57.2,0.6c18.7-5.5,35.7-16.7,47.1-32.6c9.7-13.4,15.2-29.6,15.9-46.1
					c0.7-16.4-3.5-32.9-11.8-47.1c-9-15.4-22.7-27.6-38.5-35.6c-4.5-2.3-9.1-4.2-13.9-5.9C124.7,10.2,124.1,10.4,124.3,10.5z"/>
			</g>
		</g>
		<g>
			<path class="st3" d="M87,74.3c0,1.7-1.4,3-3,3c-1.7,0-3-1.4-3-3s1.4-3,3-3C85.7,71.3,87,72.6,87,74.3z"/>
			<path class="st1" d="M94.9,129.2c0,1.7-1.4,3-3,3c-1.7,0-3-1.4-3-3c0-1.7,1.4-3,3-3C93.5,126.2,94.9,127.5,94.9,129.2z"/>
			<path class="st3" d="M102.8,56.8c0,1.4-1.1,2.5-2.5,2.5s-2.5-1.1-2.5-2.5c0-1.4,1.1-2.5,2.5-2.5S102.8,55.4,102.8,56.8z"/>
			<path class="st1" d="M146.3,64.5c0,1.4-1.1,2.5-2.5,2.5c-1.4,0-2.5-1.1-2.5-2.5c0-1.4,1.1-2.5,2.5-2.5
				C145.2,62,146.3,63.1,146.3,64.5z"/>
			<path class="st1" d="M110.8,112.9c0,1.7-1.4,3-3,3c-1.7,0-3-1.4-3-3c0-1.7,1.4-3,3-3C109.4,109.9,110.8,111.2,110.8,112.9z"/>
			<path class="st1" d="M127.7,34.9c0,1.7-1.4,3-3,3c-1.7,0-3-1.4-3-3s1.4-3,3-3C126.4,31.9,127.7,33.2,127.7,34.9z"/>
			<path class="st1" d="M32.2,93.6c0,1.7-1.4,3-3,3c-1.7,0-3-1.4-3-3s1.4-3,3-3C30.9,90.5,32.2,91.9,32.2,93.6z"/>
			<path class="st4" d="M53.1,161.8c0,1.2-1,2.1-2.1,2.1c-1.2,0-2.1-1-2.1-2.1c0-1.2,1-2.1,2.1-2.1
				C52.1,159.7,53.1,160.6,53.1,161.8z"/>
			<path class="st3" d="M61,42.3c0,1.2-1,2.1-2.1,2.1c-1.2,0-2.1-1-2.1-2.1c0-1.2,1-2.1,2.1-2.1C60,40.2,61,41.1,61,42.3z"/>
			<path class="st3" d="M174.8,112.9c0,1.2-1,2.1-2.1,2.1c-1.2,0-2.1-1-2.1-2.1c0-1.2,1-2.1,2.1-2.1
				C173.8,110.8,174.8,111.7,174.8,112.9z"/>
			<path class="st3" d="M62.2,170.3c0,1.2-1,2.1-2.1,2.1c-1.2,0-2.1-1-2.1-2.1c0-1.2,1-2.1,2.1-2.1
				C61.2,168.2,62.2,169.2,62.2,170.3z"/>
			<path class="st4" d="M134.3,16.3c0,1.2-1,2.1-2.1,2.1c-1.2,0-2.1-1-2.1-2.1c0-1.2,1-2.1,2.1-2.1
				C133.3,14.1,134.3,15.1,134.3,16.3z"/>
			<circle class="st4" cx="55.8" cy="108.5" r="3"/>
			<path class="st4" d="M161.1,96.5c0,1.7-1.4,3-3,3c-1.7,0-3-1.4-3-3s1.4-3,3-3C159.7,93.5,161.1,94.8,161.1,96.5z"/>
			<ellipse transform="matrix(0.7798 -0.6261 0.6261 0.7798 -13.0152 35.8824)" class="st4" cx="44.5" cy="36.4" rx="6" ry="6"/>
			<circle class="st4" cx="146.8" cy="150.8" r="6"/>
			<circle class="st4" cx="121.2" cy="67.1" r="6"/>
		</g>
	</g>
</g>
</svg>
