<svg xmlns="http://www.w3.org/2000/svg" xmlns:xlink="http://www.w3.org/1999/xlink" viewBox="0 0 149.14 138.57"><defs><style>.cls-1{fill:#0f54af;}.cls-2{fill:none;}.cls-3{fill:#009fdb;}.cls-4{clip-path:url(#clip-path);}.cls-5{clip-path:url(#clip-path-2);}.cls-6{fill:#0a6ebe;}.cls-7{clip-path:url(#clip-path-3);}.cls-8{fill:#83e3ff;}.cls-9{clip-path:url(#clip-path-4);}.cls-10{isolation:isolate;}.cls-11{clip-path:url(#clip-path-5);}.cls-12{clip-path:url(#clip-path-6);}.cls-13{fill:#964a00;}.cls-14{clip-path:url(#clip-path-7);}.cls-15{fill:#18b9ed;}.cls-16{clip-path:url(#clip-path-8);}.cls-17{clip-path:url(#clip-path-9);}</style><clipPath id="clip-path" transform="translate(0 -0.03)"><path class="cls-1" d="M105.78,13.23l4.46,3.62C125,28.82,132.86,47.62,131,68.74l-4.46-3.62C128.4,44,120.55,25.2,105.78,13.23Z"/></clipPath><clipPath id="clip-path-2" transform="translate(0 -0.03)"><path class="cls-2" d="M68.86,0A61,61,0,0,1,88.53,3.6c25.6,9.15,40.49,33.26,38,61.52l-62.74-1,14,61.15a65.43,65.43,0,0,1-20.23,2.94A56.44,56.44,0,0,1,9.74,100.9C-4.54,77.78-1.95,48.31,16.35,25.7,30,8.8,49.3-.31,68.86,0Z"/></clipPath><clipPath id="clip-path-3" transform="translate(0 -0.03)"><path class="cls-1" d="M27.14,119.32l-4.46-3.61a56.49,56.49,0,0,0,34.93,12.5,65.43,65.43,0,0,0,20.23-2.94l4.46,3.61a65.45,65.45,0,0,1-20.23,3A56.44,56.44,0,0,1,27.14,119.32Z"/></clipPath><clipPath id="clip-path-4" transform="translate(0 -0.03)"><path class="cls-2" d="M144.68,74.84A68.88,68.88,0,0,1,96,135l-14-61.15Z"/></clipPath><clipPath id="clip-path-5" transform="translate(0 -0.03)"><path class="cls-2" d="M144.68,74.84l4.46,3.61a68.89,68.89,0,0,1-48.7,60.15L96,135A68.88,68.88,0,0,0,144.68,74.84Z"/></clipPath><clipPath id="clip-path-6" transform="translate(0 -0.03)"><path class="cls-2" d="M100.88,17.43,103,19.08a53.5,53.5,0,0,0-16.13-8.69,55.85,55.85,0,0,0-18-3C51,7.41,33.51,16,21.34,31.6,5.05,52.44,3.23,79.39,16.7,100.24a54,54,0,0,0,11.85,13.11l-2.09-1.65A53.71,53.71,0,0,1,14.62,98.59C1.15,77.74,3,50.79,19.25,30,31.42,14.35,48.88,5.76,66.75,5.76a55.85,55.85,0,0,1,18,3A53.68,53.68,0,0,1,100.88,17.43Z"/></clipPath><clipPath id="clip-path-7" transform="translate(0 -0.03)"><path class="cls-2" d="M104.55,12.84l2.09,1.65c14.9,11.77,23.07,30.39,21.65,51.43l-2.08-1.65C127.63,43.24,119.45,24.61,104.55,12.84Z"/></clipPath><clipPath id="clip-path-8" transform="translate(0 -0.03)"><path class="cls-2" d="M24.94,118l-2.08-1.65a56.88,56.88,0,0,0,35.55,12.17,65.29,65.29,0,0,0,20.21-3.28l2.09,1.65a65.34,65.34,0,0,1-20.21,3.28A56.93,56.93,0,0,1,24.94,118Z"/></clipPath><clipPath id="clip-path-9" transform="translate(0 -0.03)"><path class="cls-2" d="M143.47,73.73l2.1,1.65a69,69,0,0,1-47.84,61.29L95.63,135A69,69,0,0,0,143.47,73.73Z"/></clipPath></defs><title>profit</title><g id="Layer_2" data-name="Layer 2"><g id="Layer_1-2" data-name="Layer 1"><path class="cls-3" d="M69.86.23A61,61,0,0,1,89.53,3.82c25.6,9.15,40.49,33.26,38,61.52l-62.74-1,14,61.15a65.43,65.43,0,0,1-20.23,2.94,56.44,56.44,0,0,1-47.87-27.31C-3.54,78-.95,48.53,17.35,25.92,31,9,50.3-.09,69.86.23Z" transform="translate(0 -0.03)"/><path class="cls-1" d="M105.78,13.23l4.46,3.62C125,28.82,132.86,47.62,131,68.74l-4.46-3.62C128.4,44,120.55,25.2,105.78,13.23Z" transform="translate(0 -0.03)"/><g class="cls-4"><path class="cls-2" d="M105.78,13.23l4.46,3.62c.92.74,1.8,1.51,2.66,2.3l-4.46-3.62c-.86-.79-1.74-1.56-2.66-2.3" transform="translate(0 -0.03)"/><path class="cls-2" d="M108.44,15.53l4.46,3.62a54,54,0,0,1,4.35,4.47L112.79,20a54.07,54.07,0,0,0-4.35-4.48" transform="translate(0 -0.03)"/><path class="cls-2" d="M112.79,20l4.46,3.61a56,56,0,0,1,4.29,5.65l-4.46-3.61A54.87,54.87,0,0,0,112.79,20" transform="translate(0 -0.03)"/><path class="cls-2" d="M117.08,25.66l4.46,3.61a57,57,0,0,1,4.54,8.26l-4.46-3.61a56.47,56.47,0,0,0-4.54-8.26" transform="translate(0 -0.03)"/><path class="cls-2" d="M121.62,33.92l4.46,3.61a62.52,62.52,0,0,1,5,29.57l-4.46-3.61a62.5,62.5,0,0,0-5-29.57" transform="translate(0 -0.03)"/><path class="cls-2" d="M126.66,63.49l4.46,3.61c0,.55-.07,1.09-.12,1.64l-4.46-3.62c0-.54.09-1.09.12-1.63" transform="translate(0 -0.03)"/></g><polygon class="cls-1" points="126.54 65.09 131 68.71 68.26 67.7 63.8 64.08 126.54 65.09"/><g class="cls-5"><path class="cls-6" d="M53.08,103.42l1.24-8.52a45.52,45.52,0,0,1-10.11-3.15,31.45,31.45,0,0,1-7.79-4.83l4.41-8.84a38.06,38.06,0,0,0,15,6.43l2.24-15.42a48.23,48.23,0,0,1-10-5.84,14.69,14.69,0,0,1-4.67-6.15,16.05,16.05,0,0,1-.59-8,15.3,15.3,0,0,1,6.44-10.81q5.41-3.82,13.92-3.64l1.23-8.52,7.93,1.15-1.21,8.35a38.27,38.27,0,0,1,14.25,6.67l-4.22,8.78A35.21,35.21,0,0,0,69.66,46L67.55,60.55a48.8,48.8,0,0,1,7.07,3.74,27.87,27.87,0,0,1,2.56,1.87A15.7,15.7,0,0,1,82,72.64a16.42,16.42,0,0,1,.68,8.19A15.81,15.81,0,0,1,76.24,91.9a19.2,19.2,0,0,1-5.44,2.69,27.55,27.55,0,0,1-8.51,1.12L61,104.57Zm1.5-53.62a5.27,5.27,0,0,0,.81,4A13.13,13.13,0,0,0,60,57.1L61.72,45C57.42,45,55,46.61,54.58,49.8ZM71,79.84a4.77,4.77,0,0,0-.91-3.65,13.89,13.89,0,0,0-4.51-3.4L63.79,85.32a10.19,10.19,0,0,0,4.59-1.27A5.66,5.66,0,0,0,71,79.84Z" transform="translate(0 -0.03)"/></g><polygon class="cls-1" points="63.8 64.08 68.26 67.7 82.3 128.85 77.84 125.23 63.8 64.08"/><path class="cls-1" d="M27.14,119.32l-4.46-3.61a56.49,56.49,0,0,0,34.93,12.5,65.43,65.43,0,0,0,20.23-2.94l4.46,3.61a65.45,65.45,0,0,1-20.23,3A56.44,56.44,0,0,1,27.14,119.32Z" transform="translate(0 -0.03)"/><g class="cls-7"><path class="cls-2" d="M77.84,125.27l4.46,3.61a65.45,65.45,0,0,1-20.23,3,56.44,56.44,0,0,1-34.93-12.51l-4.46-3.61a56.49,56.49,0,0,0,34.93,12.5,65.43,65.43,0,0,0,20.23-2.94" transform="translate(0 -0.03)"/></g><path class="cls-8" d="M144.68,74.84A68.88,68.88,0,0,1,96,135l-14-61.15Z" transform="translate(0 -0.03)"/><g class="cls-9"><path class="cls-6" d="M71.08,114.42l1.24-8.52a45.52,45.52,0,0,1-10.11-3.15,31.45,31.45,0,0,1-7.79-4.83l4.41-8.84a38.06,38.06,0,0,0,15,6.43l2.24-15.42a48.23,48.23,0,0,1-10-5.84,14.69,14.69,0,0,1-4.67-6.15,16.05,16.05,0,0,1-.59-8,15.3,15.3,0,0,1,6.44-10.81q5.42-3.82,13.92-3.64l1.23-8.52,7.93,1.15-1.21,8.35a38.27,38.27,0,0,1,14.25,6.67l-4.22,8.78A35.21,35.21,0,0,0,87.66,57L85.55,71.55a48.8,48.8,0,0,1,7.07,3.74,27.87,27.87,0,0,1,2.56,1.87A15.7,15.7,0,0,1,100,83.64a16.42,16.42,0,0,1,.68,8.19,15.81,15.81,0,0,1-6.47,11.07,19.2,19.2,0,0,1-5.44,2.69,27.55,27.55,0,0,1-8.51,1.12L79,115.57Zm1.5-53.62a5.27,5.27,0,0,0,.81,4A13.13,13.13,0,0,0,78,68.1L79.72,56C75.42,56,73,57.61,72.58,60.8ZM89,90.84a4.77,4.77,0,0,0-.91-3.65,13.89,13.89,0,0,0-4.51-3.4L81.79,96.32a10.19,10.19,0,0,0,4.59-1.27A5.66,5.66,0,0,0,89,90.84Z" transform="translate(0 -0.03)"/></g><g class="cls-10"><g class="cls-11"><path class="cls-6" d="M144.68,74.84l4.46,3.61a69.21,69.21,0,0,1-1.42,9.17L143.26,84a69.21,69.21,0,0,0,1.42-9.17" transform="translate(0 -0.03)"/><path class="cls-6" d="M143.26,84l4.46,3.61a66.77,66.77,0,0,1-2.15,7.6l-4.46-3.61a67.35,67.35,0,0,0,2.15-7.6" transform="translate(0 -0.03)"/><path class="cls-6" d="M141.11,91.61l4.46,3.61q-1.11,3.21-2.52,6.27l-4.46-3.62q1.41-3.06,2.52-6.26" transform="translate(0 -0.03)"/><path class="cls-6" d="M138.59,97.87l4.46,3.62q-1.31,2.83-2.86,5.54l-4.46-3.61q1.56-2.7,2.86-5.55" transform="translate(0 -0.03)"/><path class="cls-6" d="M135.73,103.42l4.46,3.61q-1.5,2.63-3.24,5.1l-4.46-3.61q1.74-2.47,3.24-5.1" transform="translate(0 -0.03)"/><path class="cls-6" d="M132.49,108.52l4.46,3.61q-1.74,2.5-3.71,4.84l-4.46-3.62c1.31-1.55,2.55-3.17,3.71-4.83" transform="translate(0 -0.03)"/><path class="cls-6" d="M128.78,113.35l4.46,3.62q-2.06,2.44-4.34,4.7l-4.46-3.61q2.28-2.25,4.34-4.71" transform="translate(0 -0.03)"/><path class="cls-6" d="M124.44,118.06l4.46,3.61a67.58,67.58,0,0,1-5.36,4.77l-4.46-3.62a69.5,69.5,0,0,0,5.36-4.76" transform="translate(0 -0.03)"/><path class="cls-6" d="M119.08,122.82l4.46,3.62a70,70,0,0,1-7.27,5.08l-4.46-3.62a68.46,68.46,0,0,0,7.27-5.08" transform="translate(0 -0.03)"/><path class="cls-6" d="M111.81,127.9l4.46,3.62a70,70,0,0,1-15.83,7.08L96,135a70,70,0,0,0,15.83-7.08" transform="translate(0 -0.03)"/></g></g><g class="cls-10"><g class="cls-10"><g class="cls-12"><g class="cls-10"><path class="cls-6" d="M100.88,17.43,103,19.08a53.5,53.5,0,0,0-16.13-8.69,55.85,55.85,0,0,0-18-3,58,58,0,0,0-30.84,9L35.91,14.8a58,58,0,0,1,30.84-9,55.85,55.85,0,0,1,18,3,53.68,53.68,0,0,1,16.14,8.69" transform="translate(0 -0.03)"/><path class="cls-6" d="M35.91,14.8,38,16.45a63.11,63.11,0,0,0-6.62,4.79l-2.09-1.65a65.7,65.7,0,0,1,6.62-4.79" transform="translate(0 -0.03)"/><path class="cls-6" d="M29.29,19.59l2.09,1.65a64.27,64.27,0,0,0-5,4.63l-2.09-1.65a64.27,64.27,0,0,1,5-4.63" transform="translate(0 -0.03)"/><path class="cls-6" d="M24.26,24.22l2.09,1.65c-1.47,1.5-2.89,3.09-4.24,4.76L20,29c1.35-1.67,2.77-3.26,4.24-4.76" transform="translate(0 -0.03)"/><path class="cls-6" d="M20,29l2.09,1.65-.77,1q-1.55,2-2.91,4L16.34,34c.91-1.36,1.88-2.69,2.91-4L20,29" transform="translate(0 -0.03)"/><path class="cls-6" d="M16.34,34l2.09,1.65c-1.11,1.65-2.13,3.34-3.07,5L13.28,39c.93-1.71,2-3.4,3.06-5" transform="translate(0 -0.03)"/><path class="cls-6" d="M13.28,39l2.08,1.65c-.95,1.74-1.82,3.52-2.6,5.32l-2.09-1.65c.78-1.8,1.65-3.58,2.61-5.32" transform="translate(0 -0.03)"/><path class="cls-6" d="M10.67,44.33,12.76,46q-1.24,2.87-2.19,5.81L8.49,50.14a60,60,0,0,1,2.18-5.81" transform="translate(0 -0.03)"/><path class="cls-6" d="M8.49,50.14l2.08,1.65a60.92,60.92,0,0,0-1.75,6.82L6.73,57a60.58,60.58,0,0,1,1.76-6.83" transform="translate(0 -0.03)"/><path class="cls-6" d="M6.73,57l2.09,1.64a58.28,58.28,0,0,0-1.06,9.55L5.67,66.51A58,58,0,0,1,6.73,57" transform="translate(0 -0.03)"/><path class="cls-6" d="M5.67,66.51l2.09,1.65a55.84,55.84,0,0,0,4.7,24.21l-2.09-1.65a56,56,0,0,1-4.7-24.21" transform="translate(0 -0.03)"/><path class="cls-6" d="M10.37,90.72l2.09,1.65a56.52,56.52,0,0,0,4.24,7.87c.2.3.39.6.59.89L15.2,99.48c-.2-.29-.39-.59-.58-.89a55.55,55.55,0,0,1-4.25-7.87" transform="translate(0 -0.03)"/><path class="cls-6" d="M15.2,99.48l2.09,1.65a54.37,54.37,0,0,0,4.4,5.71l-2.09-1.65a56.07,56.07,0,0,1-4.4-5.71" transform="translate(0 -0.03)"/><path class="cls-6" d="M19.6,105.19l2.09,1.65a49.83,49.83,0,0,0,4.21,4.26l-2.09-1.65a51.35,51.35,0,0,1-4.21-4.26" transform="translate(0 -0.03)"/><path class="cls-13" d="M23.81,109.45l2.09,1.65c.86.78,1.74,1.53,2.65,2.25l-2.09-1.65c-.91-.72-1.79-1.47-2.65-2.25" transform="translate(0 -0.03)"/></g></g></g><g class="cls-10"><g class="cls-14"><g class="cls-10"><path class="cls-13" d="M104.55,12.84l2.09,1.65q1.48,1.17,2.88,2.43l-2.09-1.65Q106,14,104.55,12.84" transform="translate(0 -0.03)"/><path class="cls-6" d="M107.43,15.27l2.09,1.65A59.42,59.42,0,0,1,114,21.44l-2.09-1.65a57.61,57.61,0,0,0-4.46-4.52" transform="translate(0 -0.03)"/><path class="cls-6" d="M111.89,19.79,114,21.44a55.68,55.68,0,0,1,4.46,5.79l-2.09-1.65a55.68,55.68,0,0,0-4.46-5.79" transform="translate(0 -0.03)"/><path class="cls-6" d="M116.35,25.58l2.09,1.65a57.07,57.07,0,0,1,4.87,8.85l-2.09-1.65a57.07,57.07,0,0,0-4.87-8.85" transform="translate(0 -0.03)"/><path class="cls-6" d="M121.22,34.43l2.09,1.65a62.71,62.71,0,0,1,5.12,27.13l-2.09-1.64a62.76,62.76,0,0,0-5.12-27.14" transform="translate(0 -0.03)"/><path class="cls-6" d="M126.34,61.57l2.09,1.64c0,.9-.07,1.8-.14,2.71l-2.08-1.65c.06-.91.1-1.81.13-2.7" transform="translate(0 -0.03)"/></g></g></g><polygon class="cls-6" points="126.21 64.23 128.29 65.88 122.68 65.88 120.59 64.23 126.21 64.23"/><path class="cls-15" d="M67.1,0A61.49,61.49,0,0,1,86.85,3.3c25.82,8.74,41.27,32.68,39.36,61h-5.62C122.33,38.5,108.27,16.7,84.74,8.74a55.85,55.85,0,0,0-18-3c-17.87,0-35.33,8.59-47.5,24.19C3,50.79,1.15,77.74,14.62,98.59a51.85,51.85,0,0,0,44.23,24.19,59.8,59.8,0,0,0,18.4-3l1.37,5.42a65.29,65.29,0,0,1-20.21,3.28A57,57,0,0,1,9.85,102C-4.94,79.06-2.94,49.48,14.93,26.6,28.31,9.46,47.48,0,67.1,0Z" transform="translate(0 -0.03)"/><polygon class="cls-6" points="77.25 119.78 79.33 121.42 80.71 126.85 78.62 125.2 77.25 119.78"/><g class="cls-10"><g class="cls-16"><path class="cls-6" d="M78.62,125.23l2.09,1.65a65.34,65.34,0,0,1-20.21,3.28A56.93,56.93,0,0,1,24.94,118l-2.08-1.65a56.88,56.88,0,0,0,35.55,12.17,65.29,65.29,0,0,0,20.21-3.28" transform="translate(0 -0.03)"/></g></g><path class="cls-15" d="M143.47,73.73A69,69,0,0,1,95.63,135l-1.38-5.46a62.86,62.86,0,0,0,43.58-55.83Z" transform="translate(0 -0.03)"/><g class="cls-10"><g class="cls-17"><g class="cls-10"><path class="cls-6" d="M143.47,73.73l2.1,1.65a70.15,70.15,0,0,1-1.14,8.76l-2.1-1.66a70,70,0,0,0,1.14-8.75" transform="translate(0 -0.03)"/><path class="cls-6" d="M142.33,82.48l2.1,1.66a70.71,70.71,0,0,1-2,7.86l-2.1-1.66a68.57,68.57,0,0,0,2-7.86" transform="translate(0 -0.03)"/><path class="cls-6" d="M140.31,90.34l2.1,1.66q-1,3.28-2.42,6.44l-2.1-1.66a68.12,68.12,0,0,0,2.42-6.44" transform="translate(0 -0.03)"/><path class="cls-6" d="M137.89,96.78l2.1,1.66q-1.26,2.93-2.79,5.71l-2.1-1.66q1.53-2.79,2.79-5.71" transform="translate(0 -0.03)"/><path class="cls-6" d="M135.1,102.49l2.1,1.66c-1,1.79-2,3.54-3.18,5.24l-2.1-1.66c1.13-1.7,2.2-3.45,3.18-5.24" transform="translate(0 -0.03)"/><path class="cls-6" d="M131.92,107.73l2.1,1.66c-1.15,1.71-2.38,3.37-3.67,5l-2.1-1.66c1.29-1.6,2.52-3.26,3.67-5" transform="translate(0 -0.03)"/><path class="cls-6" d="M128.25,112.7l2.1,1.66c-1.36,1.68-2.8,3.3-4.32,4.84l-2.1-1.66c1.52-1.54,3-3.16,4.32-4.84" transform="translate(0 -0.03)"/><path class="cls-6" d="M123.93,117.54l2.1,1.66a67.08,67.08,0,0,1-5.34,4.91l-2.1-1.65a69.14,69.14,0,0,0,5.34-4.92" transform="translate(0 -0.03)"/><path class="cls-6" d="M118.59,122.46l2.1,1.65a69.93,69.93,0,0,1-7.27,5.25l-2.1-1.65a70.34,70.34,0,0,0,7.27-5.25" transform="translate(0 -0.03)"/><path class="cls-6" d="M111.32,127.71l2.1,1.65a69.64,69.64,0,0,1-15.69,7.31L95.63,135a70.52,70.52,0,0,0,15.69-7.31" transform="translate(0 -0.03)"/></g></g></g></g></g></g></svg>