<svg id="Layer_1" data-name="Layer 1" xmlns="http://www.w3.org/2000/svg" viewBox="0 0 1356.33 400.93"><defs><style>.cls-1{fill:#afafaf;}.cls-2{fill:#f7fbfc;}.cls-3{fill:#0f54af;}.cls-4{fill:#fff;}.cls-5{fill:#d2d2d2;}.cls-6{fill:#aaa;}.cls-7{fill:#959595;}.cls-8{fill:#fafcfc;}.cls-9{fill:#494949;}.cls-10{fill:#595959;}.cls-11{fill:#fbfbfb;}.cls-12{fill:#2b2b2b;}.cls-13{fill:#545454;}.cls-14{fill:#3e3e3e;}.cls-15{fill:#8e8e8e;}.cls-16{fill:#fafafa;}.cls-17{fill:#5a5a5a;}.cls-18{fill:#373737;}.cls-19{fill:#767676;}.cls-20{fill:#676767;}.cls-21{fill:#f7f7f7;}.cls-22{fill:none;stroke:#d2d2d2;stroke-miterlimit:10;stroke-width:4px;}.cls-23{fill:#f0f0f0;}</style></defs><title>busint-business-people</title><polygon class="cls-1" points="176.72 182.31 167.46 181.52 164.89 167.48 168.31 154.78 180.51 157.44 177.54 165.49 183.65 178.71 176.72 182.31"/><path class="cls-2" d="M157.8,165.4c-2.83-3.29-4.83-3.3-8-6.32l10.1-15.59,14.33,11.67-9.38,15.39Z"/><path class="cls-3" d="M144.33,145l-.37-3.59-3.39-19.71L172.76,84l7.86,41.45-23.2,18.07S149.88,144.4,144.33,145Z"/><polygon class="cls-3" points="248.05 394.27 249.92 385.22 259.54 385.87 262.96 393.08 265.65 395.29 265.65 400.93 248.05 400.93 248.05 394.27"/><polygon class="cls-3" points="147.78 397.07 171.79 386.37 178.06 386.03 183.72 394.14 184.09 400.93 149.86 400.93 147.78 397.07"/><polygon class="cls-3" points="230.13 222.15 185.45 210.15 184.9 181.01 243.5 185.14 243.41 212.26 230.13 222.15"/><polygon class="cls-3" points="170.71 388.74 178.97 193.47 214.11 208.46 182.15 391.9 170.71 388.74"/><path class="cls-2" d="M240.77,186.92l-39.84,4a40,40,0,0,1-10.9-2.59l-2-112c7.58-3,10.21-9.59,17.55-10.71,15.55-2.37,38.1,13.45,46.48,18.56,2.62,1.6,5.21-.54,6.48.42,3.6,2.81-14.45,54.73-18.13,75.67Z"/><path class="cls-1" d="M214.11,70.32c-11.82.23-10.67-1.41-10.74-9.14-.07-5-.15-27.09-.15-27.09l20.41,6.44S225.1,65.8,225,69,223.86,70.13,214.11,70.32Z"/><path class="cls-3" d="M250.12,387.11c-1.33-13.42-39.05-193.64-39.05-193.64L249.9,198s13.59,184.08,11.87,189.61C257.47,389.7,253,388.53,250.12,387.11Z"/><path class="cls-4" d="M208.45,70.28l16.28-10.71,2.82,8.56S217,79.61,216.73,80.94C216,79.74,208.45,70.28,208.45,70.28Z"/><path class="cls-4" d="M216.75,81.05s0-.06,0-.11C216.8,81.05,216.82,81.1,216.75,81.05Z"/><polygon class="cls-4" points="199.97 67.09 202.39 60.51 208.45 70.28 204.06 79.94 199.97 67.09"/><polygon class="cls-3" points="252.31 218.11 223.27 217.74 223.53 94.45 226.34 64.45 261.8 83.11 251.55 111.91 252.31 218.11"/><polygon class="cls-3" points="192.89 215.26 176.52 212.33 172.76 83.97 199.97 67.09 191.25 94.45 192.89 215.26"/><polygon class="cls-3" points="208.78 78.6 206.24 75.42 208.78 70.32 210.65 74.88 209.76 76.65 208.78 78.6"/><polygon class="cls-3" points="204.74 163.74 207.37 76.32 209.66 75.9 213.19 161.74 209.66 171.99 204.74 163.74"/><path class="cls-5" d="M211.62,65.3l-10.1-2.1-5-10.76-.3-2.56s-.17-21.46.09-24.12c.71-7,4.27-3.78,14.15-7a17.36,17.36,0,0,1,7.32-.75,18.12,18.12,0,0,1,9.75,4.11c-1.38,10.69-2.26,21.46-3.58,32.13C222.18,57.83,211.62,65.3,211.62,65.3Z"/><path class="cls-3" d="M223.52,31.16l-24.81-5.78L196.17,39.9S195,21.08,197,15.12c2.72-8.2,29.48,1.72,30.33,4.94,1.1,4.31.21,15.32-1.8,23.16C225.42,39.46,223.52,31.16,223.52,31.16Z"/><path class="cls-3" d="M224,44.63l.82-7s0-19.73,1.56-18.73,2.13,1.84,2.62,5.95c.59-3.48.11-4.4.11-4.4a12.76,12.76,0,0,1,3,2.88c1.43,10.32-3.62,20.48-3.62,20.48Z"/><path class="cls-5" d="M222.3,51.61s1.87-7.7,4.17-10c3-3.07,5.53-.35,5.74,1.46C232.6,46.53,226.59,54.23,222.3,51.61Z"/><polygon class="cls-3" points="131.82 145.64 131.82 131.68 140.57 121.66 172.76 153.14 162.05 171.05 131.82 145.64"/><polygon class="cls-5" points="265.39 179.28 259.08 185.59 249.2 184.45 247.82 165.79 251.06 159.5 262.69 152.08 270.35 164.4 261.8 168.12 265.39 179.28"/><path class="cls-2" d="M270.89,165.89l-7.62,5.16-11.39-14L269,145l13.32,16.2C275.72,162.59,273.72,162.6,270.89,165.89Z"/><path class="cls-3" d="M293.61,145.64c-5.55-.57-13.09-1.48-13.09-1.48l-33.66-24.7L261.69,83l35.8,39.87L294,142Z"/><polygon class="cls-3" points="254.88 153.69 296.4 121.66 305.36 132.4 305.36 146.34 268.38 171.05 254.88 153.69"/><path class="cls-3" d="M92.77,150C83.68,126.7,73.63,88.18,69.06,86.61c-29.95-11.75-12.24,2.19-14.41,13C52,113,56.05,130.82,62.48,147c5.57,2.81,9.2,12.07,25.89,13.26C105.44,151.57,88.06,151.59,92.77,150Z"/><rect class="cls-3" x="23.37" y="380.08" width="5.38" height="20.79"/><path class="cls-1" d="M104.28,148.59a17.26,17.26,0,0,1-3.83,6.46c-1.38,1.53-2.66,3.77-4.51,3.9-1.54.1-3.1.07-4.65.1A9.6,9.6,0,0,1,88,159a2.62,2.62,0,0,1-.39-.15A29.34,29.34,0,0,1,84,156l-2.77-8.89,7.65,1.34Z"/><path class="cls-3" d="M36.59,383.52l4,9.72,1.34.93s.43,6.58.14,6.7-14.1,0-14.1,0l-5.4-20.79,4.29-5.84,6.46-1.78Z"/><polygon class="cls-5" points="37.84 392.68 29.71 395.11 25.66 378.25 31.07 372.01 34.35 373.34 37.84 392.68"/><path class="cls-5" d="M84.53,270.83s-5.78-33.27-12.06-57.41L51.13,226.84l18.39,52.85S61.9,302.9,65,312.92c2.06,6.65,30.81,64.42,30.81,64.42l10.66,20.52,4.21-.6C94.55,366.68,85.15,292,84.38,288.44Z"/><polygon class="cls-3" points="93.83 373.46 87.31 379.46 91.42 400.58 94.38 400.6 94.89 390.77 102.95 400.75 114.4 400.93 114.43 397.94 109.73 396.11 93.83 373.46"/><path class="cls-5" d="M18.68,216.37c2.1-3.66,4.17-7.34,6.17-11.07l13-1.75V392.68l-6.46-6.84s-15.25-81.32-15.54-85c-.78-10.45,8-29.6,8-29.6Z"/><path class="cls-1" d="M53.38,91.57c-7.19-.75-17.07-2.11-19.51-3.49.56-8.36,5.13-29.79,8.24-35.75,1.54.54,9.61,5.39,8.48,12.32C48.65,76.47,53.69,88.83,53.38,91.57Z"/><path class="cls-4" d="M23.1,81.7c10.25-4.32,25.2-4.32,36.33,2.53,8,7.75,12.56,15.08,7.33,28-.09,3.08,2.36,47.19,3.13,60.95a18.65,18.65,0,0,1-.23,4.35c-11.81.42-27.9-8.89-39.56-13.77,5.24-8.23,13-26.48,12.6-33C41.55,112.88,23.7,100.42,23.1,81.7Z"/><path class="cls-3" d="M12.94,145.1c-2.31-4.35,9.22-31.64,11.41-41.72s-8-15.7-11.75-19.4C10.71,84.77,0,149.23,0,149.23,1.91,155.76,15.88,150.67,12.94,145.1Z"/><path class="cls-3" d="M70.08,174.11l-37.32-15c-3,4.36-15.7,17.71-16.84,28.45-.68,6.48,3,76.65,3,76.65,15.15,3.57,64.83-.93,64.83-.93l-13.62-70.7S70.19,179.23,70.08,174.11Z"/><path class="cls-5" d="M69.09,151.51l1.12,4.56c.13.58-6.12,3.53-6.69,3.83-3.34,1.76-6.11,2.63-9.82,1.28-2-.75-5.42-1.45-7.06-2.9l-7.55-6.91,11.33-1Z"/><polygon class="cls-3" points="54.65 81.8 70.21 99.46 69.46 165.51 70.11 175.92 74.28 173.16 72.4 97.74 64.47 84.88 54.65 81.8"/><path class="cls-3" d="M35.29,78,46.51,99.46l-1.64,68.81-18-1.59s9.84-26.3,9.42-28.72S12.6,84,12.6,84Z"/><path class="cls-3" d="M2.35,143.82c7.29-7.83,30,8,45.29,8.66v6.06c-12.52,1.46-19.35.31-29-.31C1.88,157.17-3.27,149.84,2.35,143.82Z"/><path class="cls-6" d="M67.4,120.93a3.38,3.38,0,0,1,2.71-2.44l43-.9c1.07,0,1.62,1,1.22,2.34l-8.61,27.8a3.33,3.33,0,0,1-2.71,2.43l-43.19,1c-1.09,0-1.64-1-1.22-2.35Z"/><path class="cls-7" d="M66.22,124.73l39.7,22.33-.21.67a3.33,3.33,0,0,1-2.71,2.43l-43.19,1c-1.09,0-1.64-1-1.22-2.35Z"/><path class="cls-7" d="M39.28,149.32l62.25-1.64a3.13,3.13,0,0,1,.15,6.25l-62.25,1.66a3.14,3.14,0,0,1-.15-6.27Z"/><path class="cls-8" d="M91.09,129.1c1.45.48,2.09,2.55,1.4,4.64s-2.42,3.38-3.86,2.89-2.07-2.54-1.4-4.62S89.65,128.62,91.09,129.1Z"/><path class="cls-3" d="M30.3,36.58a7.61,7.61,0,0,0,11.13.72C44.87,34.24,44,26.16,41,22.72a8.35,8.35,0,0,0-11.77-.67C25.76,25.11,27.24,33.15,30.3,36.58Z"/><path class="cls-5" d="M39.88,47.53c1.23-4.07,3.23-11.34,6.62-13.22s5.42,1.28,9.45,2.56a14.23,14.23,0,0,1,5.36,3.05c2.92,2.63,6,2.36,6.63,5L64,57.65c-3.23,5.84-10.46,13.76-10.46,13.76l-7-.6C42.67,60.78,38.81,51.06,39.88,47.53Z"/><path class="cls-3" d="M47.92,23.57C60.07,22.71,72,32.83,68.34,46.88L43,48.66,41.6,52.83l-1.17,3.75c-4.45-3.43-7.64-7.66-7.68-14.81C32.71,32.42,34.82,24.49,47.92,23.57Z"/><path class="cls-5" d="M43.65,55.11l-.39-8.92S42,42,38.72,43.27,37.71,56,43.65,55.11Z"/><path class="cls-9" d="M584.82,124l-12.74-.48,3.17-23s19.27-20.74,24.23-27.29c3,2.76,14.55,15.89,14.61,19.63.11,7.09-3.77,10.66-8.07,16.58C604.06,112.15,584.82,124,584.82,124Z"/><polygon class="cls-9" points="650.4 393.08 646.98 385.88 637.37 385.23 635.5 394.27 635.5 400.93 653.09 400.93 653.09 395.28 650.4 393.08"/><polygon class="cls-9" points="644.18 373.66 648.58 369.21 658.22 371.44 662.94 376.13 637.75 399.26 633.53 397.69 644.18 373.66"/><polygon class="cls-10" points="648.81 377.25 647.05 387.47 637.34 387.47 651.24 376.15 648.81 377.25"/><polygon class="cls-9" points="672.24 181.01 672.16 208.1 658.88 217.97 614.26 205.99 613.71 176.88 672.24 181.01"/><polygon class="cls-9" points="649.53 215.15 617.14 183.58 592.28 291.37 619.73 288.54 649.53 215.15"/><polygon class="cls-9" points="592.28 291.37 648.3 375.73 657.46 370.15 616.85 281.62 592.28 291.37"/><path class="cls-4" d="M690.1,76.36c-1.26-1-3.85,1.16-6.45-.43-8.4-5.1-33.74-16.62-49.27-14.24-7.35,1.13-10,4.06-17.53,7l2,115.5a40.69,40.69,0,0,0,10.88,2.6l39.81-4-.36-26.6C672.84,135.3,693.7,79.15,690.1,76.36Z"/><path class="cls-1" d="M653.77,65c-.1,3.19-1.15,1.13-10.88,1.32-11.81.24-10.66-1.41-10.74-9.13-.06-5-.14-27.06-.14-27.06l20.38,6.44S653.87,61.8,653.77,65Z"/><path class="cls-10" d="M693.55,75c5.2,24.54,4.48,74.59,4.48,74.59l-19.61-7.34c-5.07-6.07-4.2-18.46-5-24.15-.74-5.25-1.51-15.36-1-18.63C673.61,92.25,692.87,71.78,693.55,75Z"/><polygon class="cls-5" points="672.35 167.77 672.01 167.16 673.1 167.4 672.35 167.77"/><path class="cls-9" d="M639.86,193.84h38.78s-28.78,188.09-30.5,193.63c-4.28,2.08-8.74.91-11.63-.51C635.17,373.57,639.86,193.84,639.86,193.84Z"/><path class="cls-11" d="M653.49,55.58l2.82,8.54s-11.49,12.46-10.78,12.93-8.29-10.76-8.29-10.76Z"/><polygon class="cls-11" points="632.84 75.93 637.24 66.29 631.18 56.53 628.77 63.1 632.84 75.93"/><polygon class="cls-10" points="655.1 60.46 652.04 213.56 679.41 213.56 683.76 104.23 692.55 74.71 655.1 60.46"/><polygon class="cls-10" points="628.77 63.1 628.75 211.07 610.32 208.51 609.9 94.98 607.61 71.89 628.77 63.1"/><polygon class="cls-10" points="637.55 66.32 639.43 70.88 638.54 72.64 637.55 74.59 635.03 71.41 637.55 66.32"/><polygon class="cls-10" points="638.45 167.87 633.53 159.62 636.15 72.31 638.45 71.89 641.97 157.63 638.45 167.87"/><path class="cls-12" d="M631.85,133.47a3.2,3.2,0,0,0-2.51-2.36l-42.8-1.83c-1-.05-1.56.93-1.2,2.19L595,157.92a3.2,3.2,0,0,0,2.5,2.36l40.82,2c1,0,1.56-.95,1.19-2.19Z"/><path class="cls-13" d="M629.67,134.57a3.18,3.18,0,0,0-2.5-2.36l-40.6-1.85c-1-.06-1.55.93-1.2,2.18L592.85,159a3.15,3.15,0,0,0,2.5,2.36l40.81,2c1,0,1.56-.93,1.19-2.19Z"/><path class="cls-14" d="M630.72,138.21l-38.05,20.18.18.63a3.15,3.15,0,0,0,2.5,2.36l40.81,2c1,0,1.56-.93,1.19-2.19Z"/><path class="cls-5" d="M612.4,155.24a23.12,23.12,0,0,0,7.67,6.26c2.53,1.41,5.11,3.59,8,3.46,2.43-.12,4.83-.36,7.25-.55,1.59-.14,3.54,0,5.11-.54a4,4,0,0,0,.57-.23c1.69-.81,3.31-2.38,4.87-3.47l2-9.74-11.55,2.51Z"/><path class="cls-5" d="M629.67,149.73,615.12,147l-.76,2.72s12.64,5.5,12.93,5.41l-.59,2.91s13.14-2.33,13.53-2.51,1.09-5.2.92-5.83S629.67,149.73,629.67,149.73Z"/><polygon class="cls-11" points="640.13 148.52 652.43 146.29 646.38 153.38 651.22 162.58 637.29 165.11 640.13 148.52"/><path class="cls-10" d="M645.48,146.34c13.5-3.62,52.15-17.39,52.42-18.21l.13,21.46-8.12,7-40.28,7.31-4.67.47Q645.37,155.32,645.48,146.34Z"/><path class="cls-11" d="M612.75,144.37c1.48,2.35,1.24,5.16-.55,6.28s-4.43.14-5.89-2.21-1.24-5.15.54-6.27S611.28,142,612.75,144.37Z"/><polygon class="cls-5" points="617.67 74.53 608.55 70.66 612.85 63.07 611.12 49.43 619.31 39.31 628.73 41.59 623.44 62.41 617.67 74.53"/><path class="cls-14" d="M641,35.15,628.33,61a1.15,1.15,0,0,1-1.44.73l-10.24-5.18a1.21,1.21,0,0,1-.31-1.62L629,29.08a1.15,1.15,0,0,1,1.45-.73l10.23,5.18A1.21,1.21,0,0,1,641,35.15Z"/><path class="cls-13" d="M625.49,61l-8.84-4.47a1.21,1.21,0,0,1-.31-1.62L629,29.08a1.15,1.15,0,0,1,1.45-.73l.25.13Z"/><polygon class="cls-15" points="627.07 59.53 618.28 55.06 630.22 30.58 639.01 35.03 627.07 59.53"/><polygon class="cls-11" points="621.6 70.96 614.9 84.56 612.71 75.08 600.84 75.75 610.37 61.03 621.6 70.96"/><path class="cls-10" d="M618.69,80.43C610.48,90,591,119,591,119l-18.9,3.9,0-21.17,30.81-32.24,3.4-2.74Q612.4,73.68,618.69,80.43Z"/><path class="cls-5" d="M617.11,28.18c-1.17-7.07,3.21-4.89,12.12-10.8a17.76,17.76,0,0,1,7.07-2.73,18.54,18.54,0,0,1,10.77,1.44c1.53,11,3.57,21.89,5.14,32.85C651.44,53,643,63.28,643,63.28l-10.58.64-7.86-9.33-1-2.45S617.55,30.91,617.11,28.18Z"/><path class="cls-9" d="M646.34,14.14c2.26,4,4.37,15.14,4.49,23.47-1.15-3.7-5.28-11.41-5.28-11.41l-26.17,1,1.25,15.33s-6.07-18.6-5.71-25C615.4,8.59,644.62,11.18,646.34,14.14Z"/><path class="cls-9" d="M654,37.42s2.26-11.44-2-21.29a12.9,12.9,0,0,0-3.77-2s.72.77,1.08,4.38c-1.6-3.94-2.44-4.61-4.21-5.19s3.51,19,3.51,19l1.07,7.13Z"/><path class="cls-5" d="M657.39,35.6c1.33,3.38-2.55,12.64-7.51,11.21,0,0-.22-8.15,1.42-11.11C653.44,31.85,656.69,33.86,657.39,35.6Z"/><path class="cls-9" d="M766.16,379.65c-.12.62-1.51,13.3-1.51,13.3s-6.28.09-6.4-.32,0-14.49,0-14.49Z"/><rect class="cls-9" x="837.16" y="219.27" width="3.55" height="17.53"/><polygon class="cls-9" points="801.05 392.95 797.58 385.65 787.82 384.98 785.92 394.16 785.92 400.93 803.77 400.93 803.77 395.18 801.05 392.95"/><polygon class="cls-9" points="756.61 384.99 762.97 384.98 768.26 393.5 768.26 400.26 731.7 400.26 731.7 394.53 756.61 384.99"/><polygon class="cls-9" points="799.44 376.89 797.65 387.25 787.79 387.25 786.96 375.77 799.44 376.89"/><polygon class="cls-9" points="808.27 177.62 808.19 205.12 794.71 215.16 749.41 202.99 748.85 173.43 808.27 177.62"/><polygon class="cls-9" points="778.86 204.94 767.25 391.41 754.08 385.96 739.93 180.58 778.86 204.94"/><path class="cls-4" d="M744.85,162.89a9.55,9.55,0,0,0,.34-2.73c-.57-30.9-1.88-61.37-8.76-91.44,10.3-3.36,25-11,33.4-12.25,15.77-2.41,41.5,9.28,50,14.47,2.63,1.6,5.28-.58,6.54.42,3.67,2.84-17.51,59.85-21.26,81.08l.37,27-40.42,4.1s-23.18-1.72-20-16.37A16.51,16.51,0,0,0,744.85,162.89Z"/><path class="cls-1" d="M789.53,59.83c-.1,3.24-1.18,1.14-11.06,1.34-12,.25-10.82-1.43-10.9-9.26-.05-5.06-.15-27.48-.15-27.48L788.12,31S789.61,56.59,789.53,59.83Z"/><path class="cls-9" d="M828.89,69.7c9,23.85,16,74.18,16,74.18L824,139.52c-6-5.31-7-17.88-8.72-23.47-1.55-5.16-3.86-15.19-3.84-18.55C811.54,90.08,827.73,66.58,828.89,69.7Z"/><polygon class="cls-5" points="808.38 164.19 808.04 163.56 809.15 163.82 808.38 164.19"/><path class="cls-9" d="M737.59,65.36l-32.94,63.42L718,143.28l4.81,2.57L737,140.51s13-23.33,12.6-26.66C748.78,106.46,737.59,65.36,737.59,65.36Z"/><path class="cls-9" d="M775.39,190.66h39.38s-14.26,191-16,196.59c-4.36,2.12-8.88.94-11.8-.51C785.59,373.14,775.39,190.66,775.39,190.66Z"/><path class="cls-16" d="M789.24,51.69l2.86,8.67S780.44,73,781.14,73.5s-8.42-12.35-8.42-12.35Z"/><polygon class="cls-16" points="768.26 70.94 772.73 61.15 766.59 51.24 764.13 57.9 768.26 70.94"/><polygon class="cls-9" points="790.81 56.47 787.76 210.68 815.56 210.68 819.98 99.66 828.89 69.69 790.81 56.47"/><polygon class="cls-9" points="764.13 57.9 765.09 210.68 737.91 208.07 737.29 92.8 737.29 65.63 764.13 57.9"/><polygon class="cls-9" points="773.06 61.17 774.96 65.82 774.06 67.59 773.06 69.58 770.49 66.35 773.06 61.17"/><polygon class="cls-9" points="773.95 164.28 768.97 155.91 771.64 67.26 773.95 66.84 777.53 153.89 773.95 164.28"/><polygon class="cls-5" points="835.53 190.56 839.31 192.05 844.01 215.49 836.47 226.34 826.76 224.72 830.58 203.25 835.53 190.56"/><polygon class="cls-16" points="827 205.96 827 190.56 833.26 198.21 843.77 192.28 843.77 209.73 827 205.96"/><path class="cls-9" d="M825.73,199.25c-1.21-16.93-5.06-66.67-5.87-67l7.93-7.25,17.05,18.9v50.41l-.4,5.84C838.21,199.71,832,199.43,825.73,199.25Z"/><path class="cls-5" d="M760.43,14.39c.55-7.15,4.28-4,14.35-7.61a17.94,17.94,0,0,1,7.52-1,18.48,18.48,0,0,1,10.11,4c-1.11,11-1.74,22.11-2.83,33.13-1.7,3.75-10.93,11-10.93,11H767.37l-6-12.11L761,39.2S760.23,17.15,760.43,14.39Z"/><path class="cls-17" d="M792.17,7.72c1.25,4.4.63,15.74-1.24,23.86-.22-3.87-2.4-12.34-2.4-12.34L762.88,14l-2.22,15.14S759,9.63,760.87,3.44C763.46-5,791.21,4.44,792.17,7.72Z"/><path class="cls-17" d="M794,32.14S799,21.57,797.21,11A13.28,13.28,0,0,0,794,8.12s.51.92,0,4.52c-.61-4.21-1.26-5.05-2.84-6s-1.11,19.29-1.11,19.29l-.66,7.17Z"/><path class="cls-5" d="M797.78,31.18c.5,3.61-5.47,11.68-10,9.11,0,0,1.74-8,4-10.45C794.84,26.61,797.54,29.33,797.78,31.18Z"/><rect class="cls-9" x="816.38" y="229.83" width="40.21" height="60.76"/><rect class="cls-9" x="830.63" y="219.27" width="3.57" height="17.53"/><rect class="cls-18" x="823.6" y="229.83" width="31.89" height="33.03"/><rect class="cls-4" x="835.38" y="260.21" width="5.34" height="7.52"/><polygon class="cls-15" points="780.44 106.78 780.44 165.19 739.28 165.19 739.28 102.25 770.64 102.25 780.44 106.78"/><rect class="cls-19" x="731.6" y="102.25" width="39.04" height="62.93"/><rect class="cls-20" x="770.64" y="102.25" width="9.8" height="4.53"/><rect class="cls-19" x="770.64" y="113.24" width="9.8" height="4.52"/><rect class="cls-19" x="770.64" y="122.04" width="9.8" height="4.51"/><rect class="cls-20" x="731.6" y="102.25" width="39.04" height="4.53"/><path class="cls-9" d="M778.17,115.85a2.67,2.67,0,1,1-2.63-3.14A2.92,2.92,0,0,1,778.17,115.85Z"/><rect class="cls-20" x="772.39" y="129.76" width="6.33" height="19.63"/><polygon class="cls-5" points="742.13 157.6 745.37 145.06 753.58 148.46 767.52 142.67 778.67 150.29 777.12 162.79 755.13 161.65 742.13 157.6"/><path class="cls-16" d="M737.54,138.38l-7.49,13.77c3,2.81,6.06,5.6,9.12,8.34l12.55,3.07,5-16.7Z"/><polygon class="cls-9" points="754.45 143.88 746.46 165.19 705.75 146.69 702.18 133.57 711.39 115.83 754.45 143.88"/><path class="cls-1" d="M921.17,71.22A77.38,77.38,0,0,1,918,79.56l17.57,12a5.16,5.16,0,0,0,1.19-3.16c-.08-1-5.34-12.37-5.36-12.26C929.74,74.86,922.56,70.89,921.17,71.22Z"/><path class="cls-14" d="M933.37,74.56a3.8,3.8,0,0,1-.32,5.35l-5.67,5a3.78,3.78,0,0,1-5.34-.33L907.13,67.86a3.82,3.82,0,0,1,.31-5.35l5.69-5a3.78,3.78,0,0,1,5.34.31Z"/><path class="cls-15" d="M932.16,77.68a1.5,1.5,0,0,1-.48.69l-5.66,5a1.76,1.76,0,0,1-2.46-.15L908.67,66.5a1.78,1.78,0,0,1-.33-1.77,1.66,1.66,0,0,1,.48-.69l5.66-5a1.72,1.72,0,0,1,1.27-.44,1.77,1.77,0,0,1,1.18.57l14.91,16.78A1.73,1.73,0,0,1,932.16,77.68Z"/><polygon class="cls-21" points="929.84 88 932.33 92.5 938.11 89.54 936.26 85.23 929.84 88"/><polygon class="cls-9" points="929.97 180.83 925.11 184.3 917.95 119.92 931.05 117.89 929.97 180.83"/><polygon class="cls-9" points="952.79 139.51 952.79 127.61 925.73 101 906.9 94.94 910.77 115.65 947.94 139.66 952.79 139.51"/><rect class="cls-10" x="868.09" y="219.5" width="3.37" height="16.6"/><rect class="cls-9" x="883.49" y="380.82" width="5.2" height="20.06"/><path class="cls-9" d="M896.24,384.14l3.83,9.39,1.29.89s.43,6.35.14,6.46-13.61,0-13.61,0l-5.2-20.06,4.12-5.64,6.25-1.72Z"/><polygon class="cls-5" points="897.46 392.97 889.61 395.31 885.7 379.06 890.92 373.03 894.08 374.3 897.46 392.97"/><path class="cls-5" d="M942.52,275.38s-5.59-32.12-11.64-55.4l-20.6,12.93,17.75,51s-7.35,22.4-4.37,32.08c2,6.41,29.74,62.17,29.74,62.17L963.7,398l4-.59c-15.56-29.51-24.64-101.58-25.38-105Z"/><polygon class="cls-9" points="951.49 374.42 945.19 380.23 949.18 400.6 952.02 400.62 952.51 391.14 960.3 400.77 971.34 400.92 971.38 398.05 966.84 396.29 951.49 374.42"/><path class="cls-5" d="M879,222.8q3.06-5.28,6-10.67l12.54-1.7V393l-6.24-6.6s-14.72-78.48-15-82.06c-.76-10.1,7.77-28.58,7.77-28.58Z"/><path class="cls-1" d="M912.46,102.36c-6.94-.72-16.47-2-18.83-3.36.54-8.08,5-28.76,8-34.5,1.47.51,9.26,5.19,8.17,11.87C907.89,87.79,912.75,99.72,912.46,102.36Z"/><path class="cls-4" d="M883.24,92.84c9.88-4.17,24.33-4.17,35,2.44,7.71,7.48,12.12,14.54,7.08,27-.09,3,2.27,45.55,3,58.83a17.38,17.38,0,0,1-.21,4.19c-11.4.42-26.92-8.56-38.18-13.28,5.06-7.94,12.58-25.56,12.16-31.87C901,122.92,883.8,110.91,883.24,92.84Z"/><path class="cls-9" d="M928.57,182l-36-14.47c-2.86,4.19-15.16,17.08-16.24,27.44-.67,6.27,2.83,74,2.83,74,14.61,3.45,62.56-.88,62.56-.88l-13.14-68.25S928.68,187,928.57,182Z"/><path class="cls-5" d="M879.37,227.07l-4,2.05c-.53.25-4.67-5-5.06-5.46-2.39-2.74-3.84-5.16-3.37-8.93.24-2.08.17-5.43,1.16-7.28l4.84-8.61,3.47,10.41Z"/><polygon class="cls-9" points="913.69 92.94 928.71 109.97 927.97 173.72 928.6 183.77 932.62 181.12 930.81 108.32 923.15 95.91 913.69 92.94"/><path class="cls-9" d="M895,89.25,905.83,110l-1.58,66.41-17.44-1.52s9.51-25.39,9.09-27.73S873.1,95,873.1,95Z"/><path class="cls-9" d="M886.51,115.36c2.14-9.74-9.82-16.75-13.41-20.33-1.77.75-13.59,58.25-13.59,58.25l6.71,51.19h9.18L876.47,162l-1.13-6.4S884.38,125.1,886.51,115.36Z"/><polygon class="cls-4" points="867.66 204.18 868.16 207.49 876.22 207.49 875.81 204.18 867.66 204.18"/><rect class="cls-10" x="873.1" y="217.67" width="3.37" height="16.61"/><rect class="cls-9" x="854.12" y="229.5" width="38.05" height="57.51"/><rect class="cls-18" x="854.12" y="229.5" width="37.11" height="31.27"/><rect class="cls-4" x="868.09" y="258.25" width="5.04" height="7.11"/><path class="cls-9" d="M887.25,71A7.75,7.75,0,0,0,898,67.78c2.11-4-1.63-11.05-5.74-13.11A8.49,8.49,0,0,0,881,58.19C878.82,62.18,883.13,69,887.25,71Z"/><path class="cls-5" d="M895.42,63.54c-.32-4.15-1.07-11.48,1.43-14.38s5.55-.75,9.8-1a14.74,14.74,0,0,1,6.14.89c3.69,1.38,6.51,0,8.05,2.26l.88,13c-.9,6.46-4.84,16.22-4.84,16.22l-7.24.55C902.34,73.28,895.69,67.13,895.42,63.54Z"/><path class="cls-9" d="M894.3,38.86c10.81-5.59,25-.58,26.61,13.5L898.78,63.45l1.31,4.45-1.23,4.21c-5.4-1.57-9.15-5-12.22-11.31C884.4,56.17,884.93,43.71,894.3,38.86Z"/><path class="cls-5" d="M901.7,69.13l-3.58-8s-2.71-3.42-5.33-1.08S896.46,72,901.7,69.13Z"/><polygon class="cls-9" points="947.94 139.66 952.79 139.51 957.89 128.69 937.43 86.75 930.45 90.25 941.71 129.95 947.94 139.66"/><path class="cls-9" d="M540,84c11,22.59,23.05,60.42,23.05,60.42L542.29,142c-6.39-4.67-8.5-16.91-10.64-22.25-2-4.91-5.14-14.55-5.42-17.84C525.63,94.6,538.6,81,540,84Z"/><polygon class="cls-9" points="491.08 393.08 494.5 385.9 504.12 385.24 505.98 394.28 505.97 400.93 488.39 400.92 488.39 395.27 491.08 393.08"/><polygon class="cls-9" points="497.32 373.68 492.9 369.21 483.26 371.45 478.55 376.13 503.73 399.26 507.95 397.69 497.32 373.68"/><polygon class="cls-10" points="492.68 377.26 494.44 387.47 504.14 387.47 490.25 376.16 492.68 377.26"/><polygon class="cls-9" points="469.33 181.01 469.4 208.09 482.68 217.97 527.31 206.01 527.86 176.89 469.33 181.01"/><polygon class="cls-9" points="492.02 215.16 524.43 183.6 549.25 291.38 521.8 288.56 492.02 215.16"/><polygon class="cls-9" points="549.25 291.38 493.18 375.73 484.03 370.16 524.68 281.64 549.25 291.38"/><path class="cls-4" d="M449.89,80.72c1.26-1,5.47.76,8.08-.81,8.39-5.11,33.74-16.61,49.26-14.23,7.35,1.12,10,7.73,17.53,10.7l-2,111.85-53.2,13.17,2.88-41.21C468.74,139.29,446.28,83.52,449.89,80.72Z"/><path class="cls-1" d="M487.84,69c.1,3.18,1.15,1.12,10.88,1.31,11.82.24,10.67-1.4,10.74-9.11.06-5,.16-27.06.16-27.06l-20.39,6.43S487.75,65.79,487.84,69Z"/><polygon class="cls-5" points="469.23 171.75 469.55 171.14 468.48 171.39 469.23 171.75"/><path class="cls-9" d="M501.71,193.85H462.93s28.68,188.1,30.41,193.63c4.29,2.09,8.75.92,11.63-.5C506.31,373.57,501.71,193.85,501.71,193.85Z"/><path class="cls-11" d="M488.12,59.57l-2.81,8.54S496.78,80.57,496.09,81s8.29-10.76,8.29-10.76Z"/><polygon class="cls-11" points="508.77 79.93 504.38 70.28 510.44 60.52 512.85 67.09 508.77 79.93"/><path class="cls-10" d="M455,143.47c14.62-1.6,48.64.39,62.87-2.41,2.37,5.5,4.09,14.33,6.72,19.76L465,168.53l-7.73-4.33Z"/><polygon class="cls-10" points="486.51 64.45 489.52 217.55 460.51 217.91 461.31 111.83 447.45 79.08 486.51 64.45"/><polygon class="cls-10" points="512.85 67.09 516.74 87.56 519.86 215.07 536.22 212.18 537.95 117.22 540.03 83.97 512.85 67.09"/><polygon class="cls-11" points="516.25 139.73 506.09 147.01 515.4 147.59 518.63 157.46 530.51 154.48 516.25 139.73"/><polygon class="cls-10" points="504.06 70.31 502.18 74.87 503.07 76.63 504.06 78.58 506.58 75.4 504.06 70.31"/><polygon class="cls-10" points="503.13 171.87 508.05 163.62 505.45 76.3 503.17 75.89 499.61 161.63 503.13 171.87"/><path class="cls-5" d="M520.44,26.41c0-7.18-4-4.28-13.77-8.62a18.16,18.16,0,0,0-7.42-1.5,18.66,18.66,0,0,0-10.39,3.24c.34,11.08.16,22.18.46,33.25,1.45,3.87,11.51,12.58,11.51,12.58l10.54-1.14,6.19-10.53.57-2.57S520.44,29.17,520.44,26.41Z"/><path class="cls-9" d="M489.26,17.49c-1.56,4.29-1.76,15.65-.48,23.89.5-3.85,3.28-12.14,3.28-12.14l26-3.46,1.34,15.32s2.85-19.34,1.43-25.64C518.82,6.81,490.46,14.27,489.26,17.49Z"/><path class="cls-9" d="M485.68,41.71S481.51,30.82,484,20.4a13,13,0,0,1,3.38-2.64s-.59.88-.32,4.51c.91-4.16,1.62-5,3.27-5.83s-.27,19.33-.27,19.33l.14,7.19Z"/><path class="cls-5" d="M482,40.5c-.76,3.55,4.63,12,9.27,9.78,0,0-1.15-8.07-3.26-10.71C485.24,36.14,482.37,38.67,482,40.5Z"/><path class="cls-5" d="M528.3,132.87c2-2.11,8.18-3.08,8.18-3.08s6.11-1.25,9.84-.81l2.42,5.32,1.32,2.48-12.33,8.16s-2.21,2.35-4.34,4.51l-9.71-11.39C525.21,136.32,526.71,134.56,528.3,132.87Z"/><polygon class="cls-5" points="499.79 138.46 498.83 134.58 476.57 126.89 464.99 132.82 465.27 142.5 486.73 141.61 499.79 138.46"/><polygon class="cls-11" points="491.52 130.2 506.78 133.73 498.69 136.89 503.77 147.63 487.28 144.26 491.52 130.2"/><path class="cls-10" d="M496.28,130c16.5,2.62,65.11,10,65.62,9.29l3.68,11.74-20.42,9.65-48.37-11.22-5.51-1.69Q494,139,496.28,130Z"/><path class="cls-10" d="M447.45,79.08c1.94-1.43,26.08,29.73,26.08,29.73l7.45,43H456Z"/><path class="cls-9" d="M1152.75,136.62c9-23.14,14.42-46.35,19-47.92,29.72-11.65,12.15,2.19,14.29,12.91,2.68,13.32-5.85,3-12.25,19C1170,125.65,1166,131.47,1152.75,136.62Z"/><polygon class="cls-10" points="1185.98 84.27 1183.06 164.91 1166.57 172.83 1168.4 113.28 1170.83 99.28 1185.98 84.27"/><rect class="cls-9" x="1211.69" y="380.24" width="5.35" height="20.64"/><path class="cls-9" d="M1203.91,383.67l-3.92,9.64-1.34.93s-.43,6.52-.14,6.64,14,0,14,0l5.35-20.64-4.25-5.79-6.42-1.76Z"/><polygon class="cls-5" points="1202.66 392.75 1210.73 395.16 1214.75 378.44 1209.39 372.25 1206.14 373.56 1202.66 392.75"/><path class="cls-1" d="M1156.34,271.85s5.73-33,12-57l21.18,13.3-18.25,52.44s7.56,23,4.48,33c-2,6.6-30.57,63.92-30.57,63.92l-10.57,20.37-4.19-.59c16-30.35,25.34-104.45,26.11-108Z"/><polygon class="cls-9" points="1147.12 373.68 1153.58 379.63 1149.49 400.59 1146.57 400.6 1146.07 390.87 1138.05 400.76 1126.7 400.93 1126.66 397.97 1131.34 396.16 1147.12 373.68"/><path class="cls-5" d="M1221.68,217.8c-2.09-3.63-4.14-7.29-6.12-11l-12.9-1.73V392.75l6.43-6.79s15.12-80.68,15.4-84.37c.79-10.37-8-29.38-8-29.38Z"/><path class="cls-1" d="M1187.25,94c7.13-.74,16.92-2.08,19.35-3.46-.55-8.3-5.08-29.56-8.18-35.47-1.51.53-9.53,5.34-8.4,12.22C1191.94,79,1187,91.25,1187.25,94Z"/><path class="cls-4" d="M1217.29,84.17c-10.17-4.29-25-4.29-36,2.51-7.92,7.69-12.46,15-7.27,27.74.08,3.06-2.34,46.84-3.1,60.48a17.65,17.65,0,0,0,.23,4.31c11.72.43,27.67-8.81,39.24-13.66-5.18-8.16-12.92-26.28-12.5-32.75C1199,115.11,1216.7,102.76,1217.29,84.17Z"/><path class="cls-9" d="M1170.68,175.86l37-14.89c2.93,4.31,15.58,17.57,16.7,28.23.68,6.43-2.92,76.05-2.92,76.05-15,3.55-64.32-.91-64.32-.91l13.51-70.16S1170.56,181,1170.68,175.86Z"/><polygon class="cls-10" points="1185.98 84.27 1170.55 101.79 1170.68 113.06 1171.29 167.33 1170.65 177.66 1166.51 174.93 1168.36 100.09 1176.24 87.33 1185.98 84.27"/><path class="cls-10" d="M1205.21,80.48l-11.15,21.31,1.63,68.28,17.92-1.57s-9.78-26.11-9.35-28.5,23.45-53.57,23.45-53.57Z"/><path class="cls-17" d="M1214.47,61.88a7.53,7.53,0,0,1-10.56-3.31c-2.09-4.06,1.61-11.22,5.66-13.32a8.26,8.26,0,0,1,11.12,3.59C1222.78,52.89,1218.53,59.79,1214.47,61.88Z"/><path class="cls-5" d="M1205,55.7c.31-4.21,1-11.66-1.42-14.6s-5.47-.76-9.65-1a14.26,14.26,0,0,0-6.07.9c-3.63,1.4-6.41,0-7.94,2.3l-.86,13.16c.89,6.57,4.78,16.48,4.78,16.48l7.13.56C1198.21,65.58,1204.75,59.34,1205,55.7Z"/><path class="cls-17" d="M1206.14,30.64c-10.94-5.12-25.6,0-27.23,14.29l22.8,10.68-1.3,4.52,1.22,4.27c5.33-1.59,9.48-4.88,12-11.49C1217.05,44.26,1217.92,36.16,1206.14,30.64Z"/><path class="cls-5" d="M1198.82,61.37l3.54-8.12s2.68-3.48,5.26-1.09S1204,64.33,1198.82,61.37Z"/><polygon class="cls-5" points="1163.41 122.88 1155 129.96 1157 132.85 1164.32 128.65 1161.4 132.9 1175.69 125.02 1170.19 121.83 1163.41 122.88"/><path class="cls-10" d="M1214.22,145.26c-.81-10.59-28.23-12.35-40.48-21.34l-3.75,4.69c8.81,8.9,14.82,12.24,22.66,17.73C1206.32,155.89,1214.85,153.41,1214.22,145.26Z"/><polygon class="cls-4" points="1172.18 122.81 1169.37 129.28 1173.58 131.92 1176.77 125.52 1172.18 122.81"/><path class="cls-5" d="M1195.41,126l16.64.85s.56,1.38,2,4.53c0,0,.09.18.15.3l0,8.87-.64.6-14.53-8.67-3.65-3.14Z"/><path class="cls-10" d="M1152.75,136.62l13.74,5.31,29.33-9.25.67-6c-11.31-1.65-40.13-1.21-41.23,2.26C1154.22,132.19,1152.75,136.62,1152.75,136.62Z"/><polygon class="cls-4" points="1198.89 132.02 1197.26 125.19 1192.75 125.67 1194.1 132.68 1198.89 132.02"/><path class="cls-10" d="M1203,140.21c4.11-2.64,7.47-31.81,10.5-41.61s9.21-11.13,14.25-12.51C1229,87.7,1214,148.2,1214,148.2,1209.15,152.9,1197.73,143.6,1203,140.21Z"/><rect class="cls-5" x="1296.2" y="263.92" width="55.49" height="10.9"/><line class="cls-22" x1="1347.39" y1="274.49" x2="1354.33" y2="398.67"/><line class="cls-22" x1="1302.15" y1="272.84" x2="1288.27" y2="398.34"/><rect class="cls-5" x="988.71" y="294.63" width="55.49" height="8.41"/><line class="cls-22" x1="1039.91" y1="302.79" x2="1046.84" y2="398.67"/><line class="cls-22" x1="1015.47" y1="302.79" x2="1014.81" y2="398.67"/><line class="cls-22" x1="994.66" y1="301.52" x2="980.79" y2="398.42"/><path class="cls-21" d="M1255.47,162.79c1.26,1.16,3.21,2.68,4.85,4.17l-3.68,4.29c-1.39-1.36-1.91-1.59-3.46-3.23Z"/><path class="cls-9" d="M1303.67,188.18c.93,8.12-7.49,10.92-21.5,1.9-8.72-5.62-15.42-8.27-25.89-18.55l3.91-4.82C1271.41,176.87,1302.39,177,1303.67,188.18Z"/><path class="cls-1" d="M1243,150.18c.18,0,2.44-5.61,4.42-6.11l11,24.75a5.17,5.17,0,0,1-3.26.31c-.88-.32-11.91-13.88-11.81-13.87C1242.61,153.38,1242.35,151.4,1243,150.18Z"/><path class="cls-14" d="M1238.23,126.06a3.41,3.41,0,0,0-2.62.1,3,3,0,0,0-1.47,4.12l20,37.61a3.34,3.34,0,0,0,4.36,1.37,3.19,3.19,0,0,0,1.6-1.68Z"/><path class="cls-10" d="M1235.61,126.16l.14,0,22.89,43.07-.14.08a3.34,3.34,0,0,1-4.36-1.37l-20-37.61A3,3,0,0,1,1235.61,126.16Z"/><path class="cls-1" d="M1277.92,276.49c.86-10.37-10.13-29.29-10.13-29.29l-7.67-9.24-1.45.88-3,4.45s5.12,91.63-4,124.72l4.21-.32,5.92-22.18S1277.35,283.38,1277.92,276.49Z"/><polygon class="cls-9" points="1265.96 362.98 1265.03 382.56 1262.23 383.33 1259.26 374.02 1254.03 385.62 1243.07 388.68 1242.28 385.8 1246.35 382.87 1247.09 380.88 1255.96 357.11 1256.04 357.17 1265.96 362.98"/><polygon class="cls-1" points="1261.16 361.89 1251.44 380.51 1247.09 380.88 1251.75 368.01 1256.04 357.17 1261.16 361.89"/><polygon class="cls-1" points="1260.12 237.96 1284.16 231.24 1276.27 260.67 1260.12 237.96"/><polygon class="cls-9" points="1258.75 372.09 1260.77 391.58 1258.11 392.76 1253.78 384.01 1250.35 396.26 1239.98 400.93 1238.76 398.19 1242.35 394.69 1242.78 392.63 1247.98 367.78 1248.07 367.82 1258.75 372.09"/><path class="cls-5" d="M1289.93,236.45h-16.82L1266,247.76l1.72,16.74-22.23,114.7,7.61-5.45s30.19-76.35,31.17-79.92c2.75-10-2.25-30.35-2.25-30.35Z"/><path class="cls-9" d="M1339.35,201.23,1303.77,216c-.11,5.08,0,13.17,0,13.17l-23.35,2.12-16.4,5.21,8.33,8.38,10.44,21.87,65.46-1.86,5.79-11.46,1.12-18C1355.36,235,1340.82,203.39,1339.35,201.23Z"/><polygon class="cls-5" points="1253.85 371.73 1247.03 391.6 1242.78 392.63 1245.45 379.2 1248.07 367.82 1253.85 371.73"/><path class="cls-9" d="M1344.76,80.82a7.28,7.28,0,0,1-10.65-1c-2.78-3.43-.71-11,2.71-13.73a8,8,0,0,1,11.25,1.18C1350.85,70.66,1348.19,78.05,1344.76,80.82Z"/><path class="cls-9" d="M1294.86,187.85c9-23.14,27.63-63.41,32.18-65,7.79-2.69,3.49,4.24,5.64,15,2.67,13.32-1.39,31-7.78,47q-8.28,4.17-16.5,8.48A92.32,92.32,0,0,0,1294.86,187.85Z"/><path class="cls-1" d="M1324.73,102.24c-2.38-9.55-11.41-14.74-15.39-24l6.77-2.35c9.88,18.56,25.73,39.26,30.84,50.78-7.33,4.45-11.68,3.09-18.81,3.84C1327.28,122.53,1326.91,111,1324.73,102.24Z"/><path class="cls-23" d="M1303.78,218.7s2.28-51.7,2.18-55.33c-7.82-19.23,6.4-26,21.08-40.5,9.5-.29,10.61-1.28,15.25-4.72a38.24,38.24,0,0,1,7,13.49c.37,19.43-18.33,32-19.51,50.1-.43,6.49,6.85,21,12.05,29.19C1330.3,215.77,1303.78,218.7,1303.78,218.7Z"/><path class="cls-5" d="M1336.54,73a13.44,13.44,0,0,1-1.17,17.59c-5.13,13.91-11.86,22.2-16.6,23.14a73.66,73.66,0,0,1-7.89-7.48c-.69-.25-2.14.06-3.75-.57.61-1.82.86-8.48-.89-12.72-2.09-5-2.55-10.83-2.12-12.09C1315,78.67,1325.59,74.5,1336.54,73Z"/><path class="cls-5" d="M1254.21,154.07c2.16.84,4.23,1.92,6.47,2.58a27.1,27.1,0,0,1,8.89,3.82c3.68,2.51,6,6.65,7.22,7.74l.42,4.11c-1,1-1.59-.36-1.81,1-.08,0-.13-.05-.22-.06-.9-.11-9.83-4.73-9.83-4.73l-5.88-2.77s-1.52-3.45-1.14-4.76c.19,0,2.64-.55,2.92-1.07,0,0-2.62-.94-2.58-1A6.77,6.77,0,0,1,1254.21,154.07Z"/><path class="cls-21" d="M1276.78,168.24c1.4,1,3.51,2.28,5.32,3.57l-3.16,4.7c-1.54-1.19-2.08-1.37-3.81-2.81Z"/><path class="cls-9" d="M1328.36,66.09c12.26,4.19,15.67,9.3,13.53,20.08-1.33,6.73-6.84,14.09-11.47,15.32l-1.19-8.28-25.37-8.76C1303.43,70,1316.62,62.07,1328.36,66.09Z"/><path class="cls-5" d="M1325.63,98.59l.19-8.86s1.16-4.23,4.46-3S1331.53,99.37,1325.63,98.59Z"/><path class="cls-9" d="M1342.54,117.62l-28.35,31.14-6.49,33.72,8,46.64L1349,218.7s-14.93-27.78-14.52-30.18,14.9-56.88,14.9-56.88v-2.28Z"/><path class="cls-10" d="M1327.78,188.08c1.87,7.95-6.16,11.72-21.14,4.39-9.31-4.56-16.1-7-27.7-16l3.16-4.7C1294.42,180.61,1325.2,177.08,1327.78,188.08Z"/><path class="cls-10" d="M1317.19,187.74c4.35-2.21,10.65-30.9,14.65-40.34s11.75-16.45,16.88-17.31c1.1,1.73,3.21,8.93,1.82,17.23s-22.4,47.17-22.4,47.17C1322.85,198.69,1311.61,190.58,1317.19,187.74Z"/><polygon class="cls-11" points="1091.68 231.61 1080.7 223.86 1081.17 233.17 1071.72 237.5 1083.96 246.34 1091.68 231.61"/><path class="cls-9" d="M1077.19,242.72c-14.66-8-57.89-31.4-58.62-30.92l-1.77-10.42,24.75-4,41.73,26.91,4.62,3.45Q1082.4,235.11,1077.19,242.72Z"/><path class="cls-9" d="M1006.27,146.14l39.91,59.05-20.59,3.74c-7.48-2.61-13.06-13.7-16.68-18.18-3.31-4.13-9.15-12.43-10.37-15.5C995.83,168.46,1006.27,146.14,1006.27,146.14Z"/><polygon class="cls-11" points="1010.04 150.74 1009.46 142.91 992.82 128.44 987.39 136.35 1010.04 150.74"/><polygon class="cls-9" points="995.48 125.49 1019.16 174.34 1025.74 238.41 1017.48 291.93 986.29 272.21 976.99 171.96 979.01 145.57 995.48 125.49"/><path class="cls-1" d="M1011.35,117.92l-11.27-10.6c-5.24,15.17-12.54,27.22-16.54,37.13,6.37,4,12.93,11.23,20.59,12.4C1003.81,149.88,1010,119.4,1011.35,117.92Z"/><path class="cls-5" d="M1028.49,113.51l5.94-11.22-19.09-11.08-12.58,5.22-8.36,13.18c1.06,1.66,6.59,3.56,6.08,5.38-1.08,3.82-3.05,8.82-3.05,8.82s11.52,16.73,14.33,14.82c1.46-1,9.34-9.32,9.34-9.32s2.88,1.31,5.07.93C1025.74,123.88,1028.49,113.51,1028.49,113.51Z"/><path class="cls-17" d="M994.7,97.83l-1,25,6-10.15,3.72,3.5,8-8.64,5.59-9.06,16,7.23s2.72-2.82,6.63-11.47c2.74-6-39.7-5.55-39.7-5.55Z"/><path class="cls-5" d="M1000.7,103.69c-3.48.68-3.37,5.55-3.17,8.27.18,2.3,2.57,6.88,5.89,5.62l1.79-9.69C1005.76,105.5,1003,103.24,1000.7,103.69Z"/><polygon class="cls-9" points="1078.26 384.88 1071.98 384.84 1066.73 393.21 1066.69 399.86 1100.86 398.47 1102.73 394.39 1078.26 384.88"/><polygon class="cls-9" points="1100.24 272.23 999.23 248.28 1013.51 291.2 1092.55 296.4 1103.26 280.27 1100.24 272.23"/><polygon class="cls-9" points="1100.81 273.75 1075.8 273.18 1069.79 388.29 1080.2 390.8 1104.67 284.04 1100.81 273.75"/><polygon class="cls-9" points="1060.02 385.42 1053.79 384.84 1047.82 392.72 1047.21 399.33 1081.37 400.93 1083.59 397.02 1060.02 385.42"/><polygon class="cls-9" points="1083.37 273.75 1058.36 273.18 1052.35 388.29 1062.75 390.8 1087.23 284.04 1083.37 273.75"/><path class="cls-5" d="M1092.49,254.36l.11-1.68,5.59-20.74,9.32,2.63,2,12C1103.8,249,1098.15,251.7,1092.49,254.36Z"/><polygon class="cls-9" points="1077.23 270.76 976.82 254.19 976.1 284.05 981.89 295.5 1075.36 295.39 1077.23 270.76"/><path class="cls-4" d="M1008.34,143.59c-11.24-4.53-16.3-9.57-24.21-6.46l-13.75,18.68,1.4,20.22,18.82,83.38,30-2.22-4.2-35.86v-44Z"/><polygon class="cls-11" points="1002.54 150.05 1007.31 141.97 990.67 127.5 985.25 135.41 1002.54 150.05"/><polygon class="cls-9" points="985.97 132.02 1009.62 179.36 1013.91 247.78 1005.65 301.29 974.47 281.58 965.16 181.32 967.19 154.93 985.97 132.02"/><polygon class="cls-10" points="1007.12 141.6 1009 146.16 1008.1 147.93 1007.12 149.88 1004.59 146.7 1007.12 141.6"/><polygon class="cls-10" points="1016.8 238.73 1010.62 231.39 1011.46 183.21 1006.9 148.99 1007.91 147.09 1016.16 182.48 1016.8 238.73"/><path class="cls-10" d="M970.38,167c3.51,24.86,23.32,54.29,23.32,54.29l17.46-9.65-19.53-49.57-12.54-15S970.79,161.69,970.38,167Z"/><path class="cls-5" d="M1075.83,255.75a58.22,58.22,0,0,1,0,6.85l-1.59.45c-.73-1.32-1.62-2.92-2.3-4l-.39.09-6.78,4.9-4.54-5.07s-10.51-3.63-11.28-4.36c-1.6-1.51-.83-7.26-1.58-9.23l6.51,0c4.63,0,14.69.78,14.69.78Z"/><polygon class="cls-11" points="1055.16 242.85 1044.19 235.1 1044.65 244.41 1035.2 248.74 1047.44 257.58 1055.16 242.85"/><path class="cls-10" d="M1050.57,239.46s-31-27.5-32.23-29l-17-7.08-7.66,18,46.42,32.87Z"/><path class="cls-14" d="M1112.83,220.28,1091,220a3.47,3.47,0,0,0-2.84,2.43l-14.37,39.18c-.47,1.34.07,2.44,1.17,2.45l22,.13a3.46,3.46,0,0,0,2.83-2.42L1114,222.71C1114.48,221.38,1113.94,220.28,1112.83,220.28Z"/><path class="cls-9" d="M1091,220a3.47,3.47,0,0,0-2.84,2.43l-14.37,39.18c-.47,1.34.07,2.44,1.17,2.45l22,.13a3.46,3.46,0,0,0,2.83-2.42l2.19-6L1091.68,220Z"/><path class="cls-14" d="M1112.83,220.28l-21.15-.24,10.39,35.73,12-33.06C1114.48,221.38,1113.94,220.28,1112.83,220.28Z"/><path class="cls-9" d="M1097.81,261.62H1034a3.21,3.21,0,0,0,0,6.42h63.82a3.21,3.21,0,1,0,0-6.42Z"/><path class="cls-6" d="M1099,236.65c-1-.35-2.44,1.23-3.24,3.54s-.64,4.45.36,4.8,2.45-1.25,3.25-3.55S1100,237,1099,236.65Z"/><rect class="cls-5" x="361.52" y="280.1" width="55.49" height="9.59"/><line class="cls-22" x1="412.72" y1="289.4" x2="419.65" y2="398.67"/><line class="cls-22" x1="367.47" y1="287.95" x2="353.6" y2="398.38"/><line class="cls-22" x1="401.49" y1="286.71" x2="403.47" y2="375.88"/><line class="cls-22" x1="380.35" y1="286.71" x2="375.72" y2="377.86"/><path class="cls-10" d="M317.79,252.18c10.55-13,41.81-50.88,42.65-50.71l-2.29-10.32-24.43,5.57-28.53,40.65-3,4.94Q310.1,247.1,317.79,252.18Z"/><path class="cls-10" d="M346.06,137.85l-14.73,69.73,20.48-4.28c5.94-5.24,6.94-17.62,8.6-23.13,1.52-5.07,3.8-15,3.77-18.27C364.13,154.6,346.06,137.85,346.06,137.85Z"/><polygon class="cls-9" points="316.57 373.43 319.57 367.93 329.44 367.38 335.27 370.56 317.54 399.79 313.05 399.46 316.57 373.43"/><polygon class="cls-9" points="326.13 375.5 328.48 366.69 338.34 367.3 341.48 374.07 325.77 400.85 319.59 400.93 326.13 375.5"/><polygon class="cls-9" points="418.53 236.4 418.46 263.48 405.17 273.36 360.55 261.37 360.01 232.26 418.53 236.4"/><polygon class="cls-9" points="296.4 264.84 397.41 240.87 383.13 283.8 304.09 289 293.38 272.87 296.4 264.84"/><polygon class="cls-9" points="347.42 259.72 419.67 244.48 417.82 274.33 412.04 285.79 342.12 290.38 347.42 259.72"/><polygon class="cls-9" points="295.84 266.35 320.85 265.78 326.86 369.84 316.45 372.35 291.97 276.63 295.84 266.35"/><polygon class="cls-9" points="347.42 259.72 328.96 366.67 339.41 369.03 376.19 271.21 347.42 259.72"/><path class="cls-4" d="M428.54,142.32c-1.26-1-3.85,1.16-6.45-.42-8.39-5.11-33.73-16.62-49.27-14.25-7.34,1.12-10,4.07-17.53,7l1.34,113.42,11.65,2.14L408,248.76l-.35-26.59C411.29,201.27,432.15,145.11,428.54,142.32Z"/><path class="cls-1" d="M392.21,131c-.1,3.19-1.15,1.13-10.87,1.33-11.82.23-10.67-1.42-10.75-9.14,0-5-.13-27.05-.13-27.05l20.38,6.44S392.3,127.77,392.21,131Z"/><path class="cls-10" d="M432,141c5.21,24.55,4.47,74.59,4.47,74.59l-19.59-7.33c-5.08-6.07-4.2-18.46-5-24.15-.74-5.26-1.5-15.37-1-18.63C412.06,158.21,431.31,137.76,432,141Z"/><polygon class="cls-5" points="410.79 233.74 410.46 233.13 411.54 233.37 410.79 233.74"/><path class="cls-11" d="M391.94,121.54l2.82,8.55S383.28,142.55,384,143s-8.29-10.76-8.29-10.76Z"/><polygon class="cls-11" points="371.28 141.9 375.68 132.25 369.63 122.49 367.21 129.06 371.28 141.9"/><polygon class="cls-10" points="393.55 126.43 393.55 251.08 421.16 276.81 422.21 170.18 430.99 140.67 393.55 126.43"/><polygon class="cls-10" points="393.55 126.43 430.99 140.67 422.21 170.18 421.86 204.79 393.55 180.79 393.55 126.43"/><polygon class="cls-10" points="417.15 204.79 421.79 212.4 421.16 276.81 393.55 251.08 393.55 126.43 430.99 140.67 418.53 169.71 417.15 204.79"/><polygon class="cls-10" points="367.21 129.06 360.38 250.74 348 252.81 348.34 160.95 346.06 137.85 367.21 129.06"/><polygon class="cls-10" points="376 132.29 377.88 136.84 376.99 138.61 376 140.56 373.48 137.38 376 132.29"/><polygon class="cls-10" points="376.89 233.84 371.97 225.59 374.6 138.28 376.89 137.86 380.41 223.6 376.89 233.84"/><path class="cls-5" d="M357.82,93.13c-1.17-7.09.95-3.87,9.85-9.79a18,18,0,0,1,7.08-2.73,18.6,18.6,0,0,1,10.76,1.44c1.55,11,3.58,21.9,5.15,32.86-.78,4-9.24,14.33-9.24,14.33l-10.82.35-6.92-8.85-1.21-3S358.27,95.84,357.82,93.13Z"/><path class="cls-9" d="M384.78,80.1c2.27,4,4.37,15.15,4.49,23.47C388.12,99.88,384,92.16,384,92.16l-25.51,4.59-4.29-15.4C358.87,75,383.22,77.41,384.78,80.1Z"/><path class="cls-9" d="M392.4,103.39S394.66,92,390.45,82.1a12.92,12.92,0,0,0-3.78-2s.72.77,1.08,4.39c-1.6-3.94-2.44-4.61-4.21-5.19s3.52,19,3.52,19l1.07,7.12Z"/><path class="cls-5" d="M395.82,101.56c1.35,3.38-2.53,12.65-7.49,11.21,0,0-.23-8.15,1.41-11.11C391.89,97.82,395.14,99.82,395.82,101.56Z"/><polygon class="cls-11" points="378.58 214.49 390.88 212.25 384.82 219.34 389.66 228.55 375.73 231.08 378.58 214.49"/><path class="cls-10" d="M383.92,212.3c13.51-3.61,52.15-17.38,52.43-18.2l.11,21.45-8.11,7-40.27,7.31-4.67.46Q383.8,221.29,383.92,212.3Z"/><path class="cls-5" d="M359.55,223.35c4.38-3.5,9-6.83,10.77-7.91l9.82,1.45c.07,2.1,1.63,4.46.75,6.48-.44,1-6.76,7.72-9,8.63a8.28,8.28,0,0,1,.44,1.87c-2.2,1.6-6.86,4-9.58,3,0-.12.07-.25.09-.36-2.42.82-4.91,1-6.41.17,0-.24.21-3.28-.35-3.77,0,0-2,2.76-2.08,2.72a9.31,9.31,0,0,1-6.16,3.59c-.22-.35-.43-.7-.64-1,1.57-2.15,3.25-4.91,4.6-7C352.7,229.86,354.77,227.16,359.55,223.35Z"/><path class="cls-6" d="M292.16,220.14l46.25-.57a3.66,3.66,0,0,1,3,2.53l10.48,29.7c.49,1.4-.05,2.56-1.21,2.57l-46.5.45a3.6,3.6,0,0,1-3-2.52l-10.25-29.59C290.45,221.31,291,220.16,292.16,220.14Z"/><path class="cls-7" d="M351.88,251.8c.49,1.4-.05,2.56-1.21,2.57l-46.5.45a3.6,3.6,0,0,1-3-2.52l-.26-.72,41.9-25.42Z"/><path class="cls-7" d="M305.69,252.09l67-.46a3.37,3.37,0,0,1,0,6.74l-67,.46a3.37,3.37,0,1,1,0-6.74Z"/><path class="cls-11" d="M316.23,231.75c1.54-.57,3.44.77,4.25,3s.22,4.47-1.32,5-3.45-.77-4.26-3S314.68,232.31,316.23,231.75Z"/><path class="cls-5" d="M293.08,229.56l1.31,1.06,13.76,16.49-7.51,6.12-11-5.23C291,241.89,292,235.72,293.08,229.56Z"/></svg>