<svg xmlns="http://www.w3.org/2000/svg" viewBox="0 0 171.07 173"><defs><style>.cls-1{isolation:isolate;}.cls-2{fill:#18b9ed;}.cls-3{fill:#0a6ebe;}.cls-4{fill:#191919;opacity:0.54;mix-blend-mode:multiply;}.cls-5{fill:#0586cb;}.cls-6{fill:#0f54af;}</style></defs><title>busint-direction</title><g class="cls-1"><g id="Layer_1" data-name="Layer 1"><polygon class="cls-2" points="112.34 39.15 86.58 0 60.81 39.15 72.19 39.15 72.19 172.33 99.63 172.33 99.63 39.15 112.34 39.15"/><path class="cls-3" d="M171.07,64.26l-45.9-9.5,4.43,11.16a77.69,77.69,0,0,0-26,16.94,94.52,94.52,0,0,0-21.94,33.83c-6.27,16-9.41,35-9.35,56.31l27.44-.08c-.17-61.28,29.69-77.68,40-81.52l4.47,11.25Z"/><path class="cls-4" d="M169.39,63.92,123.5,54.43l4.43,11.16a77.69,77.69,0,0,0-26,16.93,94.77,94.77,0,0,0-22,33.83c-6.26,16-9.4,35-9.34,56.32l27.44-.08c-.18-61.28,29.69-77.69,40-81.52l4.47,11.25Z"/><path class="cls-5" d="M171.07,64.26l-45.9-9.5,4.43,11.16a77.69,77.69,0,0,0-26,16.94,94.52,94.52,0,0,0-21.94,33.83c-6.27,16-9.41,35-9.35,56.31l27.44-.08c-.17-61.28,29.69-77.68,40-81.52l4.47,11.25Z"/><path class="cls-4" d="M1.34,64.26l45.89-9.5L42.8,65.92a77.71,77.71,0,0,1,26,16.94,94.79,94.79,0,0,1,21.94,33.83c6.26,16,9.41,35,9.35,56.31l-27.44-.08c.17-61.28-29.7-77.68-40-81.52l-4.46,11.25Z"/><path class="cls-6" d="M0,64.26l45.9-9.5L41.46,65.92a77.71,77.71,0,0,1,26,16.94,94.66,94.66,0,0,1,21.94,33.83c6.26,16,9.41,35,9.35,56.31l-27.44-.08c.17-61.28-29.7-77.68-40-81.52l-4.47,11.25Z"/></g></g></svg>