<svg id="Layer_1" data-name="Layer 1" xmlns="http://www.w3.org/2000/svg" viewBox="0 0 263.16 202.5"><defs><style>.cls-1{fill:#0586cb;}.cls-2{fill:#009fdb;}.cls-3{fill:#30d1ff;}.cls-4,.cls-6,.cls-7,.cls-8{fill:none;}.cls-4{stroke:#0f54af;stroke-linecap:round;stroke-linejoin:round;stroke-width:3px;}.cls-5{fill:#5a5a5a;}.cls-6,.cls-7,.cls-8{stroke:#009fdb;stroke-miterlimit:10;}.cls-7{stroke-dasharray:12.64 12.64;}.cls-8{stroke-dasharray:10.2 10.2;}</style></defs><title>busint-progress</title><rect class="cls-1" x="51.16" y="89" width="28.5" height="28.5" transform="translate(130.83 206.5) rotate(-180)"/><rect class="cls-2" x="189.16" y="146" width="38" height="38" transform="translate(416.33 330) rotate(-180)"/><rect class="cls-1" x="119.16" y="182" width="20.5" height="20.5" transform="translate(258.83 384.5) rotate(-180)"/><rect class="cls-3" x="39.16" y="58" width="10.5" height="10.5" transform="translate(88.83 126.5) rotate(-180)"/><polyline class="cls-4" points="254.16 135 219.16 157 178.16 123 158.16 142 79.17 78 66.17 113 3.17 66"/><polyline class="cls-4" points="20.34 62.34 1.5 64.83 3.99 83.67"/><rect class="cls-2" x="112.16" y="60" width="59" height="59" transform="translate(283.33 179) rotate(-180)"/><polygon class="cls-5" points="79.21 119.94 133.84 98.94 110.25 152.5 101.94 139.89 83.37 157.59 72.84 146.54 91.4 128.85 79.21 119.94"/><line class="cls-6" x1="169.66" y1="33.5" x2="163.66" y2="33.5"/><line class="cls-7" x1="151.03" y1="33.5" x2="30.98" y2="33.5"/><line class="cls-6" x1="24.66" y1="33.5" x2="18.66" y2="33.5"/><line class="cls-6" x1="197.16" y1="45.5" x2="191.16" y2="45.5"/><line class="cls-7" x1="178.53" y1="45.5" x2="58.48" y2="45.5"/><line class="cls-6" x1="52.16" y1="45.5" x2="46.16" y2="45.5"/><line class="cls-6" x1="138.66" y1="167.5" x2="132.66" y2="167.5"/><line class="cls-8" x1="122.46" y1="167.5" x2="86.76" y2="167.5"/><line class="cls-6" x1="81.66" y1="167.5" x2="75.66" y2="167.5"/></svg>