<svg id="Layer_1" data-name="Layer 1" xmlns="http://www.w3.org/2000/svg" viewBox="0 0 236.57 147.44"><defs><style>.cls-1{fill:#18b9ed;}.cls-2{opacity:0.85;}.cls-3{fill:#009fdb;}.cls-4{fill:#0a6ebe;}.cls-5{fill:#0586cb;}</style></defs><title>busint-understanding</title><path class="cls-1" d="M1.83,61.51,0,75.6l.08,0h0L20,85.37a57.15,57.15,0,0,0,6.67,3.26c2.89,1.42,5.78,2.84,8.72,4.17h0l.2.08c1.57.71,3.16,1.4,4.77,2,4.76,1.89,11,4.08,15.84,5.61h0l5.61,1.94a45.37,45.37,0,0,1,6.85,3.3l38.17,26.1,7.34,5.62c3.3,2.45,8.8,3.91,8.8,3.91l7.83,1c7-.73,7.58-7.46,7.58-7.46a26,26,0,0,0,12.47.25c5.5-2.08,5.46-7.91,5.46-7.91,9.13,3.34,13.21-1.3,13.21-1.3a11.63,11.63,0,0,0,1.63-15.09c13.21,9.22,17.28,1,17.28,1,6-6.76,1.71-13,1.71-13l-3.66-5.71-46-68.88c-5.71-6.36-20.14-2.86-20.14-2.86-3.75,1.23-19.32,3.1-19.32,3.1-4,.57-14.51,4.32-14.51,4.32C77.93,32,58.85,29,58.85,29l-9.29-.74C42.47,27.08,8,8.74,8,8.74"/><g class="cls-2"><path class="cls-3" d="M98.47,89s21,10.1,32.16-25.89c0,0,1.72-5.62,10.4-.24,0,0,23.84,12.59,21.4,20.42,0,0-2.08,6.72-5.75,8.19,0,0-8,1.1-6.11,10.76,0,0,5.87,14.07-10.89,12.84,0,0-6-.85-4.77,3.92,0,0,.62,12.47-18.34,8.92,0,0-28.69-14.79-45-25.72a69.92,69.92,0,0,0-7.91-5.13A59.88,59.88,0,0,0,56,93.39,39.19,39.19,0,0,0,51.93,92a40.76,40.76,0,0,1-4.06-.87,30.83,30.83,0,0,1-4-1.87c-9.18-5-18.3-13.7-27.47-18.75-5.47-3-9.11-6-14.58-9L0,75.6l20,9.77a57.15,57.15,0,0,0,6.67,3.26c4.51,2.21,9,4.45,13.69,6.3s11,4.08,15.84,5.61c6.26,2,10.93,3.84,16.2,7.74.26.18.51.37.76.57l28.53,19.48,12.88,9.46a22.77,22.77,0,0,0,7.89,3.51,40.55,40.55,0,0,0,7,1.33,9.67,9.67,0,0,0,6.23-1.34,6.64,6.64,0,0,0,2.65-4.68c0-.31.06-.63.07-.94s0-.53,0-.8c0,0,16.75,5.57,18-7.58,0,0,10.64,4.46,15.23-3.73,0,0,4-5.2-.19-12.35,0,0,11.5,8.31,16.88.86,0,0,6.24-6.24,1.77-13.39l-3.42-5.57L170.13,79l-20-16.86-7.91-6L134.43,54,127.9,55l-5.13,6.69Z"/></g><path class="cls-4" d="M96.31,88.83l19.81-23.56,18.79-11.86,6.53,2L164.67,73l22,20,0,.16,3.82,6.2S165.61,79.17,164,78c0,0-17-17-24.83-19.2,0,0-8.56-4.16-12.22,3.91C127,62.66,119.18,94.74,96.31,88.83Z"/><path class="cls-4" d="M163,105.1s7.62,4.56,8.27,5.87c0,0,3.79,5.7,1,11.41,0,0,3.26-8.72-10.07-15.69C162.18,106.69,161,104.85,163,105.1Z"/><path class="cls-4" d="M150.32,122.46l5.93,4.89a7.09,7.09,0,0,1-.3,2.08l-7-6.07S148.73,122,150.32,122.46Z"/><path class="cls-4" d="M133.67,131.14l4.69,3.75a11.75,11.75,0,0,1-.16,2.22l-6.08-5S131.61,130.51,133.67,131.14Z"/><path class="cls-4" d="M140.46,24.19l-7.38-3.47s-18.22,6.11-23.84,8.68A25.86,25.86,0,0,0,98,44.93S90.28,66.7,86.74,75.38c0,0-7.1,12.23,10.39,13.21l29.71-47.45Z"/><path class="cls-3" d="M236.41,0l-42,26.42s-5,3.41-16.82,1c0,0-15-3.18-25.43-9.17a17.73,17.73,0,0,0-18.47,2.11S121.46,30,109.24,32c0,0-6.2,2.94-7.5,12.39,0,0-10.48,28.82-12.68,36,0,0-2.2,5.63,6,8.08,0,0,19.4,4.8,28.86-23.4,0,0,.06-5.28,3.42-8,3-2.44,9.3-2.4,10.76-1.47l3.26,1.8,16.47,11.41s8.64,6.36,13.86,12.23l14.84,12.06s3.3-1.59,5.74-2.57c0,0,39.75-15.87,44.31-15.54Z"/><path class="cls-5" d="M192.13,90.6,187,93a.86.86,0,0,1-.85-.09C183.58,91,169.58,80.43,166.54,77.3a.08.08,0,0,0,0,0c-.62-.55-15.09-13.13-24.9-18.88l-3.8-2.13a.58.58,0,0,0-.25-.09c-1.29-.24-11.13-1.68-13.64,8.91,0,0-8.5,28.8-30,23.21l-.12,0,0,0a.84.84,0,0,1,.53-1.58l.52.13a.64.64,0,0,0,.2,0c1.34,0,15.85-.52,24-22.09.12-.32.24-.62.37-.92a18.4,18.4,0,0,1,22.4-10,41.11,41.11,0,0,1,8.6,3.74l59.83,25.65c.69.29.31.16-.39.43"/><path class="cls-5" d="M161.41,67.92"/><path class="cls-5" d="M113.52,131.55c2.12-1.88,3.7-4.52,1.66-7.63,0,0-4.54-9.81-17-6-1-3.22-4.39-9.14-14.9-8.94,0,0-6.55-.39-8.73,1.32,2.19-2.91,1.63-8.14-1.59-12.55-3.68-5.06-9.44-7.14-12.87-4.64s-3.22,8.62.46,13.67,9.15,7,12.6,4.81c-1.4,1.57-3.3,5.49,2.27,12.84,0,0,3.7,5.6,13.57,3.21,0,.63.37,3.9,5.24,7.93,0,0,3.09,2.37,8.88,1.12-.39,1.36-.49,4.42,4.51,7.68,0,0,7.77,4.59,15.17-5.24C122.77,139.09,122.85,132.76,113.52,131.55Z"/><path class="cls-3" d="M71.48,99.75c3.68,5.06,3.88,11.18.45,13.67s-9.19.42-12.87-4.64S55.17,97.6,58.6,95.11,67.79,94.69,71.48,99.75Z"/><path class="cls-3" d="M81.79,111s-7.67-.47-9.17,1.78c0,0-6.27,3.65,1.31,13.67,0,0,4.21,6.37,15.63,2.62,0,0,8.71-.75,7.59-7.11C97.15,121.94,96.21,110.7,81.79,111Z"/><path class="cls-3" d="M87.5,129.52s-.18,3.56,5.25,8c0,0,5,3.93,14.41-.94,0,0,10.68-4.4,6.56-10.67,0,0-4.59-9.92-17.23-6Z"/><path class="cls-3" d="M101.92,137.94s-2.53,4,4.21,8.43c0,0,7.77,4.59,15.17-5.24,0,0,.09-6.93-10.58-7.68Z"/><path class="cls-4" d="M96.82,119.4,87.5,129.52a4.55,4.55,0,0,0,.69,2.52l10.3-12.9Z"/><path class="cls-4" d="M101.65,138.76s8.56-2.77,10.52-5.13C112.17,133.63,110.38,138.19,101.65,138.76Z"/></svg>