<svg xmlns="http://www.w3.org/2000/svg" xmlns:xlink="http://www.w3.org/1999/xlink" viewBox="0 0 522.5 429.93"><defs><style>.cls-1{fill:none;}.cls-2{isolation:isolate;}.cls-3{clip-path:url(#clip-path);}.cls-4{fill:#5a5a5a;}.cls-5{fill:#444;}.cls-6{fill:#fff;}.cls-7{opacity:0.1;mix-blend-mode:multiply;}.cls-8{clip-path:url(#clip-path-3);}.cls-9{fill:#bfbfbf;}.cls-10{fill:#959595;}.cls-11{fill:#0586cb;}.cls-12{fill:#30d1ff;}.cls-13{fill:#009fdb;}.cls-14{fill:#0a6ebe;}.cls-15{fill:#0f54af;}.cls-16{clip-path:url(#clip-path-5);}.cls-17{clip-path:url(#clip-path-7);}.cls-18{clip-path:url(#clip-path-8);}.cls-19{opacity:0.5;}.cls-20{clip-path:url(#clip-path-9);}.cls-21{clip-path:url(#clip-path-11);}.cls-22{clip-path:url(#clip-path-12);}.cls-23{clip-path:url(#clip-path-13);}.cls-24{clip-path:url(#clip-path-14);}.cls-25{clip-path:url(#clip-path-15);}.cls-26{clip-path:url(#clip-path-17);}.cls-27{clip-path:url(#clip-path-18);}.cls-28{clip-path:url(#clip-path-19);}.cls-29{clip-path:url(#clip-path-20);}.cls-30{clip-path:url(#clip-path-21);}.cls-31{clip-path:url(#clip-path-22);}.cls-32{clip-path:url(#clip-path-23);}.cls-33{clip-path:url(#clip-path-24);}.cls-34{clip-path:url(#clip-path-25);}.cls-35{fill:#ca8b44;}.cls-36{clip-path:url(#clip-path-27);}.cls-37{fill:#18b9ed;}.cls-38{fill:#f5b883;}</style><clipPath id="clip-path"><rect class="cls-1" width="522.5" height="429.93"/></clipPath><clipPath id="clip-path-3"><rect class="cls-1" x="338.7" y="190.16" width="101.98" height="78.15"/></clipPath><clipPath id="clip-path-5"><rect class="cls-1" x="420.41" y="244.86" width="93.43" height="71.59"/></clipPath><clipPath id="clip-path-7"><rect class="cls-1" x="382.59" y="79.21" width="93.43" height="71.59"/></clipPath><clipPath id="clip-path-8"><rect class="cls-1" x="382.59" y="79.21" width="93.43" height="71.59"/></clipPath><clipPath id="clip-path-9"><rect class="cls-1" y="141.42" width="110.6" height="81.65"/></clipPath><clipPath id="clip-path-11"><rect class="cls-1" x="7.88" y="145.82" width="95.15" height="72.91"/></clipPath><clipPath id="clip-path-12"><rect class="cls-1" x="7.88" y="145.82" width="95.15" height="72.91"/></clipPath><clipPath id="clip-path-13"><rect class="cls-1" x="32.89" y="234.15" width="110.6" height="81.65"/></clipPath><clipPath id="clip-path-14"><rect class="cls-1" x="32.89" y="234.15" width="110.6" height="81.65"/></clipPath><clipPath id="clip-path-15"><rect class="cls-1" x="40.78" y="238.55" width="95.15" height="72.91"/></clipPath><clipPath id="clip-path-17"><rect class="cls-1" x="104.42" y="50.18" width="79.62" height="58.78"/></clipPath><clipPath id="clip-path-18"><rect class="cls-1" x="104.42" y="50.18" width="79.62" height="58.78"/></clipPath><clipPath id="clip-path-19"><rect class="cls-1" x="110.1" y="53.35" width="68.5" height="52.49"/></clipPath><clipPath id="clip-path-20"><rect class="cls-1" x="110.1" y="53.35" width="68.5" height="52.49"/></clipPath><clipPath id="clip-path-21"><rect class="cls-1" x="445.16" y="3.32" width="71.64" height="54.9"/></clipPath><clipPath id="clip-path-22"><rect class="cls-1" x="445.16" y="3.32" width="71.64" height="54.9"/></clipPath><clipPath id="clip-path-23"><rect class="cls-1" x="319.82" y="35.47" width="88.7" height="67.96"/></clipPath><clipPath id="clip-path-24"><rect class="cls-1" x="319.82" y="35.47" width="88.7" height="67.96"/></clipPath><clipPath id="clip-path-25"><rect class="cls-1" x="228" y="70.25" width="68.05" height="52.14"/></clipPath><clipPath id="clip-path-27"><rect class="cls-1" x="159.57" y="155.72" width="189.88" height="145.5"/></clipPath></defs><title>tablet</title><g class="cls-2"><g id="Layer_1" data-name="Layer 1"><g class="cls-3"><g class="cls-3"><path class="cls-4" d="M336.05,185.48a5.91,5.91,0,0,0-5.8,5.94l.18,75.7a5.83,5.83,0,0,0,5.82,5.83H443a5.83,5.83,0,0,0,5.8-5.83v-75.7a6.09,6.09,0,0,0-6-5.94Z"/><path class="cls-5" d="M367.64,185.44H336.05a5.91,5.91,0,0,0-5.8,5.94l.18,75.7a5.83,5.83,0,0,0,5.82,5.83h96Z"/><rect class="cls-6" x="338.7" y="190.16" width="101.64" height="78.15"/><g class="cls-7"><g class="cls-8"><g class="cls-8"><polygon class="cls-9" points="440.69 268.3 338.7 268.3 338.7 190.16 440.69 268.3"/></g></g></g><path class="cls-10" d="M334.68,223.38a2.39,2.39,0,0,0-2.39,2.41l0,6.85a2.41,2.41,0,1,0,4.82,0l0-6.85a2.41,2.41,0,0,0-2.43-2.4"/><path class="cls-11" d="M403.09,247.45a6.22,6.22,0,0,1-1.82,4.39l4.08,4.08a12,12,0,0,0,3.51-8.48h-5.77Z"/><path class="cls-12" d="M396.87,253.66v5.77a12,12,0,0,0,8.48-3.51h0l-4.08-4.08a6.19,6.19,0,0,1-4.4,1.82"/><path class="cls-12" d="M396.87,253.66a6.18,6.18,0,0,1-4.39-1.81l-4.08,4.08a11.93,11.93,0,0,0,8.47,3.51h0v-5.77Z"/><path class="cls-12" d="M388.4,255.93l4.08-4.08a6.2,6.2,0,0,1-1.83-4.4h-5.77a12,12,0,0,0,3.51,8.47Z"/><path class="cls-13" d="M390.65,247.45a6.18,6.18,0,0,1,1.81-4.39L388.38,239a11.91,11.91,0,0,0-3.5,8.48h5.77Z"/><path class="cls-13" d="M396.86,241.23v-5.77a11.92,11.92,0,0,0-8.48,3.52h0l4.08,4.07a6.23,6.23,0,0,1,4.4-1.82"/><path class="cls-14" d="M431.16,214.39a2,2,0,1,1,2,2,2,2,0,0,1-2-2"/><path class="cls-14" d="M411.09,228.17a2,2,0,1,1,2,2,2,2,0,0,1-2-2"/><path class="cls-14" d="M399.4,196.94a2,2,0,1,1,2,2,2,2,0,0,1-2-2"/><path class="cls-14" d="M390.51,223.29a2,2,0,1,1,2,2,2,2,0,0,1-2-2"/><path class="cls-14" d="M374.11,230.44a2,2,0,1,1,2,2,2,2,0,0,1-2-2"/><path class="cls-14" d="M368.35,246a2,2,0,1,1,2,2,2,2,0,0,1-2-2"/><path class="cls-14" d="M362.07,237.59a2,2,0,1,1,2,2,2,2,0,0,1-2-2"/><path class="cls-14" d="M343.06,226.6a2,2,0,1,1,2,2,2,2,0,0,1-2-2"/><polygon class="cls-14" points="401.39 195.92 413.27 227.64 432.97 214.1 433.36 214.67 412.93 228.7 401.43 197.96 392.79 223.54 376.39 230.69 370.46 246.67 363.85 237.85 344.89 226.9 345.24 226.3 364.31 237.33 364.35 237.38 370.26 245.25 375.85 230.18 375.98 230.12 392.24 223.03 401.39 195.92"/><polygon class="cls-12" points="362.2 242.14 345.54 237.55 345.73 236.89 362.02 241.38 376.41 229.08 385.68 212.96 402.43 227.43 409.17 220.24 415.45 213.34 415.59 214.22 409.69 220.7 402.48 228.39 385.86 214.03 376.95 229.53 376.9 229.56 362.2 242.14"/><path class="cls-12" d="M347.64,237a2,2,0,1,1-2-2,2,2,0,0,1,2,2"/><path class="cls-12" d="M364.05,241.52a2,2,0,1,1-2-2,2,2,0,0,1,2,2"/><path class="cls-12" d="M378.71,229.3a2,2,0,1,1-2-2,2,2,0,0,1,2,2"/><path class="cls-12" d="M387.54,213.6a2,2,0,1,1-2-2,2,2,0,0,1,2,2"/><path class="cls-12" d="M404.49,227.91a2,2,0,1,1-2-2,2,2,0,0,1,2,2"/><path class="cls-12" d="M411.2,220.41a2,2,0,1,1-2-2,2,2,0,0,1,2,2"/><path class="cls-12" d="M417.55,213.78a2,2,0,1,1-2-2,2,2,0,0,1,2,2"/><path class="cls-15" d="M350.74,216a1.3,1.3,0,1,1-2.6,0v-8.7a1.3,1.3,0,0,1,2.6,0Z"/><path class="cls-11" d="M355.26,216a1.3,1.3,0,0,1-2.6,0V199.8a1.3,1.3,0,1,1,2.6,0Z"/><path class="cls-12" d="M359.78,216a1.3,1.3,0,1,1-2.6,0v-3.63a1.3,1.3,0,1,1,2.6,0Z"/><path class="cls-15" d="M364.3,216a1.3,1.3,0,1,1-2.6,0v-7.87a1.3,1.3,0,1,1,2.6,0Z"/><path class="cls-4" d="M418,240.57a5.41,5.41,0,0,0-5.31,5.45l.17,69.34a5.32,5.32,0,0,0,5.33,5.34H516a5.32,5.32,0,0,0,5.31-5.34V246a5.58,5.58,0,0,0-5.5-5.45Z"/><path class="cls-5" d="M446.92,240.53H418a5.42,5.42,0,0,0-5.31,5.45l.17,69.35a5.32,5.32,0,0,0,5.33,5.34h88Z"/><rect class="cls-6" x="420.41" y="244.86" width="93.12" height="71.59"/><g class="cls-7"><g class="cls-16"><g class="cls-16"><polygon class="cls-9" points="513.84 316.45 420.41 316.45 420.41 244.86 513.84 316.45"/></g></g></g><path class="cls-10" d="M416.73,275.29a2.19,2.19,0,0,0-2.19,2.21v6.28a2.21,2.21,0,0,0,4.42,0l0-6.27a2.22,2.22,0,0,0-2.22-2.21"/><path class="cls-11" d="M479.39,297.34a5.67,5.67,0,0,1-1.66,4l3.74,3.73a11,11,0,0,0,3.21-7.76h-5.29Z"/><path class="cls-12" d="M473.7,303v5.29a11,11,0,0,0,7.77-3.22h0l-3.74-3.73a5.67,5.67,0,0,1-4,1.67"/><path class="cls-12" d="M473.7,303a5.73,5.73,0,0,1-4-1.66l-3.73,3.73a10.94,10.94,0,0,0,7.76,3.22h0V303Z"/><path class="cls-12" d="M465.94,305.11l3.73-3.73a5.69,5.69,0,0,1-1.67-4h-5.28a11,11,0,0,0,3.22,7.77Z"/><path class="cls-13" d="M468,297.34a5.7,5.7,0,0,1,1.66-4l-3.74-3.74a11,11,0,0,0-3.21,7.77H468Z"/><path class="cls-13" d="M473.69,291.65v-5.29a11,11,0,0,0-7.77,3.22h0l3.74,3.74a5.69,5.69,0,0,1,4-1.67"/><path class="cls-14" d="M505.11,267.06A1.84,1.84,0,1,1,507,268.9a1.84,1.84,0,0,1-1.84-1.84"/><path class="cls-14" d="M486.73,279.68a1.84,1.84,0,1,1,1.84,1.84,1.84,1.84,0,0,1-1.84-1.84"/><path class="cls-14" d="M476,251.07a1.84,1.84,0,1,1,1.84,1.84,1.85,1.85,0,0,1-1.84-1.84"/><path class="cls-14" d="M467.87,275.21a1.84,1.84,0,1,1,1.84,1.84,1.84,1.84,0,0,1-1.84-1.84"/><path class="cls-14" d="M452.85,281.76a1.84,1.84,0,1,1,1.84,1.84,1.84,1.84,0,0,1-1.84-1.84"/><path class="cls-14" d="M447.57,296a1.84,1.84,0,1,1,1.84,1.84,1.84,1.84,0,0,1-1.84-1.84"/><path class="cls-14" d="M441.82,288.31a1.84,1.84,0,1,1,1.84,1.84,1.84,1.84,0,0,1-1.84-1.84"/><path class="cls-14" d="M424.4,278.24a1.84,1.84,0,1,1,1.84,1.84,1.84,1.84,0,0,1-1.84-1.84"/><polygon class="cls-14" points="477.85 250.14 488.72 279.2 506.77 266.8 507.13 267.32 488.42 280.17 477.88 252.01 469.96 275.44 454.94 282 449.51 296.63 443.45 288.55 426.08 278.52 426.4 277.97 443.87 288.07 443.91 288.13 449.32 295.33 454.44 281.53 454.56 281.47 469.46 274.98 477.85 250.14"/><polygon class="cls-12" points="441.94 292.48 426.67 288.28 426.85 287.67 441.78 291.78 454.95 280.52 463.45 265.75 478.8 279.01 484.97 272.42 490.73 266.1 490.85 266.9 485.44 272.84 478.84 279.88 463.62 266.73 455.45 280.93 455.41 280.96 441.94 292.48"/><path class="cls-12" d="M428.6,287.75a1.87,1.87,0,1,1-1.87-1.84,1.85,1.85,0,0,1,1.87,1.84"/><path class="cls-12" d="M443.64,291.91a1.86,1.86,0,1,1-1.86-1.84,1.85,1.85,0,0,1,1.86,1.84"/><path class="cls-12" d="M457.06,280.72a1.86,1.86,0,1,1-1.86-1.84,1.85,1.85,0,0,1,1.86,1.84"/><path class="cls-12" d="M465.15,266.34a1.86,1.86,0,1,1-1.86-1.84,1.85,1.85,0,0,1,1.86,1.84"/><path class="cls-12" d="M480.68,279.44a1.86,1.86,0,1,1-1.86-1.84,1.85,1.85,0,0,1,1.86,1.84"/><path class="cls-12" d="M486.83,272.57a1.87,1.87,0,1,1-1.87-1.84,1.85,1.85,0,0,1,1.87,1.84"/><path class="cls-12" d="M492.65,266.5a1.86,1.86,0,1,1-1.86-1.84,1.85,1.85,0,0,1,1.86,1.84"/><path class="cls-15" d="M431.44,268.5a1.19,1.19,0,0,1-2.38,0v-8a1.19,1.19,0,0,1,2.38,0Z"/><path class="cls-11" d="M435.58,268.5a1.19,1.19,0,0,1-2.38,0V253.69a1.19,1.19,0,0,1,2.38,0Z"/><path class="cls-12" d="M439.72,268.5a1.19,1.19,0,1,1-2.38,0v-3.33a1.19,1.19,0,0,1,2.38,0Z"/><path class="cls-15" d="M443.86,268.5a1.19,1.19,0,1,1-2.38,0v-7.22a1.19,1.19,0,1,1,2.38,0Z"/><path class="cls-4" d="M380.17,74.92a5.42,5.42,0,0,0-5.32,5.45l.17,69.35a5.33,5.33,0,0,0,5.33,5.34h97.79a5.33,5.33,0,0,0,5.31-5.34V80.37a5.58,5.58,0,0,0-5.5-5.45Z"/><path class="cls-5" d="M409.11,74.89H380.17a5.42,5.42,0,0,0-5.32,5.44l.17,69.35a5.33,5.33,0,0,0,5.33,5.34h88Z"/><rect class="cls-6" x="382.59" y="79.21" width="93.12" height="71.59"/><g class="cls-7"><g class="cls-17"><g class="cls-18"><polygon class="cls-9" points="476.02 150.8 382.59 150.8 382.59 79.21 476.02 150.8"/></g></g></g><path class="cls-10" d="M378.91,109.64a2.2,2.2,0,0,0-2.19,2.22v6.27a2.21,2.21,0,1,0,4.42,0l0-6.27a2.21,2.21,0,0,0-2.22-2.21"/><path class="cls-11" d="M441.58,131.7a5.67,5.67,0,0,1-1.67,4l3.74,3.74a11,11,0,0,0,3.21-7.77h-5.28Z"/><path class="cls-12" d="M435.89,137.39v5.29a11,11,0,0,0,7.76-3.22h0l-3.74-3.74a5.67,5.67,0,0,1-4,1.67"/><path class="cls-12" d="M435.88,137.39a5.66,5.66,0,0,1-4-1.66l-3.74,3.74a11,11,0,0,0,7.77,3.21h0v-5.29Z"/><path class="cls-12" d="M428.12,139.47l3.74-3.74a5.66,5.66,0,0,1-1.68-4H424.9a10.93,10.93,0,0,0,3.22,7.77Z"/><path class="cls-13" d="M430.18,131.7a5.67,5.67,0,0,1,1.67-4l-3.74-3.73a10.94,10.94,0,0,0-3.22,7.76h5.29Z"/><path class="cls-13" d="M435.87,126v-5.29a11,11,0,0,0-7.76,3.23h0l3.74,3.73a5.67,5.67,0,0,1,4-1.67"/><path class="cls-14" d="M467.29,101.41a1.84,1.84,0,1,1,1.84,1.84,1.84,1.84,0,0,1-1.84-1.84"/><path class="cls-14" d="M448.91,114a1.84,1.84,0,1,1,1.84,1.84,1.84,1.84,0,0,1-1.84-1.84"/><path class="cls-14" d="M438.2,85.43A1.84,1.84,0,1,1,440,87.27a1.84,1.84,0,0,1-1.84-1.84"/><path class="cls-14" d="M430.05,109.56a1.84,1.84,0,1,1,1.84,1.84,1.85,1.85,0,0,1-1.84-1.84"/><path class="cls-14" d="M415,116.11a1.84,1.84,0,1,1,1.84,1.84,1.84,1.84,0,0,1-1.84-1.84"/><path class="cls-14" d="M409.76,130.34a1.84,1.84,0,1,1,1.84,1.84,1.84,1.84,0,0,1-1.84-1.84"/><path class="cls-14" d="M404,122.67a1.84,1.84,0,1,1,1.84,1.84,1.85,1.85,0,0,1-1.84-1.84"/><path class="cls-14" d="M386.58,112.6a1.84,1.84,0,1,1,1.84,1.84,1.84,1.84,0,0,1-1.84-1.84"/><polygon class="cls-14" points="440.03 84.49 450.9 113.55 468.95 101.15 469.31 101.67 450.6 114.52 440.06 86.36 432.15 109.79 417.12 116.35 411.69 130.99 405.63 122.9 388.26 112.87 388.58 112.33 406.06 122.42 406.09 122.48 411.5 129.69 416.62 115.88 416.74 115.83 431.64 109.33 440.03 84.49"/><polygon class="cls-12" points="404.12 126.83 388.86 122.63 389.03 122.02 403.96 126.14 417.14 114.87 425.63 100.1 440.98 113.36 447.15 106.77 452.91 100.45 453.03 101.25 447.63 107.19 441.02 114.23 425.8 101.08 417.64 115.28 417.59 115.31 404.12 126.83"/><path class="cls-12" d="M390.78,122.11a1.87,1.87,0,1,1-1.86-1.84,1.86,1.86,0,0,1,1.86,1.84"/><path class="cls-12" d="M405.82,126.26a1.86,1.86,0,1,1-1.86-1.84,1.85,1.85,0,0,1,1.86,1.84"/><path class="cls-12" d="M419.25,115.08a1.87,1.87,0,1,1-1.87-1.84,1.85,1.85,0,0,1,1.87,1.84"/><path class="cls-12" d="M427.33,100.69a1.86,1.86,0,1,1-1.86-1.84,1.85,1.85,0,0,1,1.86,1.84"/><path class="cls-12" d="M442.86,113.8A1.86,1.86,0,1,1,441,112a1.85,1.85,0,0,1,1.86,1.84"/><path class="cls-12" d="M449,106.92a1.86,1.86,0,1,1-1.86-1.84,1.85,1.85,0,0,1,1.86,1.84"/><path class="cls-12" d="M454.83,100.85A1.86,1.86,0,1,1,453,99a1.85,1.85,0,0,1,1.86,1.84"/><path class="cls-15" d="M393.63,102.85a1.2,1.2,0,0,1-2.39,0v-8a1.2,1.2,0,0,1,2.39,0Z"/><path class="cls-11" d="M397.77,102.85a1.2,1.2,0,0,1-2.39,0V88.05a1.2,1.2,0,1,1,2.39,0Z"/><path class="cls-12" d="M401.91,102.85a1.2,1.2,0,0,1-2.39,0V99.52a1.2,1.2,0,0,1,2.39,0Z"/><path class="cls-15" d="M406,102.85a1.19,1.19,0,0,1-2.38,0V95.63a1.19,1.19,0,0,1,2.38,0Z"/><g class="cls-19"><g class="cls-20"><g class="cls-20"><path class="cls-4" d="M5.41,141.46A5.51,5.51,0,0,0,0,147l.17,70.63a5.42,5.42,0,0,0,5.43,5.43h99.59a5.42,5.42,0,0,0,5.41-5.43V147a5.68,5.68,0,0,0-5.6-5.54Z"/><path class="cls-5" d="M34.89,141.42H5.41A5.51,5.51,0,0,0,0,147l.17,70.63A5.42,5.42,0,0,0,5.6,223H95.18Z"/><rect class="cls-6" x="7.89" y="145.82" width="94.83" height="72.91"/><g class="cls-7"><g class="cls-21"><g class="cls-22"><polygon class="cls-9" points="103.03 218.73 7.88 218.73 7.88 145.82 103.03 218.73"/></g></g></g><path class="cls-10" d="M4.14,176.81a2.24,2.24,0,0,0-2.24,2.26l0,6.39a2.25,2.25,0,0,0,4.49,0l0-6.39a2.25,2.25,0,0,0-2.25-2.25"/></g></g></g><g class="cls-19"><g class="cls-23"><g class="cls-24"><path class="cls-4" d="M38.31,234.19a5.52,5.52,0,0,0-5.42,5.54l.17,70.63a5.42,5.42,0,0,0,5.43,5.43h99.59a5.41,5.41,0,0,0,5.41-5.43V239.73a5.66,5.66,0,0,0-5.6-5.54Z"/><path class="cls-5" d="M67.78,234.15H38.31a5.52,5.52,0,0,0-5.42,5.54l.17,70.63a5.43,5.43,0,0,0,5.43,5.44h89.59Z"/><rect class="cls-6" x="40.78" y="238.55" width="94.83" height="72.91"/><g class="cls-7"><g class="cls-25"><g class="cls-25"><polygon class="cls-9" points="135.93 311.46 40.78 311.46 40.78 238.56 135.93 311.46"/></g></g></g><path class="cls-10" d="M37,269.55a2.22,2.22,0,0,0-2.23,2.25v6.39a2.25,2.25,0,0,0,4.5,0l0-6.39A2.25,2.25,0,0,0,37,269.55"/></g></g></g><g class="cls-19"><g class="cls-26"><g class="cls-27"><path class="cls-4" d="M108.32,50.21a4,4,0,0,0-3.9,4l.12,50.84a3.9,3.9,0,0,0,3.91,3.91h71.7A3.9,3.9,0,0,0,184,105V54.2a4.08,4.08,0,0,0-4-4Z"/><path class="cls-5" d="M129.54,50.18H108.32a4,4,0,0,0-3.9,4l.13,50.84a3.9,3.9,0,0,0,3.9,3.92H173Z"/><rect class="cls-6" x="110.1" y="53.35" width="68.27" height="52.49"/><g class="cls-7"><g class="cls-28"><g class="cls-29"><polygon class="cls-9" points="178.59 105.84 110.1 105.84 110.1 53.35 178.59 105.84"/></g></g></g><path class="cls-10" d="M107.4,75.66a1.61,1.61,0,0,0-1.61,1.62v4.6a1.62,1.62,0,0,0,3.24,0v-4.6a1.62,1.62,0,0,0-1.63-1.62"/></g></g></g><path class="cls-4" d="M443.3,0a4.16,4.16,0,0,0-4.08,4.18l.13,53.17a4.1,4.1,0,0,0,4.09,4.1h75a4.09,4.09,0,0,0,4.08-4.1V4.21A4.27,4.27,0,0,0,518.28,0Z"/><path class="cls-5" d="M465.49,0H443.3a4.16,4.16,0,0,0-4.08,4.18l.13,53.17a4.09,4.09,0,0,0,4.09,4.1h67.45Z"/><rect class="cls-6" x="445.16" y="3.32" width="71.4" height="54.9"/><g class="cls-7"><g class="cls-30"><g class="cls-31"><polygon class="cls-9" points="516.8 58.21 445.16 58.21 445.16 3.32 516.8 58.21"/></g></g></g><path class="cls-10" d="M442.34,26.65a1.68,1.68,0,0,0-1.68,1.7v4.81a1.69,1.69,0,0,0,3.38,0V28.34a1.7,1.7,0,0,0-1.7-1.69"/><path class="cls-11" d="M490.39,43.56a4.35,4.35,0,0,1-1.28,3.09L492,49.51a8.4,8.4,0,0,0,2.46-5.95h-4.05Z"/><path class="cls-12" d="M486,47.93v4a8.4,8.4,0,0,0,6-2.46h0l-2.87-2.86A4.35,4.35,0,0,1,486,47.93"/><path class="cls-12" d="M486,47.93a4.35,4.35,0,0,1-3.08-1.28l-2.87,2.87A8.41,8.41,0,0,0,486,52h0v-4Z"/><path class="cls-12" d="M480.07,49.52l2.86-2.87a4.33,4.33,0,0,1-1.28-3.08h-4a8.37,8.37,0,0,0,2.47,6Z"/><path class="cls-13" d="M481.65,43.56a4.35,4.35,0,0,1,1.28-3.08l-2.87-2.87a8.42,8.42,0,0,0-2.46,6h4Z"/><path class="cls-13" d="M486,39.19v-4a8.41,8.41,0,0,0-5.95,2.47h0l2.87,2.87A4.4,4.4,0,0,1,486,39.19"/><path class="cls-14" d="M510.11,20.34a1.41,1.41,0,1,1,1.41,1.41,1.41,1.41,0,0,1-1.41-1.41"/><path class="cls-14" d="M496,30a1.41,1.41,0,1,1,1.4,1.41A1.41,1.41,0,0,1,496,30"/><path class="cls-14" d="M487.8,8.08a1.41,1.41,0,1,1,1.41,1.41,1.42,1.42,0,0,1-1.41-1.41"/><path class="cls-14" d="M481.55,26.59A1.41,1.41,0,1,1,483,28a1.41,1.41,0,0,1-1.41-1.41"/><path class="cls-14" d="M470,31.61A1.41,1.41,0,1,1,471.44,33,1.41,1.41,0,0,1,470,31.61"/><path class="cls-14" d="M466,42.52a1.41,1.41,0,1,1,1.41,1.41A1.41,1.41,0,0,1,466,42.52"/><path class="cls-14" d="M461.58,36.64A1.41,1.41,0,1,1,463,38.05a1.41,1.41,0,0,1-1.41-1.41"/><path class="cls-14" d="M448.22,28.92a1.41,1.41,0,1,1,1.41,1.41,1.41,1.41,0,0,1-1.41-1.41"/><polygon class="cls-14" points="489.2 7.37 497.54 29.65 511.38 20.14 511.65 20.54 497.31 30.39 489.23 8.8 483.16 26.77 471.64 31.79 467.47 43.02 462.82 36.82 449.51 29.13 449.75 28.71 463.15 36.45 463.18 36.49 467.33 42.02 471.25 31.43 471.35 31.39 482.77 26.41 489.2 7.37"/><polygon class="cls-12" points="461.67 39.83 449.96 36.61 450.1 36.15 461.54 39.3 471.65 30.66 478.16 19.34 489.93 29.5 494.67 24.45 499.08 19.6 499.17 20.22 495.03 24.77 489.96 30.17 478.29 20.09 472.03 30.97 472 31 461.67 39.83"/><path class="cls-12" d="M451.44,36.21A1.43,1.43,0,1,1,450,34.8a1.42,1.42,0,0,1,1.43,1.41"/><path class="cls-12" d="M463,39.4A1.43,1.43,0,1,1,461.54,38,1.42,1.42,0,0,1,463,39.4"/><path class="cls-12" d="M473.27,30.82a1.43,1.43,0,1,1-1.43-1.41,1.42,1.42,0,0,1,1.43,1.41"/><path class="cls-12" d="M479.47,19.79A1.43,1.43,0,1,1,478,18.38a1.42,1.42,0,0,1,1.43,1.41"/><path class="cls-12" d="M491.38,29.84A1.43,1.43,0,1,1,490,28.43a1.42,1.42,0,0,1,1.43,1.41"/><path class="cls-12" d="M496.09,24.57a1.43,1.43,0,1,1-1.43-1.41,1.42,1.42,0,0,1,1.43,1.41"/><path class="cls-12" d="M500.55,19.91a1.43,1.43,0,1,1-1.43-1.41,1.42,1.42,0,0,1,1.43,1.41"/><path class="cls-15" d="M453.62,21.44a.92.92,0,1,1-1.83,0V15.33a.92.92,0,0,1,1.83,0Z"/><path class="cls-11" d="M456.79,21.44a.91.91,0,1,1-1.82,0V10.09a.91.91,0,0,1,1.82,0Z"/><path class="cls-12" d="M460,21.44a.92.92,0,1,1-1.83,0V18.89a.92.92,0,0,1,1.83,0Z"/><path class="cls-15" d="M463.14,21.44a.91.91,0,1,1-1.82,0V15.91a.91.91,0,1,1,1.82,0Z"/><path class="cls-4" d="M317.51,31.4a5.15,5.15,0,0,0-5.05,5.17l.16,65.84a5.07,5.07,0,0,0,5.06,5.07h92.84a5.06,5.06,0,0,0,5-5.07V36.57a5.29,5.29,0,0,0-5.22-5.17Z"/><path class="cls-5" d="M345,31.37H317.51a5.15,5.15,0,0,0-5.05,5.17l.16,65.83a5.06,5.06,0,0,0,5.06,5.07h83.51Z"/><rect class="cls-6" x="319.81" y="35.47" width="88.4" height="67.96"/><g class="cls-7"><g class="cls-32"><g class="cls-33"><polygon class="cls-9" points="408.51 103.44 319.81 103.44 319.81 35.47 408.51 103.44"/></g></g></g><path class="cls-10" d="M316.32,64.36a2.08,2.08,0,0,0-2.08,2.1v6a2.1,2.1,0,0,0,4.19,0v-6a2.11,2.11,0,0,0-2.11-2.1"/><path class="cls-11" d="M375.81,85.3a5.38,5.38,0,0,1-1.58,3.82l3.55,3.55a10.44,10.44,0,0,0,3.05-7.38h-5Z"/><path class="cls-12" d="M370.41,90.71v5a10.47,10.47,0,0,0,7.37-3.06h0l-3.55-3.55a5.39,5.39,0,0,1-3.82,1.59"/><path class="cls-12" d="M370.4,90.71a5.42,5.42,0,0,1-3.82-1.58L363,92.68a10.44,10.44,0,0,0,7.38,3h0v-5Z"/><path class="cls-12" d="M363,92.68l3.55-3.55A5.4,5.4,0,0,1,365,85.3h-5A10.42,10.42,0,0,0,363,92.68Z"/><path class="cls-13" d="M365,85.3a5.42,5.42,0,0,1,1.58-3.82L363,77.93a10.44,10.44,0,0,0-3,7.38h5Z"/><path class="cls-13" d="M370.4,79.89v-5A10.38,10.38,0,0,0,363,77.93h0l3.55,3.55a5.4,5.4,0,0,1,3.83-1.59"/><path class="cls-14" d="M400.22,56.55A1.75,1.75,0,1,1,402,58.29a1.75,1.75,0,0,1-1.75-1.74"/><path class="cls-14" d="M382.77,68.53a1.75,1.75,0,1,1,1.75,1.75,1.75,1.75,0,0,1-1.75-1.75"/><path class="cls-14" d="M372.61,41.37a1.75,1.75,0,1,1,1.74,1.75,1.74,1.74,0,0,1-1.74-1.75"/><path class="cls-14" d="M364.87,64.28A1.75,1.75,0,1,1,366.62,66a1.74,1.74,0,0,1-1.75-1.75"/><path class="cls-14" d="M350.61,70.51a1.75,1.75,0,1,1,1.74,1.74,1.74,1.74,0,0,1-1.74-1.74"/><path class="cls-14" d="M345.6,84a1.75,1.75,0,1,1,1.75,1.74A1.75,1.75,0,0,1,345.6,84"/><path class="cls-14" d="M340.14,76.73a1.75,1.75,0,1,1,1.75,1.74,1.75,1.75,0,0,1-1.75-1.74"/><path class="cls-14" d="M323.6,67.17a1.75,1.75,0,1,1,1.75,1.74,1.75,1.75,0,0,1-1.75-1.74"/><polygon class="cls-14" points="374.34 40.48 384.67 68.07 401.8 56.3 402.14 56.79 384.38 69 374.37 42.26 366.86 64.5 352.59 70.73 347.44 84.63 341.68 76.95 325.2 67.42 325.5 66.91 342.09 76.5 342.12 76.55 347.26 83.39 352.12 70.28 352.24 70.23 366.38 64.06 374.34 40.48"/><polygon class="cls-12" points="340.25 80.68 325.76 76.69 325.92 76.12 340.1 80.02 352.61 69.33 360.67 55.3 375.24 67.89 381.1 61.64 386.57 55.63 386.69 56.4 381.55 62.04 375.28 68.72 360.83 56.23 353.08 69.71 353.04 69.75 340.25 80.68"/><path class="cls-12" d="M327.58,76.19a1.77,1.77,0,1,1-1.76-1.74,1.75,1.75,0,0,1,1.76,1.74"/><path class="cls-12" d="M341.86,80.14a1.77,1.77,0,1,1-1.76-1.75,1.76,1.76,0,0,1,1.76,1.75"/><path class="cls-12" d="M354.61,69.52a1.77,1.77,0,1,1-1.77-1.75,1.76,1.76,0,0,1,1.77,1.75"/><path class="cls-12" d="M362.29,55.86a1.77,1.77,0,1,1-1.77-1.74,1.76,1.76,0,0,1,1.77,1.74"/><path class="cls-12" d="M377,68.31a1.77,1.77,0,1,1-1.77-1.75A1.75,1.75,0,0,1,377,68.31"/><path class="cls-12" d="M382.87,61.78A1.77,1.77,0,1,1,381.1,60a1.76,1.76,0,0,1,1.77,1.75"/><path class="cls-12" d="M388.39,56a1.77,1.77,0,1,1-1.77-1.74A1.76,1.76,0,0,1,388.39,56"/><path class="cls-15" d="M330.29,57.91a1.14,1.14,0,0,1-2.27,0V50.35a1.14,1.14,0,0,1,2.27,0Z"/><path class="cls-11" d="M334.22,57.91a1.14,1.14,0,0,1-2.27,0v-14a1.14,1.14,0,0,1,2.27,0Z"/><path class="cls-12" d="M338.15,57.91a1.14,1.14,0,0,1-2.27,0V54.76a1.14,1.14,0,1,1,2.27,0Z"/><path class="cls-15" d="M342.08,57.91a1.14,1.14,0,0,1-2.27,0V51.06a1.14,1.14,0,0,1,2.27,0Z"/><path class="cls-4" d="M226.23,67.13a3.94,3.94,0,0,0-3.87,4l.12,50.52a3.88,3.88,0,0,0,3.88,3.88h71.23a3.88,3.88,0,0,0,3.87-3.88V71.09a4.05,4.05,0,0,0-4-4Z"/><path class="cls-5" d="M247.31,67.1H226.23a4,4,0,0,0-3.87,4l.12,50.51a3.89,3.89,0,0,0,3.88,3.89h64.08Z"/><rect class="cls-6" x="228" y="70.25" width="67.82" height="52.14"/><g class="cls-7"><g class="cls-34"><g class="cls-34"><polygon class="cls-9" points="296.05 122.4 228 122.4 228 70.25 296.05 122.4"/></g></g></g><path class="cls-10" d="M225.32,92.42a1.6,1.6,0,0,0-1.6,1.61V98.6a1.61,1.61,0,0,0,3.22,0l0-4.57a1.6,1.6,0,0,0-1.61-1.6"/><path class="cls-11" d="M271,108.48a4.13,4.13,0,0,1-1.21,2.93l2.72,2.72a7.93,7.93,0,0,0,2.34-5.65H271Z"/><path class="cls-12" d="M266.81,112.63v3.85a7.94,7.94,0,0,0,5.65-2.35h0l-2.72-2.72a4.15,4.15,0,0,1-2.94,1.22"/><path class="cls-12" d="M266.81,112.63a4.12,4.12,0,0,1-2.93-1.21l-2.72,2.72a8,8,0,0,0,5.66,2.34h0v-3.85Z"/><path class="cls-12" d="M261.16,114.14l2.72-2.72a4.14,4.14,0,0,1-1.22-2.93h-3.85a7.94,7.94,0,0,0,2.35,5.65Z"/><path class="cls-13" d="M262.66,108.48a4.13,4.13,0,0,1,1.21-2.93l-2.72-2.72a8,8,0,0,0-2.34,5.66h3.85Z"/><path class="cls-13" d="M266.81,104.33v-3.85a7.94,7.94,0,0,0-5.65,2.35h0l2.72,2.72a4.15,4.15,0,0,1,2.94-1.22"/><path class="cls-14" d="M289.69,86.42A1.34,1.34,0,1,1,291,87.76a1.34,1.34,0,0,1-1.34-1.34"/><path class="cls-14" d="M276.3,95.62A1.34,1.34,0,1,1,277.64,97a1.34,1.34,0,0,1-1.34-1.34"/><path class="cls-14" d="M268.5,74.78a1.34,1.34,0,1,1,1.34,1.34,1.34,1.34,0,0,1-1.34-1.34"/><path class="cls-14" d="M262.57,92.36a1.34,1.34,0,1,1,1.34,1.34,1.34,1.34,0,0,1-1.34-1.34"/><path class="cls-14" d="M251.62,97.13A1.34,1.34,0,1,1,253,98.47a1.34,1.34,0,0,1-1.34-1.34"/><path class="cls-14" d="M247.78,107.49a1.34,1.34,0,1,1,1.34,1.34,1.34,1.34,0,0,1-1.34-1.34"/><path class="cls-14" d="M243.59,101.9a1.34,1.34,0,1,1,1.34,1.34,1.34,1.34,0,0,1-1.34-1.34"/><path class="cls-14" d="M230.9,94.57a1.35,1.35,0,1,1,1.34,1.34,1.34,1.34,0,0,1-1.34-1.34"/><polygon class="cls-14" points="269.83 74.1 277.75 95.26 290.9 86.23 291.16 86.61 277.53 95.97 269.85 75.46 264.09 92.53 253.15 97.3 249.19 107.96 244.78 102.08 232.13 94.77 232.36 94.37 245.09 101.73 245.12 101.77 249.06 107.02 252.78 96.96 252.87 96.92 263.72 92.19 269.83 74.1"/><polygon class="cls-12" points="243.68 104.94 232.56 101.88 232.69 101.44 243.56 104.43 253.16 96.23 259.34 85.47 270.52 95.12 275.02 90.33 279.21 85.72 279.3 86.31 275.37 90.63 270.56 95.76 259.47 86.18 253.52 96.52 253.49 96.55 243.68 104.94"/><path class="cls-12" d="M234,101.49a1.36,1.36,0,1,1-1.36-1.33,1.35,1.35,0,0,1,1.36,1.33"/><path class="cls-12" d="M244.92,104.52a1.36,1.36,0,1,1-1.36-1.34,1.35,1.35,0,0,1,1.36,1.34"/><path class="cls-12" d="M254.69,96.37A1.36,1.36,0,1,1,253.34,95a1.34,1.34,0,0,1,1.35,1.34"/><path class="cls-12" d="M260.59,85.9a1.36,1.36,0,1,1-1.36-1.34,1.35,1.35,0,0,1,1.36,1.34"/><path class="cls-12" d="M271.9,95.44a1.36,1.36,0,1,1-1.36-1.34,1.35,1.35,0,0,1,1.36,1.34"/><path class="cls-12" d="M276.37,90.44A1.36,1.36,0,1,1,275,89.1a1.34,1.34,0,0,1,1.35,1.34"/><path class="cls-12" d="M280.61,86a1.36,1.36,0,1,1-1.35-1.34A1.34,1.34,0,0,1,280.61,86"/><path class="cls-15" d="M236,87.47a.87.87,0,1,1-1.73,0v-5.8a.87.87,0,1,1,1.73,0Z"/><path class="cls-11" d="M239.05,87.47a.87.87,0,0,1-1.74,0V76.69a.87.87,0,0,1,1.74,0Z"/><path class="cls-12" d="M242.06,87.47a.87.87,0,1,1-1.73,0V85.05a.87.87,0,1,1,1.73,0Z"/><path class="cls-15" d="M245.08,87.47a.87.87,0,0,1-1.74,0V82.21a.87.87,0,0,1,1.74,0Z"/><path class="cls-4" d="M323.46,147.07a1.23,1.23,0,0,1-1.22,1.23h-22.9a1.23,1.23,0,0,1,0-2.46h22.9a1.23,1.23,0,0,1,1.22,1.23"/><path class="cls-4" d="M364.46,177.79a1.23,1.23,0,0,1-1.23-1.22v-10.5a1.23,1.23,0,0,1,2.46,0v10.5a1.23,1.23,0,0,1-1.23,1.22"/><path class="cls-11" d="M210.6,313.84s.45,5.94-8.85,6c-3.87,0-6.47-2.09-9.08-1.77-3.06.37-7.94-1.33-10.67-.67-1.07,1.17-1.9,1.39-3.3,2.32-.35.24-2.38-6-3.9-10.89-.47-1.52-14.38,6.15-14.68,5.15s.49-12,.49-12l36.33,4.57a24.83,24.83,0,0,0,3.43,2.54c1.69,1,3.17.45,4.87.75s3.71-.78,5.08,0,1.45,3.62.28,4.07"/><path class="cls-14" d="M177.92,319.79s-9-12.64-3.63-16.65c1.87-1.39,15.81,3.6,21.26,3.87-18.46.17-15.41,10.34-13.26,10.14a9.37,9.37,0,0,1-4.37,2.64"/><rect class="cls-35" x="143.64" y="302.73" width="25.71" height="12.03"/><path class="cls-4" d="M154.64,147a11,11,0,0,0-10.8,11.06L144.18,299A10.83,10.83,0,0,0,155,309.87H353.76A10.84,10.84,0,0,0,364.56,299V158.07A11.33,11.33,0,0,0,353.38,147Z"/><path class="cls-5" d="M213.46,146.93H154.64A11,11,0,0,0,143.84,158l.34,140.94A10.82,10.82,0,0,0,155,309.79H333.79Z"/><rect class="cls-6" x="159.57" y="155.72" width="189.25" height="145.5"/><g class="cls-7"><g class="cls-36"><g class="cls-36"><polygon class="cls-9" points="349.46 301.22 159.57 301.22 159.57 155.72 349.46 301.22"/></g></g></g><path class="cls-37" d="M144,242.27c-1.66.95-3.92,3.83-6.84,7s-6.74,5.49-7.12,6.67a9.91,9.91,0,0,0-1.48,5.81c.18,3.45-1.38,6.46-2.06,12.56s-1.68,11.89-2.56,13.84c-1.22,4-3.45,5.74-3.12,9.33,0,0,1.87,6.54,3,12.75s5.94,37.72,6,45.68,2.28,17.53,2.14,21.52c-.05,1.4-.39,40.16-4.07,52.53h38.85c-2.32-13.14-.46-49,.52-53.4,4.15-18.61,4.8-15.2,5.43-18.28s8.11-19,6-38.36S175.86,309,175.65,297s2.48-10,1.37-21.64c-.72-7.53-1.71-7.29-2.94-9.88s-2.83-5.3-6.76-5.33-5.18,3.08-5.94,5-2.43,3.41-3.06,8.64-.24,7.77-.61,9.94a73.5,73.5,0,0,0-.22,11.85A61.19,61.19,0,0,1,156,309.4l-1.21.38a7.54,7.54,0,0,1-3.47-2.76c-1.07-1.87-.93-7.77-3.88-16.93-2.12-6.61-2.86-6.64-3.21-9.83a38.29,38.29,0,0,1-.24-5.09Z"/><path class="cls-11" d="M144.68,282.34s-1-2.52-5.05-3.51c1.58,0,4.17-.62,4.38-3.05a19.49,19.49,0,0,0,.67,6.56"/><path class="cls-11" d="M144,267.29s-1.32-8-4-10.33c2.41.77,3.63,5.62,3.84,3.19.22,2.2-.11,4,.11,7.14"/><path class="cls-11" d="M128.8,261.72a9.94,9.94,0,0,1,1.47-5.81,5.17,5.17,0,0,1,1.49-1.65l-3.17,10.39a13.23,13.23,0,0,0,.21-2.93"/><path class="cls-13" d="M124,288.59c3,8.7,4.93,47.73,8.9,59.13,2.46,7,5.12,18.71,7.16,31,.72,4.34,1.11,46.9,1.63,51.22H127.89c3.38-10.53,4.24-51.14,4.29-52.53.14-4-2.11-13.57-2.14-21.52s-4.83-39.48-6-45.68-3-12.75-3-12.75c-.32-3.45,1.73-5.18,3-8.86"/><path class="cls-10" d="M152.09,217.57a4.46,4.46,0,0,0-4.45,4.49l0,12.76a4.49,4.49,0,0,0,9,0l0-12.76a4.49,4.49,0,0,0-4.51-4.48"/><path class="cls-11" d="M279.45,262.39a11.56,11.56,0,0,1-3.38,8.18l7.59,7.59a22.25,22.25,0,0,0,6.54-15.78H279.45Z"/><path class="cls-12" d="M267.88,274v10.74a22.25,22.25,0,0,0,15.79-6.54h0l-7.59-7.59a11.58,11.58,0,0,1-8.19,3.4"/><path class="cls-12" d="M267.87,274a11.53,11.53,0,0,1-8.18-3.39l-7.59,7.6a22.25,22.25,0,0,0,15.78,6.54h0V274Z"/><path class="cls-12" d="M252.1,278.18l7.59-7.6a11.5,11.5,0,0,1-3.4-8.18H245.55a22.22,22.22,0,0,0,6.55,15.78Z"/><path class="cls-13" d="M256.29,262.39a11.56,11.56,0,0,1,3.38-8.18l-7.6-7.59a22.29,22.29,0,0,0-6.53,15.79h10.75Z"/><path class="cls-13" d="M267.86,250.81V240.07a22.22,22.22,0,0,0-15.78,6.55h0l7.6,7.59a11.54,11.54,0,0,1,8.19-3.4"/><path class="cls-14" d="M331.72,200.84a3.74,3.74,0,1,1,3.73,3.73,3.73,3.73,0,0,1-3.73-3.73"/><path class="cls-14" d="M294.36,226.5a3.74,3.74,0,1,1,3.73,3.74,3.73,3.73,0,0,1-3.73-3.74"/><path class="cls-14" d="M272.6,168.35a3.74,3.74,0,1,1,3.73,3.74,3.74,3.74,0,0,1-3.73-3.74"/><path class="cls-14" d="M256,217.4a3.74,3.74,0,1,1,3.74,3.74A3.74,3.74,0,0,1,256,217.4"/><path class="cls-14" d="M225.5,230.72a3.74,3.74,0,1,1,3.74,3.74,3.74,3.74,0,0,1-3.74-3.74"/><path class="cls-14" d="M214.78,259.63a3.74,3.74,0,1,1,3.74,3.74,3.73,3.73,0,0,1-3.74-3.74"/><path class="cls-14" d="M203.09,244a3.74,3.74,0,1,1,3.74,3.74,3.73,3.73,0,0,1-3.74-3.74"/><path class="cls-14" d="M167.68,223.57a3.74,3.74,0,1,1,3.74,3.74,3.74,3.74,0,0,1-3.74-3.74"/><polygon class="cls-14" points="276.3 166.45 298.41 225.51 335.09 200.31 335.81 201.36 297.78 227.49 276.37 170.26 260.28 217.87 229.74 231.2 218.71 260.94 206.39 244.52 171.1 224.12 171.74 223.02 207.26 243.55 207.33 243.65 218.33 258.31 228.73 230.24 228.98 230.13 259.26 216.93 276.3 166.45"/><polygon class="cls-12" points="203.32 252.5 172.3 243.96 172.65 242.73 203 251.09 229.78 228.2 247.04 198.18 278.23 225.12 290.79 211.73 302.48 198.88 302.73 200.51 291.74 212.59 278.32 226.9 247.38 200.17 230.79 229.02 230.7 229.09 203.32 252.5"/><path class="cls-12" d="M176.21,242.9a3.79,3.79,0,1,1-3.79-3.74,3.77,3.77,0,0,1,3.79,3.74"/><path class="cls-12" d="M206.78,251.35a3.79,3.79,0,1,1-3.79-3.74,3.76,3.76,0,0,1,3.79,3.74"/><path class="cls-12" d="M234.07,228.61a3.79,3.79,0,1,1-3.79-3.74,3.76,3.76,0,0,1,3.79,3.74"/><path class="cls-12" d="M250.5,199.38a3.79,3.79,0,1,1-3.78-3.75,3.75,3.75,0,0,1,3.78,3.75"/><path class="cls-12" d="M282.07,226a3.79,3.79,0,1,1-3.79-3.74,3.77,3.77,0,0,1,3.79,3.74"/><path class="cls-12" d="M294.56,212a3.79,3.79,0,1,1-3.79-3.74,3.76,3.76,0,0,1,3.79,3.74"/><path class="cls-12" d="M306.39,199.7A3.78,3.78,0,1,1,302.6,196a3.77,3.77,0,0,1,3.79,3.74"/><path class="cls-15" d="M182,203.76a2.42,2.42,0,0,1-4.84,0V187.57a2.42,2.42,0,0,1,4.84,0Z"/><path class="cls-11" d="M190.41,203.76a2.43,2.43,0,0,1-4.85,0V173.67a2.43,2.43,0,0,1,4.85,0Z"/><path class="cls-12" d="M198.82,203.76a2.42,2.42,0,0,1-4.84,0V197a2.42,2.42,0,0,1,4.84,0Z"/><path class="cls-15" d="M207.23,203.76a2.42,2.42,0,0,1-4.84,0V189.1a2.42,2.42,0,0,1,4.84,0Z"/><path class="cls-10" d="M357.21,244.83a.8.8,0,1,1-1.6,0V211.72a.8.8,0,0,1,1.6,0Z"/><path class="cls-10" d="M358.61,206.17a2.46,2.46,0,1,1,0-3.48,2.46,2.46,0,0,1,0,3.48"/><path class="cls-11" d="M303.86,259.72a22.55,22.55,0,0,0-1.79,5.07c-.67,2.9-4.11,8.66-6.27,15.78a19.64,19.64,0,0,0,.72,13.15l9.86,7.38,4.87-7,1.44-22-.86-15.5-3.56-.37a13.47,13.47,0,0,0-4.41,3.46"/><path class="cls-37" d="M308.58,291.55s.17-4,.16-8.33.63-9,.77-17.7c.09-5.51-2.61-15-2.7-26.32,0-4.8-.08-17.92.2-21.6s3.3-11.93,8.11-13.86,1.73-.49,1.73-.49,3-2.53,5.16-.31c1.6,1.66.21,8.26-1,10.74s-1.72,8.23-1.72,8.23a91.49,91.49,0,0,0,2.31,11c1,3.29,3,6,2.9,10.42-.06,4.13,1.21,9.21,2.4,14.48a13.89,13.89,0,0,0,2.05,4.75s6.83,3.66,12.29,4.22a8.29,8.29,0,0,1,7.42,5.85c.5,1.41.9,3.18.9,3.18s2.09-1,5.07,2.51,1.95,3.65,2.9,3.83a8.84,8.84,0,0,1,4.27,2c1.6,1.33,3.77,3.49,3.5,10.3-.22,5-.73,7.57-.84,9.73s0,8.5-.62,16.61c-.65,8.62-2.31,17.89-2.07,22.84.4,8.78,1.14,8.7,3.48,18.54,1,4.1.31,7.33,1.61,12.25,2.51,9.43,12.38,37.19,16.51,47.86l-44.07,5.49c-4.56-17.87-10.09-37.71-15.3-52.44a94.91,94.91,0,0,0-13-23.84,80.94,80.94,0,0,1-8.21-12.74s-8.3-18-10.87-21.15a25.72,25.72,0,0,1-4.82-9.89c-.92-3.31-.32-4-2-10s-4.27-10.12-7.11-17.27-2.37-7.92-4.12-11.6-8.3-8.57-7.17-12.3c.24-.82,1.33-.84,1.33-.84s6-5.42,12,.16,7.72,7.43,8.69,9a140.23,140.23,0,0,1,7,15.74c.81,2.53,3.84,10.69,8.61,14.44,1.85,1.44,4.17-3.46,4.17-3.46"/><path class="cls-38" d="M317.14,203c.43-.21,1.11-.56.29-.27l-.31.21Z"/><path class="cls-38" d="M317.43,202.76a3.19,3.19,0,0,0-.34.13l0,.08.31-.21"/><path class="cls-13" d="M357.71,425.43c-8.37-9.05-34-63.62-39.53-78s1-27.62-1.45-42.91-1.3-25.11,2.31-31.27,6.81-6.73,5.66-10c-.95-2.72-10.65,5.12-10-3.88.67-9.77-2.49-17-2.42-21.81,0-.2,5.32-3,8.45-2.16a10.82,10.82,0,0,0-7.29.3,8.44,8.44,0,0,1,3.8-1.47,11.2,11.2,0,0,0-4.15.69c-.65.22-.82-.74-.83-1.25A155.67,155.67,0,0,0,310.83,217c-.68-4.74,6.38-13.79,6.38-13.79l-.07-.18-.29.14.27-.2,0-.08c-.42.15-1,.4-2,.77-4.81,1.93-7.83,10.19-8.11,13.86s-.24,16.79-.2,21.6c.09,11.32,2.79,20.8,2.7,26.31-.14,8.67-.78,13.42-.77,17.71s-.16,8.33-.16,8.33-2.33,4.9-4.17,3.46c-4.77-3.75-7.8-11.92-8.61-14.44a135.13,135.13,0,0,0-7-15.74c-3-4.58-6.21,1.05-9.84-4.33-5.71-8.46-10.85-4.82-10.85-4.82s-1.09,0-1.33.83c-1.13,3.74,5.44,8.62,7.17,12.31s1.29,4.46,4.12,11.6,5.48,11.31,7.1,17.27,1,6.67,2,10a25.65,25.65,0,0,0,4.82,9.89c2.57,3.11,10.86,21.15,10.86,21.15A81.78,81.78,0,0,0,311,351.37a95,95,0,0,1,13,23.84c2.16,6.11,13.12,45.16,15.3,52.52Z"/><path class="cls-38" d="M316.85,203.17l.29-.14,0-.06-.27.2"/><path class="cls-11" d="M328.78,262.34a12.31,12.31,0,0,0,1.21,3.05c.71,1.06.4.56,3.16,3.52,1.63,1.76,3.18,1.2,4,.54s2.91-2.68,5.93-2.34a36.7,36.7,0,0,1-14.33-4.77"/></g></g></g></g></svg>