<svg id="Layer_1" data-name="Layer 1" xmlns="http://www.w3.org/2000/svg" viewBox="0 0 225.28 170.34"><defs><style>.cls-1{fill:#18b9ed;}.cls-2{fill:#0586cb;}.cls-3{fill:#0f54af;}.cls-4{fill:#fff;}.cls-5{fill:#afafaf;}.cls-6{fill:#d2d2d2;}.cls-7{fill:#fafcfc;}.cls-8{fill:#262432;}.cls-9{fill:#0a6ebe;}</style></defs><title>busint-men-women</title><path class="cls-1" d="M7.59,38.54a5.5,5.5,0,0,0,6.88-4.26c.74-3.25-3.17-7.66-6.42-8.4A6,6,0,0,0,.82,30.43C.07,33.68,4.34,37.8,7.59,38.54Z"/><rect class="cls-2" x="212.03" y="162.92" width="2.58" height="12.69"/><polygon class="cls-3" points="191.13 132.79 191.07 152.69 181.31 159.94 148.54 151.14 148.14 129.76 191.13 132.79"/><polygon class="cls-3" points="169.85 152.56 135.2 287.45 125.66 283.51 141.69 134.92 169.85 152.56"/><path class="cls-4" d="M143.75,123a7.54,7.54,0,0,0,.12-2c-1.9-22.28-1.53-42.91-7.94-64.28,7.28-2.93,14.75-10.42,20.76-11.75,11.27-2.5,30.4,4.71,36.8,8.05,2,1,3.78-.66,4.75,0,2.78,1.87-9.79,44.05-11.47,59.55L188.33,132l-40.69,6.63s-5.12-1.87-3.49-12.6A11.2,11.2,0,0,0,143.75,123Z"/><path class="cls-5" d="M171.06,46.45c.09,2.34-.78.88-7.9,1.5-8.66.75-7.89-.52-8.32-6.17-.28-3.66-1.42-19.83-1.42-19.83l15.25,3.73S171,44.11,171.06,46.45Z"/><path class="cls-2" d="M200,51.68c6.51,17.26,17.62,56.7,17.62,56.7l-15-3.15c-4.36-3.85-14.68-25-14.66-27.38C187.92,72.48,199.11,49.43,200,51.68Z"/><polygon class="cls-6" points="191.21 123.07 190.97 122.62 191.76 122.8 191.21 123.07"/><path class="cls-2" d="M124.77,106.75s-7.6-7.66-7.6-7.66L112.9,92s17.42-31.77,20.74-36.81c2.3,1.88,9.4,19.35,9.4,19.35Z"/><path class="cls-3" d="M167.34,142.22h28.49s-10.32,138.16-11.58,142.22a9.75,9.75,0,0,1-8.55-.36C174.72,274.23,167.34,142.22,167.34,142.22Z"/><path class="cls-7" d="M170.47,40.58,173,46.71s-7.81,9.69-7.28,10S159,48.2,159,48.2Z"/><polygon class="cls-7" points="156.25 55.48 159 48.2 154.1 41.34 152.65 46.27 156.25 55.48"/><polygon class="cls-2" points="171.84 43.96 177 155.43 197.08 154.1 194.95 73.74 199.96 51.69 171.84 43.96"/><polygon class="cls-2" points="152.65 46.27 155.83 156.01 138.21 155.09 134.94 72.75 133.64 55.21 152.65 46.27"/><polygon class="cls-2" points="159.25 48.21 160.84 51.46 160.27 52.8 159.65 54.27 157.64 52.06 159.25 48.21"/><polygon class="cls-2" points="164.83 122.6 160.82 116.79 158.51 52.67 160.17 52.25 166.91 114.93 164.83 122.6"/><polygon class="cls-6" points="210.85 142.15 213.58 143.23 216.98 160.19 211.53 168.04 204.5 166.87 207.27 151.34 210.85 142.15"/><polygon class="cls-6" points="96.38 106.57 97.94 113.69 91.56 114.35 79.84 123.07 72.39 123.75 68.47 115.16 78.9 109.71 96.38 106.57"/><polygon class="cls-7" points="204.68 153.29 204.68 142.15 209.2 147.68 216.81 143.4 216.81 156.01 204.68 153.29"/><polygon class="cls-7" points="85.81 108.03 96.06 103.66 92.74 109.99 98.52 115.31 87.31 118.93 85.81 108.03"/><path class="cls-2" d="M203.75,148.44c-.87-12.24-3.66-48.24-4.24-48.5l5.73-5.23,12.34,13.67v36.46l-.29,4.23C212.78,148.77,208.27,148.57,203.75,148.44Z"/><path class="cls-2" d="M88.32,105.11c8.59-3.55,29.85-16,29.85-16l10.25,3.77-3.65,13.85L93.83,117.53l-2,.65Q90.18,111.63,88.32,105.11Z"/><rect class="cls-2" x="207.31" y="162.92" width="2.58" height="12.69"/><path class="cls-6" d="M147.78,18.29l-.49-9.79,17-1.5,7.09,7.77,1.53,12c-1.29.81-5.78.33-6,1.77-.5,3-.76,7.17-.76,7.17s-13.55,7.94-14.89,5.68c-.7-1.18-3.48-9.59-3.48-9.59a8.15,8.15,0,0,1-3.86-1C146.3,26.46,147.78,18.29,147.78,18.29Z"/><path class="cls-3" d="M176.58,18.4l-7.53,17.81-.86-9.07-3.75,1.23-2.79-8.68-.94-8.18-13.61-.2s-1-2.87-.88-10.2c.07-5.12,29.62,9.13,29.62,9.13Z"/><path class="cls-6" d="M170.45,20.54c2.21,1.61.54,5-.49,6.82-.88,1.56-4.06,4-6,2L165.92,22C166.32,20.15,169,19.45,170.45,20.54Z"/><rect class="cls-8" x="37.91" y="149.47" width="2.7" height="13.25"/><path class="cls-6" d="M47.36,154.19l-3.87,1.56c-.5.2-4-4-4.3-4.4-2-2.21-.83-12-.14-15,.38-1.64,4.34-4.7,4.34-4.7L45.87,140Z"/><polygon class="cls-4" points="45.75 137.92 38.04 138.55 38.04 130.74 45.34 133.56 45.75 137.92"/><path class="cls-2" d="M33,97.87s4.75,24.64,3.71,35.8a57.66,57.66,0,0,0,9.14,1.49L42,95.57C40.92,92.28,33,97.87,33,97.87Z"/><rect class="cls-1" x="26.75" y="157.45" width="30.38" height="45.92"/><rect class="cls-1" x="42.83" y="149.47" width="2.7" height="13.25"/><rect class="cls-9" x="26.75" y="157.45" width="29.62" height="24.97"/><path class="cls-2" d="M42.83,95.94c.67-21,1.3-40-2.18-41.2-22.81-9-9.32,1.67-11,9.9-2.05,10.22,4.49,2.28,9.4,14.62C42,83.09,32.65,92,42.83,95.94Z"/><polygon class="cls-2" points="29.7 51.34 31.94 113.21 44.6 119.29 43.19 73.6 41.33 62.85 29.7 51.34"/><path class="cls-5" d="M52.44,195.28s-4.4-25.34-9.18-43.71L27,161.77,41,202s-5.8,17.68-3.44,25.31c1.57,5.06,23.47,49,23.47,49L69.15,292l3.21-.46c-12.28-23.28-19.45-80.14-20-82.87Z"/><path class="cls-6" d="M2.3,153.8q2.42-4.17,4.7-8.42L16.9,144v144L12,282.85S.36,220.93.14,218.1c-.6-8,6.12-22.55,6.12-22.55Z"/><path class="cls-5" d="M28.73,58.78c-5.48-.58-13-1.6-14.86-2.66.43-6.37,3.91-22.68,6.28-27.22,1.16.41,7.32,4.1,6.45,9.37C25.13,47.28,29,56.69,28.73,58.78Z"/><path class="cls-4" d="M.72,53c7.8-3.29,24.15-5.06,32.61.16,6.08,5.9,9.57,11.48,5.59,21.28-.07,2.35,1.79,35.94,2.38,46.41a14.42,14.42,0,0,1-.18,3.31c-9,.33-21.24-6.76-30.12-10.48,4-6.26,9.92-20.16,9.6-25.14C19.86,77.09,1.23,69.46.72,53Z"/><path class="cls-3" d="M41.44,121.62,13,110.19C10.78,113.51,1.07,123.68.21,131.86c-.52,4.93,2.24,58.35,2.24,58.35,11.53,2.73,49.36-.69,49.36-.69L41.44,135.68S41.53,125.52,41.44,121.62Z"/><polygon class="cls-2" points="29.7 51.34 41.54 64.78 41.44 73.43 40.97 115.07 41.47 123 44.64 120.91 43.21 63.48 37.17 53.68 29.7 51.34"/><path class="cls-2" d="M14.94,48.43,0,52.84,3,68.68C8.16,80.23,15.48,93,15.68,94.1,16,95.94,8.5,116,8.5,116L23,125.72l.55-60.94Z"/><polygon class="cls-6" points="75.83 110.4 84.03 119.83 82.12 124.53 77.63 123.46 75.49 119.57 64.65 109.69 70.13 108.06 75.83 110.4"/><path class="cls-2" d="M33.69,89c8.15-5,23.8,14.11,36.79,18.33L69,112.49c-11.11-1.77-16.7-4.4-24.81-7.25C30.08,100.29,27.42,92.77,33.69,89Z"/><polygon class="cls-4" points="72.1 107.84 68.85 113.28 64.72 111.6 67.72 105.91 72.1 107.84"/><path class="cls-2" d="M40.6,90c-4.35-.6-25.13-31.2-25.13-31.2L.69,54l3,16.26s26.24,26.27,30.86,30S46.16,90.77,40.6,90Z"/><path class="cls-6" d="M7,18.77a10.14,10.14,0,0,0,6.66,11.52c8.11,7.73,15.44,11.11,19,10.17a55.62,55.62,0,0,0,2.85-7.71,14.32,14.32,0,0,0,2.36-1.63,18.55,18.55,0,0,1-3.64-8.92c-.26-4.11-1.87-8.2-2.58-8.91C23.54,15.44,15,16.16,7,18.77Z"/><path class="cls-1" d="M10.27,11.37C3.35,18.3,5,27,10,33.57a9.47,9.47,0,0,0,7.39,3.58c.63-2.14,2.14-7.64,2.14-7.64L33,15.67C28.47,5.68,16.89,4.74,10.27,11.37Z"/><path class="cls-6" d="M23,32.5l-3.08-5.94s-2.2-2.48-4-.55S19.21,35,23,32.5Z"/></svg>