<svg xmlns="http://www.w3.org/2000/svg" viewBox="0 0 148.15 236.25"><defs><style>.cls-1{fill:#009fdb;}.cls-2{fill:#fff;}.cls-3{fill:#f2f2f2;}.cls-4{fill:#d2d2d2;}.cls-5{fill:#959595;}.cls-6,.cls-7{fill:none;stroke-linecap:round;stroke-linejoin:round;stroke-width:2px;}.cls-6{stroke:#d2d2d2;}.cls-7{stroke:#0586cb;}</style></defs><title>Asset 2</title><g id="Layer_2" data-name="Layer 2"><g id="Layer_1-2" data-name="Layer 1"><rect class="cls-1" y="26.72" width="148.15" height="209.53" rx="9.26" ry="9.26"/><rect class="cls-2" x="9.26" y="35.98" width="129.63" height="192.02"/><path class="cls-3" d="M113.48,46.25V25.44A7.51,7.51,0,0,0,106,18H91.91a4.5,4.5,0,0,1-4.49-4.48v-.15A13.35,13.35,0,0,0,74.1,0h0A13.35,13.35,0,0,0,60.74,13.32v.15A4.5,4.5,0,0,1,56.25,18H42.16a7.5,7.5,0,0,0-7.48,7.49V46.25ZM74.08,8.1a5.24,5.24,0,1,1-5.24,5.24A5.24,5.24,0,0,1,74.08,8.1Z"/><path class="cls-4" d="M74.08,5.11a8.23,8.23,0,1,0,8.23,8.23A8.23,8.23,0,0,0,74.08,5.11Zm0,13.47a5.24,5.24,0,1,1,5.23-5.24A5.24,5.24,0,0,1,74.08,18.58Z"/><rect class="cls-4" x="34.68" y="25.44" width="78.8" height="20.82"/><rect class="cls-5" x="34.68" y="40.46" width="78.8" height="5.8"/><rect class="cls-6" x="23.86" y="62.21" width="21.24" height="21.24"/><line class="cls-6" x1="54.82" y1="67.67" x2="116.12" y2="67.67"/><line class="cls-6" x1="55.12" y1="76.78" x2="116.42" y2="76.78"/><rect class="cls-6" x="23.86" y="92.71" width="21.24" height="21.24"/><line class="cls-6" x1="54.82" y1="98.17" x2="116.12" y2="98.17"/><line class="cls-6" x1="55.12" y1="107.28" x2="116.42" y2="107.28"/><rect class="cls-6" x="23.86" y="123.21" width="21.24" height="21.24"/><line class="cls-6" x1="54.82" y1="128.67" x2="116.12" y2="128.67"/><line class="cls-6" x1="55.12" y1="137.77" x2="116.42" y2="137.77"/><rect class="cls-6" x="23.86" y="153.71" width="21.24" height="21.24"/><line class="cls-6" x1="54.82" y1="159.17" x2="116.12" y2="159.17"/><line class="cls-6" x1="55.12" y1="168.27" x2="116.42" y2="168.27"/><rect class="cls-6" x="23.86" y="184.21" width="21.24" height="21.24"/><line class="cls-6" x1="54.82" y1="189.67" x2="116.12" y2="189.67"/><line class="cls-6" x1="55.12" y1="198.77" x2="116.42" y2="198.77"/><polyline class="cls-7" points="27.2 72.83 32.06 77.69 47.84 61.91"/></g></g></svg>