<svg id="Layer_1" data-name="Layer 1" xmlns="http://www.w3.org/2000/svg" xmlns:xlink="http://www.w3.org/1999/xlink" viewBox="0 0 364.15 260.99"><defs><style>.cls-1,.cls-10,.cls-17,.cls-2{fill:none;}.cls-2,.cls-4,.cls-5,.cls-6,.cls-7{stroke:#0586cb;stroke-width:2px;}.cls-17,.cls-2,.cls-4,.cls-5,.cls-6,.cls-7{stroke-miterlimit:10;}.cls-3{fill:#c3f2ff;}.cls-15,.cls-4{fill:#0a6ebe;}.cls-12,.cls-5{fill:#009fdb;}.cls-18,.cls-6{fill:#0f54af;}.cls-13,.cls-7{fill:#30d1ff;}.cls-8{fill:url(#linear-gradient);}.cls-9{fill:#d2d2d2;}.cls-10{stroke:#0a6ebe;stroke-linecap:round;stroke-linejoin:round;}.cls-11{clip-path:url(#clip-path);}.cls-14{fill:#0586cb;}.cls-16{fill:#18b9ed;}.cls-17{stroke:#0f54af;}</style><linearGradient id="linear-gradient" x1="51.1" y1="263" x2="137.82" y2="91.11" gradientUnits="userSpaceOnUse"><stop offset="0.24" stop-color="#fff" stop-opacity="0"/><stop offset="0.25" stop-color="#fafafa" stop-opacity="0.07"/><stop offset="0.3" stop-color="#e8e8e8" stop-opacity="0.29"/><stop offset="0.35" stop-color="#d9d9d9" stop-opacity="0.48"/><stop offset="0.4" stop-color="#ccc" stop-opacity="0.64"/><stop offset="0.46" stop-color="#c1c1c1" stop-opacity="0.77"/><stop offset="0.53" stop-color="#b9b9b9" stop-opacity="0.88"/><stop offset="0.62" stop-color="#b3b3b3" stop-opacity="0.95"/><stop offset="0.73" stop-color="#b0b0b0" stop-opacity="0.99"/><stop offset="1" stop-color="#afafaf"/></linearGradient><clipPath id="clip-path"><path class="cls-1" d="M73.76,43.12C37.34,68.82,49,113,72,137c10.22,10.66,6,8,18,13,12-16,11.31-18.3,11.31-18.3L172.43,80C159.84,31.69,108.64,18.49,73.76,43.12Z"/></clipPath></defs><title>busint-creative</title><line class="cls-2" x1="268.34" y1="135.93" x2="268.34" y2="174.36"/><polyline class="cls-2" points="318.78 140.38 318.78 159.73 355.29 159.73 355.29 173.05"/><polyline class="cls-2" points="246 141.5 246 160.85 211.89 160.85 211.89 177.52"/><polyline class="cls-2" points="296.44 141.5 296.44 184.9 318.94 184.9"/><path class="cls-3" d="M337.87,92.19a19,19,0,0,0-18.74-18.52,18.26,18.26,0,0,0-8,1.83,40.68,40.68,0,0,0-79.8,11.2,42.74,42.74,0,0,0,.31,5.09h-.31c-16.85,0-30.5,12.28-30.5,27.34s13.65,27.34,30.5,27.34H332.42c16.85,0,30.51-12.29,30.51-27.35C362.93,105.72,352.12,94.49,337.87,92.19Z"/><path class="cls-4" d="M204.84,184.26a7.19,7.19,0,1,1,7.18,7.19A7.19,7.19,0,0,1,204.84,184.26Z"/><path class="cls-5" d="M260.39,182.51a8.35,8.35,0,1,1,8.35,8.35A8.35,8.35,0,0,1,260.39,182.51Z"/><path class="cls-6" d="M347.73,178.21a7.71,7.71,0,1,1,7.71,7.71A7.71,7.71,0,0,1,347.73,178.21Z"/><path class="cls-7" d="M317.21,185.07a7.4,7.4,0,1,1,7.4,7.4A7.4,7.4,0,0,1,317.21,185.07Z"/><path class="cls-8" d="M89.87,261C69,247.16,40.76,227.2,35.48,219c15.11-24.83,63.49-83.4,82.64-96.72,3.83,4.1,20.92,32,6.32,51.44C99.53,207,95.18,253.07,89.87,261Z"/><path class="cls-9" d="M53.39,73.77c-6.07,15.28-4.56,42.09,21,56.89,30.39,41,60.65,61.82,77.22,60.36,8.5-11.61,13.53-22.7,18.8-32.37,2-1.48,7.11-1.86,11.82-5.49-3.79-5.43-11.07-27.18-9.37-42.86,2-18.64-2.05-38.25-4.69-42C130.15,71.67,91.09,68.23,53.39,73.77Z"/><polyline class="cls-10" points="195.5 57.5 152.5 67.5 157.5 26.5 127.5 2.5 155.5 39.5 99.5 9.5 103.5 48.5 46.5 28.5 66.5 6.5 81.5 55.5 21.5 61.5 6.5 93.5 58.5 51.5 89.5 88.5 1.5 108.5 54.5 154.5 68.5 87.5"/><g class="cls-11"><path class="cls-12" d="M73.76,43.12C37.34,68.82,37.89,109,55.39,142.52c6.84,13.09,12,17.5,23.3,19.82,17.38-16.23,22.62-30.64,22.62-30.64L172.43,80C159.84,31.69,108.64,18.49,73.76,43.12Z"/><polygon class="cls-13" points="57.04 54 56.93 87.48 39.56 96.09 57.04 54"/><polygon class="cls-14" points="78.97 68.71 57.04 54 56.93 87.48 78.97 68.71"/><polygon class="cls-15" points="57.04 54 95.22 31.82 78.97 68.71 57.04 54"/><polygon class="cls-16" points="95.22 31.82 108.35 49.27 78.97 68.71 95.22 31.82"/><polygon class="cls-13" points="95.22 31.82 127.83 26.51 108.35 49.27 95.22 31.82"/><polygon class="cls-14" points="127.83 26.51 165.17 33.83 135.12 49.14 127.83 26.51"/><polygon class="cls-14" points="127.83 26.51 108.35 49.27 135.12 49.14 127.83 26.51"/><polygon class="cls-13" points="165.17 32.76 182.75 63.8 186.55 41.58 165.17 32.76"/><polygon class="cls-14" points="186.55 43.73 191.16 55.12 182.75 65.95 186.55 43.73"/><polygon class="cls-16" points="182.75 65.95 153.81 73.11 165.17 34.91 182.75 65.95"/><polygon class="cls-15" points="159.61 95.41 182.75 64.88 153.81 72.03 159.61 95.41"/><polygon class="cls-13" points="136.23 88.29 153.81 72.03 159.61 95.41 136.23 88.29"/><polygon class="cls-13" points="135.12 49.14 153.81 72.03 165.17 33.83 135.12 49.14"/><polygon class="cls-15" points="136.23 88.29 135.12 49.14 153.81 72.03 136.23 88.29"/><polygon class="cls-16" points="106.57 72.61 135.12 49.14 136.23 88.29 106.57 72.61"/><polygon class="cls-13" points="108.35 49.27 106.57 72.61 135.12 49.14 108.35 49.27"/><polygon class="cls-13" points="78.97 68.71 106.57 72.61 108.35 49.27 78.97 68.71"/><polygon class="cls-14" points="56.93 87.48 40.29 128.29 39.56 96.09 56.93 87.48"/><polygon class="cls-16" points="62.91 134.66 58 89.63 41.36 130.44 62.91 134.66"/><polygon class="cls-13" points="81.91 119.54 58 89.63 62.91 134.66 81.91 119.54"/><polygon class="cls-15" points="76.56 144.75 80.84 117.39 61.83 132.51 76.56 144.75"/><polygon class="cls-13" points="54.13 159.59 61.83 132.51 76.56 144.75 54.13 159.59"/><polygon class="cls-13" points="40.29 128.29 54.13 159.59 61.83 132.51 40.29 128.29"/><polygon class="cls-16" points="81.91 119.54 96.56 135.64 77.63 146.9 81.91 119.54"/><polygon class="cls-13" points="68.56 176.47 77.63 144.75 96.56 133.49 68.56 176.47"/><polygon class="cls-16" points="54.13 159.59 76.56 144.75 67.48 176.47 54.13 159.59"/><polygon class="cls-14" points="95.49 133.49 85.64 177.25 67.48 176.47 95.49 133.49"/><polygon class="cls-13" points="113.14 98.95 80.84 118.47 122.66 116.3 113.14 98.95"/><polygon class="cls-15" points="136.23 88.29 113.14 97.87 106.57 72.61 136.23 88.29"/><polygon class="cls-13" points="123.74 117.38 137.31 90.44 114.22 100.02 123.74 117.38"/><polygon class="cls-14" points="159.61 95.41 122.66 115.23 136.23 88.29 159.61 95.41"/><polygon class="cls-13" points="81.91 117.39 123.74 115.23 96.56 133.49 81.91 117.39"/><line class="cls-17" x1="159.61" y1="95.41" x2="122.66" y2="115.23"/><polyline class="cls-17" points="85.64 177.25 67.48 176.47 54.13 159.59 40.29 128.29 39.56 96.09 57.04 54 95.22 31.82 127.83 26.51 165.17 33.83 182.75 64.88 159.61 95.41"/><polyline class="cls-17" points="135.12 49.14 108.35 49.27 78.97 68.71 57.04 54 56.93 87.48 39.56 96.09"/><path class="cls-17" d="M56.93,87.48"/><path class="cls-17" d="M122.66,115.23"/><path class="cls-17" d="M80.84,117.39"/><line class="cls-17" x1="95.49" y1="133.49" x2="80.84" y2="117.39"/><line class="cls-17" x1="76.56" y1="144.75" x2="67.48" y2="176.47"/><path class="cls-17" d="M56.93,87.48"/><polyline class="cls-17" points="135.12 49.14 136.23 88.29 153.81 72.03"/><line class="cls-17" x1="95.49" y1="133.49" x2="122.66" y2="115.23"/><path class="cls-17" d="M80.84,117.39"/><line class="cls-17" x1="108.35" y1="49.27" x2="106.63" y2="72.74"/><path class="cls-17" d="M54.13,159.59"/><polyline class="cls-17" points="135.12 49.14 165.17 33.83 153.81 72.03 136.23 88.29"/><line class="cls-17" x1="40.29" y1="128.29" x2="56.93" y2="87.48"/><line class="cls-17" x1="54.13" y1="159.59" x2="76.56" y2="144.75"/><line class="cls-17" x1="95.49" y1="133.49" x2="67.48" y2="176.47"/><polyline class="cls-17" points="40.29 128.29 61.83 132.51 56.93 87.48"/><polyline class="cls-17" points="78.97 68.71 95.22 31.82 108.35 49.27 127.83 26.51"/><path class="cls-17" d="M113.14,97.87"/><polyline class="cls-17" points="95.49 133.49 76.56 144.75 80.84 117.39"/><polyline class="cls-17" points="54.13 159.59 61.83 132.51 80.84 117.39"/><polyline class="cls-17" points="122.66 115.23 113.14 97.87 136.23 88.29 159.61 95.41 153.81 72.03"/><polyline class="cls-17" points="136.23 88.29 122.66 115.23 80.84 117.39"/><polyline class="cls-17" points="127.83 26.51 135.12 49.14 153.81 72.03 182.75 64.88"/><line class="cls-17" x1="61.83" y1="132.51" x2="76.56" y2="144.75"/><polyline class="cls-17" points="67.48 176.47 82.31 195.23 85.64 177.25"/><polyline class="cls-17" points="182.9 63.87 185.94 43 186.95 43.4 191.86 55.27"/><polygon class="cls-17" points="80.83 117.19 56.91 87.74 78.55 69.34 106.6 72.4 113.35 98.17 80.83 117.19"/><polyline class="cls-17" points="136.05 88.36 106.6 72.4 134.82 49.09"/><circle class="cls-18" cx="57.04" cy="54" r="1.96"/><circle class="cls-18" cx="78.97" cy="68.71" r="2.8"/><circle class="cls-18" cx="56.93" cy="87.48" r="2.8"/><circle class="cls-18" cx="61.83" cy="132.51" r="1.96"/><circle class="cls-18" cx="85.64" cy="177.25" r="1.96"/><circle class="cls-18" cx="39.56" cy="96.09" r="2.8"/><circle class="cls-18" cx="40.29" cy="128.29" r="1.96"/><circle class="cls-18" cx="54.13" cy="159.59" r="2.8"/><circle class="cls-18" cx="76.56" cy="144.75" r="1.96"/><circle class="cls-18" cx="67.48" cy="176.47" r="2.8"/><circle class="cls-18" cx="82.3" cy="195.23" r="1.4"/><circle class="cls-18" cx="95.49" cy="133.49" r="2.8"/><circle class="cls-18" cx="80.84" cy="117.39" r="2.8"/><circle class="cls-18" cx="122.66" cy="115.23" r="1.96"/><circle class="cls-18" cx="136.23" cy="88.29" r="2.8"/><circle class="cls-18" cx="153.81" cy="72.03" r="1.4"/><circle class="cls-18" cx="191.16" cy="54.05" r="1.4"/><circle class="cls-18" cx="159.61" cy="95.41" r="1.96"/><circle class="cls-18" cx="186.55" cy="42.65" r="1.96"/><circle class="cls-18" cx="182.75" cy="64.88" r="2.8"/><circle class="cls-18" cx="135.12" cy="49.14" r="2.8"/><circle class="cls-18" cx="165.17" cy="33.83" r="2.8"/><circle class="cls-18" cx="127.83" cy="26.51" r="1.96"/><circle class="cls-18" cx="108.35" cy="49.27" r="1.96"/><circle class="cls-18" cx="95.21" cy="31.83" r="2.8"/><circle class="cls-18" cx="113.14" cy="97.87" r="1.96"/><circle class="cls-18" cx="106.57" cy="72.62" r="2.39"/></g><path class="cls-9" d="M114.26,147.79l-9.21-29.08s-8-12.84-17.64-5.59S95.55,156.08,114.26,147.79Z"/><circle class="cls-15" cx="66" cy="7" r="3"/><circle class="cls-15" cx="46.5" cy="28.5" r="1.5"/><circle class="cls-15" cx="22" cy="62" r="2"/><circle class="cls-15" cx="2" cy="109" r="2"/><circle class="cls-15" cx="54" cy="154" r="3"/><circle class="cls-15" cx="58.5" cy="51.5" r="1.5"/><circle class="cls-15" cx="99.5" cy="9.5" r="2.5"/><circle class="cls-15" cx="127.5" cy="2.5" r="2.5"/><circle class="cls-15" cx="195.5" cy="57.5" r="2.5"/><circle class="cls-15" cx="155.5" cy="39.5" r="2.5"/><circle class="cls-15" cx="158" cy="27" r="2"/><circle class="cls-15" cx="7" cy="93" r="3"/></svg>