<?xml version="1.0" encoding="utf-8"?>
<!-- Generator: Adobe Illustrator 22.1.0, SVG Export Plug-In . SVG Version: 6.00 Build 0)  -->
<svg version="1.1" id="Layer_1" xmlns="http://www.w3.org/2000/svg" xmlns:xlink="http://www.w3.org/1999/xlink" x="0px" y="0px"
	 viewBox="0 0 204.8 167.6" style="enable-background:new 0 0 204.8 167.6;" xml:space="preserve">
<style type="text/css">
	.st0{opacity:0.5;}
	.st1{fill:#959595;}
	.st2{fill:#D2D2D2;}
	.st3{fill:#5A5A5A;}
	.st4{fill:#F2F2F2;}
	.st5{fill:#009FDB;}
	.st6{fill:#0F54AF;}
</style>
<g>
	<g class="st0">
		<rect x="135.5" class="st1" width="45.9" height="167.6"/>
		<rect x="135.5" y="159.5" class="st2" width="45.9" height="8.2"/>
		<rect x="135.5" class="st2" width="45.9" height="10.8"/>
		<path class="st3" d="M168.2,43.2c0,8.8-4.4,16-9.8,16c-5.4,0-9.8-7.2-9.8-16c0-8.8,4.4-16,9.8-16
			C163.8,27.2,168.2,34.4,168.2,43.2z"/>
		<rect x="147.5" y="74.1" class="st3" width="21.8" height="81.1"/>
	</g>
	<g class="st0">
		<rect x="181.3" class="st3" width="23.5" height="167.6"/>
		<g>
			<ellipse class="st4" cx="193.1" cy="89.5" rx="5.7" ry="33.5"/>
			<g>
				<path class="st4" d="M198.9,34.7c0,3.3-2.6,6-5.8,6c-3.2,0-5.8-2.7-5.8-6c0-3.3,2.6-6,5.8-6C196.3,28.7,198.9,31.4,198.9,34.7z"
					/>
			</g>
			<g>
				<path class="st4" d="M198.9,140.8c0,3.3-2.6,6-5.8,6c-3.2,0-5.8-2.7-5.8-6c0-3.3,2.6-6,5.8-6
					C196.3,134.9,198.9,137.5,198.9,140.8z"/>
			</g>
		</g>
	</g>
	<g class="st0">
		<g>
			<g>
				<g>
					
						<rect x="16.8" y="72.1" transform="matrix(0.2782 -0.9605 0.9605 0.2782 -7.8988 157.1926)" class="st3" width="167.6" height="23.5"/>
				</g>
			</g>
		</g>
		<g>
			<g>
				<g>
					
						<rect x="112.4" y="24.6" transform="matrix(0.2784 -0.9605 0.9605 0.2784 50.7997 134.9139)" class="st2" width="5.5" height="18.2"/>
				</g>
			</g>
		</g>
		<g>
			<g>
				<g>
					
						<rect x="109.2" y="35.8" transform="matrix(0.2783 -0.9605 0.9605 0.2783 37.6308 139.917)" class="st2" width="5.5" height="18.2"/>
				</g>
			</g>
		</g>
		<g>
			<g>
				<g>
					
						<rect x="79.2" y="139.3" transform="matrix(0.2784 -0.9605 0.9605 0.2784 -83.4059 185.7863)" class="st2" width="5.5" height="18.2"/>
				</g>
			</g>
		</g>
	</g>
	<g class="st0">
		<g>
			<g>
				<g>
					
						<rect x="-8.1" y="72.1" transform="matrix(0.2782 -0.9605 0.9605 0.2782 -25.8593 133.2932)" class="st2" width="167.6" height="23.5"/>
				</g>
			</g>
		</g>
		<g>
			<g>
				<g>
					
						<rect x="87.6" y="24.6" transform="matrix(0.2784 -0.9605 0.9605 0.2784 32.8416 111.0124)" class="st1" width="5.5" height="18.2"/>
				</g>
			</g>
		</g>
		<g>
			<g>
				<g>
					
						<rect x="84.3" y="35.8" transform="matrix(0.2783 -0.9605 0.9605 0.2783 19.6685 116.0131)" class="st1" width="5.5" height="18.2"/>
				</g>
			</g>
		</g>
		<g>
			<g>
				<g>
					
						<rect x="54.3" y="139.3" transform="matrix(0.2784 -0.9605 0.9605 0.2784 -101.3631 161.8857)" class="st1" width="5.5" height="18.2"/>
				</g>
			</g>
		</g>
	</g>
	<g>
		<g>
			<rect class="st5" width="40.9" height="167.6"/>
			<rect y="159.5" class="st6" width="40.9" height="8.2"/>
			<rect class="st6" width="40.9" height="10.8"/>
			<path class="st6" d="M30.2,52.3c0,13.8-4.4,25.1-9.8,25.1c-5.4,0-9.8-11.2-9.8-25.1c0-13.8,4.4-25.1,9.8-25.1
				C25.9,27.2,30.2,38.5,30.2,52.3z"/>
			<rect y="133.3" class="st6" width="40.9" height="21.9"/>
		</g>
		<path class="st6" d="M27.2,94.8c0,3.7-3,6.8-6.8,6.8c-3.7,0-6.8-3-6.8-6.8c0-3.7,3-6.8,6.8-6.8C24.2,88,27.2,91.1,27.2,94.8z"/>
	</g>
</g>
</svg>
