<?xml version="1.0" encoding="utf-8"?>
<!-- Generator: Adobe Illustrator 22.1.0, SVG Export Plug-In . SVG Version: 6.00 Build 0)  -->
<svg version="1.1" id="Layer_1" xmlns="http://www.w3.org/2000/svg" xmlns:xlink="http://www.w3.org/1999/xlink" x="0px" y="0px"
	 viewBox="0 0 1969.3 729.1" style="enable-background:new 0 0 1969.3 729.1;" xml:space="preserve">
<style type="text/css">
	.st0{fill:#0F54AF;}
	.st1{fill:#0B3F83;}
	.st2{fill:#FFFFFF;}
	.st3{fill:#AFAFAF;}
	.st4{fill:#FAFCFC;}
	.st5{fill:#D2D2D2;}
	.st6{fill:#0A6EBE;}
	.st7{fill:#2A334C;}
	.st8{fill:none;stroke:#959595;stroke-width:3;stroke-miterlimit:10;}
	.st9{fill:none;stroke:#D2D2D2;stroke-width:3;stroke-miterlimit:10;}
	.st10{fill:none;stroke:#333333;stroke-width:2.0912;stroke-miterlimit:10;stroke-dasharray:16.84,15.7875;}
	.st11{fill:none;stroke:#009FDB;stroke-width:6.478;stroke-miterlimit:10;}
	.st12{fill:#666666;stroke:#666666;stroke-width:3;stroke-miterlimit:10;}
	.st13{fill:#009FDB;}
	.st14{fill:#666666;}
	.st15{fill:#333333;}
</style>
<g>
	<g>
		<g>
			<path class="st0" d="M515,578.9c0.1,0.6,1.5,13.1,1.5,13.1s6.2,0.1,6.3-0.3c0.1-0.4,0-14.3,0-14.3L515,578.9z"/>
			<polygon class="st0" points="451,597.7 451,594.2 453.6,592 457.1,584.8 466.7,584.1 468.6,593.2 468.6,597.7 			"/>
			<polygon class="st0" points="513,597.7 513,592.6 518.2,584.1 524.5,584.2 549,593.6 549,597.7 			"/>
			<polygon class="st1" points="387.6,371.6 391.5,398.9 413,414 457.9,398.9 446.3,372.5 			"/>
			<polygon class="st1" points="415.9,392.8 514,589 527,583.7 456.5,384.3 			"/>
			<path class="st2" d="M390.3,313c6.8-8.9,11.9-19.1,16.5-29.5c1.9-2.1,3.7-4.3,5.2-6.7c2.2-3.4,4.3-6.9,5.9-10.7
				c0.9-2,1.4-4,2.2-6c8.3-1.2,16.7-1.4,23,0.6c8,2.5,11.4,10.4,20.9,15.2c-11.2,28.3-7.2,59.5-12.4,89.5c-0.2,1-0.2,1.9-0.1,2.7
				c-0.6,2-0.9,3.4-0.9,4.1c1,14.8-2.9,14-2.9,14l-57.8-11.1l4.4-26.3C394.3,340.8,392.4,327,390.3,313z"/>
			<path class="st3" d="M423,260.4c0.9-3.1,9.9-26.7,9.9-26.7l21.4,0c0,0-6.8,21-8.3,25.8c-0.8,2.4-1.2,4.1-1.9,5.4h-11.4
				C423.7,261.9,422.1,263.4,423,260.4z"/>
			<path class="st0" d="M496.3,340.5c0,0,13.7,4.2,13.7,4.2l-1.4-26.5l-41.2-44l-10.2,35.2L496.3,340.5z"/>
			<polygon class="st1" points="430.5,392.5 391.6,392.5 404.6,493.7 455.9,586.4 467.6,585.9 431.6,492.3 			"/>
			<path class="st4" d="M425,253.2l-4.1,8c0,0,9.5,14.1,8.7,14.4c-0.8,0.4,10-10.8,10-10.8L425,253.2z"/>
			<polygon class="st4" points="442.6,275.1 439.7,264.8 446.1,256.6 448.5,263.5 			"/>
			<polygon class="st0" points="397.3,265.1 422.7,257.6 419.7,415 387.6,403.3 387.9,278 			"/>
			<polygon class="st0" points="448.5,263 445,411.1 468.3,410.2 469.5,301 467.4,274.2 			"/>
			<polygon class="st0" points="439.4,264.8 436.8,269.1 437.4,270.9 438.1,273 441.1,270.3 			"/>
			<polygon class="st0" points="436.6,365.7 441.7,357.5 440.1,270.1 437.8,269.6 433.2,355.4 			"/>
			<polygon class="st5" points="541.5,354.1 538.6,363.5 547.2,365.2 562.1,378.4 572.1,380.2 578.5,369 564.9,360.3 			"/>
			<polygon class="st4" points="554.9,355.5 541.4,348.3 545.2,357.3 536.7,363.9 551.6,370.1 			"/>
			<path class="st0" d="M552.1,352.2l-43.5-34.1L499,331l-2.8,9.5l46.9,28l2.6,1.1C547.8,363.8,552.1,352.2,552.1,352.2z"/>
			<path class="st5" d="M462.9,234.5l4.4-12.6l-21.7-8.5l-12.3,7.4l-6.6,15.1c1.4,1.6,7.4,2.7,7.2,4.6c-0.5,4.1-1.8,9.7-1.8,9.7
				s14.7,15.6,17.3,13.2c1.4-1.3,8.2-11.2,8.2-11.2s3.2,0.9,5.4,0.2C461.7,245.8,462.9,234.5,462.9,234.5z"/>
			<path class="st0" d="M452.6,210.3l18.1,5.3c-2.3,7.4-4.2,10-4.2,10l-17.9-5l-4.4,10.3l-7,10.3l-4.4-3.1l-5.3,10l-2.3-24.6
				l4.1-10.4C429.3,213.2,441.4,211.2,452.6,210.3z"/>
			<path class="st5" d="M432.4,228.7c-3.5,1.3-2.6,6.3-2,9.1c0.5,2.4,3.8,6.8,7,4.9l0.3-10.4C438,229.8,434.8,227.9,432.4,228.7z"/>
			<path class="st0" d="M814.9,336.6c11-7.4,36.2-33.4,36.2-33.4l20.6-2.9l-7.8,20.7c0,0-27.7,19.5-41.3,28.4
				C820.1,345.2,817.6,340.8,814.9,336.6z"/>
			<polygon class="st0" points="845.9,597.7 845.4,588.3 837.8,597.7 825.5,597.7 825.5,595.6 830.3,593.7 846.5,570.6 853.2,576.8 
				849.1,597.7 			"/>
			<path class="st0" d="M881.1,272.9c-4.1,1.7-8.3,0.1-10-4c-1.7-4.1,2.4-10.8,6.5-12.5c4.1-1.7,8.9,0.2,10.6,4.3
				C889.9,264.8,885.2,271.2,881.1,272.9z"/>
			<path class="st0" d="M872.8,354.5c-13.8-24.6-26.3-46.6-22.9-50.2c21.5-24.7,12.1-3.8,19.1,5c8.8,10.9-3.9,5.5-2.1,23.2
				C866,338.7,882.5,343.5,872.8,354.5z"/>
			<polygon class="st0" points="860.9,293.4 896.4,368.2 885.2,383.3 858.6,328.2 854.2,314.3 			"/>
			<path class="st3" d="M863.8,465.9c0,0,5.9-33.9,12.3-58.5l21.7,13.7l-18.7,53.8c0,0,7.8,23.7,4.6,33.9
				c-2.1,6.8-31.4,65.6-31.4,65.6l-12.2,12.8l-6.8,4.2c16.4-31.1,29.8-104,30.6-107.6L863.8,465.9z"/>
			<polygon class="st0" points="853.8,597.7 853.3,588 845.5,597.7 833.4,597.7 833.3,595.3 838.1,593.5 854.3,570.4 861,576.5 
				856.8,597.7 			"/>
			<path class="st5" d="M922.5,426.8c-0.7-4.2-1.4-8.5-1.9-12.8l-11.8-6.3l-66.9,180.4l7.8-4.2c0,0,43.7-72.1,45.3-75.5
				c4.5-9.7,2.9-31.1,2.9-31.1L922.5,426.8z"/>
			<path class="st3" d="M866.6,301.7c6.1-4.1,14.4-9.9,16-12.3c-4.4-7.3-18.6-24.5-24.3-28.4c-1.1,1.2-6.1,9.4-1.9,15.1
				C863.8,285.8,865,299.3,866.6,301.7z"/>
			<path class="st2" d="M896.3,277.5c-11.3,0.9-31.8,8.9-38.6,20.3c-3.6,10.8-4.3,19.5,6.5,28.7c1.5,2.7,20.1,43.7,25.9,56.5
				c1.1,2.4,2.3,3.8,2.3,3.8c10.9-5.2,21-21.1,29.3-31.1c-8.6-5-24.2-17.8-26.9-23.9C888.4,317.9,905.8,297.4,896.3,277.5z"/>
			<path class="st0" d="M878.5,367.3l38-15.3c3,4.4,16,18,17.1,29c0.7,6.6-3,78.1-3,78.1c-15.4,3.6-66-0.9-66-0.9l13.9-72
				C878.5,386.1,878.4,372.6,878.5,367.3z"/>
			<polygon class="st1" points="860.6,326.9 882.2,367.2 870.6,379 852.3,316.2 853.4,300.8 860.9,293.4 855.1,316.7 			"/>
			<path class="st0" d="M876.6,280.9l20.5-4l6.2,20.7c1,16.9,0.2,36.5,0.7,38c0.8,2.4,22,21.5,22,21.5l-32.6,24.3l-16.8-75.8
				L876.6,280.9z"/>
			<polygon class="st6" points="927,341.9 890.2,303.3 893.3,278.4 897,276.9 941.9,336.2 			"/>
			<path class="st5" d="M877.3,246.7c1.8,4.5,1.3,12.4-6.2,16.7c-8.9,12-17.8,18.2-22.7,17.7c-2.5-3.4-4-6.7-5.5-9.5
				c-0.6-0.4-2.1-0.5-3.5-1.6c1.1-1.6,3.3-8,2.8-12.6c-0.6-5.5,0.6-11.2,1.4-12.3C854.8,246.1,866.2,245,877.3,246.7z"/>
			<path class="st0" d="M871.3,237.7c10.7,7.6,10.5,19.4,5.4,29.2c-2,3.8-3.5,5.1-6.8,5.8c-5.1-4.8-6.6-9-6.6-9l-20.9-15.2
				C846.1,234.3,861.1,230.4,871.3,237.7z"/>
			<path class="st5" d="M859.4,268.4l2.7-8.5c0,0,2.3-3.8,5.2-1.6C870.2,260.4,864.9,270.9,859.4,268.4z"/>
			<polygon class="st1" points="1164.5,261.3 1126.5,297 1097.1,397.6 1102.5,423.7 1138.6,411.3 1172,312.5 1171.6,285.8 			"/>
			<polygon class="st1" points="1101.4,381.3 1139.1,404.9 1111.2,484.7 1074.8,482.8 			"/>
			<polygon class="st1" points="1129.3,585.2 1077.3,487 1096,472.5 1111.2,484.7 1142.5,586.2 			"/>
			<polygon class="st7" points="1145.9,278.9 1136.6,353.8 1128.9,304.8 			"/>
			<polygon class="st5" points="1045.2,356.9 1046.3,360.7 1031.5,378.4 1018.7,379.3 1014,371 1032.6,360.9 			"/>
			<polygon class="st4" points="1035.4,358.4 1048.6,351.5 1044.8,360.3 1054.6,366.7 1039.6,374.5 			"/>
			<path class="st0" d="M1040.5,354.3c14-8.6,110.9-80.4,110.9-80.4l-16.9,45.4l-81.1,49.3l-5.2,2.3
				C1045.7,365.2,1043.2,359.7,1040.5,354.3z"/>
			<polygon class="st0" points="1109.4,597.7 1109.4,592.8 1133.6,583.6 1139.7,583.6 1144.9,591.8 1144.9,597.7 			"/>
			<polygon class="st0" points="1003.7,597.7 1003.7,592.8 1027.8,583.6 1034,583.6 1039.1,591.8 1039.1,597.7 			"/>
			<path class="st0" d="M1111.7,388.9l46.9,6.5c0,0-121,187.4-122.7,192.8c-4.2,2.1-8.6,0.9-11.4-0.5
				C1023.2,574.5,1111.7,388.9,1111.7,388.9z"/>
			<polygon class="st4" points="1143.8,281.2 1146.2,273.4 1166.4,262.8 1170,272.1 			"/>
			<path class="st3" d="M1172.7,255.8l-5.9,13.1c-4.1,6.4-19.9,18-19.9,18l1.7-22.5l7-19.5L1172.7,255.8z"/>
			<path class="st5" d="M1156.1,231.6l6.5-11.4l20.3,10.5l2.5,13.9l-6.4,11.6c-2,0-7.2-0.7-8.5,0.8c-2.7,3.1-6,7.6-6,7.6
				s-21-0.7-20.9-4.2c0-1.8,2.9-13.3,2.9-13.3s-2.8-1.8-3.6-3.9C1148.6,239.8,1156.1,231.6,1156.1,231.6z"/>
			<path class="st0" d="M1176.9,218.6c7.7,9.5,16.7,24,16.7,24l-5,9.8l-19.6,11.2l3.6-7.7l-4.9-0.9l3.1-11.8l4.8-9.9l-15.3-10
				c0,0,0.9-3.7,5.8-11.4L1176.9,218.6z"/>
			<path class="st5" d="M1180.2,250.3c1.3,3.4-3,6-5.4,7.4c-2.1,1.1-7.4,1.6-8.2-2l7.5-7C1175.8,246.9,1179.3,248,1180.2,250.3z"/>
			<path class="st2" d="M1147.2,276.5c12.4-1.9,18-7.7,25.2-2.7l3.1,23.2l-2.4,22l-28.1,73.5l-41.6-6.2l13.9-46.6l10.6-37
				L1147.2,276.5z"/>
			<polygon class="st4" points="1150.6,287.9 1148.2,274.8 1168.8,264.5 1172.4,273.8 			"/>
			<polygon class="st0" points="1172.4,273.8 1139.7,302.1 1135.2,374.5 1144.2,433 1179.9,426.7 1170,380.2 1181.2,314 
				1181.2,289.1 			"/>
			<polygon class="st7" points="1148.2,274.8 1145.2,278.9 1145.7,280.9 1146.2,283.1 1149.5,280.5 			"/>
			<polygon class="st0" points="1124.9,374.6 1132.9,368.6 1134.6,315.6 1147.3,282.2 1146.8,280.1 1130,313.8 			"/>
			<polygon class="st6" points="1179.4,308 1119.8,348.4 1106.9,327.7 1150.7,286.2 1170.3,275.6 1179.4,289.3 			"/>
			<g>
				<line class="st8" x1="1367.1" y1="369.5" x2="0" y2="369.5"/>
			</g>
			<polygon class="st5" points="1031.9,374.1 1027.2,365.9 1015.7,364.6 1014,374.1 1018.7,379.3 			"/>
			<polygon class="st5" points="558.4,372.9 563.1,364.7 574.6,363.4 576.3,372.9 571.6,378.1 			"/>
			<polygon class="st5" points="1042.9,375.2 1046.3,364.6 1058,361.8 1066.7,371 1066.3,372.1 1057.2,379.3 			"/>
			<polygon class="st4" points="1058.1,360.4 1064.8,357.8 1069,373.8 1063.3,376.2 			"/>
			<polygon class="st6" points="1062.1,358.2 1106.9,327.7 1125.7,330.8 1124.1,346.7 1079.3,369.6 1069.1,375.2 			"/>
			<polygon class="st6" points="397.3,265.1 398.4,264.8 462,327.7 449.2,348.4 388.4,306.3 388.4,277.4 			"/>
			<polygon class="st5" points="533.8,374.8 530.4,364.1 518.7,361.3 508.5,360.4 505.4,370.8 519.5,378.9 			"/>
			<polygon class="st4" points="510.8,360.4 504.2,357.8 499.9,373.8 505.7,376.2 			"/>
			<polygon class="st6" points="506.9,358.2 462,327.7 443.3,330.8 443.3,344 489.7,369.6 499.9,375.2 			"/>
			<g>
				<polygon class="st5" points="890.1,364.7 881.8,372.4 885.6,374.5 891.3,376.9 905,362.9 897.5,361.1 				"/>
				<polygon class="st6" points="934.3,326.7 898.8,360 899.4,367 940.5,344.2 941.9,336.2 				"/>
				<polygon class="st2" points="894.9,361 899.9,368.7 905.3,365.9 900.6,358.1 				"/>
			</g>
			<g>
				<polygon class="st5" points="774.1,363.7 765.8,371.4 769.6,373.5 775.3,376 789,361.9 781.5,360.2 				"/>
				<path class="st0" d="M828.7,331.8c-11.3-6-30.7,20.7-47.7,27.4l2.4,6.8c14.7-3.2,21.9-7.2,32.6-11.6
					C834.4,346.6,837.3,336.4,828.7,331.8z"/>
				<polygon class="st2" points="778.9,360 783.9,367.7 789.3,364.9 784.6,357.1 				"/>
			</g>
		</g>
	</g>
	<g>
		<line class="st9" x1="1604.8" y1="119.9" x2="1604.8" y2="228.2"/>
		<line class="st9" x1="1485.6" y1="370.4" x2="1367.1" y2="370.4"/>
		<line class="st9" x1="1724" y1="370.4" x2="1842.5" y2="370.4"/>
		<g>
			<circle class="st10" cx="1604.8" cy="364.5" r="363.5"/>
		</g>
		<circle class="st11" cx="1604.8" cy="91.9" r="28"/>
		<circle class="st11" cx="1339.1" cy="370.4" r="28"/>
		<path class="st11" d="M1612.4,163c0,4.2-3.4,7.6-7.6,7.6c-4.2,0-7.6-3.4-7.6-7.6c0-4.2,3.4-7.6,7.6-7.6
			C1609,155.3,1612.4,158.8,1612.4,163z"/>
		<g>
			<line class="st9" x1="1604.8" y1="611.1" x2="1604.8" y2="502.8"/>
			<circle class="st11" cx="1604.8" cy="639.1" r="28"/>
			<path class="st11" d="M1597.1,568c0-4.2,3.4-7.6,7.6-7.6c4.2,0,7.6,3.4,7.6,7.6c0,4.2-3.4,7.6-7.6,7.6
				C1600.6,575.7,1597.1,572.2,1597.1,568z"/>
		</g>
		<g>
			<polyline class="st9" points="1426.3,370.4 1426.3,215.4 1384.9,174 			"/>
			<path class="st11" d="M1434,215.4c0,4.2-3.4,7.6-7.6,7.6c-4.2,0-7.6-3.4-7.6-7.6s3.4-7.6,7.6-7.6
				C1430.6,207.8,1434,211.2,1434,215.4z"/>
			<rect x="1311.2" y="100.3" class="st12" width="73.8" height="73.8"/>
		</g>
		<circle class="st11" cx="1870.4" cy="370.4" r="28"/>
		<g>
			<polyline class="st9" points="1783.3,370.4 1783.3,215.4 1824.6,174 			"/>
			<circle class="st11" cx="1783.3" cy="215.4" r="7.6"/>
			
				<rect x="1824.6" y="100.3" transform="matrix(-1 -1.224647e-16 1.224647e-16 -1 3723.0564 274.2605)" class="st12" width="73.8" height="73.8"/>
		</g>
		<g>
			<polyline class="st9" points="1783.3,370.4 1783.3,525.4 1824.6,566.7 			"/>
			<circle class="st11" cx="1783.3" cy="525.4" r="7.6"/>
			
				<rect x="1824.6" y="566.7" transform="matrix(-1 -1.224647e-16 1.224647e-16 -1 3723.0564 1207.2557)" class="st12" width="73.8" height="73.8"/>
		</g>
		<g>
			<polyline class="st9" points="1426.3,370.4 1426.3,525.4 1384.9,566.7 			"/>
			<path class="st11" d="M1434,525.4c0-4.2-3.4-7.6-7.6-7.6c-4.2,0-7.6,3.4-7.6,7.6s3.4,7.6,7.6,7.6
				C1430.6,533,1434,529.6,1434,525.4z"/>
			<rect x="1311.2" y="566.7" class="st12" width="73.8" height="73.8"/>
		</g>
		<g>
			<path class="st13" d="M1614.3,341.3l105.6-55.4c-1.9-2.6-4.4-4.8-7.4-6.3l-98.2-50c-6-3.1-13.1-3.1-19.1,0l-98.2,50
				c-2.9,1.5-5.4,3.7-7.3,6.2l105.5,55.5C1601.2,344.3,1608.3,344.3,1614.3,341.3z"/>
			<g>
				<path class="st14" d="M1595.2,341.3l-105.5-55.5c-2.6,3.6-4.2,7.9-4.2,12.5v132.4c0,7.9,4.4,15.2,11.5,18.7l98.2,50
					c3,1.5,6.3,2.3,9.6,2.3V343.6C1601.5,343.6,1598.2,342.8,1595.2,341.3z"/>
				<path class="st15" d="M1719.9,285.9l-105.6,55.4c-3,1.5-6.3,2.3-9.6,2.3v158.2c3.3,0,6.6-0.8,9.6-2.3l98.2-50
					c7.1-3.6,11.5-10.8,11.5-18.7V298.3C1724,293.7,1722.5,289.4,1719.9,285.9z"/>
			</g>
		</g>
		<path class="st11" d="M1434,370.4c0,4.2-3.4,7.6-7.6,7.6c-4.2,0-7.6-3.4-7.6-7.6c0-4.2,3.4-7.6,7.6-7.6
			C1430.6,362.7,1434,366.2,1434,370.4z"/>
		<path class="st11" d="M1790.9,370.4c0,4.2-3.4,7.6-7.6,7.6c-4.2,0-7.6-3.4-7.6-7.6c0-4.2,3.4-7.6,7.6-7.6
			C1787.5,362.7,1790.9,366.2,1790.9,370.4z"/>
	</g>
</g>
</svg>
