<svg xmlns="http://www.w3.org/2000/svg" xmlns:xlink="http://www.w3.org/1999/xlink" viewBox="0 0 121.32 171.07"><defs><style>.cls-1{fill:none;}.cls-2{clip-path:url(#clip-path);}.cls-3{clip-path:url(#clip-path-2);}.cls-4{fill:#f4f9f9;}.cls-5{fill:#0f54af;}.cls-6{fill:#afafaf;}.cls-7{fill:#3b3c52;}.cls-8{fill:#0a6ebe;}.cls-9{fill:#edf2f2;}.cls-10{fill:#d2d2d2;}</style><clipPath id="clip-path" transform="translate(-15 -4.7)"><rect class="cls-1" x="1.7" width="152.5" height="166.93" transform="translate(155.9 166.93) rotate(-180)"/></clipPath><clipPath id="clip-path-2" transform="translate(-15 -4.7)"><rect class="cls-1" y="2.75" width="140.5" height="166" transform="translate(140.5 171.49) rotate(-180)"/></clipPath></defs><title>woman-with-laptop.svg</title><g id="Layer_2" data-name="Layer 2"><g id="Layer_1-2" data-name="Layer 1"><g class="cls-2"><g class="cls-3"><path class="cls-4" d="M114.65,103.22c-1.26,1.17-3.21,2.68-4.85,4.18l3.68,4.29c1.38-1.37,1.91-1.6,3.45-3.24Z" transform="translate(-15 -4.7)"/><path class="cls-5" d="M66.45,128.62c-.93,8.11,7.48,10.92,21.5,1.9,8.72-5.62,15.41-8.28,25.89-18.56l-3.91-4.82C98.71,117.31,67.73,117.39,66.45,128.62Z" transform="translate(-15 -4.7)"/><path class="cls-6" d="M127.11,90.62c-.18,0-2.44-5.61-4.42-6.11l-11,24.75a5.12,5.12,0,0,0,3.27.3c.87-.31,11.91-13.88,11.8-13.86C127.51,93.81,127.77,91.84,127.11,90.62Z" transform="translate(-15 -4.7)"/><path class="cls-7" d="M131.89,66.49a3.46,3.46,0,0,1,2.62.11A3,3,0,0,1,136,70.72l-20,37.6a3.34,3.34,0,0,1-4.37,1.37A3.13,3.13,0,0,1,110,108Z" transform="translate(-15 -4.7)"/><path class="cls-8" d="M134.51,66.6s-.1,0-.15-.06l-22.89,43.07.14.08a3.34,3.34,0,0,0,4.37-1.37l20-37.6A3,3,0,0,0,134.51,66.6Z" transform="translate(-15 -4.7)"/><path class="cls-5" d="M15,175.78c-.24-.35,14.29-31.95,15.76-34.11l35.58,14.71c.12,5.09,0,13.18,0,13.18" transform="translate(-15 -4.7)"/><path class="cls-5" d="M25.36,21.26a7.28,7.28,0,0,0,10.65-1c2.78-3.43.71-10.95-2.72-13.73A8,8,0,0,0,22.05,7.67C19.27,11.1,21.93,18.48,25.36,21.26Z" transform="translate(-15 -4.7)"/><path class="cls-5" d="M75.26,128.29c-9-23.14-27.63-63.42-32.18-65-7.79-2.7-3.49,4.24-5.64,15-2.68,13.33,1.39,31,7.78,47q8.28,4.19,16.49,8.48A93.06,93.06,0,0,1,75.26,128.29Z" transform="translate(-15 -4.7)"/><path class="cls-6" d="M45.39,42.67c2.37-9.54,11.41-14.73,15.39-24-2.29-.79-3.17-1.09-6.77-2.35C44.12,34.88,28.28,55.57,23.17,67.09c7.33,4.46,11.68,3.1,18.81,3.85C42.84,63,43.2,51.41,45.39,42.67Z" transform="translate(-15 -4.7)"/><path class="cls-9" d="M66.34,159.14s-2.28-51.7-2.19-55.34c7.83-19.22-6.39-26-21.07-40.49C33.58,63,32.46,62,27.83,58.58a38,38,0,0,0-7,13.5c-.37,19.42,18.33,31.94,19.5,50.1.43,6.48-6.84,21-12,29.18C39.82,156.21,66.34,159.14,66.34,159.14Z" transform="translate(-15 -4.7)"/><path class="cls-10" d="M33.58,13.4A13.41,13.41,0,0,0,34.75,31c5.13,13.91,11.86,22.19,16.6,23.14a74.63,74.63,0,0,0,7.89-7.49c.69-.24,2.14.07,3.75-.56-.62-1.82-.86-8.49.89-12.72,2.09-5,2.55-10.83,2.12-12.09C55.15,19.1,44.53,14.94,33.58,13.4Z" transform="translate(-15 -4.7)"/><path class="cls-10" d="M115.9,94.51c-2.16.84-4.23,1.91-6.46,2.58a26.91,26.91,0,0,0-8.89,3.81c-3.68,2.52-6,6.66-7.23,7.75l-.41,4.1c1,1,1.59-.35,1.81,1,.08,0,.13-.06.21-.06.91-.11,9.84-4.74,9.84-4.74l5.88-2.76s1.52-3.45,1.14-4.76c-.19,0-2.64-.56-2.92-1.07,0,0,2.62-.94,2.58-1A6.73,6.73,0,0,0,115.9,94.51Z" transform="translate(-15 -4.7)"/><path class="cls-4" d="M93.34,108.68c-1.4,1-3.51,2.28-5.32,3.57l3.16,4.69c1.53-1.19,2.08-1.36,3.81-2.8Z" transform="translate(-15 -4.7)"/><path class="cls-5" d="M41.76,6.53C29.5,10.72,26.09,15.83,28.23,26.6c1.33,6.74,6.84,14.1,11.47,15.33l1.19-8.29,25.36-8.75C66.69,10.38,53.5,2.51,41.76,6.53Z" transform="translate(-15 -4.7)"/><path class="cls-10" d="M44.49,39l-.2-8.86s-1.16-4.22-4.45-3S38.59,39.81,44.49,39Z" transform="translate(-15 -4.7)"/><path class="cls-5" d="M27.57,58.05,55.93,89.2l6.49,33.72-8,46.64L21.16,159.14S36.09,131.36,35.68,129s-14.9-56.88-14.9-56.88V69.79Z" transform="translate(-15 -4.7)"/><path class="cls-8" d="M42.34,128.52c-1.87,7.95,6.16,11.71,21.14,4.38,9.3-4.56,16.1-7,27.7-16L88,112.25C75.69,121,44.92,117.51,42.34,128.52Z" transform="translate(-15 -4.7)"/><path class="cls-8" d="M52.93,128.18C48.58,126,42.28,97.28,38.28,87.83S26.53,71.39,21.4,70.52c-1.1,1.73-3.21,8.94-1.82,17.24S42,134.93,42,134.93C47.27,139.13,58.51,131,52.93,128.18Z" transform="translate(-15 -4.7)"/></g></g></g></g></svg>