<svg id="Layer_1" data-name="Layer 1" xmlns="http://www.w3.org/2000/svg" viewBox="0 0 376.44 315.45"><defs><style>.cls-1{fill:#dbdbdb;}.cls-2{fill:#959595;}.cls-3{fill:#d2d2d2;}.cls-4{fill:#fff;}.cls-5{fill:#009fdb;}.cls-6{fill:#18b9ed;}.cls-7{fill:#30d1ff;}</style></defs><title>busint-cybersecurity</title><polygon class="cls-1" points="189.8 243.98 170.01 243.98 131.42 243.98 102.72 300.67 170.01 300.67 189.8 300.67 257.1 300.67 228.4 243.98 189.8 243.98"/><polygon class="cls-2" points="189.8 243.98 170.01 243.98 131.42 243.98 120.01 266.5 239.8 266.5 228.4 243.98 189.8 243.98"/><path class="cls-3" d="M347.49,0H12.32A12.33,12.33,0,0,0,0,12.32V244a12.33,12.33,0,0,0,12.32,12.33H347.49A12.32,12.32,0,0,0,359.81,244V12.32A12.32,12.32,0,0,0,347.49,0Z"/><rect class="cls-4" x="21.43" y="19.15" width="316.95" height="208.15"/><path class="cls-3" d="M255.07,293.27H104.74a12.32,12.32,0,0,0-12.32,12.32v9.86h175v-9.86A12.33,12.33,0,0,0,255.07,293.27Z"/><path class="cls-2" d="M255.07,293.27H104.74a12.32,12.32,0,0,0-12.32,12.32V312a12.31,12.31,0,0,1,12.32-12.32H255.07A12.32,12.32,0,0,1,267.4,312v-6.41A12.33,12.33,0,0,0,255.07,293.27Z"/><rect class="cls-5" x="51.41" y="85.5" width="42.23" height="42.23" rx="2" ry="2"/><rect class="cls-3" x="51.41" y="136.18" width="42.23" height="42.23" rx="2" ry="2"/><rect class="cls-5" x="105.1" y="85.5" width="42.23" height="42.23" rx="2" ry="2"/><rect class="cls-3" x="105.1" y="136.18" width="42.23" height="42.23" rx="2" ry="2"/><rect class="cls-5" x="158.79" y="85.5" width="42.23" height="42.23" rx="2" ry="2"/><rect class="cls-3" x="158.79" y="136.18" width="42.23" height="42.23" rx="2" ry="2"/><rect class="cls-5" x="212.48" y="85.5" width="42.23" height="42.23" rx="2" ry="2"/><rect class="cls-3" x="212.48" y="136.18" width="42.23" height="42.23" rx="2" ry="2"/><rect class="cls-3" x="266.18" y="85.5" width="42.23" height="42.23" rx="2" ry="2"/><path class="cls-5" d="M268.18,85.5h17.26a0,0,0,0,1,0,0v42.23a0,0,0,0,1,0,0H268.18a2,2,0,0,1-2-2V87.5A2,2,0,0,1,268.18,85.5Z"/><rect class="cls-3" x="266.18" y="136.18" width="42.23" height="42.23" rx="2" ry="2"/><path class="cls-6" d="M317.67,285.45a100.45,100.45,0,0,1-19.74-12.61,95.42,95.42,0,0,1-15.42-16,110.4,110.4,0,0,1-17.69-35.72,147.56,147.56,0,0,1-5.6-32.36,159,159,0,0,1-.16-17.36c2.54.2,5,.3,7.47.3,21.08,0,34.52-7.65,42.08-14.07a51,51,0,0,0,9.06-10,50.56,50.56,0,0,0,9.05,10c7.56,6.42,21,14.07,42.08,14.07h0c2.42,0,4.92-.1,7.46-.3a156.44,156.44,0,0,1-.16,17.36,147,147,0,0,1-5.6,32.36,110.4,110.4,0,0,1-17.69,35.72,95.75,95.75,0,0,1-15.41,16A101,101,0,0,1,317.67,285.45Z"/><path class="cls-7" d="M317.67,192.85V157.61c8.6,9.18,24.47,20.21,51.13,20.21h1.11c0,2.86-.06,6.29-.31,10.13a141.27,141.27,0,0,1-5.34,30.93,104,104,0,0,1-16.63,33.62,90.56,90.56,0,0,1-30,25.25V192.85Z"/><path class="cls-4" d="M315.11,243.49v-5.4a32.23,32.23,0,0,1-7.41-1.19,22.7,22.7,0,0,1-5.48-2.3.7.7,0,0,1-.29-.81l1.77-5.36a.7.7,0,0,1,1-.4,27,27,0,0,0,10.44,2.62v-11a34.19,34.19,0,0,1-7.56-3.07,10.42,10.42,0,0,1-3.9-3.84,11.38,11.38,0,0,1-1.22-5.52,10.83,10.83,0,0,1,3.41-8.22,16,16,0,0,1,9.39-4V189.6a.69.69,0,0,1,.69-.69h4.28a.69.69,0,0,1,.7.69v5.28a26.82,26.82,0,0,1,5.6,1.1,27.75,27.75,0,0,1,4.55,1.86.69.69,0,0,1,.33.83L329.72,204a.68.68,0,0,1-.94.41,24.42,24.42,0,0,0-7.88-2.11v10.42a29.7,29.7,0,0,1,7.31,2.95,11.06,11.06,0,0,1,4.05,4.05,11.64,11.64,0,0,1,1.31,5.67,11.19,11.19,0,0,1-3.41,8.41,16.1,16.1,0,0,1-9.39,4.08v5.65a.69.69,0,0,1-.69.69H315.8A.69.69,0,0,1,315.11,243.49Zm-4.39-37a3.7,3.7,0,0,0,1,2.74,9.32,9.32,0,0,0,3.54,1.83v-8.65Q310.72,203.06,310.72,206.46Zm14.56,19.38a3.35,3.35,0,0,0-1-2.47,9.87,9.87,0,0,0-3.51-1.92v9Q325.28,229.44,325.28,225.84Z"/></svg>