<svg id="Layer_1" data-name="Layer 1" xmlns="http://www.w3.org/2000/svg" viewBox="0 0 88.28 86.62"><defs><style>.cls-1{opacity:0.4;}.cls-2{opacity:0.3;}.cls-3{fill:#d2d2d2;}.cls-4{fill:#959595;}</style></defs><title>busint-star</title><polygon class="cls-1" points="30.43 27.58 0 32 0 32 22.02 53.46 22.02 53.46 16.82 83.77 16.82 83.77 44.04 69.46 44.04 0 30.43 27.58"/><polygon class="cls-2" points="88.08 32 88.08 32 57.65 27.58 44.04 0 44.04 69.46 71.26 83.77 71.26 83.77 66.06 53.46 66.06 53.46 88.08 32"/><polygon class="cls-3" points="88.28 34.85 88.28 34.85 57.85 30.43 44.24 2.85 30.63 30.43 0.2 34.85 0.2 34.85 22.22 56.32 22.22 56.32 17.02 86.62 17.02 86.62 44.24 72.31 71.46 86.62 71.46 86.62 66.26 56.32 66.26 56.32 88.28 34.85"/><polygon class="cls-4" points="44.24 49.16 44.24 2.85 30.63 30.43 44.24 49.16 44.24 49.16"/><polygon class="cls-4" points="17.02 86.62 44.24 72.31 44.24 49.16 44.24 49.16 17.02 86.62"/><polygon class="cls-4" points="44.24 49.16 44.24 49.16 71.46 86.62 71.46 86.62 66.26 56.32 44.24 49.16"/><polygon class="cls-4" points="44.24 49.16 44.24 49.16 88.28 34.85 88.28 34.85 57.85 30.43 44.24 49.16"/><polygon class="cls-4" points="44.24 49.16 0.2 34.85 22.22 56.32 22.22 56.32 22.22 56.32 44.24 49.16"/></svg>