<svg id="Layer_1" data-name="Layer 1" xmlns="http://www.w3.org/2000/svg" viewBox="0 0 103.06 183"><defs><style>.cls-1{fill:#009fdb;}.cls-2{fill:#d2d2d2;}.cls-3{fill:#5a5a5a;}.cls-4{fill:#959595;}.cls-5{fill:none;stroke:#0a6ebe;stroke-miterlimit:10;stroke-width:3px;}</style></defs><title>busint-bulb</title><path class="cls-1" d="M52.14,0V0H50.92V0C1.43.93-10,56.43,8.14,81.09c18.33,24.85,18.33,40.34,18.33,40.34v4.48a7.33,7.33,0,0,0,7.33,7.33H69.26a7.33,7.33,0,0,0,7.33-7.33v-4.48s0-15.49,18.34-40.34C113.11,56.43,101.63.93,52.14,0Z"/><path class="cls-2" d="M28.74,162.38a16.18,16.18,0,0,0,4.66,11.4C37.58,178,44.38,183,53,183c5.8,0,12.28-4.92,16.65-9a16.23,16.23,0,0,0,5.15-11.87V131.47H28.74"/><path class="cls-3" d="M33.4,173.78C37.58,178,44.38,183,53,183c5.8,0,12.28-4.92,16.65-9Z"/><rect class="cls-4" x="24.75" y="140.39" width="55" height="6.45" rx="3.23" ry="3.23" transform="translate(-16.02 6.88) rotate(-6.54)"/><rect class="cls-4" x="24.75" y="131.05" width="53.74" height="6.45" rx="3.23" ry="3.23" transform="translate(-14.96 6.75) rotate(-6.54)"/><rect class="cls-4" x="24.75" y="150.37" width="53.74" height="6.45" rx="3.23" ry="3.23" transform="translate(-17.16 6.88) rotate(-6.54)"/><rect class="cls-4" x="25.25" y="160.38" width="52.07" height="6.45" rx="3.23" ry="3.23" transform="translate(-18.3 6.9) rotate(-6.54)"/><path class="cls-5" d="M59.58,126.76s-1-40.63,10.9-49.55S83.37,90.1,65,94.06c0,0-9.91,2-13.87,2h.25c-4,0-13.38-2-13.38-2-18.33-4-17.34-25.77-5.45-16.85s10.9,49.55,10.9,49.55"/><rect class="cls-4" x="24.28" y="125.52" width="55" height="9.41" rx="4.71" ry="4.71"/></svg>