<svg id="Layer_1" data-name="Layer 1" xmlns="http://www.w3.org/2000/svg" viewBox="0 0 329.46 585"><defs><style>.cls-1{fill:#009fdb;}.cls-2{fill:#d2d2d2;}.cls-3{fill:#5a5a5a;}.cls-4{fill:#959595;}.cls-5{fill:none;stroke:#fff;stroke-linecap:round;stroke-linejoin:round;stroke-width:2px;}.cls-6{fill:#fff;}</style></defs><title>busint-innovative businesses</title><path class="cls-1" d="M166.68.07V0c-.65,0-1.29,0-2,0s-1.29,0-1.95,0V.07C4.58,3-32.13,180.4,26,259.21c58.61,79.46,58.61,129,58.61,129v14.34a23.43,23.43,0,0,0,23.43,23.43H221.41a23.43,23.43,0,0,0,23.43-23.43V388.17s0-49.5,58.62-129C361.59,180.4,324.88,3,166.68.07Z"/><path class="cls-2" d="M91.87,519.09a51.62,51.62,0,0,0,14.91,36.42C120.14,569,141.87,585,169.48,585c18.54,0,39.25-15.73,53.24-28.78a51.87,51.87,0,0,0,16.46-37.92v-98H91.87"/><path class="cls-3" d="M106.78,555.51C120.14,569,141.87,585,169.48,585c18.54,0,39.25-15.73,53.24-28.78Z"/><rect class="cls-4" x="79.11" y="448.79" width="175.82" height="20.62" rx="10.31" ry="10.31" transform="translate(-51.2 22.01) rotate(-6.54)"/><rect class="cls-4" x="79.12" y="418.92" width="171.79" height="20.62" rx="10.31" ry="10.31" transform="translate(-47.81 21.59) rotate(-6.54)"/><rect class="cls-4" x="79.12" y="480.69" width="171.79" height="20.62" rx="10.31" ry="10.31" transform="translate(-54.84 21.99) rotate(-6.54)"/><rect class="cls-4" x="80.72" y="512.68" width="166.44" height="20.62" rx="10.31" ry="10.31" transform="translate(-58.49 22.07) rotate(-6.54)"/><rect class="cls-4" x="77.61" y="401.26" width="175.82" height="30.1" rx="11.79" ry="11.79"/><rect class="cls-5" x="143.05" y="88.03" width="21.76" height="9.81"/><polyline class="cls-5" points="134.82 109.18 134.82 98.01 169.73 98.01 169.73 109.18"/><polyline class="cls-5" points="126.89 289.39 126.89 109.74 172.43 109.74 172.02 290"/><rect class="cls-6" x="132.04" y="122.69" width="9.53" height="4.56"/><rect class="cls-6" x="132.04" y="131.38" width="9.53" height="4.56"/><rect class="cls-6" x="132.04" y="139.94" width="9.53" height="4.56"/><rect class="cls-6" x="132.04" y="148.59" width="9.53" height="4.56"/><rect class="cls-6" x="132.04" y="157.15" width="9.53" height="4.56"/><rect class="cls-6" x="132.04" y="165.84" width="9.53" height="4.56"/><rect class="cls-6" x="132.04" y="174.4" width="9.53" height="4.56"/><rect class="cls-6" x="132.04" y="183.05" width="9.53" height="4.56"/><rect class="cls-6" x="132.04" y="191.61" width="9.53" height="4.56"/><rect class="cls-6" x="132.04" y="200.3" width="9.53" height="4.56"/><rect class="cls-6" x="132.04" y="208.86" width="9.53" height="4.56"/><rect class="cls-6" x="132.04" y="217.51" width="9.53" height="4.56"/><rect class="cls-6" x="132.04" y="226.06" width="9.53" height="4.56"/><rect class="cls-6" x="132.04" y="234.76" width="9.53" height="4.56"/><rect class="cls-6" x="132.04" y="243.31" width="9.53" height="4.56"/><rect class="cls-6" x="132.04" y="252.11" width="9.53" height="4.56"/><rect class="cls-6" x="132.04" y="260.76" width="9.53" height="4.56"/><rect class="cls-6" x="132.04" y="269.32" width="9.53" height="4.56"/><rect class="cls-6" x="144.22" y="122.69" width="9.53" height="4.56"/><rect class="cls-6" x="144.22" y="131.38" width="9.53" height="4.56"/><rect class="cls-6" x="144.22" y="139.94" width="9.53" height="4.56"/><rect class="cls-6" x="144.22" y="148.59" width="9.53" height="4.56"/><rect class="cls-6" x="144.22" y="157.15" width="9.53" height="4.56"/><rect class="cls-6" x="144.22" y="165.84" width="9.53" height="4.56"/><rect class="cls-6" x="144.22" y="174.4" width="9.53" height="4.56"/><rect class="cls-6" x="144.22" y="183.05" width="9.53" height="4.56"/><rect class="cls-6" x="144.22" y="191.61" width="9.53" height="4.56"/><rect class="cls-6" x="144.22" y="200.3" width="9.53" height="4.56"/><rect class="cls-6" x="144.22" y="208.86" width="9.53" height="4.56"/><rect class="cls-6" x="144.22" y="217.51" width="9.53" height="4.56"/><rect class="cls-6" x="144.22" y="226.06" width="9.53" height="4.56"/><rect class="cls-6" x="144.22" y="234.76" width="9.53" height="4.56"/><rect class="cls-6" x="144.22" y="243.31" width="9.53" height="4.56"/><rect class="cls-6" x="144.22" y="252.11" width="9.53" height="4.56"/><rect class="cls-6" x="144.22" y="260.76" width="9.53" height="4.56"/><rect class="cls-6" x="144.22" y="269.32" width="9.53" height="4.56"/><rect class="cls-6" x="156.5" y="122.69" width="9.53" height="4.56"/><rect class="cls-6" x="139.48" y="102.09" width="6.83" height="4.56"/><rect class="cls-6" x="148.21" y="102.09" width="6.83" height="4.56"/><rect class="cls-6" x="157.01" y="102.09" width="6.83" height="4.56"/><rect class="cls-6" x="156.5" y="131.38" width="9.53" height="4.56"/><rect class="cls-6" x="156.5" y="139.94" width="9.53" height="4.56"/><rect class="cls-6" x="156.5" y="148.59" width="9.53" height="4.56"/><rect class="cls-6" x="156.5" y="157.15" width="9.53" height="4.56"/><rect class="cls-6" x="156.5" y="165.84" width="9.53" height="4.56"/><rect class="cls-6" x="156.5" y="174.4" width="9.53" height="4.56"/><rect class="cls-6" x="156.5" y="183.05" width="9.53" height="4.56"/><rect class="cls-6" x="156.5" y="191.61" width="9.53" height="4.56"/><rect class="cls-6" x="156.5" y="200.3" width="9.53" height="4.56"/><rect class="cls-6" x="156.5" y="208.86" width="9.53" height="4.56"/><rect class="cls-6" x="156.5" y="217.51" width="9.53" height="4.56"/><rect class="cls-6" x="156.5" y="226.06" width="9.53" height="4.56"/><rect class="cls-6" x="156.5" y="234.76" width="9.53" height="4.56"/><rect class="cls-6" x="156.5" y="243.31" width="9.53" height="4.56"/><rect class="cls-6" x="156.5" y="252.11" width="9.53" height="4.56"/><rect class="cls-6" x="156.5" y="260.76" width="9.53" height="4.56"/><rect class="cls-6" x="156.5" y="269.32" width="9.53" height="4.56"/><rect class="cls-6" x="145.68" y="90.83" width="6.83" height="4.55"/><rect class="cls-6" x="154.47" y="90.83" width="6.83" height="4.55"/><rect class="cls-6" x="132.04" y="114.13" width="9.53" height="4.56"/><rect class="cls-6" x="144.22" y="114.13" width="9.53" height="4.56"/><rect class="cls-6" x="156.5" y="114.13" width="9.53" height="4.56"/><rect class="cls-5" x="192.01" y="130.95" width="48.19" height="10.98"/><polyline class="cls-5" points="180.92 294 180.92 141.74 243.66 141.74 243.66 291"/><rect class="cls-5" x="188.57" y="150.26" width="3.98" height="7.68"/><rect class="cls-5" x="198.98" y="150.26" width="3.98" height="7.68"/><rect class="cls-5" x="209.68" y="150.26" width="3.98" height="7.68"/><rect class="cls-5" x="220.39" y="150.26" width="3.98" height="7.68"/><rect class="cls-5" x="231.09" y="150.26" width="3.98" height="7.68"/><rect class="cls-5" x="188.57" y="163.88" width="3.98" height="7.68"/><rect class="cls-5" x="198.98" y="163.88" width="3.98" height="7.68"/><rect class="cls-5" x="209.68" y="163.88" width="3.98" height="7.68"/><rect class="cls-5" x="220.39" y="163.88" width="3.98" height="7.68"/><rect class="cls-5" x="231.09" y="163.88" width="3.98" height="7.68"/><rect class="cls-5" x="188.57" y="177.51" width="3.98" height="7.68"/><rect class="cls-5" x="198.98" y="177.51" width="3.98" height="7.68"/><rect class="cls-5" x="209.68" y="177.51" width="3.98" height="7.68"/><rect class="cls-5" x="220.39" y="177.51" width="3.98" height="7.68"/><rect class="cls-5" x="231.09" y="177.51" width="3.98" height="7.68"/><rect class="cls-5" x="188.57" y="191.13" width="3.98" height="7.68"/><rect class="cls-5" x="198.98" y="191.13" width="3.98" height="7.68"/><rect class="cls-5" x="209.68" y="191.13" width="3.98" height="7.68"/><rect class="cls-5" x="220.39" y="191.13" width="3.98" height="7.68"/><rect class="cls-5" x="231.09" y="191.13" width="3.98" height="7.68"/><rect class="cls-5" x="188.57" y="204.76" width="3.98" height="7.68"/><rect class="cls-5" x="198.98" y="204.76" width="3.98" height="7.68"/><rect class="cls-5" x="209.68" y="204.76" width="3.98" height="7.68"/><rect class="cls-5" x="220.39" y="204.76" width="3.98" height="7.68"/><rect class="cls-5" x="231.09" y="204.76" width="3.98" height="7.68"/><rect class="cls-5" x="188.57" y="218.38" width="3.98" height="7.68"/><rect class="cls-5" x="198.98" y="218.38" width="3.98" height="7.68"/><rect class="cls-5" x="209.68" y="218.38" width="3.98" height="7.68"/><rect class="cls-5" x="220.39" y="218.38" width="3.98" height="7.68"/><rect class="cls-5" x="231.09" y="218.38" width="3.98" height="7.68"/><rect class="cls-5" x="188.57" y="232.01" width="3.98" height="7.68"/><rect class="cls-5" x="198.98" y="232.01" width="3.98" height="7.68"/><rect class="cls-5" x="209.68" y="232.01" width="3.98" height="7.68"/><rect class="cls-5" x="220.39" y="232.01" width="3.98" height="7.68"/><rect class="cls-5" x="231.09" y="232.01" width="3.98" height="7.68"/><rect class="cls-5" x="188.57" y="245.63" width="3.98" height="7.68"/><rect class="cls-5" x="198.98" y="245.63" width="3.98" height="7.68"/><rect class="cls-5" x="209.68" y="245.63" width="3.98" height="7.68"/><rect class="cls-5" x="220.39" y="245.63" width="3.98" height="7.68"/><rect class="cls-5" x="231.09" y="245.63" width="3.98" height="7.68"/><rect class="cls-5" x="188.57" y="259.26" width="3.98" height="7.68"/><rect class="cls-5" x="198.98" y="259.26" width="3.98" height="7.68"/><rect class="cls-5" x="209.68" y="259.26" width="3.98" height="7.68"/><rect class="cls-5" x="220.39" y="259.26" width="3.98" height="7.68"/><rect class="cls-5" x="231.09" y="259.26" width="3.98" height="7.68"/><rect class="cls-5" x="188.57" y="272.88" width="3.98" height="7.68"/><rect class="cls-5" x="198.98" y="272.88" width="3.98" height="7.68"/><rect class="cls-5" x="209.68" y="272.88" width="3.98" height="7.68"/><rect class="cls-5" x="220.39" y="272.88" width="3.98" height="7.68"/><rect class="cls-5" x="231.09" y="272.88" width="3.98" height="7.68"/><path class="cls-5" d="M250.45,74.88a6.58,6.58,0,0,0-2.23.41,15.32,15.32,0,0,0,.49-3.73,14.89,14.89,0,0,0-28.83-5.23A11.55,11.55,0,0,0,200,72.57a8.38,8.38,0,0,0-4.25-1.17,8.56,8.56,0,0,0,0,17.11h54.66a6.82,6.82,0,0,0,0-13.63Z"/><path class="cls-5" d="M141,50.4a3.05,3.05,0,0,1,1.61.46,3.91,3.91,0,0,1,5.9-2.55,3.81,3.81,0,0,1,7.59.32,4.26,4.26,0,0,1,1.64-.34,4.12,4.12,0,1,1,0,8.23H141a3.06,3.06,0,1,1,0-6.12Z"/><polyline class="cls-5" points="89.36 131.03 89.36 123.8 117.33 123.8 117.33 131.03"/><polyline class="cls-5" points="81.44 295 81.44 130.88 120 130.88 120 291"/><rect class="cls-6" x="87.46" y="176.59" width="25.66" height="3.1"/><rect class="cls-6" x="87.46" y="184.83" width="25.66" height="3.1"/><rect class="cls-6" x="87.46" y="193.07" width="25.66" height="3.1"/><rect class="cls-6" x="87.46" y="201.46" width="25.66" height="3.1"/><rect class="cls-6" x="87.46" y="209.7" width="25.66" height="3.1"/><rect class="cls-6" x="87.46" y="218.1" width="25.66" height="3.1"/><rect class="cls-6" x="87.46" y="226.34" width="25.66" height="3.1"/><rect class="cls-6" x="87.46" y="234.73" width="25.66" height="3.1"/><rect class="cls-6" x="87.46" y="242.97" width="25.66" height="3.1"/><rect class="cls-6" x="87.46" y="251.37" width="25.66" height="3.1"/><rect class="cls-6" x="87.46" y="259.61" width="25.66" height="3.1"/><rect class="cls-6" x="87.46" y="268" width="25.66" height="3.1"/><rect class="cls-6" x="87.46" y="276.24" width="25.66" height="3.1"/><rect class="cls-6" x="87.46" y="160.16" width="25.66" height="3.1"/><rect class="cls-6" x="87.46" y="168.39" width="25.66" height="3.1"/><rect class="cls-6" x="87.46" y="152.03" width="25.66" height="3.1"/><rect class="cls-6" x="87.46" y="135.6" width="25.66" height="3.1"/><rect class="cls-6" x="87.46" y="143.84" width="25.66" height="3.1"/><path class="cls-5" d="M147.62,325.07c8.34,0,13.28-8.53,9.53-18.57-3.35-9-14.87-17.5-25.67-17.5s-22.33,8.54-25.68,17.5c-3.75,10,1.2,18.57,9.53,18.57"/><path class="cls-5" d="M115.33,325.07c8.34,0,13.8-8.7,9.53-18.57-5.52-12.79-21.81-16.49-33.71-17.43-6.61-.52-11.67,5.13-9.73,10.76l32.36,100.81"/><path class="cls-5" d="M163.76,289c-10.8,0-22.33,8.54-25.67,17.5-3.75,10,1.19,18.57,9.53,18.57"/><path class="cls-5" d="M212.19,325.07c8.34,0,13.28-8.53,9.53-18.57-3.34-9-14.87-17.5-25.67-17.5s-22.33,8.54-25.67,17.5c-3.75,10,1.19,18.57,9.53,18.57"/><path class="cls-5" d="M179.91,325.07c8.33,0,13.28-8.53,9.53-18.57-3.35-9-14.87-17.5-25.68-17.5"/><path class="cls-5" d="M212.19,325.07c-8.33,0-13.79-8.7-9.53-18.57,5.53-12.79,21.82-16.49,33.72-17.43,6.61-.52,11.67,5.13,9.73,10.76L213.74,400.64"/></svg>