<svg xmlns="http://www.w3.org/2000/svg" xmlns:xlink="http://www.w3.org/1999/xlink" viewBox="0 0 118.14 206.9"><defs><style>.cls-1{fill:none;}.cls-2{fill:#afafaf;}.cls-3{fill:#fbfbfb;}.cls-4{fill:#595959;}.cls-5{fill:#d2d2d2;}.cls-6{fill:#494949;}.cls-7{clip-path:url(#clip-path);}.cls-8{fill:#fff;}</style><clipPath id="clip-path" transform="translate(-20.34 -3.12)"><rect class="cls-1" width="174" height="201"/></clipPath></defs><title>Asset 7</title><g id="Layer_2" data-name="Layer 2"><g id="Layer_1-2" data-name="Layer 1"><path class="cls-2" d="M98.08,60.69C98,63.87,96.93,61.81,87.2,62c-11.82.24-10.67-1.4-10.74-9.11-.06-5-.16-27.06-.16-27.06l20.39,6.43S98.17,57.49,98.08,60.69Z" transform="translate(-20.34 -3.12)"/><path class="cls-3" d="M97.8,51.27l2.81,8.54S89.14,72.27,89.83,72.74,81.54,62,81.54,62Z" transform="translate(-20.34 -3.12)"/><polygon class="cls-3" points="56.81 68.51 61.2 58.86 55.15 49.1 52.73 55.67 56.81 68.51"/><polygon class="cls-4" points="61.52 58.88 63.41 63.45 62.51 65.21 61.52 67.16 59 63.98 61.52 58.88"/><path class="cls-5" d="M65.48,18.11c0-7.18,4-4.28,13.77-8.62A18.16,18.16,0,0,1,86.67,8a18.66,18.66,0,0,1,10.39,3.24c-.34,11.08-.16,22.18-.46,33.25-1.45,3.87-11.51,12.58-11.51,12.58L74.55,55.92,68.36,45.39l-.57-2.57S65.48,20.87,65.48,18.11Z" transform="translate(-20.34 -3.12)"/><path class="cls-6" d="M96.66,9.19c1.56,4.29,1.76,15.65.48,23.89-.5-3.85-3.28-12.14-3.28-12.14l-26-3.46L66.55,32.8S63.7,13.46,65.12,7.16C67.1-1.49,95.46,6,96.66,9.19Z" transform="translate(-20.34 -3.12)"/><path class="cls-6" d="M100.24,33.41s4.17-10.89,1.67-21.31a13,13,0,0,0-3.38-2.64s.59.88.32,4.51c-.91-4.16-1.62-5-3.27-5.83s.27,19.33.27,19.33l-.14,7.19Z" transform="translate(-20.34 -3.12)"/><path class="cls-5" d="M103.93,32.2c.76,3.55-4.63,12-9.27,9.78,0,0,1.15-8.07,3.26-10.71C100.68,27.84,103.55,30.37,103.93,32.2Z" transform="translate(-20.34 -3.12)"/><g class="cls-7"><path class="cls-6" d="M45.89,75.67c-11,22.59-23,60.42-23,60.42l20.79-2.42c6.39-4.67,8.5-16.91,10.64-22.25,2-4.91,5.14-14.55,5.42-17.84C60.29,86.3,47.32,72.72,45.89,75.67Z" transform="translate(-20.34 -3.12)"/><polygon class="cls-6" points="88.86 150.87 97.49 182.76 87.86 197.88 40.96 195.55 31.07 161.44 88.86 150.87"/><path class="cls-8" d="M136,72.42c-1.26-1-5.47.76-8.08-.81C119.56,66.5,94.21,55,78.69,57.38c-7.35,1.12-10,7.73-17.53,10.7l2,111.85,53.19,13.17-2.88-41.21C117.18,131,139.64,75.22,136,72.42Z" transform="translate(-20.34 -3.12)"/><polygon class="cls-5" points="96.35 160.32 96.03 159.72 97.1 159.97 96.35 160.32"/><path class="cls-4" d="M130.93,135.17c-14.62-1.6-48.64.39-62.87-2.41-2.37,5.5-4.09,14.33-6.72,19.76L121,160.23l7.73-4.33Z" transform="translate(-20.34 -3.12)"/><polygon class="cls-4" points="78.78 53.44 75.77 206.54 104.78 206.9 103.98 100.82 117.84 68.07 78.78 53.44"/><path class="cls-4" d="M73.07,58.79,69.18,79.26q-1.52,62.11-3,124.25l-16.44.37L48,108.93,45.89,75.67Z" transform="translate(-20.34 -3.12)"/><polygon class="cls-3" points="49.33 128.31 59.49 135.59 50.18 136.17 46.95 146.04 35.07 143.06 49.33 128.31"/><polygon class="cls-4" points="62.46 160.44 57.53 152.19 60.13 64.88 62.42 64.46 65.98 150.21 62.46 160.44"/><path class="cls-5" d="M57.62,124.57c-2-2.11-8.18-3.08-8.18-3.08s-6.11-1.25-9.84-.81L37.18,126l-1.32,2.48,12.33,8.16s2.21,2.35,4.34,4.51l9.71-11.39C60.71,128,59.21,126.26,57.62,124.57Z" transform="translate(-20.34 -3.12)"/><polygon class="cls-5" points="65.8 127.04 66.75 123.16 89.01 115.47 100.59 121.39 100.31 131.08 78.85 130.19 65.8 127.04"/><polygon class="cls-3" points="74.06 118.78 58.8 122.31 66.89 125.47 61.81 136.21 78.3 132.84 74.06 118.78"/><path class="cls-4" d="M89.64,121.74c-16.5,2.61-65.11,10-65.62,9.28l-3.68,11.74,20.42,9.65,48.37-11.22,5.51-1.69Q92,130.67,89.64,121.74Z" transform="translate(-20.34 -3.12)"/><path class="cls-4" d="M138.47,70.92c-1.94-1.43-26.08,29.73-26.08,29.73l-7.45,43h25Z" transform="translate(-20.34 -3.12)"/></g></g></g></svg>