<svg id="Layer_1" data-name="Layer 1" xmlns="http://www.w3.org/2000/svg" viewBox="0 0 129.79 226.43"><defs><style>.cls-1{fill:#009fdb;}.cls-2{fill:#0f54af;}.cls-3{fill:#f2f2f2;}.cls-4{fill:#fff;}.cls-5{fill:#30d1ff;}</style></defs><title>busint-architectures</title><rect class="cls-1" width="129.79" height="226.43" rx="0.51" ry="0.51"/><rect class="cls-2" x="5.64" width="7.05" height="226.43"/><rect class="cls-2" x="117.09" width="7.05" height="226.43"/><rect class="cls-3" x="21.16" y="33.81" width="87.47" height="19.75" rx="1.91" ry="1.91"/><rect class="cls-1" x="25.39" y="47.92" width="22.57" height="1.41"/><rect class="cls-2" x="21.16" y="8.16" width="87.47" height="19.75" rx="1.91" ry="1.91"/><rect class="cls-4" x="25.39" y="22.27" width="22.57" height="1.41"/><rect class="cls-3" x="21.16" y="59.46" width="87.47" height="19.75" rx="1.91" ry="1.91"/><rect class="cls-1" x="25.39" y="73.56" width="22.57" height="1.41"/><rect class="cls-3" x="21.16" y="85.1" width="87.47" height="19.75" rx="1.91" ry="1.91"/><rect class="cls-1" x="25.39" y="99.21" width="22.57" height="1.41"/><rect class="cls-3" x="21.16" y="110.75" width="87.47" height="19.75" rx="1.91" ry="1.91"/><rect class="cls-1" x="25.39" y="124.86" width="22.57" height="1.41"/><rect class="cls-4" x="25.39" y="185.52" width="80.41" height="2.82"/><rect class="cls-4" x="25.39" y="195.4" width="80.41" height="2.82"/><rect class="cls-4" x="25.39" y="203.86" width="80.41" height="2.82"/><circle class="cls-5" cx="64.89" cy="155.9" r="8.46"/></svg>