<svg id="Layer_1" data-name="Layer 1" xmlns="http://www.w3.org/2000/svg" viewBox="0 0 222.86 197.51"><defs><style>.cls-1,.cls-3{fill:#0f54af;}.cls-2{fill:#18b9ed;}.cls-3{opacity:0.33;}</style></defs><title>busint-up-down</title><polygon class="cls-1" points="36.01 51.19 11.13 90.47 22.45 90.34 23.29 163.84 51.29 163.52 50.45 90.03 61.78 89.9 36.01 51.19"/><polygon class="cls-1" points="81.77 29.67 56.88 68.95 68.21 68.82 69.05 142.32 97.05 142 96.21 68.51 107.54 68.38 81.77 29.67"/><polygon class="cls-1" points="197.09 57.36 172.21 96.65 183.53 96.52 184.37 170.01 212.37 169.69 211.53 96.2 222.86 96.07 197.09 57.36"/><polygon class="cls-2" points="127.71 112.65 152.6 73.37 141.27 73.5 140.44 0 112.44 0.32 113.27 73.81 101.94 73.94 127.71 112.65"/><polygon class="cls-1" points="153.4 84.86 128.51 124.14 139.84 124.02 140.68 197.51 168.68 197.19 167.84 123.7 179.17 123.57 153.4 84.86"/><polygon class="cls-3" points="7.88 95.33 0 107.77 3.58 107.72 3.85 130.98 12.71 130.88 12.45 107.62 16.03 107.58 7.88 95.33"/><polygon class="cls-3" points="120.77 124.41 112.89 136.84 116.48 136.8 116.74 160.06 125.6 159.96 125.34 136.7 128.93 136.66 120.77 124.41"/><polygon class="cls-3" points="164.27 38.63 156.39 51.06 159.98 51.02 160.24 74.28 169.1 74.18 168.84 50.92 172.42 50.88 164.27 38.63"/></svg>