<svg id="Layer_1" data-name="Layer 1" xmlns="http://www.w3.org/2000/svg" xmlns:xlink="http://www.w3.org/1999/xlink" viewBox="0 0 383.53 288.54"><defs><style>.cls-1,.cls-4,.cls-5,.cls-7{fill:none;}.cls-2{fill:#009fdb;}.cls-3{fill:#0f54af;}.cls-4{stroke:#0f54af;}.cls-4,.cls-5{stroke-linecap:round;stroke-linejoin:round;}.cls-5{stroke:#009fdb;}.cls-6{fill:#2a98d3;}.cls-7{stroke:#336ebb;stroke-miterlimit:10;stroke-width:6px;}.cls-8{fill:#737373;}.cls-9{fill:#a5a5a5;}.cls-10{clip-path:url(#clip-path);}.cls-11{fill:#e4e4e4;}.cls-12{clip-path:url(#clip-path-2);}.cls-13{clip-path:url(#clip-path-3);}.cls-14{clip-path:url(#clip-path-4);}</style><clipPath id="clip-path"><circle class="cls-1" cx="274.03" cy="58.84" r="47.5"/></clipPath><clipPath id="clip-path-2"><circle class="cls-1" cx="185.53" cy="163.34" r="29"/></clipPath><clipPath id="clip-path-3"><circle class="cls-1" cx="346" cy="222.34" r="29"/></clipPath><clipPath id="clip-path-4"><circle class="cls-1" cx="85.03" cy="83.84" r="37.5"/></clipPath></defs><title>magnifying-glasses</title><circle class="cls-2" cx="198.98" cy="10.48" r="10.28"/><circle class="cls-2" cx="210.2" cy="184.39" r="10.28"/><circle class="cls-2" cx="324.27" cy="47.88" r="10.28"/><circle class="cls-3" cx="238.25" cy="19.83" r="4.67"/><circle class="cls-3" cx="292.48" cy="40.4" r="4.67"/><circle class="cls-3" cx="290.61" cy="133.9" r="4.67"/><circle class="cls-3" cx="185.89" cy="143.25" r="4.67"/><circle class="cls-3" cx="311.18" cy="180.65" r="4.67"/><circle class="cls-3" cx="337.36" cy="240.49" r="4.67"/><circle class="cls-3" cx="90.52" cy="234.88" r="4.67"/><circle class="cls-3" cx="53.12" cy="103.98" r="4.67"/><circle class="cls-3" cx="245.73" cy="197.48" r="4.67"/><circle class="cls-2" cx="346.71" cy="173.17" r="10.28"/><circle class="cls-2" cx="260.69" cy="261.06" r="10.28"/><circle class="cls-2" cx="28.81" cy="171.3" r="10.28"/><circle class="cls-2" cx="91.46" cy="52.55" r="10.28"/><polyline class="cls-4" points="239.19 22.63 289.68 132.96 244.8 196.54 336.43 239.55 91.46 233.94 291.55 41.33 52.19 103.04 310.25 179.71"/><polyline class="cls-5" points="190.57 15.15 91.46 52.55 211.14 185.32 323.34 48.81 27.88 172.23 261.63 263.86 345.78 174.1"/><rect class="cls-6" x="311.28" y="91.8" width="12" height="20" transform="translate(20.94 254.17) rotate(-45)"/><circle class="cls-7" cx="274.14" cy="58.46" r="50.11"/><rect class="cls-8" x="335.12" y="92.44" width="23" height="76" rx="2.55" ry="2.55" transform="translate(9.29 283.3) rotate(-45)"/><path class="cls-9" d="M373.46,157.34l-6.3,6.3a2.55,2.55,0,0,1-3.6,0L313.42,113.5a2.55,2.55,0,0,1,0-3.6l6.3-6.3"/><rect class="cls-6" x="208.63" y="184.05" width="7.58" height="12.63" transform="translate(-72.39 205.96) rotate(-45)"/><circle class="cls-7" cx="185.17" cy="162.99" r="31.65"/><rect class="cls-8" x="223.69" y="184.45" width="14.53" height="48" rx="2.55" ry="2.55" transform="translate(-79.75 224.36) rotate(-45)"/><path class="cls-9" d="M247.9,225.44l-4,4a1.62,1.62,0,0,1-2.27,0L210,197.75a1.6,1.6,0,0,1,0-2.27l4-4"/><rect class="cls-6" x="46.08" y="110.81" width="9.58" height="15.96" transform="translate(2.84 238.76) rotate(-135)"/><circle class="cls-7" cx="85.3" cy="84.2" r="40"/><rect class="cls-8" x="18.27" y="111.32" width="18.36" height="60.66" rx="2.55" ry="2.55" transform="translate(-53.31 261.22) rotate(-135)"/><path class="cls-9" d="M6,163.12l5,5a2,2,0,0,0,2.88,0l40-40a2,2,0,0,0,0-2.87l-5-5"/><g class="cls-10"><circle class="cls-11" cx="274.03" cy="58.84" r="47.5"/><circle class="cls-2" cx="140.18" cy="-8.6" r="15.05"/><circle class="cls-2" cx="156.6" cy="245.93" r="15.05"/><circle class="cls-2" cx="323.56" cy="46.13" r="15.05"/><circle class="cls-3" cx="197.66" cy="5.08" r="6.84"/><circle class="cls-3" cx="277.03" cy="35.19" r="6.84"/><circle class="cls-3" cx="274.29" cy="172.03" r="6.84"/><circle class="cls-3" cx="121.02" cy="185.72" r="6.84"/><circle class="cls-3" cx="304.4" cy="240.45" r="6.84"/><circle class="cls-3" cx="208.61" cy="265.09" r="6.84"/><circle class="cls-2" cx="356.4" cy="229.51" r="15.05"/><polyline class="cls-4" points="199.03 9.19 272.92 170.66 207.24 263.72 341.35 326.67 -17.19 318.45 275.66 36.55 -74.66 126.87 303.03 239.09"/><polyline class="cls-5" points="127.87 -1.76 -17.19 52.98 157.97 247.3 322.19 47.5 -110.24 228.14 231.87 362.25 355.03 230.87"/></g><g class="cls-12"><circle class="cls-11" cx="185.53" cy="163.34" r="29"/><circle class="cls-2" cx="230.43" cy="228.21" r="19.55"/><circle class="cls-3" cx="383.31" cy="132.21" r="8.89"/><circle class="cls-3" cx="184.21" cy="149.99" r="8.89"/><circle class="cls-3" cx="297.98" cy="253.1" r="8.89"/><polyline class="cls-4" points="285.54 -79.33 381.53 130.44 296.2 251.32 470.42 333.09 4.66 322.43 385.09 -43.78 -70.01 73.55 420.64 219.32"/><polyline class="cls-5" points="193.09 -93.56 4.66 -22.45 232.2 229.99 445.53 -29.56 -116.23 205.1 328.2 379.31 488.19 208.65"/></g><rect class="cls-6" x="315.32" y="243.05" width="7.58" height="12.63" transform="translate(368.43 651.33) rotate(-135)"/><circle class="cls-7" cx="346.35" cy="221.99" r="31.65"/><rect class="cls-8" x="293.31" y="243.45" width="14.53" height="48" rx="2.55" ry="2.55" transform="translate(324 669.1) rotate(-135)"/><path class="cls-9" d="M283.63,284.44l4,4a1.62,1.62,0,0,0,2.27,0l31.66-31.67a1.6,1.6,0,0,0,0-2.27l-4-4"/><g class="cls-13"><circle class="cls-11" cx="346" cy="222.34" r="29"/><circle class="cls-2" cx="156.43" cy="149.21" r="19.55"/><circle class="cls-3" cx="309.31" cy="53.21" r="8.89"/><circle class="cls-3" cx="110.21" cy="70.99" r="8.89"/><circle class="cls-3" cx="348.42" cy="142.1" r="8.89"/><circle class="cls-3" cx="223.98" cy="174.1" r="8.89"/><circle class="cls-2" cx="252.43" cy="294.98" r="19.55"/><polyline class="cls-4" points="211.54 -158.34 307.54 51.44 222.21 172.32 396.42 254.09 -69.34 243.43 311.09 -122.78 -144 -5.45 346.65 140.32"/><polyline class="cls-5" points="119.1 -172.56 -69.34 -101.45 158.21 150.99 371.53 -108.56 -190.22 126.1 254.21 300.31 414.2 129.65"/></g><g class="cls-14"><circle class="cls-11" cx="85.03" cy="83.84" r="37.5"/><circle class="cls-2" cx="226.56" cy="-12.6" r="14.48"/><circle class="cls-2" cx="242.35" cy="232.21" r="14.48"/><circle class="cls-3" cx="281.84" cy="0.56" r="6.58"/><circle class="cls-3" cx="358.18" cy="29.51" r="6.58"/><circle class="cls-3" cx="355.54" cy="161.14" r="6.58"/><circle class="cls-3" cx="208.13" cy="174.3" r="6.58"/><circle class="cls-3" cx="384.5" cy="226.95" r="6.58"/><circle class="cls-3" cx="21.23" cy="119.02" r="6.58"/><circle class="cls-3" cx="292.37" cy="250.64" r="6.58"/><circle class="cls-2" cx="-12.99" cy="213.78" r="14.48"/><circle class="cls-2" cx="75.19" cy="46.63" r="14.48"/><polyline class="cls-4" points="283.15 4.51 354.23 159.82 291.05 249.32 420.04 309.87 75.19 301.97 356.86 30.83 19.91 117.7 383.19 225.63"/><polyline class="cls-5" points="214.71 -6.02 75.19 46.63 243.67 233.53 401.61 41.36 -14.31 215.1 314.74 344.09 433.2 217.73"/></g></svg>