<svg xmlns="http://www.w3.org/2000/svg" viewBox="0 0 142.25 202.45"><defs><style>.cls-1{isolation:isolate;}.cls-2{fill:#4a4948;}.cls-3{fill:#2a98d3;}.cls-4{fill:#336ebb;}.cls-5{fill:#f2f2f2;}.cls-6{fill:#0586cb;}.cls-7{fill:#a5a5a5;}.cls-8{fill:#26ade0;}.cls-9{opacity:0.17;mix-blend-mode:multiply;}.cls-10{fill:#4fd8ff;}</style></defs><title>Asset 1</title><g class="cls-1"><g id="Layer_2" data-name="Layer 2"><g id="Layer_1-2" data-name="Layer 1"><path class="cls-2" d="M31,73.53c.3,0,.54-.14.54-.33V60.56c0-.18-.24-.32-.54-.32h-.66c-.3,0-.54.14-.54.32V73.2c0,.19.24.33.54.33Z"/><path class="cls-2" d="M31,52.28c.3,0,.54-.15.54-.32V39.31c0-.18-.24-.32-.54-.32h-.66c-.3,0-.54.14-.54.32V52c0,.17.24.32.54.32Z"/><path class="cls-2" d="M132.73,54.84c.1,0,.17-.17.17-.38V39.37c0-.21-.07-.38-.17-.38h-.21c-.1,0-.18.17-.18.38V54.46c0,.21.08.38.18.38Z"/><rect class="cls-3" x="30.21" width="102.66" height="202.45" rx="14.66" ry="14.66"/><rect class="cls-4" x="31.72" y="1.11" width="99.64" height="200.34" rx="13.01" ry="13.01"/><rect class="cls-5" x="40.45" y="23.59" width="81.82" height="154.02"/><path class="cls-6" d="M74.57,195.58a5,5,0,0,1,0-10H88.09a5,5,0,0,1,0,10Z"/><path class="cls-3" d="M74.57,194.37a3.79,3.79,0,0,1,0-7.58H88.09a3.79,3.79,0,0,1,0,7.58Z"/><path class="cls-6" d="M90.51,11.56c0-.48-.36-.8-1.44-.8H74.89c-1.08,0-1.44.32-1.44.8s.36.8,1.44.8H89.07C90.15,12.36,90.51,12,90.51,11.56Z"/><path class="cls-6" d="M110.7,14.05a2.81,2.81,0,1,1,2.82-2.81A2.8,2.8,0,0,1,110.7,14.05Z"/><path class="cls-6" d="M110.7,12.92a1.69,1.69,0,1,1,1.69-1.68A1.68,1.68,0,0,1,110.7,12.92Z"/><rect class="cls-7" x="47.6" y="29.74" width="14.07" height="14.07" rx="1.77" ry="1.77"/><rect class="cls-3" x="65.69" y="29.74" width="14.07" height="14.07" rx="1.77" ry="1.77"/><rect class="cls-3" x="83.78" y="29.74" width="14.07" height="14.07" rx="1.77" ry="1.77"/><rect class="cls-3" x="47.6" y="50.85" width="14.07" height="14.07" rx="1.77" ry="1.77"/><rect class="cls-8" x="65.69" y="50.85" width="14.07" height="14.07" rx="1.77" ry="1.77"/><rect class="cls-3" x="47.6" y="71.95" width="14.07" height="14.07" rx="1.77" ry="1.77"/><rect class="cls-7" x="65.69" y="71.95" width="14.07" height="14.07" rx="1.77" ry="1.77"/><rect class="cls-3" x="83.78" y="71.95" width="14.07" height="14.07" rx="1.77" ry="1.77"/><rect class="cls-9" x="12.34" y="85.83" width="7.27" height="7.27" rx="1.38" ry="1.38"/><rect class="cls-3" x="10.59" y="84.08" width="7.27" height="7.27" rx="1.38" ry="1.38"/><rect class="cls-3" x="65.69" y="93.05" width="14.07" height="14.07" rx="1.77" ry="1.77"/><rect class="cls-4" x="83.78" y="93.05" width="14.07" height="14.07" rx="1.77" ry="1.77"/><rect class="cls-4" x="47.6" y="114.15" width="14.07" height="14.07" rx="1.77" ry="1.77"/><rect class="cls-9" x="1.75" y="98.38" width="40.03" height="40.03" rx="1.77" ry="1.77"/><rect class="cls-6" y="100.13" width="40.03" height="40.03" rx="1.77" ry="1.77"/><rect class="cls-3" x="83.78" y="114.15" width="14.07" height="14.07" rx="1.77" ry="1.77"/><rect class="cls-10" x="24.23" y="149.28" width="14.07" height="14.07" rx="1.77" ry="1.77"/><rect class="cls-8" x="65.69" y="135.26" width="14.07" height="14.07" rx="1.77" ry="1.77"/><rect class="cls-3" x="83.78" y="135.26" width="14.07" height="14.07" rx="1.77" ry="1.77"/><rect class="cls-4" x="102.48" y="29.74" width="14.07" height="14.07" rx="1.77" ry="1.77"/><rect class="cls-7" x="102.48" y="50.85" width="14.07" height="14.07" rx="1.77" ry="1.77"/><rect class="cls-3" x="102.48" y="71.95" width="14.07" height="14.07" rx="1.77" ry="1.77"/><rect class="cls-3" x="102.48" y="93.05" width="14.07" height="14.07" rx="1.77" ry="1.77"/><rect class="cls-8" x="102.48" y="114.15" width="14.07" height="14.07" rx="1.77" ry="1.77"/><rect class="cls-9" x="109.49" y="134.09" width="31.6" height="31.6" rx="1.77" ry="1.77"/><rect class="cls-3" x="110.66" y="135.26" width="31.6" height="31.6" rx="1.77" ry="1.77"/></g></g></g></svg>