<svg xmlns="http://www.w3.org/2000/svg" xmlns:xlink="http://www.w3.org/1999/xlink" viewBox="0 0 285.22 254.55"><defs><style>.cls-1,.cls-12,.cls-5,.cls-6,.cls-7{fill:none;}.cls-2{fill:#e4e4e4;}.cls-3{fill:#0f54af;}.cls-4{fill:#fff;}.cls-12,.cls-5{stroke:#009fdb;}.cls-5,.cls-6,.cls-7{stroke-linecap:round;stroke-linejoin:round;stroke-width:4px;}.cls-5{opacity:0.4;}.cls-6,.cls-7{stroke:#d2d2d2;}.cls-7{opacity:0.6;}.cls-8{fill:#0a6ebe;}.cls-9{opacity:0.31;}.cls-10{clip-path:url(#clip-path);}.cls-11{fill:#71c5e8;}.cls-12{stroke-width:3px;}</style><clipPath id="clip-path"><path class="cls-1" d="M104.34,127.28c0,5.25-2.09,7.29-3.5,9.35-4.57,6.66-11.66,12.37-23.38,24.1s-20.38,21.14-25.09,33.52S49.79,226.52,54,230.74h107c4.22-4.22,6.35-24.11,1.64-36.49s-13.36-21.81-25.09-33.52-18.81-17.44-23.38-24.1c-1.41-2.06-3.5-4.1-3.5-9.35s2.09-7.3,3.5-9.36c4.57-6.66,11.66-12.37,23.38-24.09S158,72.68,162.69,60.31s2.58-32.28-1.64-36.5H54c-4.22,4.22-6.36,24.12-1.64,36.5s13.36,21.8,25.09,33.52,18.81,17.43,23.38,24.09C102.25,120,104.34,122,104.34,127.28Z"/></clipPath></defs><title>Asset 4</title><g id="Layer_2" data-name="Layer 2"><g id="Layer_1-2" data-name="Layer 1"><rect class="cls-2" x="87.22" y="102" width="198" height="35" rx="4.46" ry="4.46"/><path class="cls-3" d="M102.44,121.75l-2.33,4.18-3.52-2.37L99.81,120l-4.59-1.11,1.45-4,4.18,2-.55-4.74h4.29L104,116.9l4.19-2,1.44,4L105.07,120l3.22,3.59-3.52,2.37Z"/><path class="cls-3" d="M121,121.75l-2.33,4.18-3.52-2.37,3.22-3.59-4.59-1.11,1.45-4,4.18,2-.56-4.74h4.3l-.56,4.74,4.18-2,1.45,4L123.58,120l3.22,3.59-3.52,2.37Z"/><path class="cls-3" d="M139.46,121.75l-2.33,4.18-3.52-2.37,3.22-3.59-4.59-1.11,1.44-4,4.18,2-.55-4.74h4.29l-.55,4.74,4.18-2,1.44,4L142.08,120l3.22,3.59-3.51,2.37Z"/><path class="cls-3" d="M158,121.75l-2.33,4.18-3.51-2.37,3.22-3.59-4.59-1.11,1.44-4,4.18,2-.55-4.74h4.29l-.55,4.74,4.18-2,1.44,4L160.59,120l3.22,3.59-3.51,2.37Z"/><path class="cls-4" d="M176.47,121.75l-2.33,4.18-3.52-2.37,3.22-3.59-4.59-1.11,1.45-4,4.18,2-.55-4.74h4.29l-.56,4.74,4.19-2,1.44,4L179.1,120l3.22,3.59-3.52,2.37Z"/><path class="cls-4" d="M195,121.75l-2.33,4.18-3.52-2.37,3.22-3.59-4.59-1.11,1.44-4,4.19,2-.56-4.74h4.29l-.55,4.74,4.18-2,1.45,4L197.61,120l3.22,3.59-3.52,2.37Z"/><path class="cls-4" d="M213.49,121.75l-2.34,4.18-3.51-2.37,3.22-3.59-4.59-1.11,1.44-4,4.18,2-.55-4.74h4.29l-.55,4.74,4.18-2,1.44,4L216.11,120l3.22,3.59-3.51,2.37Z"/><path class="cls-4" d="M232,121.75l-2.33,4.18-3.51-2.37,3.22-3.59-4.59-1.11,1.44-4,4.18,2-.55-4.74h4.29l-.55,4.74,4.18-2,1.44,4L234.62,120l3.22,3.59-3.52,2.37Z"/><path class="cls-4" d="M250.5,121.75l-2.33,4.18-3.52-2.37,3.22-3.59-4.59-1.11,1.45-4,4.18,2-.56-4.74h4.3l-.56,4.74,4.18-2,1.45,4L253.13,120l3.22,3.59-3.52,2.37Z"/><path class="cls-4" d="M269,122.59l-2.33,4.18-3.52-2.37,3.22-3.59-4.59-1.11,1.44-4,4.19,2-.56-4.74h4.29l-.55,4.74,4.18-2,1.44,4-4.58,1.11,3.22,3.59-3.52,2.37Z"/><line class="cls-5" x1="160.81" y1="216.05" x2="194.01" y2="216.05"/><line class="cls-5" x1="196.44" y1="189.33" x2="189.15" y2="189.33"/><line class="cls-5" x1="181.05" y1="189.33" x2="160.81" y2="189.33"/><line class="cls-5" x1="134.9" y1="146.41" x2="104.94" y2="146.41"/><line class="cls-5" x1="186.72" y1="146.41" x2="173.76" y2="146.41"/><line class="cls-5" x1="165.67" y1="146.41" x2="145.42" y2="146.41"/><line class="cls-5" x1="145.42" y1="173.13" x2="185.91" y2="173.13"/><line class="cls-5" x1="194.82" y1="173.13" x2="202.1" y2="173.13"/><line class="cls-5" x1="147.04" y1="160.18" x2="136.52" y2="160.18"/><line class="cls-6" x1="198.87" y1="63.01" x2="165.67" y2="63.01"/><line class="cls-7" x1="155.14" y1="63.01" x2="142.19" y2="63.01"/><line class="cls-7" x1="134.09" y1="63.01" x2="113.85" y2="63.01"/><line class="cls-7" x1="113.85" y1="89.73" x2="154.33" y2="89.73"/><line class="cls-6" x1="163.24" y1="89.73" x2="170.53" y2="89.73"/><line class="cls-7" x1="160.81" y1="76.78" x2="122.75" y2="76.78"/><line class="cls-7" x1="115.46" y1="76.78" x2="104.94" y2="76.78"/><line class="cls-6" x1="181.86" y1="76.78" x2="171.34" y2="76.78"/><line class="cls-7" x1="113.85" y1="34.67" x2="154.33" y2="34.67"/><line class="cls-6" x1="163.24" y1="34.67" x2="170.53" y2="34.67"/><line class="cls-6" x1="178.62" y1="34.67" x2="198.87" y2="34.67"/><line class="cls-7" x1="164.86" y1="50.86" x2="157.57" y2="50.86"/><line class="cls-7" x1="149.47" y1="50.86" x2="129.23" y2="50.86"/><g id="Sandglass"><path class="cls-8" d="M162.8,16.22v5.84a1.76,1.76,0,0,1-1.75,1.75H54a1.76,1.76,0,0,1-1.75-1.75V16.22Z"/><path class="cls-8" d="M162.8,238.34v-5.85a1.76,1.76,0,0,0-1.75-1.75H54a1.76,1.76,0,0,0-1.75,1.75v5.85Z"/><path class="cls-3" d="M176.26,16.22H38.8a3.36,3.36,0,0,1-3.17-3.51V3.51A3.35,3.35,0,0,1,38.8,0H176.26a3.35,3.35,0,0,1,3.17,3.51v9.2A3.36,3.36,0,0,1,176.26,16.22Z"/><path class="cls-3" d="M176.26,238.34H38.8a3.34,3.34,0,0,0-3.17,3.5v9.21a3.35,3.35,0,0,0,3.17,3.5H176.26a3.35,3.35,0,0,0,3.17-3.5v-9.21A3.34,3.34,0,0,0,176.26,238.34Z"/><g class="cls-9"><path class="cls-4" d="M104.34,127.28c0,5.25-2.09,7.29-3.5,9.35-4.57,6.66-11.66,12.37-23.38,24.1s-20.38,21.14-25.09,33.52S49.79,226.52,54,230.74h107c4.22-4.22,6.35-24.11,1.64-36.49s-13.36-21.81-25.09-33.52-18.81-17.44-23.38-24.1c-1.41-2.06-3.5-4.1-3.5-9.35s2.09-7.3,3.5-9.36c4.57-6.66,11.66-12.37,23.38-24.09S158,72.68,162.69,60.31s2.58-32.28-1.64-36.5H54c-4.22,4.22-6.36,24.12-1.64,36.5s13.36,21.8,25.09,33.52,18.81,17.43,23.38,24.09C102.25,120,104.34,122,104.34,127.28Z"/></g><g class="cls-10"><path class="cls-11" d="M178.79,198.38l-.33-.27c-23.56-19.07-57.13-45.68-66.78-53.32a9.68,9.68,0,0,0-4.15-2.13,9.68,9.68,0,0,0-4.15,2.13C93.73,152.43,60.17,179,36.6,198.11l-.32.27C22.2,209.77,10.06,220,0,230.48c1.33,4.51,3,8,4.83,9.89h205.4c1.87-1.86,3.5-5.38,4.83-9.89C205,220,192.85,209.77,178.79,198.38Z"/></g><path class="cls-12" d="M104.34,127.28c0,5.25-2.09,7.29-3.5,9.35-4.57,6.66-11.66,12.37-23.38,24.1s-20.38,21.14-25.09,33.52S49.79,226.52,54,230.74h107c4.22-4.22,6.35-24.11,1.64-36.49s-13.36-21.81-25.09-33.52-18.81-17.44-23.38-24.1c-1.41-2.06-3.5-4.1-3.5-9.35s2.09-7.3,3.5-9.36c4.57-6.66,11.66-12.37,23.38-24.09S158,72.68,162.69,60.31s2.58-32.28-1.64-36.5H54c-4.22,4.22-6.36,24.12-1.64,36.5s13.36,21.8,25.09,33.52,18.81,17.43,23.38,24.09C102.25,120,104.34,122,104.34,127.28Z"/></g></g></g></svg>